<?xml version="1.0" standalone="no"?>
<!DOCTYPE svg PUBLIC "-//W3C//DTD SVG 20010904//EN"
 "http://www.w3.org/TR/2001/REC-SVG-20010904/DTD/svg10.dtd">
<svg version="1.0" xmlns="http://www.w3.org/2000/svg"
 width="1116.000000pt" height="717.000000pt" viewBox="0 0 1116.000000 717.000000"
 preserveAspectRatio="xMidYMid meet">
<metadata>
Created by potrace 1.15, written by Peter Selinger 2001-2017
</metadata>
<g transform="translate(0.000000,717.000000) scale(0.10000,-0.10000)"
fill="#000000" stroke="none">
<path d="M5040 7031 c-25 -5 -79 -13 -120 -20 -41 -6 -86 -16 -100 -21 -14 -5
-43 -14 -65 -19 -132 -31 -400 -155 -512 -236 -23 -17 -51 -37 -64 -45 -118
-79 -313 -266 -412 -395 -82 -108 -246 -393 -247 -433 -1 -4 -9 -25 -20 -47
-11 -22 -19 -45 -20 -51 0 -7 -7 -25 -15 -40 -8 -16 -15 -37 -15 -47 0 -10 -5
-28 -12 -40 -11 -21 -20 -58 -54 -207 -30 -136 -36 -201 -35 -405 1 -206 4
-245 35 -395 23 -113 85 -311 115 -368 5 -9 35 -69 66 -132 31 -63 70 -134 86
-158 16 -24 29 -45 29 -48 0 -3 15 -25 33 -48 17 -24 39 -54 47 -66 29 -45
143 -163 252 -262 108 -98 312 -231 468 -305 78 -36 105 -48 210 -89 19 -8 53
-18 75 -23 22 -6 85 -21 140 -34 117 -28 326 -57 440 -60 l80 -2 0 -50 c0 -43
6 -57 43 -107 47 -61 61 -71 83 -57 28 18 47 8 88 -46 22 -30 41 -57 41 -60 0
-3 9 -26 20 -51 18 -38 20 -56 14 -132 -6 -87 -6 -88 19 -105 15 -9 46 -17 69
-17 31 0 67 -12 128 -44 107 -55 153 -63 225 -41 60 19 89 44 83 72 -3 14 -12
17 -45 15 -53 -4 -82 14 -188 117 -69 67 -155 182 -155 208 0 6 -31 76 -56
126 -22 44 -17 64 21 94 19 15 35 31 35 34 0 3 -16 27 -35 52 -19 25 -35 48
-35 50 0 2 24 14 53 27 68 30 266 127 292 142 78 48 122 74 137 83 9 6 49 32
88 59 75 52 93 81 40 66 -16 -5 -35 -12 -42 -17 -46 -29 -298 -103 -352 -103
-9 0 -16 11 -18 28 -3 25 -6 27 -47 24 -33 -2 -52 3 -73 18 -15 11 -36 20 -47
20 -11 0 -22 4 -25 9 -4 5 -26 19 -51 31 -51 25 -97 74 -127 136 -25 50 -18
65 39 89 28 12 33 19 33 48 0 61 -27 122 -62 138 -41 18 -44 30 -13 63 14 15
25 31 25 37 0 5 24 9 54 9 55 0 66 8 66 49 0 10 9 30 20 44 21 26 27 77 10 77
-5 0 -14 9 -20 19 -8 15 -2 33 28 85 20 36 45 67 54 69 9 3 32 29 51 58 19 30
44 62 55 72 11 10 23 31 27 45 11 45 72 115 245 285 163 159 312 290 500 436
52 41 97 77 100 80 3 3 25 20 50 36 25 17 50 33 55 38 53 40 108 79 148 103
27 16 59 36 72 44 12 8 49 31 80 50 31 19 69 42 84 52 28 18 222 114 284 141
20 9 56 20 80 24 59 9 107 31 107 48 0 18 -55 20 -97 4 -15 -6 -41 -15 -58
-19 -128 -35 -343 -144 -545 -276 -41 -27 -82 -53 -91 -59 -53 -33 -183 -127
-309 -223 -37 -29 -150 -123 -240 -200 -183 -157 -473 -446 -494 -492 -14 -32
-52 -25 -65 10 -13 39 -22 38 -46 -7 -11 -20 -32 -44 -47 -53 -32 -19 -62 -56
-72 -88 -12 -38 -45 -50 -153 -58 -92 -6 -105 -5 -143 15 -58 30 -133 29 -176
-4 -33 -25 -68 -32 -78 -16 -3 5 -21 12 -40 15 -20 4 -48 13 -63 21 -15 8 -33
15 -40 15 -17 0 -92 89 -99 117 -9 34 0 38 47 23 38 -13 42 -12 55 5 8 10 14
27 14 37 0 10 4 18 10 18 5 0 12 11 16 25 3 13 12 29 20 36 19 15 18 48 -2 70
-20 22 -8 64 31 111 42 49 31 100 -35 172 -25 27 -70 58 -118 81 -71 35 -84
38 -175 40 -88 2 -105 6 -161 34 l-63 32 -44 -17 c-63 -25 -85 -43 -123 -99
-41 -60 -59 -139 -50 -215 4 -37 2 -65 -6 -79 -15 -29 -45 -23 -45 9 0 38 -32
38 -40 0 -9 -39 33 -123 63 -128 11 -2 22 -12 25 -23 8 -29 43 -23 74 12 16
17 37 35 48 39 19 7 46 50 59 93 8 24 26 12 26 -16 1 -23 52 -87 70 -87 5 0
10 -4 10 -9 0 -4 -12 -6 -27 -3 -25 5 -26 4 -20 -31 5 -33 2 -39 -26 -59 -54
-38 -107 -117 -107 -160 0 -13 -7 -45 -15 -72 -8 -27 -15 -81 -15 -120 0 -136
-24 -127 -106 42 -85 176 -94 198 -94 219 0 10 -4 23 -9 29 -5 5 -14 32 -21
59 -6 28 -18 75 -25 105 -8 30 -18 73 -24 95 -54 227 -50 631 9 855 22 86 54
185 67 210 7 14 13 30 13 36 0 30 135 272 197 355 72 95 200 229 290 305 41
34 212 152 278 191 27 16 108 55 170 82 28 12 58 26 67 32 10 5 34 13 55 18
21 5 52 14 68 19 97 32 136 42 163 42 37 0 87 18 78 27 -4 4 -28 13 -54 21
-55 15 -433 25 -502 13z m684 -2748 c-11 -28 -26 -45 -47 -54 -18 -8 -41 -29
-52 -46 -38 -62 -100 -55 -100 12 0 33 4 38 35 50 19 7 46 18 60 24 35 17 82
41 100 50 21 12 22 9 4 -36z m-422 -415 c-5 -159 -3 -186 12 -222 14 -33 19
-37 38 -31 74 22 88 17 88 -37 0 -63 -20 -72 -78 -33 -20 14 -43 25 -52 25 -8
0 -27 6 -41 14 -14 7 -37 16 -52 20 -33 8 -35 31 -7 86 11 22 20 49 20 60 0
12 5 30 10 41 6 10 15 45 21 76 6 32 13 62 16 66 12 20 26 -17 25 -65z"/>
<path d="M430 2275 c-10 -12 -10 -24 -2 -53 6 -20 18 -64 27 -97 17 -61 46
-165 70 -245 19 -67 43 -153 61 -217 8 -32 22 -80 29 -108 29 -102 56 -201 70
-250 7 -27 20 -75 29 -105 20 -70 53 -191 70 -255 38 -141 36 -136 71 -151 22
-9 70 -14 129 -14 l94 0 16 41 c9 23 24 69 32 103 8 33 23 93 35 131 11 39 24
86 28 105 15 63 101 374 116 420 8 25 15 53 15 62 0 24 30 98 40 98 5 0 13
-19 18 -42 6 -24 15 -56 21 -73 6 -16 17 -55 26 -85 8 -30 24 -89 35 -130 12
-41 28 -100 36 -130 8 -30 21 -79 29 -107 8 -29 21 -77 29 -105 8 -29 22 -76
30 -104 8 -27 18 -69 22 -91 11 -69 38 -86 147 -91 117 -5 142 4 152 55 3 21
13 58 20 83 7 25 20 72 29 105 9 33 23 83 30 110 8 28 28 104 45 170 18 66 38
143 46 170 8 28 21 75 29 105 7 30 21 82 31 115 9 33 27 101 40 150 12 50 36
140 53 200 56 209 57 216 36 232 -14 10 -47 13 -124 11 l-105 -3 -22 -70 c-11
-38 -28 -97 -37 -130 -57 -221 -68 -265 -77 -304 -5 -25 -14 -59 -19 -75 -6
-17 -21 -76 -34 -131 -52 -217 -83 -312 -97 -298 -4 4 -19 53 -32 108 -14 55
-35 136 -47 180 -12 44 -26 96 -30 115 -4 19 -19 78 -33 130 -41 149 -78 290
-92 345 -7 28 -21 68 -31 90 l-19 40 -99 0 c-78 0 -101 -3 -107 -15 -22 -43
-39 -85 -39 -100 0 -9 -9 -48 -20 -86 -28 -91 -67 -230 -95 -331 -8 -29 -22
-77 -30 -105 -8 -29 -23 -87 -35 -128 -11 -41 -27 -97 -35 -125 -8 -27 -17
-63 -20 -78 -5 -27 -29 -46 -42 -34 -3 4 -9 23 -13 44 -7 34 -17 71 -66 253
-8 30 -21 80 -28 110 -12 49 -39 147 -82 295 -8 28 -19 70 -25 95 -22 97 -30
121 -51 165 l-22 45 -107 0 c-83 0 -109 -3 -119 -15z"/>
<path d="M5134 2280 c-12 -5 -24 -15 -27 -23 -9 -23 -8 -1431 1 -1445 16 -24
79 -32 262 -32 273 0 400 19 516 78 119 60 128 66 226 167 41 41 72 86 102
150 61 125 78 196 83 355 5 141 -12 256 -54 362 -39 101 -161 250 -228 279
-11 5 -27 13 -35 18 -84 53 -182 78 -350 90 -177 13 -465 13 -496 1z m574
-255 c175 -41 268 -133 313 -307 18 -70 21 -101 16 -198 -3 -63 -11 -131 -17
-150 -46 -131 -121 -229 -212 -276 -110 -56 -123 -59 -287 -59 l-156 0 -3 490
c-1 270 0 496 3 503 7 18 262 16 343 -3z"/>
<path d="M2674 1845 c-160 -39 -277 -161 -338 -351 -25 -78 -22 -289 5 -374
52 -168 161 -283 315 -336 72 -24 223 -22 300 3 93 32 115 46 185 120 108 114
149 228 149 411 0 108 -15 184 -55 277 -34 78 -128 175 -210 218 -87 44 -243
59 -351 32z m286 -211 c101 -67 150 -210 131 -382 -11 -94 -28 -142 -72 -197
-46 -57 -71 -74 -135 -91 -99 -26 -184 -11 -251 42 -84 68 -117 154 -117 304
0 111 14 168 61 240 31 49 44 63 77 84 47 30 76 36 171 33 82 -2 95 -6 135
-33z"/>
<path d="M10317 1844 c-98 -24 -177 -90 -220 -186 -25 -54 -22 -139 8 -203 39
-86 97 -137 247 -218 150 -81 182 -112 182 -179 1 -64 -66 -108 -163 -108 -46
0 -151 29 -211 59 -31 15 -61 26 -68 23 -8 -2 -12 -32 -12 -92 0 -88 0 -89 31
-111 55 -39 141 -59 253 -59 136 0 211 24 277 90 68 68 89 115 89 199 0 144
-77 237 -288 347 -123 65 -162 103 -162 160 0 51 34 90 89 100 53 10 194 -2
229 -20 44 -23 89 -21 97 4 12 37 -6 147 -26 166 -41 37 -249 54 -352 28z"/>
<path d="M3427 1833 c-4 -3 -7 -235 -7 -513 0 -403 3 -510 13 -518 7 -6 42
-14 77 -17 105 -11 104 -13 101 201 -1 98 1 187 4 197 10 25 77 23 118 -4 46
-30 125 -141 164 -229 3 -8 24 -45 45 -82 44 -75 67 -88 154 -88 34 0 58 5 68
16 14 14 13 21 -14 72 -17 31 -39 71 -50 87 -10 17 -31 52 -45 79 -14 27 -39
68 -54 92 -16 23 -32 51 -35 62 -4 11 -15 27 -26 37 -11 10 -20 22 -20 28 0 5
24 33 54 63 73 71 96 125 96 223 0 92 -26 155 -88 217 -73 72 -122 84 -351 84
-109 0 -201 -3 -204 -7z m370 -185 c60 -25 73 -46 73 -114 0 -78 -26 -115
-100 -139 -52 -17 -122 -14 -147 7 -16 13 -18 194 -3 232 9 25 14 26 79 26 39
0 83 -5 98 -12z"/>
<path d="M4257 1825 c-4 -8 -7 -237 -7 -508 0 -384 3 -497 13 -510 17 -25 147
-36 164 -15 9 10 13 71 15 189 3 145 5 174 18 176 8 1 44 -34 80 -78 36 -44
72 -88 80 -97 8 -9 44 -53 78 -97 35 -44 71 -84 79 -89 9 -5 56 -11 104 -14
l88 -5 7 27 c5 22 -2 36 -42 82 -27 31 -60 70 -74 88 -14 18 -68 84 -120 147
-135 161 -160 195 -160 214 0 15 118 165 156 200 6 6 36 42 67 82 31 39 61 74
67 78 21 13 82 116 76 130 -4 12 -25 15 -95 15 l-90 0 -53 -64 c-29 -35 -69
-83 -88 -107 -84 -104 -153 -179 -165 -179 -10 0 -12 29 -11 127 1 70 -3 148
-10 173 l-11 45 -80 3 c-65 2 -82 0 -86 -13z"/>
<path d="M6457 1834 c-4 -4 -7 -236 -7 -514 0 -409 3 -510 13 -519 8 -6 45
-13 83 -17 54 -5 72 -3 82 8 8 10 12 76 14 209 l3 194 34 3 c91 9 149 -58 293
-339 33 -65 50 -73 141 -74 76 0 82 2 85 21 2 12 -10 44 -26 71 -35 60 -75
129 -115 203 -16 30 -47 81 -68 112 -22 32 -39 64 -39 71 0 7 17 26 38 41 138
105 149 335 21 453 -77 72 -99 77 -334 81 -116 2 -214 0 -218 -4z m357 -185
c43 -12 81 -47 90 -85 10 -37 -12 -102 -44 -134 -46 -45 -165 -61 -207 -27
-14 10 -19 210 -7 241 7 19 106 22 168 5z"/>
<path d="M7286 1832 c-5 -8 -8 -420 -6 -885 l0 -138 35 -15 c52 -21 517 -21
535 1 9 10 16 12 25 5 6 -5 50 -13 97 -16 67 -5 87 -4 94 7 11 18 62 161 76
212 7 26 19 42 35 48 13 5 89 9 167 9 163 0 159 2 196 -90 35 -87 48 -123 55
-147 7 -27 57 -43 132 -43 70 0 83 20 53 86 -11 26 -20 52 -20 58 0 6 -7 23
-14 38 -8 16 -26 61 -40 100 -89 256 -225 623 -259 703 -32 76 -31 75 -118 75
-78 0 -80 -1 -89 -27 -6 -16 -14 -35 -19 -43 -5 -9 -12 -31 -16 -50 -4 -19
-11 -39 -15 -45 -4 -5 -13 -26 -18 -45 -6 -19 -20 -60 -32 -90 -40 -104 -51
-135 -62 -170 -5 -19 -14 -39 -18 -45 -4 -5 -13 -26 -18 -45 -6 -19 -20 -60
-32 -90 -12 -30 -25 -68 -30 -85 -5 -16 -18 -55 -30 -85 -12 -30 -27 -71 -35
-90 -7 -19 -21 -51 -31 -70 l-18 -35 -11 70 -10 70 -185 6 c-102 3 -186 6
-187 7 -2 1 -3 53 -3 115 0 75 4 117 12 125 8 8 58 12 159 12 114 0 151 3 162
14 17 17 14 131 -4 152 -9 11 -45 14 -149 14 -184 0 -182 -2 -178 140 l3 105
180 6 c99 3 181 6 183 7 8 7 0 150 -10 160 -14 14 -533 18 -542 4z m1056 -329
c10 -9 18 -21 18 -27 1 -6 9 -29 20 -51 11 -22 19 -47 20 -55 0 -9 6 -25 14
-36 8 -11 16 -35 18 -54 l3 -35 -75 -3 c-129 -5 -139 6 -101 104 11 27 27 77
37 112 10 34 20 62 23 62 2 0 13 -7 23 -17z"/>
<path d="M8887 1833 c-4 -3 -7 -235 -7 -513 0 -441 2 -509 15 -520 21 -17 150
-26 159 -11 4 6 7 146 7 311 l1 299 24 -26 c13 -14 24 -34 24 -43 0 -10 7 -23
15 -30 8 -7 15 -17 15 -23 0 -9 130 -317 151 -357 4 -8 19 -40 32 -71 22 -51
28 -57 61 -62 61 -10 79 6 116 96 18 45 48 115 66 155 19 40 34 77 34 83 0 6
7 23 15 37 8 15 24 50 35 77 12 28 28 64 36 82 8 17 14 36 14 43 0 6 6 10 13
8 9 -4 13 -72 17 -281 3 -151 8 -278 12 -282 10 -10 79 -24 120 -25 70 0 67
-26 65 532 -1 277 -6 509 -10 516 -6 8 -36 12 -93 12 -83 0 -124 -10 -124 -31
0 -6 -9 -31 -21 -57 -19 -44 -26 -60 -63 -144 -8 -18 -31 -68 -50 -111 -20
-42 -36 -81 -36 -86 0 -5 -11 -31 -24 -58 -13 -26 -38 -82 -56 -123 -43 -99
-62 -113 -78 -57 -9 30 -52 136 -91 222 -10 22 -31 72 -46 110 -44 109 -123
285 -140 311 -14 22 -21 24 -109 24 -51 0 -96 -3 -99 -7z"/>
<path d="M10548 654 c-4 -3 -2673 -13 -5358 -19 -1196 -3 -2258 -8 -2360 -10
-102 -2 -780 -7 -1507 -11 l-1323 -7 0 -28 0 -27 113 3 c61 2 1165 6 2452 9
3169 8 5983 21 6830 31 187 2 661 4 1053 5 l712 0 0 30 0 31 -305 -2 c-168 -1
-306 -3 -307 -5z"/>
<path d="M1634 415 c-17 -8 -45 -30 -62 -50 -29 -32 -32 -42 -32 -101 0 -73
19 -110 78 -146 27 -17 42 -19 80 -13 26 3 65 6 87 6 37 -1 42 2 63 39 20 35
27 40 57 40 30 0 38 -6 60 -40 46 -74 87 -39 51 43 -8 18 -26 67 -42 110 -33
96 -52 122 -81 113 -20 -6 -42 -53 -63 -135 -5 -18 -13 -38 -19 -44 -6 -6 -11
-21 -11 -33 0 -30 -6 -33 -85 -36 -63 -2 -69 0 -91 25 -24 28 -30 68 -18 114
9 34 52 56 108 57 44 1 51 4 51 21 0 39 -72 56 -131 30z"/>
<path d="M3735 413 c-43 -23 -55 -43 -52 -83 2 -28 10 -40 47 -67 89 -64 97
-77 56 -93 -15 -5 -37 -5 -58 0 -47 14 -67 -7 -39 -41 16 -20 28 -24 76 -24
50 0 60 3 81 28 46 54 20 118 -66 162 -21 11 -30 23 -30 40 0 27 20 35 75 32
42 -3 46 27 6 47 -37 20 -58 20 -96 -1z"/>
<path d="M3976 407 c-63 -36 -81 -68 -81 -145 0 -71 13 -98 63 -136 55 -42
162 -26 162 24 0 18 -7 20 -64 20 -45 0 -69 5 -80 16 -39 39 -31 119 15 159
27 22 37 25 80 19 46 -6 49 -5 49 15 0 16 -10 26 -35 37 -46 19 -63 18 -109
-9z"/>
<path d="M4335 421 c-27 -4 -56 -10 -62 -14 -16 -10 -18 -232 -4 -270 8 -20
18 -25 63 -30 71 -9 98 -1 98 28 0 26 -17 35 -65 35 -37 0 -47 14 -34 48 7 18
15 22 43 20 43 -3 50 4 42 37 -5 21 -12 25 -46 25 -38 0 -40 2 -40 30 0 28 2
30 39 30 49 0 66 18 45 48 -8 12 -18 21 -22 21 -4 -1 -29 -5 -57 -8z"/>
<path d="M4840 408 c-50 -25 -88 -88 -89 -144 -1 -38 29 -101 64 -134 22 -21
36 -25 86 -25 61 0 82 12 76 45 -1 11 -20 16 -66 20 -61 5 -65 7 -82 40 -23
42 -24 62 -5 99 23 44 59 62 106 55 32 -5 41 -3 46 11 9 22 -13 42 -56 50 -26
4 -47 0 -80 -17z"/>
<path d="M6280 414 c-38 -26 -50 -45 -50 -80 0 -25 9 -39 41 -65 107 -88 110
-103 20 -97 -51 3 -56 1 -59 -19 -8 -58 119 -72 165 -18 13 14 23 35 23 45 0
33 -35 79 -84 110 -25 16 -46 36 -46 44 0 25 26 37 67 30 51 -8 65 15 26 46
-31 24 -70 26 -103 4z"/>
<path d="M6535 418 c-42 -15 -65 -37 -86 -83 -19 -41 -26 -121 -11 -127 5 -1
15 -16 23 -33 33 -69 126 -95 189 -52 99 67 90 240 -15 290 -40 19 -57 20
-100 5z m92 -72 c24 -21 28 -31 28 -79 0 -72 -21 -97 -80 -97 -52 0 -75 28
-75 92 0 48 20 85 54 98 33 14 43 12 73 -14z"/>
<path d="M7363 413 c-30 -15 -53 -49 -53 -79 0 -25 30 -63 69 -85 36 -22 61
-46 61 -61 0 -19 -42 -29 -77 -17 -29 9 -38 9 -50 -4 -13 -13 -12 -17 8 -36
67 -62 179 -22 179 63 0 34 -23 61 -87 105 -56 38 -32 85 32 61 31 -12 45 -6
45 19 0 42 -74 62 -127 34z"/>
<path d="M7815 407 c-48 -27 -80 -73 -89 -127 -12 -79 67 -180 141 -180 53 0
83 16 83 45 0 24 -2 25 -56 23 -51 -2 -59 0 -80 25 -37 44 -33 100 10 143 31
31 38 34 75 28 33 -5 42 -3 48 11 8 23 -30 55 -66 55 -14 0 -44 -10 -66 -23z"/>
<path d="M8445 422 c-2 -3 -48 -5 -102 -6 l-98 -1 -3 -144 c-1 -82 2 -149 7
-154 5 -5 38 -11 74 -14 73 -4 97 10 78 46 -8 14 -23 21 -54 23 -36 3 -43 7
-45 27 -4 29 12 41 55 41 38 0 48 12 33 39 -7 13 -23 21 -48 23 -32 3 -37 6
-37 28 0 23 5 26 55 32 76 10 119 1 125 -26 3 -11 6 -66 8 -121 2 -99 2 -100
27 -100 l25 0 5 120 5 120 27 3 c37 4 56 28 37 46 -13 13 -163 29 -174 18z"/>
<path d="M2065 398 c-3 -13 -4 -81 -3 -153 3 -128 3 -130 27 -133 34 -5 42 14
36 90 -3 43 -1 70 6 74 10 6 58 -41 59 -59 0 -4 15 -30 33 -57 28 -44 36 -50
62 -48 l29 3 4 141 c3 121 1 143 -13 154 -12 10 -21 11 -33 3 -13 -8 -18 -28
-20 -87 -2 -42 -7 -76 -12 -76 -5 0 -25 28 -46 63 -49 82 -73 107 -101 107
-15 0 -24 -7 -28 -22z"/>
<path d="M2442 393 c-10 -16 -29 -62 -42 -103 -13 -41 -30 -84 -37 -95 -7 -11
-13 -35 -13 -53 0 -29 3 -33 23 -30 13 2 29 16 39 38 15 28 24 35 50 37 43 2
67 -12 80 -48 8 -23 16 -29 38 -29 38 0 47 17 22 43 -11 12 -22 33 -25 47 -7
31 -33 104 -52 147 -8 17 -15 38 -15 46 0 14 -20 27 -40 27 -5 0 -17 -12 -28
-27z"/>
<path d="M2640 410 c-12 -8 -15 -34 -13 -146 2 -81 7 -142 13 -148 19 -19 111
-11 156 12 51 26 74 71 74 144 0 74 -32 121 -94 137 -54 13 -116 14 -136 1z
m145 -75 c35 -34 34 -93 -1 -134 -25 -31 -64 -40 -91 -23 -11 7 -17 157 -6
175 10 17 75 6 98 -18z"/>
<path d="M2914 409 c-3 -6 -6 -71 -6 -144 0 -73 3 -138 6 -144 4 -6 18 -11 32
-11 l24 0 0 143 c0 142 -5 167 -36 167 -7 0 -16 -5 -20 -11z"/>
<path d="M3082 375 c-12 -25 -22 -53 -22 -63 0 -9 -7 -26 -15 -36 -8 -11 -15
-28 -15 -38 0 -11 -10 -36 -22 -57 -27 -47 -19 -74 19 -69 21 2 29 10 37 36
16 57 94 56 126 -3 11 -20 26 -31 43 -33 32 -4 34 6 8 62 -10 23 -27 66 -36
96 -51 155 -85 184 -123 105z"/>
<path d="M3289 408 c0 -7 -2 -38 -5 -68 -2 -30 -1 -95 2 -143 6 -88 6 -88 33
-85 25 3 26 5 29 81 2 56 6 77 16 77 8 0 17 -7 20 -16 9 -23 78 -128 91 -136
5 -4 20 -8 31 -8 27 0 33 38 28 170 -5 116 -10 140 -29 140 -24 0 -34 -33 -29
-94 7 -81 0 -95 -31 -66 -14 13 -25 28 -25 33 0 17 -69 114 -86 121 -25 10
-44 7 -45 -6z"/>
<path d="M4166 404 c-3 -9 -6 -71 -6 -139 0 -68 3 -130 6 -139 3 -9 17 -16 30
-16 23 0 23 1 26 142 2 107 0 145 -10 155 -18 18 -39 16 -46 -3z"/>
<path d="M4482 403 c-10 -21 -8 -265 2 -282 4 -6 16 -11 27 -11 16 0 19 8 20
53 1 28 0 67 -1 85 -1 17 1 32 3 32 21 0 40 -19 63 -63 14 -29 30 -54 34 -57
4 -3 12 -15 19 -28 9 -17 19 -22 39 -20 l27 3 2 140 c3 148 -3 178 -34 159
-15 -9 -18 -25 -18 -82 0 -39 -3 -73 -6 -77 -11 -11 -35 6 -47 33 -12 29 -24
49 -60 100 -25 35 -56 42 -70 15z"/>
<path d="M5036 404 c-12 -30 -7 -282 6 -290 15 -9 118 -15 141 -8 20 6 23 37
4 52 -7 6 -30 12 -52 14 -35 3 -40 6 -43 30 -2 19 2 28 17 33 12 3 24 4 28 2
12 -7 53 11 53 22 0 19 -32 41 -59 41 -16 0 -34 7 -41 15 -19 23 5 45 49 45
45 0 64 16 50 42 -13 25 -143 27 -153 2z"/>
<path d="M5411 394 c-12 -15 -21 -34 -21 -43 0 -9 -7 -25 -15 -35 -8 -11 -15
-29 -15 -40 -1 -12 -9 -39 -20 -61 -11 -22 -19 -55 -20 -73 0 -29 3 -33 22
-30 15 2 29 16 41 41 15 32 22 37 50 37 35 0 87 -39 87 -65 0 -16 35 -21 44
-6 5 7 -25 107 -69 231 -28 77 -49 88 -84 44z"/>
<path d="M5618 409 c-16 -9 -18 -27 -18 -144 0 -133 0 -135 25 -151 22 -14 34
-15 80 -6 70 14 101 35 127 85 43 84 -3 198 -87 217 -52 12 -106 12 -127 -1z
m132 -64 c30 -16 35 -33 31 -105 -3 -37 -46 -72 -85 -68 l-31 3 -3 79 c-2 44
-1 85 2 93 7 18 50 17 86 -2z"/>
<path d="M5865 411 c-6 -11 13 -88 26 -106 4 -6 12 -29 18 -50 22 -91 46 -140
70 -143 13 -2 27 0 32 5 4 4 29 67 53 138 44 125 49 165 22 165 -16 0 -46 -32
-46 -49 0 -7 -6 -27 -14 -44 -8 -18 -17 -45 -20 -60 -9 -40 -28 -29 -49 29
-39 104 -72 146 -92 115z"/>
<path d="M6141 406 c-8 -9 -11 -59 -9 -152 3 -138 3 -139 27 -142 13 -2 28 2
32 10 5 7 8 71 8 141 -1 97 -5 132 -16 143 -18 18 -27 18 -42 0z"/>
<path d="M6768 409 c-15 -8 -17 -28 -17 -144 0 -140 7 -161 46 -153 14 3 18
14 19 51 1 27 4 51 7 54 14 13 45 -11 71 -56 27 -45 56 -67 70 -53 11 10 6 45
-8 61 -8 9 -21 29 -30 46 -14 27 -14 31 5 62 28 45 18 98 -25 124 -34 20 -109
25 -138 8z"/>
<path d="M6974 405 c-4 -8 3 -33 15 -55 12 -22 21 -47 21 -54 0 -7 7 -19 15
-26 10 -8 15 -31 15 -69 0 -63 16 -95 46 -89 16 3 20 14 25 68 4 47 16 85 43
138 37 72 41 102 13 102 -20 0 -54 -40 -62 -72 -4 -16 -13 -28 -20 -28 -20 0
-45 28 -45 50 0 18 -34 50 -53 50 -4 0 -10 -7 -13 -15z"/>
<path d="M7543 408 c-11 -18 -13 -259 -2 -280 19 -36 169 -35 169 2 0 25 -20
38 -65 42 -35 3 -40 6 -43 29 -3 28 15 39 66 39 20 0 23 5 20 28 -3 24 -7 27
-45 30 -40 3 -43 5 -43 33 0 29 9 34 53 31 10 -1 27 3 38 8 15 9 17 15 9 30
-9 17 -21 20 -80 20 -44 0 -72 -4 -77 -12z"/>
<path d="M8008 407 c-14 -11 -16 -32 -15 -143 1 -71 6 -135 10 -141 5 -7 17
-13 27 -13 16 0 19 9 22 53 2 43 6 52 23 55 15 1 29 -12 54 -53 26 -43 39 -55
58 -55 22 0 24 3 19 25 -3 13 -17 41 -31 61 -29 42 -30 52 -10 78 17 23 20 79
5 106 -19 36 -126 54 -162 27z"/>
<path d="M8681 378 c-11 -24 -23 -55 -27 -71 -3 -15 -10 -30 -15 -33 -5 -3 -9
-13 -9 -23 0 -10 -9 -40 -21 -65 -24 -55 -20 -76 15 -76 19 0 27 8 36 35 13
38 36 50 81 40 23 -5 35 -16 45 -41 11 -26 20 -34 40 -34 23 0 26 3 21 27 -7
38 -58 178 -85 236 -29 61 -53 63 -81 5z"/>
<path d="M8885 398 c-3 -13 -4 -81 -3 -153 l3 -130 28 -3 c26 -3 27 -2 27 48
0 36 4 52 15 57 17 6 55 -23 55 -42 0 -24 41 -65 66 -65 13 0 24 2 24 4 0 3
-15 32 -32 66 -32 60 -32 62 -15 91 20 36 22 87 3 112 -17 22 -67 37 -123 37
-36 0 -44 -4 -48 -22z"/>
<path d="M9133 412 c-8 -5 -13 -53 -15 -150 -3 -149 -2 -152 43 -152 18 0 19
9 19 143 0 155 -8 184 -47 159z"/>
<path d="M9313 408 c-15 -21 -43 -85 -43 -100 0 -8 -7 -23 -15 -34 -8 -10 -15
-30 -15 -43 0 -13 -9 -39 -21 -58 -25 -40 -19 -63 16 -63 20 0 29 8 40 34 17
39 35 49 81 40 25 -5 36 -13 40 -30 6 -22 38 -54 55 -54 18 0 17 37 -2 93 -12
34 -25 67 -29 72 -4 6 -11 21 -15 35 -28 97 -66 142 -92 108z"/>
<path d="M9436 404 c-8 -21 1 -34 24 -34 40 0 50 -26 50 -134 0 -107 10 -136
45 -123 11 5 15 31 17 124 l3 117 38 9 c26 6 37 14 37 27 0 25 -19 30 -120 30
-71 0 -89 -3 -94 -16z"/>
</g>
</svg>
