<?xml version="1.0" encoding="UTF-8"?>
<svg xmlns="http://www.w3.org/2000/svg" xmlns:xlink="http://www.w3.org/1999/xlink" width="25px" height="25px" viewBox="0 0 25 25" version="1.1">
<g id="surface1">
<path style=" stroke:none;fill-rule:nonzero;fill:rgb(41.960784%,49.803922%,61.960784%);fill-opacity:1;" d="M 25 12.5 C 25 19.402344 19.402344 25 12.5 25 C 5.597656 25 0 19.402344 0 12.5 C 0 5.597656 5.597656 0 12.5 0 C 19.402344 0 25 5.597656 25 12.5 Z M 25 12.5 "/>
<path style=" stroke:none;fill-rule:nonzero;fill:rgb(45.882353%,74.117647%,50.196078%);fill-opacity:1;" d="M 1.71875 3.523438 L 18.894531 3.523438 C 19.582031 3.523438 20.140625 4.046875 20.140625 4.683594 L 20.140625 11.28125 C 20.140625 11.921875 19.582031 12.441406 18.894531 12.441406 L 1.71875 12.441406 C 1.03125 12.441406 0.472656 11.921875 0.472656 11.28125 L 0.472656 4.683594 C 0.472656 4.046875 1.03125 3.523438 1.71875 3.523438 Z M 1.71875 3.523438 "/>
<path style=" stroke:none;fill-rule:nonzero;fill:rgb(51.372549%,81.176471%,56.078431%);fill-opacity:1;" d="M 1.71875 3.148438 L 18.894531 3.148438 C 19.582031 3.148438 20.140625 3.671875 20.140625 4.308594 L 20.140625 10.910156 C 20.140625 11.546875 19.582031 12.070312 18.894531 12.070312 L 1.71875 12.070312 C 1.03125 12.070312 0.472656 11.546875 0.472656 10.910156 L 0.472656 4.308594 C 0.472656 3.671875 1.03125 3.148438 1.71875 3.148438 Z M 1.71875 3.148438 "/>
<path style=" stroke:none;fill-rule:nonzero;fill:rgb(100%,100%,100%);fill-opacity:1;" d="M 4.296875 4.746094 L 18.199219 4.746094 C 18.40625 4.746094 18.578125 4.917969 18.578125 5.125 L 18.578125 10.925781 C 18.578125 11.132812 18.414062 11.296875 18.207031 11.304688 L 2.003906 11.304688 L 2.003906 10.382812 L 17.425781 10.382812 C 17.527344 10.382812 17.640625 10.386719 17.640625 10.246094 L 17.640625 5.792969 C 17.640625 5.726562 17.589844 5.671875 17.527344 5.65625 L 4.28125 5.65625 L 4.28125 6.800781 L 1.832031 5.253906 L 4.28125 3.707031 L 4.28125 4.730469 Z M 4.296875 4.746094 "/>
<path style=" stroke:none;fill-rule:nonzero;fill:rgb(100%,100%,100%);fill-opacity:1;" d="M 5.578125 8.027344 C 5.785156 7.945312 5.949219 7.738281 5.949219 7.472656 C 5.949219 6.859375 5.363281 6.828125 5.070312 6.828125 C 4.839844 6.828125 4.617188 6.851562 4.46875 6.871094 L 4.46875 9.078125 L 4.976562 9.078125 L 4.976562 8.210938 L 5.074219 8.210938 C 5.246094 8.210938 5.328125 8.285156 5.375 8.554688 C 5.425781 8.820312 5.484375 9.019531 5.511719 9.078125 L 6.035156 9.078125 C 5.992188 8.992188 5.929688 8.691406 5.871094 8.453125 C 5.820312 8.242188 5.742188 8.097656 5.585938 8.03125 L 5.585938 8.019531 Z M 4.96875 7.832031 L 4.96875 7.230469 C 4.996094 7.222656 5.054688 7.214844 5.132812 7.214844 C 5.253906 7.214844 5.441406 7.265625 5.441406 7.515625 C 5.441406 7.695312 5.320312 7.832031 5.105469 7.832031 Z M 7.601562 8.65625 L 6.84375 8.65625 L 6.84375 8.132812 L 7.523438 8.132812 L 7.523438 7.71875 L 6.84375 7.71875 L 6.84375 7.265625 L 7.558594 7.265625 L 7.558594 6.84375 L 6.335938 6.84375 L 6.335938 9.078125 L 7.601562 9.078125 Z M 9.34375 6.84375 L 7.816406 6.84375 L 7.816406 7.289062 L 8.328125 7.289062 L 8.328125 9.078125 L 8.835938 9.078125 L 8.835938 7.289062 L 9.34375 7.289062 Z M 11.261719 6.84375 L 10.753906 6.84375 L 10.753906 8.199219 C 10.753906 8.554688 10.636719 8.691406 10.445312 8.691406 C 10.257812 8.691406 10.144531 8.539062 10.144531 8.199219 L 10.144531 6.84375 L 9.636719 6.84375 L 9.636719 8.132812 C 9.636719 8.777344 9.894531 9.105469 10.4375 9.105469 C 10.976562 9.105469 11.261719 8.777344 11.261719 8.140625 Z M 12.828125 8.027344 C 13.035156 7.945312 13.203125 7.738281 13.203125 7.472656 C 13.203125 6.859375 12.613281 6.828125 12.320312 6.828125 C 12.09375 6.828125 11.871094 6.851562 11.71875 6.871094 L 11.71875 9.078125 L 12.226562 9.078125 L 12.226562 8.210938 L 12.328125 8.210938 C 12.5 8.210938 12.578125 8.285156 12.628906 8.554688 C 12.679688 8.820312 12.734375 9.019531 12.765625 9.078125 L 13.289062 9.078125 C 13.246094 8.992188 13.179688 8.691406 13.121094 8.453125 C 13.074219 8.242188 12.992188 8.097656 12.835938 8.03125 L 12.835938 8.019531 Z M 12.222656 7.832031 L 12.222656 7.230469 C 12.25 7.222656 12.308594 7.214844 12.386719 7.214844 C 12.507812 7.214844 12.691406 7.265625 12.691406 7.515625 C 12.691406 7.695312 12.570312 7.832031 12.355469 7.832031 Z M 15.234375 6.84375 L 14.777344 6.84375 L 14.777344 7.375 C 14.777344 7.746094 14.789062 8.097656 14.820312 8.355469 L 14.8125 8.355469 C 14.726562 8.132812 14.605469 7.847656 14.503906 7.644531 L 14.125 6.84375 L 13.582031 6.84375 L 13.582031 9.078125 L 14.039062 9.078125 L 14.039062 8.527344 C 14.039062 8.125 14.023438 7.789062 14.011719 7.523438 L 14.023438 7.523438 C 14.105469 7.753906 14.234375 8.046875 14.339844 8.261719 L 14.726562 9.070312 L 15.234375 9.070312 L 15.234375 6.835938 Z M 16.910156 6.914062 C 16.800781 6.867188 16.636719 6.816406 16.421875 6.816406 C 15.90625 6.816406 15.613281 7.117188 15.613281 7.488281 C 15.613281 7.753906 15.792969 7.976562 16.152344 8.132812 C 16.378906 8.242188 16.480469 8.3125 16.480469 8.449219 C 16.480469 8.582031 16.375 8.667969 16.164062 8.667969 C 15.988281 8.667969 15.800781 8.613281 15.679688 8.554688 L 15.59375 8.984375 C 15.699219 9.042969 15.921875 9.097656 16.144531 9.097656 C 16.679688 9.097656 16.996094 8.8125 16.996094 8.40625 C 16.996094 8.125 16.847656 7.910156 16.496094 7.746094 C 16.222656 7.625 16.128906 7.558594 16.128906 7.4375 C 16.128906 7.332031 16.222656 7.230469 16.421875 7.230469 C 16.601562 7.230469 16.738281 7.28125 16.816406 7.324219 L 16.910156 6.902344 Z M 16.910156 6.914062 "/>
<path style=" stroke:none;fill-rule:nonzero;fill:rgb(99.607843%,82.352941%,59.607843%);fill-opacity:1;" d="M 12.945312 19.480469 L 11.460938 17.960938 L 9.566406 16.523438 C 9.128906 16.195312 8.460938 16.023438 8.597656 15.492188 C 8.726562 14.96875 9.207031 14.734375 9.773438 14.960938 L 11.496094 15.664062 L 11.65625 15.535156 L 11.65625 9.277344 C 11.65625 8.90625 11.964844 8.597656 12.335938 8.597656 C 12.707031 8.597656 13.015625 8.90625 13.015625 9.277344 L 13.015625 12.507812 L 13.171875 12.507812 L 13.171875 11.964844 C 13.171875 11.589844 13.480469 11.28125 13.851562 11.28125 C 14.226562 11.28125 14.535156 11.589844 14.535156 11.964844 L 14.535156 12.507812 L 14.691406 12.507812 L 14.691406 12.328125 C 14.691406 11.957031 15 11.648438 15.371094 11.648438 C 15.742188 11.648438 16.050781 11.957031 16.050781 12.328125 L 16.050781 12.507812 L 16.230469 12.507812 C 16.394531 11.820312 17.324219 12.007812 17.433594 12.921875 L 17.484375 17.269531 L 17.039062 18.605469 L 17.152344 22.292969 L 13.894531 24.167969 L 13.136719 24.199219 L 12.964844 19.472656 Z M 12.945312 19.480469 "/>
<path style=" stroke:none;fill-rule:nonzero;fill:rgb(100%,100%,100%);fill-opacity:1;" d="M 12.628906 21.15625 L 12.628906 20.03125 L 17.425781 20.03125 L 17.425781 21.15625 Z M 12.628906 21.15625 "/>
<path style=" stroke:none;fill-rule:nonzero;fill:rgb(100%,43.921569%,41.176471%);fill-opacity:1;" d="M 12.234375 24.992188 L 12.234375 20.8125 L 17.855469 20.8125 L 17.941406 23.746094 C 16.292969 24.550781 14.449219 24.992188 12.492188 24.992188 C 12.40625 24.992188 12.320312 24.992188 12.226562 24.992188 Z M 12.234375 24.992188 "/>
<path style=" stroke:none;fill-rule:nonzero;fill:rgb(100%,100%,100%);fill-opacity:1;" d="M 8.734375 15.484375 C 8.777344 15.492188 9.457031 15.921875 9.457031 15.921875 L 9.25 16.300781 C 9.25 16.300781 8.699219 16 8.570312 15.792969 C 8.511719 15.699219 8.597656 15.492188 8.734375 15.484375 Z M 8.734375 15.484375 "/>
<path style=" stroke:none;fill-rule:nonzero;fill:rgb(100%,100%,100%);fill-opacity:1;" d="M 12.773438 9.019531 L 12.773438 9.679688 L 11.878906 9.679688 L 11.878906 9.019531 C 11.878906 8.769531 12.773438 8.769531 12.773438 9.019531 Z M 12.773438 9.019531 "/>
</g>
</svg>
