<?xml version="1.0" encoding="UTF-8"?>
<svg xmlns="http://www.w3.org/2000/svg" xmlns:xlink="http://www.w3.org/1999/xlink" width="25px" height="25px" viewBox="0 0 25 25" version="1.1">
<g id="surface1">
<path style=" stroke:none;fill-rule:nonzero;fill:rgb(0%,0%,0%);fill-opacity:1;" d="M 20.679688 3.003906 C 20.453125 2.769531 20.140625 2.636719 19.8125 2.636719 C 19.484375 2.636719 19.171875 2.769531 18.945312 3.003906 L 17.625 4.320312 C 17.265625 4.089844 16.890625 3.886719 16.503906 3.710938 C 16.113281 3.535156 15.714844 3.382812 15.308594 3.253906 L 15.308594 1.21875 C 15.316406 0.894531 15.1875 0.582031 14.953125 0.355469 C 14.726562 0.121094 14.414062 -0.0078125 14.085938 0 L 11.546875 0 C 11.226562 -0.00390625 10.917969 0.125 10.691406 0.355469 C 10.457031 0.578125 10.324219 0.894531 10.328125 1.21875 L 10.328125 3.074219 C 9.910156 3.171875 9.496094 3.300781 9.097656 3.457031 C 8.707031 3.609375 8.324219 3.78125 7.960938 3.984375 L 6.496094 2.542969 C 6.28125 2.304688 5.972656 2.167969 5.648438 2.175781 C 5.324219 2.171875 5.011719 2.304688 4.78125 2.542969 L 3.003906 4.324219 C 2.769531 4.550781 2.636719 4.863281 2.636719 5.191406 C 2.636719 5.519531 2.769531 5.832031 3.003906 6.058594 L 4.320312 7.378906 C 4.089844 7.738281 3.886719 8.113281 3.710938 8.5 C 3.535156 8.886719 3.382812 9.285156 3.253906 9.691406 L 1.21875 9.691406 C 0.894531 9.683594 0.582031 9.8125 0.355469 10.046875 C 0.121094 10.273438 -0.0078125 10.585938 0 10.914062 L 0 13.453125 C -0.00390625 13.773438 0.125 14.082031 0.355469 14.308594 C 0.578125 14.546875 0.894531 14.675781 1.21875 14.671875 L 3.078125 14.671875 C 3.175781 15.089844 3.300781 15.503906 3.457031 15.902344 C 3.613281 16.300781 3.789062 16.691406 3.984375 17.066406 L 2.535156 18.515625 C 2.300781 18.730469 2.164062 19.039062 2.171875 19.359375 C 2.167969 19.6875 2.300781 20 2.535156 20.226562 L 4.320312 22.03125 C 4.808594 22.488281 5.566406 22.488281 6.054688 22.03125 L 7.375 20.691406 C 7.734375 20.921875 8.109375 21.125 8.496094 21.300781 C 8.886719 21.480469 9.285156 21.636719 9.691406 21.769531 L 9.691406 23.792969 C 9.6875 24.117188 9.816406 24.429688 10.046875 24.660156 C 10.277344 24.890625 10.589844 25.015625 10.914062 25.015625 L 13.453125 25.015625 C 13.773438 25.015625 14.082031 24.890625 14.308594 24.660156 C 14.546875 24.433594 14.675781 24.121094 14.671875 23.792969 L 14.671875 21.941406 C 15.089844 21.84375 15.503906 21.714844 15.902344 21.558594 C 16.300781 21.40625 16.691406 21.230469 17.066406 21.035156 L 18.515625 22.464844 C 18.738281 22.695312 19.046875 22.828125 19.371094 22.828125 C 19.695312 22.828125 20.003906 22.695312 20.226562 22.464844 L 22.03125 20.679688 C 22.488281 20.191406 22.488281 19.433594 22.03125 18.945312 L 20.6875 17.625 C 20.917969 17.265625 21.125 16.890625 21.300781 16.503906 C 21.476562 16.113281 21.632812 15.714844 21.765625 15.308594 L 23.792969 15.308594 C 24.117188 15.3125 24.429688 15.183594 24.660156 14.953125 C 24.886719 14.722656 25.015625 14.410156 25.011719 14.085938 L 25.011719 11.546875 C 25.015625 11.226562 24.886719 10.917969 24.65625 10.691406 C 24.433594 10.453125 24.117188 10.324219 23.792969 10.328125 L 21.9375 10.328125 C 21.835938 9.914062 21.710938 9.507812 21.558594 9.109375 C 21.410156 8.710938 21.234375 8.328125 21.03125 7.957031 L 22.476562 6.496094 C 22.714844 6.28125 22.847656 5.972656 22.839844 5.648438 C 22.84375 5.324219 22.710938 5.011719 22.476562 4.78125 L 20.691406 3.003906 Z M 12.5 5.039062 C 16.054688 5.039062 19.113281 7.550781 19.808594 11.035156 C 20.503906 14.523438 18.640625 18.015625 15.355469 19.375 C 12.070312 20.738281 8.285156 19.589844 6.308594 16.636719 C 4.328125 13.683594 4.714844 9.742188 7.226562 7.226562 C 8.625 5.824219 10.523438 5.039062 12.5 5.042969 Z M 12.5 5.039062 "/>
<path style=" stroke:none;fill-rule:evenodd;fill:rgb(0%,66.27451%,7.058824%);fill-opacity:1;" d="M 12.5 6.6875 C 15.710938 6.6875 18.316406 9.289062 18.316406 12.5 C 18.316406 15.714844 15.714844 18.316406 12.5 18.316406 C 9.289062 18.316406 6.6875 15.710938 6.6875 12.5 C 6.6875 9.289062 9.289062 6.6875 12.5 6.6875 Z M 10.6875 11.570312 L 11.722656 12.542969 L 14.164062 10.070312 C 14.367188 9.867188 14.492188 9.699219 14.742188 9.953125 L 15.558594 10.785156 C 15.824219 11.050781 15.808594 11.203125 15.558594 11.449219 L 12.1875 14.769531 C 11.65625 15.289062 11.75 15.320312 11.210938 14.785156 L 9.328125 12.910156 C 9.273438 12.863281 9.25 12.792969 9.253906 12.722656 C 9.261719 12.648438 9.300781 12.585938 9.359375 12.546875 L 10.296875 11.574219 C 10.441406 11.421875 10.554688 11.4375 10.707031 11.574219 Z M 10.6875 11.570312 "/>
</g>
</svg>
