<?xml version="1.0" encoding="UTF-8"?>
<svg xmlns="http://www.w3.org/2000/svg" xmlns:xlink="http://www.w3.org/1999/xlink" width="25px" height="25px" viewBox="0 0 25 25" version="1.1">
<g id="surface1">
<path style=" stroke:none;fill-rule:nonzero;fill:rgb(0%,0%,0%);fill-opacity:1;" d="M 20.667969 3.003906 C 20.441406 2.769531 20.128906 2.636719 19.800781 2.636719 C 19.472656 2.636719 19.160156 2.769531 18.933594 3.003906 L 17.617188 4.316406 C 17.257812 4.085938 16.882812 3.882812 16.496094 3.707031 C 16.105469 3.53125 15.707031 3.378906 15.300781 3.25 L 15.300781 1.21875 C 15.308594 0.894531 15.179688 0.582031 14.945312 0.355469 C 14.71875 0.121094 14.40625 -0.0078125 14.078125 0 L 11.542969 0 C 11.222656 -0.00390625 10.914062 0.125 10.6875 0.355469 C 10.453125 0.578125 10.320312 0.894531 10.324219 1.21875 L 10.324219 3.070312 C 9.90625 3.167969 9.492188 3.296875 9.09375 3.453125 C 8.703125 3.605469 8.320312 3.777344 7.957031 3.980469 L 6.492188 2.542969 C 6.277344 2.304688 5.972656 2.167969 5.648438 2.175781 C 5.324219 2.171875 5.011719 2.304688 4.78125 2.542969 L 3.003906 4.320312 C 2.769531 4.546875 2.636719 4.859375 2.636719 5.1875 C 2.636719 5.515625 2.769531 5.828125 3.003906 6.054688 L 4.320312 7.375 C 4.089844 7.734375 3.886719 8.109375 3.710938 8.496094 C 3.535156 8.882812 3.382812 9.277344 3.253906 9.683594 L 1.21875 9.683594 C 0.894531 9.675781 0.582031 9.804688 0.355469 10.039062 C 0.121094 10.265625 -0.00390625 10.578125 0.00390625 10.90625 L 0.00390625 13.445312 C 0 13.765625 0.125 14.074219 0.355469 14.300781 C 0.578125 14.539062 0.894531 14.667969 1.21875 14.664062 L 3.078125 14.664062 C 3.175781 15.082031 3.300781 15.492188 3.457031 15.890625 C 3.613281 16.289062 3.789062 16.679688 3.984375 17.054688 L 2.535156 18.503906 C 2.300781 18.71875 2.164062 19.027344 2.171875 19.347656 C 2.167969 19.675781 2.300781 19.988281 2.535156 20.214844 L 4.320312 22.015625 C 4.808594 22.472656 5.566406 22.472656 6.054688 22.015625 L 7.371094 20.679688 C 7.730469 20.910156 8.105469 21.113281 8.492188 21.289062 C 8.882812 21.464844 9.28125 21.621094 9.6875 21.753906 L 9.6875 23.777344 C 9.683594 24.101562 9.8125 24.414062 10.042969 24.644531 C 10.273438 24.875 10.585938 25 10.910156 25 L 13.445312 25 C 13.765625 25 14.074219 24.875 14.300781 24.644531 C 14.539062 24.417969 14.667969 24.105469 14.664062 23.777344 L 14.664062 21.925781 C 15.082031 21.828125 15.496094 21.699219 15.894531 21.542969 C 16.292969 21.390625 16.683594 21.21875 17.058594 21.023438 L 18.503906 22.449219 C 18.726562 22.679688 19.035156 22.8125 19.359375 22.8125 C 19.683594 22.8125 19.992188 22.679688 20.214844 22.449219 L 22.019531 20.667969 C 22.476562 20.179688 22.476562 19.421875 22.019531 18.933594 L 20.675781 17.613281 C 20.90625 17.253906 21.113281 16.878906 21.289062 16.492188 C 21.464844 16.101562 21.621094 15.703125 21.753906 15.296875 L 23.78125 15.296875 C 24.105469 15.300781 24.417969 15.175781 24.644531 14.945312 C 24.871094 14.714844 25 14.402344 24.996094 14.078125 L 24.996094 11.539062 C 25 11.21875 24.871094 10.910156 24.640625 10.683594 C 24.421875 10.445312 24.105469 10.316406 23.78125 10.320312 L 21.925781 10.320312 C 21.824219 9.90625 21.699219 9.5 21.546875 9.105469 C 21.398438 8.707031 21.222656 8.324219 21.019531 7.953125 L 22.464844 6.492188 C 22.703125 6.277344 22.835938 5.96875 22.828125 5.644531 C 22.832031 5.320312 22.699219 5.007812 22.464844 4.777344 L 20.679688 3.003906 Z M 12.492188 5.035156 C 16.046875 5.035156 19.101562 7.546875 19.796875 11.027344 C 20.492188 14.515625 18.628906 18.003906 15.347656 19.363281 C 12.066406 20.726562 8.28125 19.578125 6.304688 16.625 C 4.328125 13.675781 4.714844 9.734375 7.222656 7.222656 C 8.621094 5.820312 10.519531 5.035156 12.492188 5.039062 Z M 12.492188 5.035156 "/>
<path style=" stroke:none;fill-rule:evenodd;fill:rgb(94.509804%,4.705882%,4.705882%);fill-opacity:1;" d="M 12.492188 6.683594 C 15.703125 6.683594 18.308594 9.28125 18.308594 12.492188 C 18.308594 15.703125 15.707031 18.304688 12.492188 18.304688 C 9.285156 18.304688 6.683594 15.699219 6.683594 12.492188 C 6.683594 9.28125 9.285156 6.683594 12.492188 6.683594 Z M 10.683594 11.5625 L 11.71875 12.535156 L 14.15625 10.0625 C 14.359375 9.859375 14.484375 9.691406 14.734375 9.945312 L 15.550781 10.777344 C 15.816406 11.042969 15.800781 11.195312 15.550781 11.441406 L 12.183594 14.761719 C 11.652344 15.277344 11.746094 15.308594 11.207031 14.777344 L 9.324219 12.902344 C 9.269531 12.855469 9.246094 12.785156 9.25 12.714844 C 9.257812 12.640625 9.296875 12.578125 9.355469 12.539062 L 10.292969 11.566406 C 10.4375 11.414062 10.550781 11.429688 10.703125 11.566406 Z M 10.683594 11.5625 "/>
</g>
</svg>
