<?xml version="1.0" encoding="UTF-8"?>
<svg viewBox="0 0 512 512" xmlns="http://www.w3.org/2000/svg" xmlns:xlink="http://www.w3.org/1999/xlink">
 <defs>
  <filter id="h">
   <feGaussianBlur stdDeviation="15.3342"/>
  </filter>
  <linearGradient id="a">
   <stop stop-color="#3e718e" offset="0"/>
   <stop stop-color="#8ab4cc" offset="1"/>
  </linearGradient>
  <linearGradient id="f" x1="409.57" x2="178.59" y1="1099.6" y2="-68.286" gradientUnits="userSpaceOnUse">
   <stop stop-color="#6dd9ff" offset="0"/>
   <stop stop-color="#39beff" offset=".4374"/>
   <stop stop-color="#00214d" offset=".972"/>
   <stop stop-color="#000d25" offset="1"/>
  </linearGradient>
  <linearGradient id="d" x1="215.29" x2="281.85" y1="191.17" y2="443.27" gradientTransform="matrix(1 0 0 .89844 0 51.415)" gradientUnits="userSpaceOnUse">
   <stop stop-color="#6dd9ff" offset="0"/>
   <stop stop-color="#39beff" offset=".4374"/>
   <stop stop-color="#00214d" offset=".9217"/>
   <stop stop-color="#000d25" offset="1"/>
  </linearGradient>
  <linearGradient id="c" x1="271.75" x2="270.25" y1="190.7" y2="98.976" gradientUnits="userSpaceOnUse">
   <stop stop-color="#006ad4" offset="0"/>
   <stop stop-color="#5582af" offset=".25"/>
   <stop stop-color="#004080" stop-opacity=".3511" offset=".5"/>
   <stop stop-color="#5582af" offset=".75"/>
   <stop stop-color="#0064c9" offset="1"/>
  </linearGradient>
  <linearGradient id="b" x1="45.235" x2="114.7" gradientUnits="userSpaceOnUse">
   <stop stop-color="#f1f1f1" offset="0"/>
   <stop stop-color="#8e8e8e" stop-opacity=".1862" offset="1"/>
  </linearGradient>
  <linearGradient id="g" x1="26.892" x2="453.84" gradientUnits="userSpaceOnUse" xlink:href="#a"/>
  <linearGradient id="e" x1="45.747" x2="497.96" gradientUnits="userSpaceOnUse" xlink:href="#a"/>
 </defs>
 <g transform="matrix(1.0486 0 0 1.056 -17.224 -40.482)">
  <path d="m31.921 119.35c4.6213-12.706 3.6166-13.069 10.913-17.761 22.455-14.443 70.665-21.103 117.78-27.486 12.788-1.7326 26.066-3.3147 39.592-4.7417 38.226-4.0332 78.423-6.827 115.08-8.274 12.663-0.49986 24.904-0.83896 36.494-1.0129 56.07-0.8413 89.648-2.185 96.866 9.5756 11.996 19.545-1.4569 307.95-1.4569 307.95s-396.84 128.19-401.87 128.71c-7.6136 0.79473-13.63-14.949-15.709-42.312-7.4407-97.93-1.7608-333.45 2.3131-344.65z" fill="none" opacity=".2454" stroke="#00172e" stroke-linecap="round" stroke-linejoin="bevel" stroke-width="7.2782"/>
  <path d="m35.242 122.48c4.5694-12.647 3.576-15.711 11.47-20.382 22.77-13.472 69.872-21.005 116.46-27.359 12.644-1.7245 25.774-3.2993 39.147-4.7197 37.797-4.0144 77.542-6.7953 113.79-8.2355 12.521-0.49754 24.624-0.83507 36.085-1.0082 55.44-0.8374 88.641-2.1748 95.779 9.5311 11.861 19.454-1.4406 306.52-1.4406 306.52s-397.15 128.68-402.09 129.5c-3.0818 0.50715-7.6427-5.0092-9.6495-17.258-12.326-75.228-3.9796-354.31 0.45254-366.58z" fill="url(#g)" opacity=".696" stroke="#000d1b" stroke-linecap="round" stroke-linejoin="bevel" stroke-width="1.9006"/>
  <path d="m46.099 505.52s404.27-129.58 406.24-126.05c5.7201 10.225 10.002 3.8552 19.448 10.084 5.2055 3.4325-425.69 117.41-425.69 117.41z" fill="none" stroke="#000" stroke-linecap="round" stroke-linejoin="bevel" stroke-width=".7"/>
  <path d="m41.057 126.55c4.5694-12.574 3.576-15.621 11.47-20.266 22.77-13.395 69.872-20.884 116.46-27.202 12.644-1.7146 25.774-3.2804 39.147-4.6927 37.797-3.9915 77.542-6.7564 113.79-8.1884 12.521-0.49469 24.624-0.83029 36.085-1.0024 55.44-0.8326 88.641-2.1624 95.779 9.4766 11.861 19.343-1.4406 304.76-1.4406 304.76s-400.58 125.24-405.52 126.05c-2.0428 0.33425-4.4874-3.2177-5.9911-8.7113-14.698-53.695-4.4466-357.36 0.22882-370.22z" fill="url(#f)" stroke="#181818" stroke-linecap="round" stroke-linejoin="bevel" stroke-width="1.6002"/>
  <path d="m36.336 163.1 64.67-6.5904 357.27-31.973 0.66835 260.29s-414.06 113.94-419.13 104.61c-1.9072-291.18-9.4657-230.48-3.4811-326.34z" fill="#e4eeee" fill-rule="evenodd" opacity=".99" stroke="#123b3b" stroke-width=".43243"/>
  <path d="m38.243 168.79 64.67-6.5904 359.33-32.655-1.3924 260.97s-414.06 113.94-419.13 104.61c-1.9072-291.18-9.4657-230.48-3.4811-326.34z" fill="#e4eeee" fill-rule="evenodd" opacity=".99" stroke="#123b3b" stroke-width=".43243"/>
  <path d="m43.903 172.57 63.807-6.5904 358.66-30.609-5.4954 258.93s-408.53 113.94-413.53 104.61c-1.8817-291.18-9.3393-230.48-3.4347-326.34z" fill="#e4eeee" fill-rule="evenodd" stroke="#123b3b" stroke-width=".52457"/>
  <path d="m103.54 219.64c-4.1625-21.941 5.3969-44.825 9.2992-52.989 1.2516-2.6186 0.0997-0.66345 0.0997-0.66345l357.55-21.742-9.5968 250.06s-402.51 113.94-407.44 104.61-5.0674-267.18-4.1614-268.05 1.8573-1.6627 2.8538-2.3904c11.313-8.2617 28.453-7.904 51.392-8.8362z" fill="#f1f8f8" fill-rule="evenodd" opacity=".7656" stroke="#123b3b" stroke-width=".52457"/>
  <path d="m104.62 218.29c15.122-2.8195 40.127-5.2556 70.032-17.623 13.341-5.5171 22.141-12.171 29.252-24.369 1.8681-3.2045 13.214-14.155 23.715-17.542 25.229-8.136 107.34-14.692 152.49-18.742 12.257-1.0997 17.147-1.3556 29.604 10.096 10.837 29.903 71.036-5.683 86.152 19.296 0.45087 5.5967 2.0878 4.601 0.96274 17.433-3.4944 39.854-7.772 131.78-25.242 203.66-1.1728 4.8249-5.0567 10.156-10.331 11.548-139.93 36.943-414.74 103.13-414.74 103.13s11.832-10.535 14.859-17.566c33.757-78.413 24.863-243.45 28.105-254.3s15.146-15.022 15.146-15.022z" fill="url(#e)" stroke="#272727" stroke-linecap="round" stroke-linejoin="bevel" stroke-width="1.5166"/>
  <path d="m108.43 222.08c15.122-2.8195 40.127-5.2556 70.032-17.623 13.341-5.5171 22.141-12.171 29.252-24.369 1.8681-3.2045 13.214-14.155 23.715-17.542 25.229-8.136 107.34-14.692 152.49-18.742 12.257-1.0997 17.147-1.3556 29.604 10.096 10.837 29.903 71.036-5.683 86.152 19.296 0.45087 5.5967 2.0878 4.601 0.96274 17.433-3.4944 39.854-7.772 131.78-25.242 203.66-1.1728 4.8249-5.0567 10.156-10.331 11.548-139.93 36.943-416.8 100.41-416.8 100.41s13.456-8.2051 16.919-14.838c39.531-75.706 24.863-243.45 28.105-254.3s15.146-15.022 15.146-15.022z" fill="url(#d)" stroke="#2b2b2b" stroke-linecap="round" stroke-linejoin="bevel" stroke-width="1.5166"/>
  <path transform="matrix(1 0 0 .94548 0 27.598)" d="m508.6 129.47c-12.451 85.745-13.895 163.71-33.21 252.16-1.1728 5.3703-5.0567 11.304-10.331 12.854-139.93 41.119-416.8 111.76-416.8 111.76s11.322-10.967 16.919-16.515c23.05-39.388 48.419-74.114 75.301-105.19 108.07-124.95 240.57-190.96 345.04-263.99 8.8516-6.1878 21.117-4.632 23.08 8.9313z" fill="#fff" filter="url(#h)" opacity=".4505"/>
  <path transform="matrix(.9945,-.1047,-.07988,.9968,0,0)" d="m152.27 118.2h236.65a11.696 11.696 0 0 1 11.696 11.696v24.987a11.696 11.696 0 0 1 -11.696 11.696h-236.65a11.696 11.696 0 0 1 -11.696 -11.696v-24.987a11.696 11.696 0 0 1 11.696 -11.696" fill="url(#c)" fill-rule="evenodd" stroke="#003060" stroke-linecap="round" stroke-linejoin="bevel" stroke-opacity=".6189" stroke-width="1.1543"/>
  <text transform="matrix(.90219 -.08872 -.05039 1.1134 0 0)" x="156.7433" y="141.33896" font-family="Sans" font-size="38.104" font-weight="bold" letter-spacing="0" stroke="#000d1b" stroke-opacity=".6189" stroke-width="2.5658" word-spacing="0">
   <tspan x="156.7433" y="141.33896" stroke-width="2.5658">DOCUMENTS</tspan>
  </text>
  <text transform="matrix(.90219 -.08872 -.05039 1.1134 0 0)" x="158.69879" y="140.38939" fill="#fff" font-family="Sans" font-size="38.104" font-weight="bold" letter-spacing="0" word-spacing="0">
   <tspan x="158.69879" y="140.38939">DOCUMENTS</tspan>
  </text>
  <path d="m45.827 234.04c3.4999-3.4265 7.6158-6.2219 12.091-8.212 8.3258-3.7023 17.613-4.5437 26.716-4.9481 6.6957-0.29742 13.401-0.38525 20.102-0.26332-1.4332-3.583-2.3523-7.3713-2.7204-11.213-1.1086-11.571 2.7812-23.059 7.8237-33.533 1.3385-2.7799 2.7618-5.519 4.2675-8.212-12.034 8.8876-23.891 18.014-35.562 27.373-9.4005 7.5382-18.811 15.368-25.605 25.32-2.9057 4.2566-5.2992 8.8625-7.1124 13.687" fill="url(#b)"/>
 </g>
</svg>
