<?xml version="1.0" encoding="UTF-8"?>
<svg viewBox="0 0 272.56564 204.60204" xmlns="http://www.w3.org/2000/svg">
 <defs>
  <clipPath id="a">
   <path d="m243.31 53.818c-1.7147-0.21945-3.4366-0.19045-5.125 0.09375-6.7538 1.1368-12.898 5.2449-18.906 9.5312l-100.34 68.875-0.125 0.09375c-9.2092 6.8954-13.819 11.001-16.688 15.844s-3.5754 9.6262-5.75 17.562c-0.05862 0.19396-0.10044 0.39261-0.125 0.59375-0.64201 7.1877 0.48858 12.134 3.375 15.594s6.5929 5.0257 10.625 7.4375c0.1598 0.09641 0.32699 0.18001 0.5 0.25 8.8581 3.5537 15.06 4.8601 21.375 3.125s12.044-5.9198 21.75-12.312l0.0625-0.03125 95.969-65.438c1.6137-1.0959 2.0334-3.2925 0.9375-4.9062s-3.2925-2.0334-4.9062-0.9375l-96 65.469c-9.7682 6.4339-15.251 10.125-19.688 11.344-4.3679 1.2-8.3947 0.51747-16.531-2.7188-4.2629-2.5425-7.2402-4.0463-8.6875-5.7812-1.445-1.7322-2.2591-4.1525-1.75-10.219 2.1454-7.8825 2.9257-12.041 4.9375-15.438 2.0514-3.4632 5.8222-7.0264 14.844-13.781l100.28-68.812 0.0625-0.0625c5.8242-4.1548 11.435-7.5494 15.969-8.3125s8.111 0.20856 12.562 6.5c0.04929 0.07487 0.10141 0.14784 0.15625 0.21875l16 19.375v0.03125c2.4887 3.8107 3.1543 6.6352 2.8125 9.25-0.34269 2.6213-1.8222 5.3719-4.7188 8.5625-5.7733 6.3593-16.874 13.846-30.594 24.062l-0.125 0.09375c-42.037 28.412-82.677 57.093-126.28 85l-0.125 0.0625c-9.0218 6.2712-14.809 9.9579-20.469 11.281s-11.741 0.56862-22.156-2.875c-11.991-4.2635-16.731-6.95-18.406-9.7812s-1.374-7.9261-0.84375-18.188c0.00166-0.06249 0.00166-0.12501 0-0.1875-0.03835-13.898 8.7325-22.98 21.125-31.531l142.25-97.938c1.6051-1.1132 2.0038-3.3168 0.89063-4.9219s-3.3168-2.0038-4.9219-0.89063l-142.22 97.938c-13.039 8.9975-24.149 20.352-24.188 37.188-1.5e-4 0.06457-1.8e-4 0.12277 0 0.1875-0.52492 9.9724-1.4898 16.305 1.8438 21.938 3.3583 5.6746 9.9164 8.523 22.156 12.875l0.09375 0.03125c10.926 3.6124 18.637 4.7528 26 3.0312s13.776-6.0191 22.875-12.344c43.822-28.046 84.464-56.738 126.47-85.125l0.125-0.09375c13.62-10.148 24.849-17.461 31.75-25.062 3.4503-3.8005 5.9031-7.8407 6.5-12.406s-0.82091-9.3017-3.9375-14.062c-0.06723-0.10803-0.14026-0.21235-0.21875-0.3125l-16.094-19.469-0.15625-0.21875-0.03125 0.03125c-4.0993-5.6832-9.1121-8.6629-14.188-9.3125z" fill-rule="evenodd"/>
  </clipPath>
  <filter id="c">
   <feGaussianBlur stdDeviation=".94954"/>
  </filter>
  <filter id="b">
   <feGaussianBlur stdDeviation="4.27294"/>
  </filter>
 </defs>
 <path transform="matrix(.84375 0 0 .84253 -19.274 -30.985)" d="m247.37 57.879c-1.7147-0.21945-3.4366-0.19045-5.125 0.09375-6.7538 1.1368-12.898 5.2449-18.906 9.5312l-100.34 68.875-0.125 0.09375c-9.2092 6.8954-13.819 11.001-16.688 15.844s-3.5754 9.6262-5.75 17.562c-0.05862 0.19396-0.10044 0.39261-0.125 0.59375-0.64201 7.1877 0.48858 12.134 3.375 15.594s6.5929 5.0257 10.625 7.4375c0.1598 0.09641 0.32699 0.18001 0.5 0.25 8.8581 3.5537 15.06 4.8601 21.375 3.125s12.044-5.9198 21.75-12.312l0.0625-0.03125 95.969-65.438c1.6137-1.0959 2.0334-3.2925 0.9375-4.9062s-3.2925-2.0334-4.9062-0.9375l-96 65.469c-9.7682 6.4339-15.251 10.125-19.688 11.344-4.3679 1.2-8.3947 0.51747-16.531-2.7188-4.2629-2.5425-7.2402-4.0463-8.6875-5.7812-1.445-1.7322-2.2591-4.1525-1.75-10.219 2.1454-7.8825 2.9257-12.041 4.9375-15.438 2.0514-3.4632 5.8222-7.0264 14.844-13.781l100.28-68.813 0.0625-0.0625c5.8242-4.1548 11.435-7.5494 15.969-8.3125s8.111 0.20856 12.562 6.5c0.04929 0.07487 0.10141 0.14784 0.15625 0.21875l16 19.375v0.03125c2.4887 3.8107 3.1543 6.6352 2.8125 9.25-0.34269 2.6213-1.8222 5.3719-4.7188 8.5625-5.7733 6.3593-16.874 13.846-30.594 24.063l-0.125 0.09375c-42.037 28.412-82.677 57.093-126.28 85l-0.125 0.0625c-9.0218 6.2712-14.809 9.9579-20.469 11.281s-11.741 0.56862-22.156-2.875c-11.991-4.2635-16.731-6.95-18.406-9.7812s-1.374-7.9261-0.84375-18.188c0.00166-0.06249 0.00166-0.12501 0-0.1875-0.03836-13.898 8.7325-22.98 21.125-31.531l142.25-97.938c1.6051-1.1132 2.0038-3.3168 0.89063-4.9219s-3.3168-2.0038-4.9219-0.89063l-142.22 97.938c-13.039 8.9975-24.149 20.352-24.188 37.188-1.5e-4 0.06457-1.8e-4 0.12277 0 0.1875-0.52492 9.9724-1.4898 16.305 1.8438 21.938 3.3583 5.6746 9.9164 8.523 22.156 12.875l0.09375 0.03125c10.926 3.6124 18.637 4.7528 26 3.0312s13.776-6.0191 22.875-12.344c43.822-28.046 84.464-56.738 126.47-85.125l0.125-0.09375c13.62-10.148 24.849-17.462 31.75-25.063 3.4503-3.8005 5.9031-7.8407 6.5-12.406s-0.82091-9.3017-3.9375-14.063c-0.06723-0.10803-0.14026-0.21235-0.21875-0.3125l-16.094-19.469-0.15625-0.21875-0.03125 0.03125c-4.0993-5.6832-9.1121-8.6629-14.188-9.3125z" fill="#1a1a1a" fill-rule="evenodd" filter="url(#b)"/>
 <path transform="matrix(.84375 0 0 .84253 -19.274 -30.985)" d="m243.31 53.818c-1.7147-0.21945-3.4366-0.19045-5.125 0.09375-6.7538 1.1368-12.898 5.2449-18.906 9.5312l-100.34 68.875-0.125 0.09375c-9.2092 6.8954-13.819 11.001-16.688 15.844s-3.5754 9.6262-5.75 17.562c-0.05862 0.19396-0.10044 0.39261-0.125 0.59375-0.64201 7.1877 0.48858 12.134 3.375 15.594s6.5929 5.0257 10.625 7.4375c0.1598 0.09641 0.32699 0.18001 0.5 0.25 8.8581 3.5537 15.06 4.8601 21.375 3.125s12.044-5.9198 21.75-12.312l0.0625-0.03125 95.969-65.438c1.6137-1.0959 2.0334-3.2925 0.9375-4.9062s-3.2925-2.0334-4.9062-0.9375l-96 65.469c-9.7682 6.4339-15.251 10.125-19.688 11.344-4.3679 1.2-8.3947 0.51747-16.531-2.7188-4.2629-2.5425-7.2402-4.0463-8.6875-5.7812-1.445-1.7322-2.2591-4.1525-1.75-10.219 2.1454-7.8825 2.9257-12.041 4.9375-15.438 2.0514-3.4632 5.8222-7.0264 14.844-13.781l100.28-68.812 0.0625-0.0625c5.8242-4.1548 11.435-7.5494 15.969-8.3125s8.111 0.20856 12.562 6.5c0.04929 0.07487 0.10141 0.14784 0.15625 0.21875l16 19.375v0.03125c2.4887 3.8107 3.1543 6.6352 2.8125 9.25-0.34269 2.6213-1.8222 5.3719-4.7188 8.5625-5.7733 6.3593-16.874 13.846-30.594 24.062l-0.125 0.09375c-42.037 28.412-82.677 57.093-126.28 85l-0.125 0.0625c-9.0218 6.2712-14.809 9.9579-20.469 11.281s-11.741 0.56862-22.156-2.875c-11.991-4.2635-16.731-6.95-18.406-9.7812s-1.374-7.9261-0.84375-18.188c0.00166-0.06249 0.00166-0.12501 0-0.1875-0.03835-13.898 8.7325-22.98 21.125-31.531l142.25-97.938c1.6051-1.1132 2.0038-3.3168 0.89063-4.9219s-3.3168-2.0038-4.9219-0.89063l-142.22 97.938c-13.039 8.9975-24.149 20.352-24.188 37.188-1.5e-4 0.06457-1.8e-4 0.12277 0 0.1875-0.52492 9.9724-1.4898 16.305 1.8438 21.938 3.3583 5.6746 9.9164 8.523 22.156 12.875l0.09375 0.03125c10.926 3.6124 18.637 4.7528 26 3.0312s13.776-6.0191 22.875-12.344c43.822-28.046 84.464-56.738 126.47-85.125l0.125-0.09375c13.62-10.148 24.849-17.461 31.75-25.062 3.4503-3.8005 5.9031-7.8407 6.5-12.406s-0.82091-9.3017-3.9375-14.062c-0.06723-0.10803-0.14026-0.21235-0.21875-0.3125l-16.094-19.469-0.15625-0.21875-0.03125 0.03125c-4.0993-5.6832-9.1121-8.6629-14.188-9.3125z" clip-path="url(#a)" fill="#008000" fill-rule="evenodd"/>
 <path transform="matrix(.84375 0 0 .84253 -19.274 -30.985)" d="m239.31 51.818c-1.7147-0.21945-3.4366-0.19045-5.125 0.09375-6.7538 1.1368-12.898 5.2449-18.906 9.5312l-100.34 68.875-0.125 0.09375c-9.2092 6.8954-13.819 11.001-16.688 15.844s-3.5754 9.6262-5.75 17.562c-0.05862 0.19396-0.10044 0.39261-0.125 0.59375-0.64201 7.1877 0.48858 12.134 3.375 15.594s6.5929 5.0257 10.625 7.4375c0.1598 0.09641 0.32699 0.18001 0.5 0.25 8.8581 3.5537 15.06 4.8601 21.375 3.125s12.044-5.9198 21.75-12.312l0.0625-0.03125 95.969-65.438c1.6137-1.0959 2.0334-3.2925 0.9375-4.9062s-3.2925-2.0334-4.9062-0.9375l-96 65.469c-9.7682 6.4339-15.251 10.125-19.688 11.344-4.3679 1.2-8.3947 0.51747-16.531-2.7188-4.2629-2.5425-7.2402-4.0463-8.6875-5.7812-1.445-1.7322-2.2591-4.1525-1.75-10.219 2.1454-7.8825 2.9257-12.041 4.9375-15.438 2.0514-3.4632 5.8222-7.0264 14.844-13.781l100.28-68.812 0.0625-0.0625c5.8242-4.1548 11.435-7.5494 15.969-8.3125s8.111 0.20856 12.562 6.5c0.04929 0.07487 0.10141 0.14784 0.15625 0.21875l16 19.375v0.03125c2.4887 3.8107 3.1543 6.6352 2.8125 9.25-0.34269 2.6213-1.8222 5.3719-4.7188 8.5625-5.7733 6.3593-16.874 13.846-30.594 24.062l-0.125 0.09375c-42.037 28.412-82.677 57.093-126.28 85l-0.125 0.0625c-9.0218 6.2712-14.809 9.9579-20.469 11.281s-11.741 0.56862-22.156-2.875c-11.991-4.2635-16.731-6.95-18.406-9.7812s-1.374-7.9261-0.84375-18.188c0.00166-0.06249 0.00166-0.12501 0-0.1875-0.03835-13.898 8.7325-22.98 21.125-31.531l142.25-97.938c1.6051-1.1132 2.0038-3.3168 0.89063-4.9219s-3.3168-2.0038-4.9219-0.89063l-142.22 97.938c-13.039 8.9975-24.149 20.352-24.188 37.188-1.5e-4 0.06457-1.8e-4 0.12277 0 0.1875-0.52492 9.9724-1.4898 16.305 1.8438 21.938 3.3583 5.6746 9.9164 8.523 22.156 12.875l0.09375 0.03125c10.926 3.6124 18.637 4.7528 26 3.0312s13.776-6.0191 22.875-12.344c43.822-28.046 84.464-56.738 126.47-85.125l0.125-0.09375c13.62-10.148 24.849-17.461 31.75-25.062 3.4503-3.8005 5.9031-7.8407 6.5-12.406s-0.82091-9.3017-3.9375-14.062c-0.06723-0.10803-0.14026-0.21235-0.21875-0.3125l-16.094-19.469-0.15625-0.21875-0.03125 0.03125c-4.0993-5.6832-9.1121-8.6629-14.188-9.3125z" clip-path="url(#a)" fill="#ececec" fill-rule="evenodd" filter="url(#c)" opacity=".54091"/>
</svg>
