<svg height="512pt" viewBox="0 0 512 512.00062" width="512pt" xmlns="http://www.w3.org/2000/svg"><g fill="#ff5d5d"><path d="m114.289062 397.71875 28.132813 28.128906c25.75 25.75 61.8125 38.390625 98.003906 34.34375 27.003907-3.015625 52.183594-15.128906 71.398438-34.34375l21.964843-21.960937c40-40 40-104.851563 0-144.851563l-80.824218-80.824218c-40-40-104.851563-40-144.851563 0l-21.964843 21.964843c-19.214844 19.214844-31.324219 44.390625-34.34375 71.398438-4.042969 36.191406 8.597656 72.253906 34.34375 98.003906l28.132812 28.132813"/><path d="m230.648438 63.871094-51.808594-12.925782c-8.957032-2.234374-18.429688.390626-24.957032 6.917969-5.707031 5.707031-8.476562 13.71875-7.511718 21.730469l8.671875 72.167969-31.761719 11.285156-11.828125-77.875c-3.679687-24.210937 6.492187-48.449219 26.34375-62.789063 13.648437-9.855468 30.566406-14.066406 47.242187-11.753906l50.945313 7.066406zm0 0"/><path d="m448.128906 281.355469 12.925782 51.804687c2.234374 8.957032-.390626 18.429688-6.917969 24.957032-5.707031 5.707031-13.714844 8.476562-21.726563 7.511718l-72.171875-8.671875-11.285156 31.765625 77.875 11.828125c24.214844 3.675781 48.449219-6.492187 62.789063-26.347656 9.855468-13.644531 14.066406-30.566406 11.753906-47.242187l-7.066406-50.941407zm0 0"/></g><path d="m287.839844 164.09375c0 11.207031-9.085938 20.292969-20.292969 20.292969s-20.292969-9.085938-20.292969-20.292969 9.085938-20.292969 20.292969-20.292969 20.292969 9.085938 20.292969 20.292969zm0 0" fill="#ef3c3c"/><path d="m368.199219 244.453125c0 11.207031-9.085938 20.292969-20.292969 20.292969s-20.292969-9.085938-20.292969-20.292969c0-11.210937 9.085938-20.296875 20.292969-20.296875s20.292969 9.085938 20.292969 20.296875zm0 0" fill="#ef3c3c"/><path d="m315.214844 99.890625-60.015625-17.726563c-19.25-5.6875-30.246094-25.902343-24.558594-45.152343s25.902344-30.246094 45.152344-24.558594l60.011719 17.726563-42.519532 25.335937zm0 0" fill="#ff5d5d"/><path d="m412.105469 196.785156 17.726562 60.015625c5.6875 19.25 25.902344 30.246094 45.152344 24.558594s30.246094-25.902344 24.5625-45.152344l-17.730469-60.015625-25.335937 42.523438zm0 0" fill="#ff5d5d"/><path d="m511.277344 325.589844-7.066406-50.945313c-.132813-.972656-.410157-1.886719-.796876-2.738281 7.203126-11 9.730469-24.964844 5.722657-38.53125l-17.730469-60.015625c-1.125-3.808594-4.398438-6.59375-8.339844-7.089844-3.945312-.496093-7.804687 1.390625-9.839844 4.804688l-20.605468 34.578125-36.085938-17.832032c-3.558594-1.761718-7.828125-1.246093-10.867187 1.3125-3.039063 2.5625-4.277344 6.675782-3.152344 10.484376l17.726563 60.015624c3.082031 10.425782 9.5625 19.246094 18.460937 25.246094l12.652344 50.703125c1.375 5.515625-.265625 11.441407-4.289063 15.464844-3.558594 3.558594-8.46875 5.261719-13.464844 4.652344l-61.136718-7.34375c3.863281-25.636719-1.125-52.355469-14.960938-75.183594 4.324219-1.4375 8.386719-3.863281 11.820313-7.300781 5.722656-5.722656 8.875-13.328125 8.875-21.417969 0-8.09375-3.152344-15.699219-8.875-21.421875-5.71875-5.722656-13.328125-8.875-21.417969-8.875-8.09375 0-15.699219 3.152344-21.421875 8.875-2.519531 2.519531-4.542969 5.410156-6.015625 8.542969l-40.042969-40.046875c3.132813-1.472656 6.019531-3.492188 8.542969-6.015625 5.71875-5.71875 8.871094-13.328125 8.871094-21.417969 0-8.09375-3.152344-15.699219-8.871094-21.421875-5.722656-5.722656-13.328125-8.871094-21.421875-8.871094-8.089844 0-15.699219 3.148438-21.421875 8.871094-3.367188 3.367187-5.835938 7.390625-7.304688 11.78125-17.390624-10.582031-37.402343-16.242187-58.28125-16.242187-5.710937 0-11.355468.425781-16.902343 1.253906l-7.335938-61.066406c-.601562-4.996094 1.09375-9.902344 4.65625-13.464844 4.019531-4.019532 9.945313-5.660156 15.460938-4.289063l50.699219 12.652344c6.003906 8.898437 14.824218 15.378906 25.25 18.457031l60.011718 17.730469c.9375.277344 1.890625.410156 2.832032.410156 2.90625 0 5.722656-1.269531 7.652343-3.5625 2.558594-3.039062 3.074219-7.304687 1.3125-10.867187l-17.832031-36.085938 34.578125-20.605468c3.414063-2.035157 5.300781-5.898438 4.804687-9.839844-.496093-3.941406-3.277343-7.214844-7.089843-8.339844l-60.011719-17.730469c-11.871094-3.507812-24.398438-2.183593-35.273438 3.734375-1.128906.613282-2.21875 1.277344-3.28125 1.976563-.847656-.378907-1.753906-.652344-2.714843-.785157l-50.945313-7.066406c-19.316406-2.679687-38.660156 2.136719-54.46875 13.554688-22.996094 16.609375-34.636718 44.351562-30.375 72.394531l11.269532 74.195313c-1.789063 1.355468-3.542969 2.761718-5.257813 4.230468-21.71875-18.28125-49.75-27.878906-78.3125-26.542968l-4.070313.1875c-5.515624.261718-9.777343 4.941406-9.519531 10.457031.257813 5.519531 4.949219 9.761719 10.457031 9.523437l4.070313-.191406c22.832031-1.070312 45.25 6.34375 62.902344 20.546875l-14.027344 14.023437c-2.808594 2.8125-5.476563 5.75-8.003906 8.792969-14.933594-12.382812-34.128907-18.339843-53.664063-16.449219-5.496094.53125-9.523437 5.417969-8.992187 10.914063.535156 5.496094 5.410156 9.523437 10.917969 8.992187 14.699218-1.417968 29.136718 3.277344 40.144531 12.945313-3.507813 5.871094-6.546875 12.015625-9.089844 18.363281-11.875-5.824218-25.167969-8.554687-38.457031-7.757812l-2.535156.15625c-5.511719.332031-9.710938 5.070312-9.3789068 10.582031.3320308 5.511719 5.0585938 9.691406 10.5820308 9.382813l2.53125-.152344c10.867188-.660156 21.738282 1.882812 31.191407 7.183594-1.085938 4.742187-1.910157 9.550781-2.453125 14.410156-.222656 1.988281-.386719 3.976562-.519532 5.960937-8.65625-3.175781-17.9375-4.585937-27.222656-4.019531l-2.175781.128906c-5.511719.332032-9.710937 5.070313-9.378906 10.582032.332031 5.515624 5.050781 9.734374 10.582031 9.382812l2.171875-.128906c9.238281-.5625 18.460937 1.644531 26.4375 6.234375 3.058594 29.261719 15.996094 56.726562 37.3125 78.046875l28.082031 28.074218c.019532.019532.039063.042969.058594.0625l28.132812 28.132813c21.316407 21.316406 48.785157 34.257813 78.042969 37.316406 4.589844 7.976563 6.792969 17.207031 6.238281 26.433594l-.132812 2.171875c-.332031 5.515625 3.867188 10.25 9.382812 10.582031.203126.015625.40625.019531.609376.019531 5.246093 0 9.652343-4.089843 9.972656-9.398437l.128906-2.175781c.558594-9.28125-.851562-18.5625-4.023438-27.21875 1.984376-.132813 3.976563-.296875 5.96875-.519532 4.855469-.542968 9.664063-1.367187 14.40625-2.453124 5.300782 9.449218 7.839844 20.320312 7.1875 31.191406l-.152343 2.53125c-.332031 5.511718 3.871093 10.25 9.382812 10.582031.203125.011719.40625.015625.605469.015625 5.25 0 9.65625-4.09375 9.972656-9.398438l.152344-2.53125c.800781-13.292968-1.929688-26.582031-7.753906-38.457031 6.347656-2.542969 12.488281-5.585937 18.363281-9.089843 9.667969 11.003906 14.367187 25.441406 12.945313 40.144531-.535157 5.496093 3.492187 10.382812 8.988281 10.914062.328125.03125.652343.046875.976562.046875 5.085938 0 9.4375-3.867187 9.941407-9.035156 1.890624-19.535156-4.066407-38.734375-16.449219-53.667969 3.042969-2.527343 5.980469-5.195312 8.789062-8.003906l14.027344-14.023437c14.203125 17.652343 21.613281 40.070312 20.546875 62.902343l-.191406 4.066407c-.257813 5.519531 4.003906 10.199218 9.523437 10.457031.15625.007812.316407.011719.472657.011719 5.308593 0 9.730468-4.175782 9.980468-9.53125l.191406-4.070313c1.335938-28.558594-8.261718-56.59375-26.546874-78.3125 1.46875-1.71875 2.871093-3.472656 4.21875-5.253906l74.210937 11.269531c3.832031.582031 7.65625.867188 11.453125.867188 23.964844 0 46.605469-11.390626 60.945312-31.242188 11.414063-15.8125 16.226563-35.15625 13.550782-54.472656zm-83.105469-109.710938 23.878906 11.800782c4.679688 2.3125 10.347657.636718 13.019531-3.847657l13.632813-22.878906 11.253906 38.085937c1.992188 6.75 1.238281 13.871094-2.125 20.050782-3.363281 6.183594-8.929687 10.6875-15.679687 12.679687-6.746094 1.992188-13.871094 1.238281-20.050782-2.121093-6.183593-3.363282-10.683593-8.933594-12.679687-15.683594zm-90.558594 28.574219c0-2.75 1.066407-5.335937 3.011719-7.28125 1.945312-1.941406 4.53125-3.015625 7.28125-3.015625 2.746094 0 5.332031 1.074219 7.277344 3.015625 1.945312 1.945313 3.015625 4.53125 3.015625 7.28125 0 2.746094-1.070313 5.332031-3.015625 7.277344-4.011719 4.011719-10.542969 4.011719-14.558594 0-1.945312-1.945313-3.011719-4.53125-3.011719-7.277344zm-77.34375-87.636719c1.945313-1.945312 4.527344-3.015625 7.277344-3.015625s5.335937 1.070313 7.28125 3.015625c1.941406 1.941406 3.011719 4.527344 3.011719 7.277344s-1.070313 5.332031-3.011719 7.277344c-1.945313 1.945312-4.53125 3.015625-7.277344 3.015625-2.75 0-5.335937-1.070313-7.28125-3.015625-1.945312-1.945313-3.015625-4.527344-3.015625-7.277344s1.070313-5.332031 3.015625-7.277344zm-7.363281-132.652344c3.917969-2.128906 8.214844-3.214843 12.554688-3.214843 2.503906 0 5.027343.363281 7.496093 1.09375l38.089844 11.25-22.882813 13.632812c-4.484374 2.671875-6.15625 8.34375-3.84375 13.023438l11.800782 23.875-38.089844-11.25c-6.746094-1.992188-12.316406-6.496094-15.679688-12.679688-3.359374-6.179687-4.113281-13.300781-2.121093-20.050781 1.992187-6.746094 6.496093-12.316406 12.675781-15.679688zm-131.566406 59.507813c-3.128906-20.605469 5.417968-40.980469 22.3125-53.183594 11.613281-8.386719 25.824218-11.921875 40.011718-9.953125l40.585938 5.628906c-1.296875 2.542969-2.375 5.21875-3.199219 8.015626-1.613281 5.449218-2.191406 11.039062-1.785156 16.542968l-38.003906-9.480468c-12.292969-3.066407-25.492188.59375-34.449219 9.550781-7.929688 7.925781-11.707031 18.859375-10.371094 29.992187l7.625 63.453125c-4.351562 1.488281-8.597656 3.242188-12.730468 5.257813zm183.414062 335.105469c-17.542968 17.542968-40.785156 28.722656-65.4375 31.476562-33.351562 3.730469-66.09375-7.746094-89.824218-31.476562l-28.082032-28.082032c-.019531-.019531-.039062-.039062-.058594-.058593l-28.128906-28.132813c-23.730468-23.730468-35.203125-56.46875-31.476562-89.820312 2.753906-24.65625 13.933594-47.894532 31.476562-65.4375l21.964844-21.964844c11.289062-11.289062 24.992188-19.273438 39.941406-23.523438.367188-.003906.734375-.023437 1.109375-.066406 1.273438-.152344 2.457031-.550781 3.523438-1.121094 6.738281-1.542968 13.691406-2.359374 20.777343-2.359374 24.6875 0 47.898438 9.613281 65.355469 27.074218l80.820313 80.820313c23.378906 23.378906 31.574218 56.265625 24.617187 86.328125-.515625 1.015625-.875 2.132812-1.019531 3.332031-.039062.296875-.054688.589844-.0625.882813-4.144531 14.71875-11.972656 28.605468-23.535156 40.164062zm176.757813-50.429688c-12.203125 16.894532-32.578125 25.445313-53.183594 22.316406l-65.875-10.007812c2.015625-4.152344 3.761719-8.40625 5.238281-12.734375l63.523438 7.636719c1.472656.175781 2.945312.265625 4.40625.265625 9.566406 0 18.707031-3.757813 25.585937-10.636719 8.957031-8.957031 12.617188-22.15625 9.550781-34.449219l-9.480468-38.003906c1.113281.082031 2.230468.132813 3.347656.132813 4.410156 0 8.847656-.636719 13.195312-1.917969 2.816407-.832031 5.488282-1.921875 8.015626-3.214844l5.628906 40.597656c1.96875 14.191407-1.566406 28.402344-9.953125 40.015625zm0 0"/><path d="m270.3125 384.339844c-9.757812 9.757812-22.6875 15.976562-36.40625 17.511718-18.554688 2.078126-36.773438-4.308593-49.972656-17.511718-3.90625-3.90625-10.238282-3.90625-14.144532 0-3.902343 3.902344-3.90625 10.234375 0 14.140625 15.351563 15.351562 35.808594 23.757812 57.203126 23.757812 3.03125 0 6.082031-.167969 9.136718-.507812 18.207032-2.039063 35.371094-10.292969 48.328125-23.25 3.90625-3.90625 3.90625-10.234375 0-14.140625s-10.238281-3.90625-14.144531 0zm0 0"/><path d="m307.34375 351.453125c-2.640625 0-5.210938 1.066406-7.078125 2.929687-1.859375 1.859376-2.921875 4.4375-2.921875 7.070313 0 2.628906 1.0625 5.207031 2.921875 7.066406 1.867187 1.871094 4.449219 2.933594 7.078125 2.933594s5.199219-1.0625 7.070312-2.933594c1.859376-1.859375 2.917969-4.4375 2.917969-7.066406 0-2.632813-1.058593-5.210937-2.917969-7.070313-1.871093-1.863281-4.441406-2.929687-7.070312-2.929687zm0 0"/></svg>