<?xml version="1.0" encoding="utf-8"?>
<!-- Svg Vector Icons : http://www.onlinewebfonts.com/icon -->
<!DOCTYPE svg PUBLIC "-//W3C//DTD SVG 1.1//EN" "http://www.w3.org/Graphics/SVG/1.1/DTD/svg11.dtd">
<svg version="1.1" xmlns="http://www.w3.org/2000/svg" xmlns:xlink="http://www.w3.org/1999/xlink" x="0px" y="0px" viewBox="0 0 1000 1000" enable-background="new 0 0 1000 1000" xml:space="preserve">
<metadata> Svg Vector Icons : http://www.onlinewebfonts.com/icon </metadata>
<g><path d="M937.7,916.3H62.3c-28.8,0-52.3-23.5-52.3-52.4V384.6c0-28.9,23.4-52.4,52.3-52.4h875.4c28.8,0,52.3,23.5,52.3,52.4v479.3C990,892.8,966.5,916.3,937.7,916.3z"/><path d="M28.6,321.8c-10.3,0-18.6-8.4-18.6-18.7c0-14.9,9.1-55.3,22.1-110.6c5.6-23.8,10.5-44.5,11.8-52.9c5.1-33.9,25.6-55.9,52-55.9h289.6c26.4,0,46.8,21.9,52,56c3.6,23.3,22.2,78.7,33,91.4h467.2c28.8,0,52.3,26.4,52.3,58.8v11.3c0,10.3-8.3,18.7-18.6,18.7c-10.3,0-18.6-8.4-18.6-18.7v-11.3c0-11.5-7-21.5-15.1-21.5H466.3c-41.6,0-65.3-121.8-65.5-123c-1.8-12.1-7.7-24.4-15.2-24.4H95.9c-7.5,0-13.5,12.6-15.3,24.3c-1.3,9-6.4,30.7-12.3,55.7c-8,33.8-21.2,90.4-21.2,102.1C47.2,313.5,38.8,321.8,28.6,321.8z"/></g>
</svg>