<?xml version="1.0" encoding="utf-8"?>
<!-- Svg Vector Icons : http://www.onlinewebfonts.com/icon -->
<!DOCTYPE svg PUBLIC "-//W3C//DTD SVG 1.1//EN" "http://www.w3.org/Graphics/SVG/1.1/DTD/svg11.dtd">
<svg version="1.1" xmlns="http://www.w3.org/2000/svg" xmlns:xlink="http://www.w3.org/1999/xlink" x="0px" y="0px" viewBox="0 0 1000 1000" enable-background="new 0 0 1000 1000" xml:space="preserve">
<metadata> Svg Vector Icons : http://www.onlinewebfonts.com/icon </metadata>
<g><g transform="translate(0.000000,511.000000) scale(0.100000,-0.100000)"><path d="M4480.2,4984.9c-1418.8-149.3-2748-953.3-3549.5-2150.6C-59.9,1353.3-172-518.5,634.5-2106.6c485.4-953.3,1209.7-1675.2,2163.1-2153.1c826.4-413.2,1695.1-587.4,2568.8-515.3c687,57.2,1224.6,209.1,1836.9,515.3c960.8,480.4,1685.2,1204.7,2165.5,2165.5c306.2,612.3,458,1150,515.3,1837c72.1,873.7-102.1,1742.4-515.3,2568.8c-477.9,953.3-1199.7,1677.7-2153.1,2163C6364.5,4905.3,5421.1,5082,4480.2,4984.9z M5386.2,4763.4c2183-206.6,3900.5-1839.5,4206.6-4002.5c62.2-440.6,42.3-1145-47.3-1560.7c-169.2-804-532.6-1530.8-1077.8-2158.1c-89.6-107-169.3-189.2-174.2-184.2c-5,5-29.9,109.5-54.8,229C7970-1606.3,7051.5-506.1,5926.4-142.7C5587.9-33.2,5393.7-3.3,5000.4-3.3c-390.8,0-587.4-29.9-926-139.4C2894.6-526,1958.7-1695.9,1727.2-3084.8c-14.9-97.1-14.9-97.1-67.2-49.8c-104.5,92.1-430.6,500.3-575,716.9C539.9-1588.9,261.1-508.6,343.3,459.7c54.8,664.6,199.1,1184.8,492.9,1762.3c246.4,490.4,448,766.7,866.2,1184.8C2118,3825,2396.8,4026.6,2884.7,4273C3688.7,4678.8,4532.5,4843,5386.2,4763.4z M5513.2-436.4c286.3-59.7,602.4-186.7,878.7-356c271.3-166.7,736.8-622.3,921-903.5c271.3-413.2,477.9-930.9,560.1-1406.4c69.7-395.8,74.7-363.4-82.2-482.9C7265.5-3988.4,6601-4289.6,5909-4436.4c-408.2-87.1-1135-109.5-1555.7-49.8c-769.1,112-1535.8,418.2-2103.3,843.8c-199.1,149.3-194.2,129.4-122,540.1c122,692,440.6,1336.7,901.1,1819.6c331.1,348.5,637.2,562.5,1038,721.8C4500.1-389.1,5052.7-341.8,5513.2-436.4z"/><path d="M4776.4,3304.8c-296.2-57.2-584.9-219-784.1-438.1C3337.7,2149.8,3609,1022.2,4520,661.3c151.8-59.8,201.6-64.7,480.4-64.7c268.8,0,331.1,7.5,460.5,57.2c333.6,131.9,590,356,744.3,647.2c273.8,522.7,196.7,1142.5-196.7,1568.1c-263.8,281.3-567.5,423.1-945.9,438.1C4940.7,3312.2,4811.3,3309.7,4776.4,3304.8z M5411.1,2834.3c189.2-89.6,380.9-281.3,475.4-472.9c64.7-136.9,72.2-171.7,72.2-410.7c0-231.5-7.4-278.8-67.2-403.2c-181.7-390.8-622.3-632.2-1035.5-565c-311.1,47.3-592.4,256.4-734.3,542.6c-74.7,151.8-79.7,179.2-79.7,425.6c0,219,10,281.3,57.2,383.3c114.5,248.9,326.1,443.1,584.9,540.1C4883.5,2948.8,5212,2928.9,5411.1,2834.3z"/></g></g>
</svg>