<?xml version="1.0" encoding="utf-8"?>
<!-- Svg Vector Icons : http://www.onlinewebfonts.com/icon -->
<!DOCTYPE svg PUBLIC "-//W3C//DTD SVG 1.1//EN" "http://www.w3.org/Graphics/SVG/1.1/DTD/svg11.dtd">
<svg version="1.1" xmlns="http://www.w3.org/2000/svg" xmlns:xlink="http://www.w3.org/1999/xlink" x="0px" y="0px" viewBox="0 0 1000 1000" enable-background="new 0 0 1000 1000" xml:space="preserve">
<metadata> Svg Vector Icons : http://www.onlinewebfonts.com/icon </metadata>
<g><g transform="translate(0.000000,511.000000) scale(0.100000,-0.100000)"><path d="M1157.1,4960.6l-49.4-47.4V102.1V-4709l51.4-39.5l53.3-41.5h3791.6h3791.6l47.4,49.4l49.4,47.4V110v4803.2l-49.4,47.4l-47.4,49.4H5000H1204.5L1157.1,4960.6z M8596,110v-4583.9H5000H1404V110v4583.9h3596h3596V110z"/><path d="M2320.8,3702c-23.7-9.9-53.3-41.5-65.2-67.2c-15.8-35.6-21.7-885.2-21.7-3042.7v-2993.3l49.4-47.4l47.4-49.4H5000h2669.3l47.4,49.4l49.4,47.4V592.1c0,2151.7-5.9,3007.2-21.7,3040.8c-11.9,27.7-43.5,59.3-71.1,71.1C7608.1,3733.6,2382.1,3731.6,2320.8,3702z M7450,2032.5V653.3l-250.9,250.9c-140.3,136.3-272.7,254.9-296.4,262.8c-23.7,5.9-65.2,2-88.9-9.9c-25.7-13.8-367.5-345.8-760.7-737c-434.7-434.7-723.1-707.3-733-695.5c-9.9,11.8-233.1,264.8-497.9,563.1c-262.8,298.3-499.9,563.1-527.5,588.8c-27.7,25.7-73.1,43.5-110.6,43.5c-55.3,0-144.2-83-847.6-784.4L2550-650.7v2031.1v2029.2h2450h2450V2032.5z M7169.4,487.4L7450,193v-1197.3v-1197.3H5000H2550v559.2v557.2l816,814l814,816l521.6-588.8c286.5-322.1,543.4-598.7,569-612.5c27.7-15.8,69.2-21.7,90.9-15.8c23.7,5.9,367.5,335.9,764.6,733s731,721.2,740.9,721.2C6879,781.8,7015.3,649.4,7169.4,487.4z"/><path d="M5140.3,2666.7c-187.7-67.2-365.5-227.2-440.6-399.1c-63.2-144.2-71.1-397.1-15.8-543.3c57.3-150.2,146.2-264.8,276.6-353.7c294.4-201.5,665.8-164,920.7,90.9c158,158.1,211.4,292.4,213.4,519.6c0,146.2-7.9,173.9-73.1,310.2c-84.9,167.9-183.7,266.7-349.7,343.8C5533.5,2700.3,5274.6,2716.1,5140.3,2666.7z M5586.8,2330.8c156.1-88.9,241.1-320.1,183.8-492c-102.8-312.2-541.4-387.3-733-122.5c-134.4,185.7-120.5,387.3,39.5,547.3C5223.3,2409.8,5409,2433.5,5586.8,2330.8z"/></g></g>
</svg>