<?xml version="1.0" encoding="utf-8"?>
<!-- Svg Vector Icons : http://www.onlinewebfonts.com/icon -->
<!DOCTYPE svg PUBLIC "-//W3C//DTD SVG 1.1//EN" "http://www.w3.org/Graphics/SVG/1.1/DTD/svg11.dtd">
<svg version="1.1" xmlns="http://www.w3.org/2000/svg" xmlns:xlink="http://www.w3.org/1999/xlink" x="0px" y="0px" viewBox="0 0 1000 1000" enable-background="new 0 0 1000 1000" xml:space="preserve">
<metadata> Svg Vector Icons : http://www.onlinewebfonts.com/icon </metadata>
<g><g transform="translate(0.000000,511.000000) scale(0.100000,-0.100000)"><path d="M5357.8,4295.2l-738.1-716l450.3-450.3l446.6-450.3l151.3,62.7c195.6,77.5,354.3,73.8,538.9-11.1c251-114.4,387.5-317.4,387.5-568.4c0-258.3,3.7-254.7-1177.3-967L4287.5,512.3l-1742-1686.6C1239-2432.9,781.4-2901.6,718.6-3027.1c-66.4-132.9-84.9-232.5-84.9-446.6c0-236.2,14.8-306.3,110.7-476.1c188.2-343.3,513-531.5,922.7-531.5c461.3-7.4,446.6-18.5,2384.2,1852.7L5785.9-949.2l686.5,1081.3c616.3,963.3,701.2,1085,815.6,1122c291.6,96,631.1-40.6,782.4-310c77.5-132.9,81.2-188.2,77.5-859.9c-7.4-800.9,18.4-948.5,191.9-1147.8c310-354.3,882.1-302.6,1088.8,99.6l84.9,166.1l-22.1,1236.4c-25.8,1177.3-29.5,1243.8-107,1369.2c-66.4,110.7-3192.4,3174-3262.5,3196.1C6107,5007.5,5763.8,4690.1,5357.8,4295.2z"/><path d="M2091.6,4701.2c-29.5-7.4-121.8-25.8-203-36.9l-147.6-25.8l457.6-428.1l454-431.8l-96-616.3c-51.7-335.8-96-631.1-96-649.5c0-18.5-44.3-66.4-99.7-103.3c-73.8-48-265.7-81.2-693.8-125.5l-590.5-59.1l-435.5,409.7c-239.9,221.4-450.3,409.7-465,417c-92.3,33.2-103.3-675.4-18.5-1003.8C331.1,1375.9,873.7,789.1,1549,545.5c180.9-62.7,328.5-84.9,708.6-92.3l476.1-14.8l195.6-191.9L3125,54.6l118.1,107c66.4,59.1,346.9,328.5,620,597.9c446.6,439.2,535.1,505.6,845.2,656.9l346.9,169.8L4782.1,1863l-273.1,273.1l-3.7,417c-7.4,439.2-51.7,620-247.3,1011.3c-129.2,251-457.7,601.6-738.1,786.1c-125.5,81.2-358,188.2-513,239.9C2744.8,4671.6,2228.1,4734.4,2091.6,4701.2z M3494,2162c214-114.4,302.6-280.5,284.2-535.1c-11.1-158.7-36.9-217.8-136.6-324.8c-225.1-228.8-561-251-793.5-48c-155,136.5-217.7,291.6-195.6,490.8c25.8,203,118.1,332.2,306.3,428.1C3150.8,2269,3298.4,2265.3,3494,2162z"/><path d="M6741.8-513.7c-151.3-324.8-173.5-354.3-782.4-933.7c-343.2-328.5-620-609-612.6-620c7.4-14.8,590.5-586.8,1299.1-1273.3c1498.4-1454.1,1483.7-1443.1,2052-1443.1c310,0,372.7,11.1,546.2,103.3c247.3,129.2,450.3,332.2,564.7,564.7c73.8,151.3,88.6,236.2,88.6,513c-3.7,561,221.4,299-2738.5,3166.6l-262,258.3L6741.8-513.7z M8948.8-3093.5c180.9-132.9,247.3-262,247.3-465c0-332.2-228.8-549.9-575.7-549.9c-284.2,0-498.2,173.5-564.7,461.3c-51.7,225.2,110.7,513,346.9,612.7C8539.2-2975.4,8834.4-3008.6,8948.8-3093.5z"/></g></g>
</svg>