<?xml version="1.0" encoding="utf-8"?>
<!-- Svg Vector Icons : http://www.onlinewebfonts.com/icon -->
<!DOCTYPE svg PUBLIC "-//W3C//DTD SVG 1.1//EN" "http://www.w3.org/Graphics/SVG/1.1/DTD/svg11.dtd">
<svg version="1.1" xmlns="http://www.w3.org/2000/svg" xmlns:xlink="http://www.w3.org/1999/xlink" x="0px" y="0px" viewBox="0 0 1000 1000" enable-background="new 0 0 1000 1000" xml:space="preserve">
<metadata> Svg Vector Icons : http://www.onlinewebfonts.com/icon </metadata>
<g><path d="M544.5,858.6v-0.3H158.7h-26.2c-33.8,0-61.3-27.3-61.3-60.9V201.1c0-33.6,27.4-60.9,61.3-60.9h26.2h667.9h40.8c33.8,0,61.3,27.3,61.3,60.9v292.9c-0.3,1.8-0.5,3.6-0.5,5.5c0,16.8,13.7,30.3,30.5,30.3c16.8,0,30.5-13.6,30.5-30.3c0-0.3,0-0.5,0-0.8h0.8V201.1c0-67.3-54.8-121.9-122.5-121.9h-735C64.8,79.3,10,133.8,10,201.1v596.3c0,67.3,54.8,121.9,122.5,121.9h411c0.5,0,1,0,1.5,0c16.8,0,30.5-13.6,30.5-30.3c0-16.8-13.7-30.3-30.5-30.3C544.9,858.6,544.7,858.6,544.5,858.6z"/><path d="M500.1,779.3H173.3c-12.8,0-23.3-10.4-23.3-23.3V242.6c0-12.9,10.3-23.3,23.3-23.3h606.8c12.8,0,23.3,10.4,23.3,23.3v210"/><path d="M964.7,819.4L950.1,845c-4,7.1-13,9.5-20,5.4l-40.6-23.7c-20.6,23.5-48.5,40.3-80.2,46.8V906c0,8.2-6.5,14.8-14.6,14.8h-29.3c-8.1,0-14.6-6.6-14.6-14.8v-32.5c-31.7-6.5-59.6-23.3-80.2-46.8l-40.6,23.7c-7,4.1-15.9,1.7-20-5.4l-14.6-25.6c-4-7.1-1.6-16.1,5.4-20.1l40.8-23.8c-4.9-14.7-7.8-30.3-7.8-46.6s2.9-31.9,7.8-46.6l-40.8-23.8c-7-4.1-9.4-13.1-5.4-20.2l14.6-25.6c4-7.1,13-9.5,20-5.4l40.6,23.7c20.6-23.5,48.5-40.3,80.2-46.8v-32.5c0-8.2,6.5-14.8,14.6-14.8h29.3c8.1,0,14.6,6.6,14.6,14.8v32.5c31.7,6.5,59.6,23.3,80.2,46.8l40.6-23.7c7-4.1,15.9-1.7,20,5.4l14.6,25.6c4,7.1,1.6,16.1-5.4,20.2l-40.8,23.8c4.9,14.7,7.8,30.3,7.8,46.6s-2.9,31.9-7.8,46.6l40.8,23.8C966.3,803.4,968.7,812.4,964.7,819.4L964.7,819.4z"/></g>
</svg>