<?xml version="1.0" encoding="utf-8"?>
<!-- Svg Vector Icons : http://www.onlinewebfonts.com/icon -->
<!DOCTYPE svg PUBLIC "-//W3C//DTD SVG 1.1//EN" "http://www.w3.org/Graphics/SVG/1.1/DTD/svg11.dtd">
<svg version="1.1" xmlns="http://www.w3.org/2000/svg" xmlns:xlink="http://www.w3.org/1999/xlink" x="0px" y="0px" viewBox="0 0 1000 1000" enable-background="new 0 0 1000 1000" xml:space="preserve">
<metadata> Svg Vector Icons : http://www.onlinewebfonts.com/icon </metadata>
<g><path d="M150.4,420.8c17.5,17.5,43.8,22.7,66.8,13.3c22.9-9.5,37.8-31.8,37.8-56.6v-61.2h61.2V193.8H255v-61.3c0-24.8-15-47.1-37.8-56.6c-22.9-9.4-49.2-4.2-66.8,13.3L27.9,211.7C16,223.6,10,239.3,10,255c0,15.7,6,31.3,17.9,43.3L150.4,420.8z M849.6,579.2c-17.5-17.5-43.8-22.7-66.8-13.3c-22.8,9.5-37.8,31.8-37.8,56.6v61.3h-61.2v122.5H745v61.2c0,24.8,15,47.1,37.8,56.6c22.9,9.5,49.2,4.2,66.8-13.3l122.5-122.5c12-12,17.9-27.6,17.9-43.3c0-15.7-6-31.3-17.9-43.3L849.6,579.2z M438.7,806.3H500V683.8h-61.2V806.3z M438.7,193.8h-61.2v122.5h61.2V193.8z M316.3,561.3h-245c-33.8,0-61.3,27.5-61.3,61.2v245c0,33.9,27.5,61.2,61.3,61.2h245c33.8,0,61.3-27.4,61.3-61.2v-245C377.5,588.7,350,561.3,316.3,561.3z M255,806.3H132.5V683.8H255V806.3z M561.2,193.8H500v122.5h61.3V193.8z M928.8,71.3h-245c-33.9,0-61.3,27.4-61.3,61.2v245c0,33.9,27.4,61.3,61.3,61.3h245c33.9,0,61.3-27.4,61.3-61.3v-245C990,98.7,962.6,71.3,928.8,71.3z M867.5,316.3H745V193.8h122.5L867.5,316.3L867.5,316.3z M561.2,806.3h61.3V683.8h-61.3V806.3z"/></g>
</svg>