<?xml version="1.0" encoding="utf-8"?>
<!-- Svg Vector Icons : http://www.onlinewebfonts.com/icon -->
<!DOCTYPE svg PUBLIC "-//W3C//DTD SVG 1.1//EN" "http://www.w3.org/Graphics/SVG/1.1/DTD/svg11.dtd">
<svg version="1.1" xmlns="http://www.w3.org/2000/svg" xmlns:xlink="http://www.w3.org/1999/xlink" x="0px" y="0px" viewBox="0 0 1000 1000" enable-background="new 0 0 1000 1000" xml:space="preserve">
<metadata> Svg Vector Icons : http://www.onlinewebfonts.com/icon </metadata>
<g><g transform="translate(0.000000,511.000000) scale(0.100000,-0.100000)"><path d="M4536,5006.9c-658.9-80.1-1173.6-228.3-1704.3-490.7c-1309.8-650.9-2251-1816.4-2601.5-3222.4C120,851.3,100,669.1,100,112.3s20-739,130.2-1181.6C730.9-3084,2455.2-4572,4522-4774.3c310.4-30,919.2-16,1205.6,28c883.2,138.2,1734.3,522.7,2415.3,1089.5c909.2,759,1528.1,1856.5,1710.3,3028.1c46.1,296.4,62.1,901.2,30,1215.6C9683,2639.7,8205,4364.1,6208.3,4872.8c-404.6,102.1-610.8,128.2-1121.5,136.2C4822.4,5010.9,4574.1,5010.9,4536,5006.9z M5379.1,4017.6c751-76.1,1448-358.5,2050.8-831.1c184.3-146.2,506.7-466.6,642.9-640.9c626.9-803.1,925.3-1814.5,829.1-2795.8c-78.1-777-372.5-1504-855.2-2100.8c-144.2-178.3-486.7-514.7-656.9-642.9c-590.8-450.6-1285.7-725-2030.8-799.1c-965.3-96.1-1964.7,194.3-2755.7,799.1c-170.2,128.2-512.7,464.6-656.9,642.9c-1151.6,1425.9-1163.6,3438.7-26,4896.6c136.2,174.2,458.6,494.7,642.9,640.9C3376.4,3823.3,4377.8,4117.7,5379.1,4017.6z"/><path d="M4818.4,3288.6c-102.1-36.1-212.3-140.2-264.4-246.3l-48.1-96.1l-6-1107.5l-6-1109.5l-80.1-82.1c-338.5-352.5-254.3-957.3,164.2-1209.6c210.3-126.2,456.6-154.2,674.9-78.1l88.1,32.1L5887.8-889c540.7-276.4,548.8-280.4,680.9-280.4c154.2,0,254.4,36,346.5,126.2c190.3,182.2,210.3,454.6,52.1,664.9c-62.1,80.1-122.2,116.2-626.9,370.5l-558.7,278.4l-34.1,100.1c-36,108.1-170.2,310.4-220.3,330.4c-26,10-30,140.2-30,1089.5c0,1197.6-2,1209.6-130.2,1359.8c-94.1,110.1-218.3,166.2-364.5,164.2C4938.5,3314.6,4856.4,3302.6,4818.4,3288.6z"/><path d="M1696.2,490.8c-400.5-198.3-262.4-799.1,186.3-799.1c364.5,0,558.8,408.5,328.4,688.9C2088.7,526.9,1866.4,574.9,1696.2,490.8z"/><path d="M7906.6,482.8c-146.2-74.1-212.3-178.2-222.3-348.5c-6-110.2,2-148.2,40-222.3c74.1-138.2,188.2-208.3,352.5-216.3c112.2-6,148.2,0,224.3,40c238.3,128.2,294.4,446.6,114.2,650.9C8285.1,534.9,8086.8,572.9,7906.6,482.8z"/><path d="M4804.4-2621.4c-180.2-90.1-268.4-278.4-224.3-478.7c28-138.2,168.2-276.4,308.4-310.4c200.3-48,388.5,40.1,478.6,228.3c48.1,94.1,54.1,128.2,44.1,222.3C5379.1-2659.5,5068.7-2485.2,4804.4-2621.4z"/></g></g>
</svg>