<?xml version="1.0" encoding="utf-8"?>
<!-- Svg Vector Icons : http://www.onlinewebfonts.com/icon -->
<!DOCTYPE svg PUBLIC "-//W3C//DTD SVG 1.1//EN" "http://www.w3.org/Graphics/SVG/1.1/DTD/svg11.dtd">
<svg version="1.1" xmlns="http://www.w3.org/2000/svg" xmlns:xlink="http://www.w3.org/1999/xlink" x="0px" y="0px" viewBox="0 0 1000 1000" enable-background="new 0 0 1000 1000" xml:space="preserve">
<metadata> Svg Vector Icons : http://www.onlinewebfonts.com/icon </metadata>
<g><g transform="translate(0.000000,511.000000) scale(0.100000,-0.100000)"><path d="M4515.8,1084.1v-3931.5H5000h484.2v2213.6v2213.6h1971.5h1971.5v1717.9v1717.9H6971.5H4515.8V1084.1z"/><path d="M2302.1-1212.6c-366.6-96.8-809.4-260.6-1118.4-412.8c-535-262.9-850.9-537.3-1012.3-876.2C109.2-2633,100-2674.5,100-2847.4c0-170.6,9.2-214.4,71.5-345.9c159.1-332.1,475-608.8,1003.1-873.9c675.6-338.9,1607.2-576.5,2695.6-687.1c560.3-55.3,1724.8-55.3,2271.3,2.3c763.2,78.4,1385.8,202.9,1969.2,396.6c887.8,290.5,1480.4,687.2,1701.7,1132.2c80.7,163.7,87.6,191.4,87.6,373.6c0,172.9-9.2,216.7-71.5,348.2c-99.2,209.8-253.6,387.4-488.8,564.9c-226,170.6-687.1,408.1-1030.7,530.4c-226,83-767.9,242.1-816.3,242.1c-18.4,0-25.4-136.1-20.7-451.9l6.9-454.3l299.8-73.8C9395-2550,9312-3211.8,7594.1-3594.6c-327.4-73.8-774.8-140.6-1279.8-191.4c-571.9-57.6-2056.9-57.6-2628.7,0c-1757.1,177.6-2734.8,560.3-2617.2,1023.8c25.4,103.8,221.4,272.1,433.5,373.6c209.8,99.2,638.7,237.5,878.5,281.3l152.2,27.7v458.9c0,350.5-6.9,456.6-27.7,454.3C2488.9-1166.4,2396.7-1187.2,2302.1-1212.6z"/></g></g>
</svg>