<?xml version="1.0" encoding="utf-8"?>
<!-- Svg Vector Icons : http://www.onlinewebfonts.com/icon -->
<!DOCTYPE svg PUBLIC "-//W3C//DTD SVG 1.1//EN" "http://www.w3.org/Graphics/SVG/1.1/DTD/svg11.dtd">
<svg version="1.1" xmlns="http://www.w3.org/2000/svg" xmlns:xlink="http://www.w3.org/1999/xlink" x="0px" y="0px" viewBox="0 0 1000 1000" enable-background="new 0 0 1000 1000" xml:space="preserve">
<metadata> Svg Vector Icons : http://www.onlinewebfonts.com/icon </metadata>
<g><g transform="translate(0.000000,511.000000) scale(0.100000,-0.100000)"><path d="M1271.2,3668.1c-120.8-55.6-230.1-180.2-266.5-306.7c-17.3-53.7-80.5-527.2-143.8-1052.5c-63.3-527.2-120.8-964.3-126.5-973.9c-5.7-9.6-28.8-17.3-53.7-17.3c-74.8,0-272.2-111.2-352.7-199.4C153.6,930.5,67.3,644.9,111.4,412.9c63.3-316.3,312.5-588.5,669.1-730.4c128.4-49.9,178.3-59.4,379.6-67.1c281.8-9.6,465.8,23,747.7,132.3c193.6,74.8,473.5,230,584.7,324l61.3,49.8l-521.4,379.6C1746.7,710,1509,886.4,1503.2,896c-13.4,21.1,262.6,1226.9,279.9,1226.9c19.2,0,1148.3-605.8,1169.4-626.9c7.7-7.7-53.7-398.8-138-868.4c-172.5-958.5-176.4-1021.8-82.4-1154.1c65.2-93.9,155.3-159.1,255-187.9c44.1-11.5,638.4-19.2,1618-19.2h1547.1v-67.1v-67.1H4355.8c-1976.5,0-1915.2,1.9-2170.1-118.9c-170.6-80.5-394.9-302.9-477.3-475.4c-205.1-425.6-141.9-895.3,168.7-1232.7c122.7-132.3,260.7-222.4,456.3-299.1l128.5-49.8l2060.9-5.8l2060.9-3.8l203.2-105.4c371.9-191.7,901-335.5,1240.4-335.5c385.3,0,979.6,170.6,1355.4,389.2c193.6,111.2,414.1,337.4,471.6,483.1l46,115v1121.5c0,1115.7,0,1121.5-42.2,1200.1c-34.5,65.2-178.3,218.6-205.1,218.6c-3.8,0-345.1,116.9-755.3,258.8c-567.5,195.5-770.7,258.8-843.5,258.8h-93.9l-132.3,245.4c-72.9,134.2-143.8,268.4-159.1,297.1c-78.6,159.1-314.4,337.4-486.9,368.1c-40.3,7.7-333.6,15.3-651.8,17.3l-579,1.9l-9.6,316.3c-9.6,347-19.2,379.6-138,492.7c-128.4,122.7-103.5,120.8-1209.7,120.8H3589l-774.5,327.8c-425.6,180.2-784.1,331.6-795.6,335.5c-9.6,5.7-19.2,63.3-19.2,128.4c-1.9,295.2-214.7,511.9-504.2,511.9C1403.5,3714.1,1342.2,3700.7,1271.2,3668.1z M1610.6,3394c30.7-17.3,69-63.3,86.3-97.8c30.7-65.2,26.8-84.4-212.8-1133C1213.7,968.8,1217.6,989.9,1167.7,943.9c-49.8-44.1-136.1-15.3-155.3,51.8c-11.5,42.2,230,2143.3,260.7,2275.6c5.7,24.9,36.4,69,67.1,99.7C1405.4,3436.1,1520.5,3445.7,1610.6,3394z M2709,2468l774.5-325.9h648c358.5,0,826.3-5.7,1042.9-13.4c523.4-17.3,479.3,30.7,479.3-523.4v-421.8h738.1c822.4,0,816.7,0,939.4-128.4c76.7-78.6,341.2-575.1,316.3-590.5c-9.6-5.7-291.4-105.4-626.9-222.4s-640.3-232-676.7-255c-84.4-55.6-170.6-210.9-186-337.4l-11.5-95.9H4610.8c-1497.2,0-1537.5,1.9-1596.9,38.3c-51.8,30.7-63.3,49.8-63.3,99.7c0,34.5,76.7,488.9,168.7,1008.4l168.7,945.1l-76.7,46c-44.1,23-362.3,195.5-711.2,383.4c-347,186-638.4,345.1-646.1,350.8c-11.5,11.5,61.4,368.1,74.8,368.1C1932.6,2793.9,2283.5,2648.2,2709,2468z M734.5,938.2c32.6-214.7,260.7-341.3,509.9-285.7c65.2,15.3,82.4,5.8,427.5-245.4c197.5-143.8,358.5-268.4,358.5-278c0-26.8-276.1-138-458.2-184c-301-76.7-575.1-57.5-797.5,53.7C669.3,54.4,487.1,232.7,443.1,326.6c-82.4,176.4-69,354.7,38.3,513.8c59.4,86.3,197.5,197.5,226.2,180.2C715.3,1014.9,726.8,978.4,734.5,938.2z M8784.3,31.4c502.3-174.5,747.7-266.5,780.3-299.1l47.9-44.1v-1079.3c0-995-1.9-1081.3-34.5-1138.8c-134.2-245.4-492.7-450.5-1064-605.8c-201.3-53.7-251.1-61.3-483.1-59.4c-207,0-291.4,7.7-421.8,42.2c-557.9,149.5-904.9,324-1067.8,536.8c-34.5,44.1-70.9,113.1-82.4,153.4c-30.7,109.3-24.9,2085.8,5.8,2160.6c23,51.8,65.2,70.9,772.6,318.2c410.3,143.8,761.1,262.6,780.3,264.6C8034.7,282.5,8379.8,169.4,8784.3,31.4z M6152.1-1270.3v-115H4633.8H3117.4l-107.4,53.7c-149.5,72.9-383.4,82.4-542.5,23c-308.6-115-502.3-460.1-437.1-778.3c47.9-226.2,186-406.4,389.2-498.4c105.4-49.9,140-55.6,301-55.6s193.6,5.7,283.7,53.7l103.5,51.8h1541.3c1244.2,0,1541.3-3.8,1541.3-24.9c0-13.4,17.3-57.5,38.3-99.7c21.1-42.2,38.3-82.4,38.3-90.1c0-9.6-847.4-13.4-1884.5-11.5l-1882.6,5.8l-109.3,46c-429.4,178.3-632.6,678.6-440.9,1081.2c103.5,216.6,255,352.8,481.2,429.4l126.5,42.2l1798.2,1.9h1796.3V-1270.3z M2891.2-1594.3c245.4-126.5,302.9-423.7,122.7-632.6c-266.5-312.5-787.9-47.9-697.8,354.7c24.9,113.1,109.3,222.4,209,276.1C2620.9-1546.4,2793.4-1546.4,2891.2-1594.3z M6152.1-1960.4V-2248H4750.7c-1326.6,0-1401.4,1.9-1388,34.5c7.7,17.3,23,82.4,34.5,143.8c19.2,105.4,3.8,264.6-34.5,364.2c-13.4,30.7,61.3,32.6,1388,32.6h1401.4V-1960.4z"/><path d="M3537.2,1879.5c-5.8-30.7-72.9-412.2-145.7-849.3c-74.8-437.1-139.9-818.6-145.7-847.3l-11.5-53.7h565.5c511.9,0,565.5,3.8,592.4,34.5c15.3,17.3,272.2,412.2,571.3,876.1c297.2,463.9,550.2,855,561.7,868.4c13.4,17.3-184,23-979.6,23h-996.9L3537.2,1879.5z M4961.6,1572.7c-24.9-40.3-201.3-314.4-391.1-609.6l-347-536.8l-310.6-3.8c-170.6-1.9-314.4,3.8-318.2,11.5c-9.6,13.4,168.7,1123.4,189.8,1186.7c5.7,17.3,145.7,23,615.4,23h605.8L4961.6,1572.7z"/><path d="M7877.5-1462v-1380.3h143.8h143.8l1.9,86.3c0,47.9,1.9,625,1.9,1284.4s-1.9,1242.3-1.9,1294l-1.9,95.8h-143.8h-143.8V-1462z"/></g></g>
</svg>