<?xml version="1.0" encoding="UTF-8" standalone="no"?>
<!-- Svg Vector Icons : http://www.onlinewebfonts.com/icon -->

<svg
   xmlns:dc="http://purl.org/dc/elements/1.1/"
   xmlns:cc="http://creativecommons.org/ns#"
   xmlns:rdf="http://www.w3.org/1999/02/22-rdf-syntax-ns#"
   xmlns:svg="http://www.w3.org/2000/svg"
   xmlns="http://www.w3.org/2000/svg"
   xmlns:sodipodi="http://sodipodi.sourceforge.net/DTD/sodipodi-0.dtd"
   xmlns:inkscape="http://www.inkscape.org/namespaces/inkscape"
   version="1.1"
   x="0px"
   y="0px"
   viewBox="0 0 1000 1000"
   enable-background="new 0 0 1000 1000"
   xml:space="preserve"
   id="svg20"
   sodipodi:docname="hydrophone_inventory.svg"
   inkscape:version="0.92.4 (5da689c313, 2019-01-14)"><defs
   id="defs24" /><sodipodi:namedview
   pagecolor="#ffffff"
   bordercolor="#666666"
   borderopacity="1"
   objecttolerance="10"
   gridtolerance="10"
   guidetolerance="10"
   inkscape:pageopacity="0"
   inkscape:pageshadow="2"
   inkscape:window-width="1846"
   inkscape:window-height="1057"
   id="namedview22"
   showgrid="false"
   inkscape:zoom="0.6675088"
   inkscape:cx="697.4068"
   inkscape:cy="529.86195"
   inkscape:window-x="-8"
   inkscape:window-y="-8"
   inkscape:window-maximized="1"
   inkscape:current-layer="svg20" />
<metadata
   id="metadata2"> Svg Vector Icons : http://www.onlinewebfonts.com/icon <rdf:RDF><cc:Work
     rdf:about=""><dc:format>image/svg+xml</dc:format><dc:type
       rdf:resource="http://purl.org/dc/dcmitype/StillImage" /><dc:title></dc:title></cc:Work></rdf:RDF></metadata>
<g
   id="g18"><g
     transform="translate(0.000000,511.000000) scale(0.100000,-0.100000)"
     id="g16"><path
       d="M3771.7,4971.2l-49.1-38.8v-492.6c0-443.5,4.1-494.6,36.8-527.3c34.8-34.7,112.4-36.8,1240.6-36.8c1128.2,0,1205.8,2,1240.6,36.8c32.7,32.7,36.8,83.8,36.8,527.3v492.6l-49,38.8c-45,36.8-96,38.8-1228.3,38.8C3867.7,5010,3816.6,5008,3771.7,4971.2z"
       id="path4" /><path
       d="M1656.3,4417.3c-24.5-8.2-63.4-42.9-87.9-73.6l-42.9-55.2V-183.3v-4473.9l59.3-65.4l59.3-67.4H5000h3355.9l59.3,67.4l59.3,65.4v4475.9v4475.9l-59.3,65.4l-59.3,67.4l-899.3,6.1l-897.2,6.1l-12.3-241.2c-14.3-278-38.8-367.9-126.7-470.1c-47-55.2-85.8-77.7-163.5-92c-151.3-30.7-2372.9-45-2477.1-18.4c-128.8,34.8-216.6,104.2-271.8,216.6c-42.9,85.8-51.1,136.9-57.2,351.5l-8.2,251.4l-872.7-2C2091.7,4435.7,1678.8,4427.5,1656.3,4417.3z M8045.3-845.5v-3505.1H5000H1954.7v3494.9v3494.9l3030.9,6.1c1665.7,2,3035,6.1,3045.3,10.2C8039.1,2657.6,8045.3,1081.8,8045.3-845.5z"
       id="path6" /><path
       d="M2676.2,1312.8c-83.8-53.1-118.5-163.5-79.7-257.5c59.3-136.9,18.4-132.9,1111.8-132.9c637.7,0,1001.5,8.2,1028,20.4c20.4,12.3,53.1,49,69.5,81.7c47,92,38.8,173.7-28.6,249.3l-59.3,67.4l-989.2,6.1C2778.4,1351.6,2739.6,1349.6,2676.2,1312.8z"
       id="path8" /><path
       d="M2676.2-17.7c-83.8-51.1-118.5-161.5-79.7-255.5c59.3-141-26.6-132.8,1518.5-132.8c958.5,0,1408.2,6.1,1442.9,22.5c63.4,28.6,116.5,120.6,116.5,202.3c0,47-20.4,85.8-69.5,134.9l-69.5,69.5H4139.6C2790.7,23.1,2739.6,21.1,2676.2-17.7z"
       id="path10" /><path
       d="M2672.1-1338c-122.6-85.8-118.5-282.1,4.1-355.6c63.4-38.8,120.6-40.9,2096.9-40.9h2029.5l69.5,69.5c75.6,75.6,89.9,151.2,45,247.3c-53.1,116.5,38.8,112.4-2166.4,112.4C2907.2-1305.3,2715-1307.4,2672.1-1338z"
       id="path12" /><path
       d="M2672.1-2666.5c-122.6-85.8-118.5-280,4.1-357.7c63.4-36.8,102.2-38.8,1052.6-34.8l989.2,6.1l59.3,67.4c67.4,75.6,75.6,157.4,28.6,249.3c-16.3,32.7-49.1,69.5-69.5,81.8c-26.6,12.2-390.4,20.4-1028,20.4C2827.5-2633.8,2715-2637.9,2672.1-2666.5z"
       id="path14" /></g></g>
<g
   transform="matrix(0.29947709,0,0,0.29947709,558.47893,260.98538)"
   id="g12"><g
     transform="matrix(0.1,0,0,-0.1,0,511)"
     id="g10"><path
       inkscape:connector-curvature="0"
       d="m 4630.1,4976.7 c -381.7,-68.2 -752,-265.8 -1038.2,-554.3 -781.5,-781.5 -783.8,-2019.7 -6.8,-2810.3 l 147.7,-149.9 179.5,-2671.7 c 97.7,-1469.9 181.8,-2728.5 188.6,-2796.7 18.2,-172.7 145.4,-424.8 277.2,-543 56.8,-54.5 170.4,-129.5 254.4,-168.1 138.6,-65.9 172.7,-72.7 368,-72.7 195.4,0 229.5,6.8 365.8,70.4 265.8,127.2 443,331.7 506.6,588.4 20.4,86.3 97.7,1138.2 211.3,2862.5 l 177.2,2726.2 154.5,154.5 c 406.7,413.5 608.8,940.6 577.1,1504 -29.5,513.4 -231.7,963.3 -593,1317.7 -465.9,461.2 -1120.2,661.2 -1769.9,543 z m 858.7,-404.4 c 256.7,-81.8 449.8,-202.2 658.8,-411.2 206.7,-206.7 327.1,-397.6 413.5,-658.8 52.2,-161.3 59.1,-218.1 59.1,-488.4 0,-270.3 -6.8,-327.1 -59.1,-488.4 C 6481.6,2287 6361.2,2084.8 6184,1896.2 L 6040.9,1741.7 H 5000.4 3959.9 l -143.1,154.5 c -177.2,188.6 -297.6,390.8 -377.1,629.3 -52.3,161.3 -59.1,218.1 -59.1,488.4 -2.3,268.1 6.8,329.4 56.8,481.6 88.6,270.4 209,463.5 413.5,667.9 249.9,249.9 536.2,402.1 865.6,463.4 199.8,36.4 567.8,9.1 772.3,-54.5 z m 397.6,-3305.5 c 0,-61.3 -6.8,-143.1 -13.6,-181.7 l -13.7,-70.4 h -858.8 c -976.9,0 -886,-22.7 -886,218.1 v 145.4 h 886 886 V 1266.8 Z M 5841,601.1 c 0,-29.5 -25,-424.8 -56.8,-881.5 -31.8,-456.6 -56.8,-842.9 -56.8,-856.5 0,-22.7 -161.3,-29.5 -727,-29.5 -399.8,0 -727,6.8 -727,18.2 0,9.1 -25,388.5 -56.8,845.1 -31.8,456.6 -56.8,856.5 -56.8,892.8 V 651 h 840.6 840.6 z m -145.4,-2215 c -6.8,-47.7 -13.7,-129.5 -13.7,-181.7 v -97.7 h -681.6 -681.6 v 77.3 c 0,40.9 -6.8,122.7 -13.6,181.7 l -15.9,104.5 h 711.1 711.1 z m -47.8,-749.8 c -6.8,-61.3 -31.8,-440.7 -56.8,-847.4 -25,-406.7 -59.1,-783.8 -72.7,-840.6 -34.1,-131.8 -215.8,-318.1 -349.8,-358.9 -195.4,-56.8 -368.1,-20.5 -518,111.3 -172.7,152.2 -184,202.2 -238.5,1076.9 -27.3,424.8 -54.5,815.6 -61.3,870.1 l -11.4,95.4 h 661.1 661.1 z"
       id="path4-5" /><path
       inkscape:connector-curvature="0"
       d="m 4875.4,4229.3 c -72.7,-70.4 -75,-177.2 -4.6,-247.6 40.9,-38.6 88.6,-54.5 209,-65.9 433.9,-40.9 781.5,-388.5 822.4,-824.7 11.4,-118.1 27.3,-168.1 65.9,-206.8 115.9,-115.8 304.4,-25 304.4,147.7 0,304.4 -147.7,649.8 -377.1,877 -227.2,229.4 -572.5,377.1 -877,377.1 -63.5,0 -104.4,-15.9 -143,-56.8 z"
       id="path6-7" /><path
       inkscape:connector-curvature="0"
       d="M 4818.6,258.1 C 4707.3,221.8 4516.4,26.4 4482.4,-89.5 c -63.6,-213.6 -18.2,-384 143.1,-543 159,-161.3 329.4,-206.7 543,-143.1 124.9,36.3 313.5,224.9 349.8,349.9 63.6,213.5 18.2,383.9 -143.1,542.9 -159,161.3 -345.3,206.8 -556.6,140.9 z m 306.7,-390.8 c 113.6,-111.3 34.1,-306.7 -125,-306.7 -43.2,0 -90.9,20.5 -125,56.8 -36.4,34.1 -56.8,81.8 -56.8,125 0,43.2 20.4,90.9 56.8,124.9 34.1,36.4 81.8,56.8 125,56.8 43.2,0 90.9,-20.4 125,-56.8 z"
       id="path8-1" /></g></g></svg>