<?xml version="1.0" encoding="utf-8"?>
<!-- Svg Vector Icons : http://www.onlinewebfonts.com/icon -->
<!DOCTYPE svg PUBLIC "-//W3C//DTD SVG 1.1//EN" "http://www.w3.org/Graphics/SVG/1.1/DTD/svg11.dtd">
<svg version="1.1" xmlns="http://www.w3.org/2000/svg" xmlns:xlink="http://www.w3.org/1999/xlink" x="0px" y="0px" viewBox="0 0 1000 1000" enable-background="new 0 0 1000 1000" xml:space="preserve">
<metadata> Svg Vector Icons : http://www.onlinewebfonts.com/icon </metadata>
<g><g transform="translate(0.000000,511.000000) scale(0.100000,-0.100000)"><path d="M3771.7,4971.2l-49.1-38.8v-492.6c0-443.5,4.1-494.6,36.8-527.3c34.8-34.7,112.4-36.8,1240.6-36.8c1128.2,0,1205.8,2,1240.6,36.8c32.7,32.7,36.8,83.8,36.8,527.3v492.6l-49,38.8c-45,36.8-96,38.8-1228.3,38.8C3867.7,5010,3816.6,5008,3771.7,4971.2z"/><path d="M1656.3,4417.3c-24.5-8.2-63.4-42.9-87.9-73.6l-42.9-55.2V-183.3v-4473.9l59.3-65.4l59.3-67.4H5000h3355.9l59.3,67.4l59.3,65.4v4475.9v4475.9l-59.3,65.4l-59.3,67.4l-899.3,6.1l-897.2,6.1l-12.3-241.2c-14.3-278-38.8-367.9-126.7-470.1c-47-55.2-85.8-77.7-163.5-92c-151.3-30.7-2372.9-45-2477.1-18.4c-128.8,34.8-216.6,104.2-271.8,216.6c-42.9,85.8-51.1,136.9-57.2,351.5l-8.2,251.4l-872.7-2C2091.7,4435.7,1678.8,4427.5,1656.3,4417.3z M8045.3-845.5v-3505.1H5000H1954.7v3494.9v3494.9l3030.9,6.1c1665.7,2,3035,6.1,3045.3,10.2C8039.1,2657.6,8045.3,1081.8,8045.3-845.5z"/><path d="M2676.2,1312.8c-83.8-53.1-118.5-163.5-79.7-257.5c59.3-136.9,18.4-132.9,1111.8-132.9c637.7,0,1001.5,8.2,1028,20.4c20.4,12.3,53.1,49,69.5,81.7c47,92,38.8,173.7-28.6,249.3l-59.3,67.4l-989.2,6.1C2778.4,1351.6,2739.6,1349.6,2676.2,1312.8z"/><path d="M2676.2-17.7c-83.8-51.1-118.5-161.5-79.7-255.5c59.3-141-26.6-132.8,1518.5-132.8c958.5,0,1408.2,6.1,1442.9,22.5c63.4,28.6,116.5,120.6,116.5,202.3c0,47-20.4,85.8-69.5,134.9l-69.5,69.5H4139.6C2790.7,23.1,2739.6,21.1,2676.2-17.7z"/><path d="M2672.1-1338c-122.6-85.8-118.5-282.1,4.1-355.6c63.4-38.8,120.6-40.9,2096.9-40.9h2029.5l69.5,69.5c75.6,75.6,89.9,151.2,45,247.3c-53.1,116.5,38.8,112.4-2166.4,112.4C2907.2-1305.3,2715-1307.4,2672.1-1338z"/><path d="M2672.1-2666.5c-122.6-85.8-118.5-280,4.1-357.7c63.4-36.8,102.2-38.8,1052.6-34.8l989.2,6.1l59.3,67.4c67.4,75.6,75.6,157.4,28.6,249.3c-16.3,32.7-49.1,69.5-69.5,81.8c-26.6,12.2-390.4,20.4-1028,20.4C2827.5-2633.8,2715-2637.9,2672.1-2666.5z"/></g></g>
</svg>