<?xml version="1.0" encoding="utf-8"?>
<!-- Svg Vector Icons : http://www.onlinewebfonts.com/icon -->
<!DOCTYPE svg PUBLIC "-//W3C//DTD SVG 1.1//EN" "http://www.w3.org/Graphics/SVG/1.1/DTD/svg11.dtd">
<svg version="1.1" xmlns="http://www.w3.org/2000/svg" xmlns:xlink="http://www.w3.org/1999/xlink" x="0px" y="0px" viewBox="0 0 1000 1000" enable-background="new 0 0 1000 1000" xml:space="preserve">
<metadata> Svg Vector Icons : http://www.onlinewebfonts.com/icon </metadata>
<g><g transform="translate(0.000000,511.000000) scale(0.100000,-0.100000)"><path d="M4630.1,4976.7c-381.7-68.2-752-265.8-1038.2-554.3c-781.5-781.5-783.8-2019.7-6.8-2810.3l147.7-149.9l179.5-2671.7c97.7-1469.9,181.8-2728.5,188.6-2796.7c18.2-172.7,145.4-424.8,277.2-543c56.8-54.5,170.4-129.5,254.4-168.1c138.6-65.9,172.7-72.7,368-72.7c195.4,0,229.5,6.8,365.8,70.4c265.8,127.2,443,331.7,506.6,588.4c20.4,86.3,97.7,1138.2,211.3,2862.5l177.2,2726.2l154.5,154.5c406.7,413.5,608.8,940.6,577.1,1504c-29.5,513.4-231.7,963.3-593,1317.7C5934.1,4894.9,5279.8,5094.9,4630.1,4976.7z M5488.8,4572.3c256.7-81.8,449.8-202.2,658.8-411.2c206.7-206.7,327.1-397.6,413.5-658.8c52.2-161.3,59.1-218.1,59.1-488.4c0-270.3-6.8-327.1-59.1-488.4c-79.5-238.5-199.9-440.7-377.1-629.3l-143.1-154.5H5000.4H3959.9l-143.1,154.5c-177.2,188.6-297.6,390.8-377.1,629.3c-52.3,161.3-59.1,218.1-59.1,488.4c-2.3,268.1,6.8,329.4,56.8,481.6c88.6,270.4,209,463.5,413.5,667.9c249.9,249.9,536.2,402.1,865.6,463.4C4916.3,4663.2,5284.3,4635.9,5488.8,4572.3z M5886.4,1266.8c0-61.3-6.8-143.1-13.6-181.7l-13.7-70.4h-858.8c-976.9,0-886-22.7-886,218.1v145.4h886h886V1266.8z M5841,601.1c0-29.5-25-424.8-56.8-881.5c-31.8-456.6-56.8-842.9-56.8-856.5c0-22.7-161.3-29.5-727-29.5c-399.8,0-727,6.8-727,18.2c0,9.1-25,388.5-56.8,845.1s-56.8,856.5-56.8,892.8v61.3h840.6H5841V601.1z M5695.6-1613.9c-6.8-47.7-13.7-129.5-13.7-181.7v-97.7h-681.6h-681.6v77.3c0,40.9-6.8,122.7-13.6,181.7l-15.9,104.5h711.1h711.1L5695.6-1613.9z M5647.8-2363.7c-6.8-61.3-31.8-440.7-56.8-847.4s-59.1-783.8-72.7-840.6c-34.1-131.8-215.8-318.1-349.8-358.9c-195.4-56.8-368.1-20.5-518,111.3c-172.7,152.2-184,202.2-238.5,1076.9c-27.3,424.8-54.5,815.6-61.3,870.1l-11.4,95.4h661.1h661.1L5647.8-2363.7z"/><path d="M4875.4,4229.3c-72.7-70.4-75-177.2-4.6-247.6c40.9-38.6,88.6-54.5,209-65.9c433.9-40.9,781.5-388.5,822.4-824.7c11.4-118.1,27.3-168.1,65.9-206.8c115.9-115.8,304.4-25,304.4,147.7c0,304.4-147.7,649.8-377.1,877c-227.2,229.4-572.5,377.1-877,377.1C4954.9,4286.1,4914,4270.2,4875.4,4229.3z"/><path d="M4818.6,258.1c-111.3-36.3-302.2-231.7-336.2-347.6c-63.6-213.6-18.2-384,143.1-543c159-161.3,329.4-206.7,543-143.1c124.9,36.3,313.5,224.9,349.8,349.9c63.6,213.5,18.2,383.9-143.1,542.9C5216.2,278.5,5029.9,324,4818.6,258.1z M5125.3-132.7c113.6-111.3,34.1-306.7-125-306.7c-43.2,0-90.9,20.5-125,56.8c-36.4,34.1-56.8,81.8-56.8,125c0,43.2,20.4,90.9,56.8,124.9c34.1,36.4,81.8,56.8,125,56.8C5043.5-75.9,5091.2-96.3,5125.3-132.7z"/></g></g>
</svg>