<?xml version="1.0" encoding="UTF-8" standalone="no"?>
<!-- Svg Vector Icons : http://www.onlinewebfonts.com/icon -->

<svg
   xmlns:dc="http://purl.org/dc/elements/1.1/"
   xmlns:cc="http://creativecommons.org/ns#"
   xmlns:rdf="http://www.w3.org/1999/02/22-rdf-syntax-ns#"
   xmlns:svg="http://www.w3.org/2000/svg"
   xmlns="http://www.w3.org/2000/svg"
   xmlns:sodipodi="http://sodipodi.sourceforge.net/DTD/sodipodi-0.dtd"
   xmlns:inkscape="http://www.inkscape.org/namespaces/inkscape"
   version="1.1"
   x="0px"
   y="0px"
   viewBox="0 0 1000 1000"
   enable-background="new 0 0 1000 1000"
   xml:space="preserve"
   id="svg22"
   sodipodi:docname="record_stage.svg"
   inkscape:version="0.92.4 (5da689c313, 2019-01-14)"><defs
   id="defs26" /><sodipodi:namedview
   pagecolor="#ffffff"
   bordercolor="#666666"
   borderopacity="1"
   objecttolerance="10"
   gridtolerance="10"
   guidetolerance="10"
   inkscape:pageopacity="0"
   inkscape:pageshadow="2"
   inkscape:window-width="1427"
   inkscape:window-height="806"
   id="namedview24"
   showgrid="false"
   inkscape:zoom="0.236"
   inkscape:cx="-218.27377"
   inkscape:cy="951.5334"
   inkscape:window-x="0"
   inkscape:window-y="0"
   inkscape:window-maximized="0"
   inkscape:current-layer="svg22" />
<metadata
   id="metadata2"> Svg Vector Icons : http://www.onlinewebfonts.com/icon <rdf:RDF><cc:Work
     rdf:about=""><dc:format>image/svg+xml</dc:format><dc:type
       rdf:resource="http://purl.org/dc/dcmitype/StillImage" /><dc:title></dc:title></cc:Work></rdf:RDF></metadata>
<g
   id="g20"
   transform="matrix(0.64476288,0,0,0.64476288,186.43051,334.39822)"><g
     transform="matrix(0.1,0,0,-0.1,0,511)"
     id="g18"><path
       d="m 415.9,4364.4 c -12.5,-27.1 -20.8,-375.1 -20.8,-992 V 2422.1 L 334.7,2303.3 C 63.7,1765.7 26.2,1121.8 228.4,565.3 261.7,473.6 313.8,356.9 343,304.8 l 52.1,-95.9 v -2159 c 0,-1713 6.2,-2169.4 27.1,-2198.6 25,-33.3 281.3,-35.4 4568,-35.4 4282.5,0 4543,2.1 4568,37.5 20.8,27.1 27.1,481.4 27.1,2173.6 V 165.2 l 64.6,118.8 c 162.6,302.2 250.1,650.2 250.1,1012.8 0,366.8 -75,691.9 -233.4,1006.6 l -60.4,118.8 v 950.3 c 0,616.9 -8.3,964.9 -20.8,992 -22.9,39.6 -95.8,39.6 -4584.7,39.6 C 511.8,4404 438.8,4404 415.9,4364.4 Z m 9002.7,-900.3 v -754.4 l -181.3,175.1 c -270.9,260.5 -535.6,423 -860.7,527.2 -260.5,85.4 -391.8,104.2 -698.1,102.1 -325.1,-2.1 -554.3,-47.9 -841.9,-170.9 C 6003,2989 5452.9,2103.3 5507,1205.1 5561.2,313.2 6167.6,-478.7 7011.6,-760 c 373,-125 879.4,-141.7 1250.4,-39.6 104.2,29.2 189.6,50 193.8,45.9 2.1,-2.1 -62.5,-56.3 -145.9,-118.8 -414.7,-312.6 -752.3,-412.6 -1404.6,-412.6 h -362.6 l -295.9,443.9 -298,441.8 h -948.2 -948.2 l -298,-441.8 -295.9,-443.9 h -362.6 c -560.6,0 -891.9,79.2 -1233.7,291.7 -179.2,112.5 -339.7,241.7 -268.8,218.8 295.9,-100 710.6,-139.6 1012.8,-95.9 464.7,68.8 869,270.9 1221.2,612.7 616.8,600.2 827.3,1475.5 546,2277.8 -396,1135.8 -1631.7,1750.5 -2759.2,1371.2 -327.2,-108.4 -575.2,-262.6 -844,-521 L 582.6,2688.9 v 764.8 762.7 h 4418 4418 z M 8047.4,3309.9 c 487.6,-85.4 931.5,-343.9 1215,-704.4 137.5,-175.1 323,-554.3 389.7,-796.1 62.5,-235.5 64.6,-737.7 0,-971.1 C 9562.5,507 9374.9,175.6 9137.4,-74.5 8843.6,-382.9 8545.5,-551.7 8141.3,-643.4 7980.8,-678.8 7899.6,-683 7637,-674.7 c -339.7,10.4 -477.2,39.6 -741.9,150 -444,185.6 -792.1,521.1 -1006.7,971.3 -125,258.4 -179.2,473.1 -193.8,773.1 -29.2,598.1 170.9,1127.4 581.4,1533.8 250.1,248 510.6,404.3 839.8,502.2 283.5,85.5 644,106.3 931.6,54.2 z M 2652,3289.1 C 3656.5,3114 4350.4,2251.3 4306.7,1226 4271.3,338.2 3714.8,-376.6 2862.5,-630.8 c -229.2,-66.7 -646,-91.7 -900.3,-50 -198,31.3 -471,125 -650.2,223 C 1155.7,-370.4 839,-72.3 686.8,134 555.5,311.1 405.5,619.5 353.4,830 c -168.8,656.4 31.3,1406.7 500.1,1886 314.7,320.9 729.4,529.3 1177.4,589.8 150.1,20.8 456.5,12.4 621.1,-16.7 z M 1599.6,-1051.8 c 160.5,-120.9 539.8,-304.3 744,-358.4 139.6,-37.5 258.4,-47.9 739.8,-62.5 739.8,-22.9 3094.7,-22.9 3834.5,0 671,20.8 771.1,39.6 1135.8,218.8 302.2,147.9 383.5,214.6 904.4,721 l 439.7,429.3 V -1454 -2804.4 l -4401.3,4.2 -4403.5,4.1 -6.2,1358.8 -4.2,1360.8 448.1,-441.8 c 248,-243.8 502.2,-483.5 568.9,-533.5 z m 4480.5,127.1 233.4,-350.1 -656.5,-6.3 c -360.5,-2.1 -952.4,-2.1 -1312.9,0 l -656.4,6.3 233.4,350.1 231.3,348 h 848.2 848.2 z M 999.4,-3483.8 v -510.6 H 886.9 c -60.4,0 -154.2,6.3 -208.4,12.5 l -95.9,14.6 v 483.5 c 0,264.7 6.3,489.7 14.6,496 6.3,8.3 100,14.6 208.4,14.6 h 193.8 z m 604.4,4.2 v -504.3 h -202.1 -204.2 l -6.3,479.3 c -2.1,262.6 0,489.7 4.2,504.3 8.3,18.8 68.8,27.1 210.5,27.1 h 198 v -506.4 z m 593.9,-4.2 V -3984 l -198,2.1 h -198 l -6.3,504.3 -4.2,506.4 202.1,-6.3 204.2,-6.3 v -500 z m 610.6,8.4 4.2,-491.8 -95.9,-14.6 c -54.2,-6.3 -148,-12.5 -208.4,-12.5 h -112.5 v 510.6 512.6 l 204.2,-6.3 202.1,-6.3 z m 598.1,-8.4 V -3984 l -202.1,-2.1 H 3000 v 506.4 508.5 l 204.2,-6.3 202.1,-6.3 v -500 z m 593.9,10.4 v -498.1 l -66.7,-12.5 c -37.5,-6.2 -125,-10.4 -193.8,-6.2 l -125,6.2 -6.2,506.4 -4.2,504.3 h 198 198 v -500.1 z m 583.5,-6.2 v -508.5 h -187.6 l -187.6,-2.1 v 508.5 508.5 h 187.6 187.6 z m 604.4,-4.2 v -510.6 h -133.4 c -72.9,0 -162.5,6.3 -198,12.5 l -64.6,12.5 v 498 498.1 h 198 198 z m 604.3,4.2 v -504.3 l -198,-4.2 -198,-6.3 v 510.6 510.6 h 198 198 z m 604.4,-6.3 v -512.7 l -198,8.3 -198,6.2 v 506.4 504.3 h 198 198 z m 604.3,8.4 v -506.4 H 6797 6594.9 l -6.3,479.3 c -2.1,262.6 0,489.7 4.2,504.3 8.3,18.8 68.8,27.1 210.5,27.1 h 198 v -504.3 z m 604.4,-6.3 v -512.6 l -202.1,8.3 -204.2,6.3 -6.2,477.2 c -2.1,262.6 0,489.7 4.2,504.3 8.3,18.8 68.8,27.1 210.5,27.1 h 198 v -510.6 z m 604.3,12.5 v -500.1 l -108.4,-12.5 c -60.4,-8.3 -152.1,-10.4 -204.2,-6.2 l -93.8,6.2 -6.3,506.4 -4.2,504.3 h 208.4 208.4 v -498.1 z m 593.9,-12.5 V -3984 l -202.1,-2.1 -204.2,-2.1 v 508.5 508.5 l 204.2,-6.3 202.1,-6.3 z m 589.8,12.5 c 4.2,-377.2 -2.1,-491.8 -20.8,-506.4 -31.3,-18.7 -289.7,-22.9 -337.6,-4.2 -29.2,10.4 -33.3,75 -33.3,510.6 v 500.2 l 193.8,-6.3 191.7,-6.3 z"
       id="path4"
       inkscape:connector-curvature="0" /><path
       d="m 7432.6,3091.1 c -383.5,-64.6 -754.4,-260.5 -1029.5,-541.8 -106.3,-108.4 -127.1,-150 -93.8,-202.1 8.3,-12.5 266.7,-125 575.2,-248 548.1,-218.8 560.6,-225.1 512.6,-256.3 -170.9,-112.5 -285.5,-283.4 -306.3,-460.6 -6.2,-56.3 -16.7,-104.2 -20.8,-104.2 -6.2,0 -220.9,164.6 -479.3,364.7 -256.3,200.1 -475.1,364.7 -487.6,364.7 -112.5,0 -223,-441.8 -200.1,-802.3 16.7,-254.2 62.5,-418.9 181.3,-666.9 114.6,-237.6 270.9,-437.6 473.1,-604.3 241.7,-198 664.8,-377.2 858.6,-360.5 68.8,6.3 75,12.5 81.3,79.2 2.1,39.6 -31.3,312.6 -77.1,604.3 -43.8,291.8 -77.1,533.5 -77.1,535.6 2.1,2.1 45.8,-16.7 97.9,-41.7 70.9,-35.4 127.1,-45.8 258.4,-45.8 131.3,0 187.5,10.4 258.4,45.8 52.1,25 95.8,43.8 97.9,41.7 4.2,-4.2 -31.3,-258.4 -77.1,-566.8 -45.9,-310.5 -79.2,-585.6 -77.1,-614.8 8.3,-68.8 89.6,-77.1 268.8,-31.3 285.5,75 539.7,220.9 777.3,446 341.7,329.3 525.1,719 548.1,1171.2 20.8,379.3 -81.3,789.8 -193.8,789.8 -14.6,0 -237.6,-164.6 -493.9,-364.7 -258.4,-200.1 -475.1,-364.7 -481.4,-364.7 -6.2,0 -12.5,41.7 -12.5,89.6 0,166.7 -133.4,379.3 -310.5,493.9 -45.8,31.3 -25,41.7 523.1,260.5 535.6,214.6 568.9,233.4 575.2,285.5 6.2,43.8 -18.8,81.3 -116.7,179.2 -408.5,408.4 -1017,614.7 -1552.6,525.1 z m 577.3,-195.9 c 277.2,-54.2 539.7,-183.4 746,-366.8 l 106.3,-93.8 -568.9,-227.2 c -314.7,-125 -581.4,-227.1 -593.9,-227.1 -12.5,0 -279.3,102.1 -591.9,227.1 l -568.9,227.2 100,89.6 c 368.9,327.2 879.4,464.8 1371.3,371 z M 7122.1,996.7 c 2.1,-2.1 43.8,-275.1 93.8,-606.4 75,-500.1 85.5,-604.3 60.4,-608.5 -54.2,-14.6 -339.7,104.2 -489.7,204.2 -441.8,289.7 -702.3,777.3 -702.3,1319.1 0,156.3 31.3,396 54.2,435.6 6.3,8.3 227.2,-154.2 493.9,-362.6 266.7,-206.3 485.5,-379.3 489.7,-381.4 z m 764.8,700.2 c 97.9,-45.8 185.5,-133.4 216.7,-216.7 37.5,-100 27.1,-283.4 -20.8,-385.5 C 7978.6,880 7657.7,805 7447.2,948.8 c -112.5,77.1 -162.6,173 -170.9,329.3 -8.3,152.1 29.2,258.4 125,348 118.8,110.4 331.4,141.7 485.6,70.8 z m 1406.7,-104.2 c 10.4,-62.5 20.8,-202.1 20.8,-314.7 0,-571 -308.4,-1092 -812.7,-1371.2 -139.7,-77.1 -371,-160.5 -389.7,-141.7 -8.3,6.3 25,277.2 72.9,600.2 68.8,460.5 95.9,598.1 125,627.3 97.9,95.9 933.6,737.7 946.1,725.2 8.4,-8.4 25.1,-64.6 37.6,-125.1 z"
       id="path6"
       inkscape:connector-curvature="0" /><path
       d="M 1812.2,3043.2 C 914,2768.1 351.3,1869.9 532.6,990.5 578.4,763.3 630.5,652.9 691,652.9 c 29.2,0 220.9,135.5 516.8,366.8 l 468.9,366.8 12.5,-123 c 16.7,-168.8 85.4,-302.2 216.7,-418.9 L 2018.4,746.7 1487,534.1 C 1193.2,417.4 941,311.1 924.3,296.5 c -50,-41.7 -33.3,-100 58.4,-200.1 198,-214.6 571,-437.6 860.7,-516.8 198,-54.2 593.9,-64.6 804.4,-20.8 360.5,72.9 702.3,256.3 941.9,506.4 116.7,125 143.8,187.6 93.8,229.2 -14.6,12.5 -266.7,116.7 -558.5,233.4 -291.8,116.7 -535.6,216.7 -541.8,223 -6.3,6.3 2.1,16.7 18.8,22.9 60.4,20.8 183.4,152.1 237.6,250.1 31.3,56.3 62.5,152.1 70.9,212.6 l 16.7,110.4 468.8,-366.7 c 258.4,-202.1 483.5,-368.9 502.2,-368.9 56.3,0 100,70.9 148,241.7 35.4,133.4 45.8,220.9 43.8,456.4 0,256.3 -6.3,314.7 -56.3,479.3 C 3844,2415.9 3325.1,2916 2710.4,3064 c -166.7,39.6 -210.5,22.9 -210.5,-77.1 0,-50 127.1,-977.4 154.2,-1127.4 l 10.4,-52.1 -108.4,52.1 c -156.3,79.2 -379.3,77.1 -518.9,-2.1 -56.3,-31.3 -100,-50 -100,-41.7 0,8.3 39.6,281.3 87.5,606.4 62.5,425.1 81.3,600.2 64.6,625.2 -31.2,50 -102.1,48 -277.1,-4.1 z m 0,-806.5 c -47.9,-314.7 -91.7,-579.3 -100,-587.7 -39.6,-39.6 -954.5,-746.1 -964.9,-746.1 -27.1,0 -60.4,241.7 -60.4,429.3 0,250.1 43.8,452.2 141.7,662.7 179.2,379.3 523.1,689.8 931.5,837.8 114.6,41.7 125,41.7 131.3,10.4 4.1,-18.7 -33.4,-291.7 -79.2,-606.4 z m 1231.6,510.5 c 135.5,-68.8 325.1,-216.7 452.2,-352.2 250.1,-268.8 396,-614.8 414.7,-992 10.4,-206.3 -18.8,-508.5 -54.2,-529.3 -10.4,-6.3 -908.6,677.3 -969,739.8 -16.7,16.7 -195.9,1244.1 -183.4,1256.6 10.4,12.6 235.5,-70.8 339.7,-122.9 z M 2489.4,1696.9 C 2779.1,1565.6 2816.6,1128 2554,948.8 2343.5,805 2022.6,880 1918.4,1094.7 c -47.9,102.1 -58.4,285.5 -20.8,385.5 79.2,208.4 373,316.8 591.8,216.7 z M 2875,432 c 304.3,-120.9 560.6,-227.1 568.9,-235.5 25,-25 -229.2,-223 -406.4,-314.7 -393.9,-206.3 -889.8,-229.2 -1335.8,-62.5 -118.8,43.8 -362.6,195.9 -493.9,308.4 l -72.9,62.5 52.1,22.9 c 183.4,81.3 1079.5,435.5 1104.5,437.6 18.7,2.2 281.3,-97.9 583.5,-218.7 z"
       id="path8"
       inkscape:connector-curvature="0" /><path
       d="m 1253.7,-1412.3 c -150,-58.4 -300.1,-212.6 -358.4,-366.8 -108.4,-283.4 27.1,-614.8 306.3,-756.5 83.4,-43.8 129.2,-52.1 277.2,-52.1 154.2,0 189.6,6.3 273,56.3 106.3,62.5 225.1,185.5 283.4,291.8 27.1,50 37.5,116.7 37.5,245.9 0,147.9 -8.3,193.8 -52.1,277.2 -141.7,281.2 -485.6,416.7 -766.9,304.2 z m 410.5,-183.4 c 223,-114.6 304.3,-387.6 185.5,-616.8 -116.7,-223 -462.6,-279.3 -656.4,-108.4 -183.4,160.5 -202.1,462.6 -41.7,637.7 114.6,122.9 358.4,164.6 512.6,87.5 z"
       id="path10"
       inkscape:connector-curvature="0" /><path
       d="m 3089.6,-1681.2 c -47.9,-18.8 -47.9,-22.9 -47.9,-443.9 0,-339.7 6.2,-431.4 29.2,-450.1 45.8,-37.5 3822,-35.4 3859.5,2.1 37.5,35.4 43.8,844 8.3,879.4 -29.2,29.2 -3778.2,41.7 -3849.1,12.5 z m 691.9,-458.4 V -2421 l -275.1,-6.3 -277.2,-6.3 v 293.8 293.8 l 277.2,-6.3 275.1,-6.2 z m 756.5,6.2 -6.3,-287.6 -275.1,-6.3 -277.2,-6.3 v 293.8 291.8 h 281.3 283.4 z m 733.5,-6.2 v -291.8 h -270.9 -270.9 v 291.8 291.8 h 270.9 270.9 z m 750.3,0 v -291.8 H 5750.9 5480 v 291.8 291.8 h 270.9 270.9 z m 750.2,0 v -293.8 l -275.1,6.3 -277.2,6.3 -6.3,258.4 c -2.1,143.8 0,273 4.2,287.6 8.3,20.8 79.2,27.1 283.4,27.1 h 271 z"
       id="path12"
       inkscape:connector-curvature="0" /><path
       d="m 7497.2,-1887.5 c -245.9,-156.3 -239.7,-510.6 12.5,-658.5 256.3,-150.1 575.2,35.4 575.2,333.4 0,302.2 -333.4,487.7 -587.7,325.1 z m 356.4,-181.3 c 39.6,-35.4 50,-68.8 50,-141.7 0,-164.6 -135.5,-254.2 -287.6,-191.7 -83.4,35.4 -114.6,87.5 -114.6,193.8 0,100 45.8,166.7 131.3,191.7 87.5,25 160.4,8.4 220.9,-52.1 z"
       id="path14"
       inkscape:connector-curvature="0" /><path
       d="m 8589.2,-1862.5 c -204.2,-100 -285.5,-354.3 -170.9,-543.9 166.7,-273 556.4,-245.9 689.8,47.9 47.9,106.3 47.9,187.5 0,291.7 -95.9,208.5 -327.2,300.2 -518.9,204.3 z m 237.6,-152.1 c 64.6,0 133.4,-97.9 133.4,-187.6 0,-112.5 -29.2,-164.6 -114.6,-200 -210.5,-87.5 -393.9,150 -250.1,323 52.1,60.4 116.7,87.5 173,72.9 16.6,-4.1 41.6,-8.3 58.3,-8.3 z"
       id="path16"
       inkscape:connector-curvature="0" /></g></g>
<path
   id="path4546-9"
   style="fill:#000000;fill-opacity:1;stroke:#000000;stroke-width:1.6543057px;stroke-linecap:butt;stroke-linejoin:miter;stroke-opacity:1"
   d="M 852.79592,580.49824 C 1055.1203,27.211177 120.54559,-92.208911 134.05571,477.4208 l 37.81253,-29.24849 6.26833,141.31706 -139.846608,-49.4289 42.781848,-30.7059 C 21.96971,-167.64962 1186.1293,-52.855403 856.84599,655.32952 Z"
   inkscape:connector-curvature="0"
   sodipodi:nodetypes="cccccccc" /></svg>