<?xml version="1.0" encoding="utf-8"?>
<!-- Svg Vector Icons : http://www.onlinewebfonts.com/icon -->
<!DOCTYPE svg PUBLIC "-//W3C//DTD SVG 1.1//EN" "http://www.w3.org/Graphics/SVG/1.1/DTD/svg11.dtd">
<svg version="1.1" xmlns="http://www.w3.org/2000/svg" xmlns:xlink="http://www.w3.org/1999/xlink" x="0px" y="0px" viewBox="0 0 1000 1000" enable-background="new 0 0 1000 1000" xml:space="preserve">
<metadata> Svg Vector Icons : http://www.onlinewebfonts.com/icon </metadata>
<g><g transform="translate(0.000000,511.000000) scale(0.100000,-0.100000)"><path d="M415.9,4364.4c-12.5-27.1-20.8-375.1-20.8-992v-950.3l-60.4-118.8C63.7,1765.7,26.2,1121.8,228.4,565.3c33.3-91.7,85.4-208.4,114.6-260.5l52.1-95.9v-2159c0-1713,6.2-2169.4,27.1-2198.6c25-33.3,281.3-35.4,4568-35.4c4282.5,0,4543,2.1,4568,37.5c20.8,27.1,27.1,481.4,27.1,2173.6V165.2l64.6,118.8C9812.5,586.2,9900,934.2,9900,1296.8c0,366.8-75,691.9-233.4,1006.6l-60.4,118.8v950.3c0,616.9-8.3,964.9-20.8,992c-22.9,39.6-95.8,39.6-4584.7,39.6C511.8,4404,438.8,4404,415.9,4364.4z M9418.6,3464.1v-754.4l-181.3,175.1c-270.9,260.5-535.6,423-860.7,527.2c-260.5,85.4-391.8,104.2-698.1,102.1c-325.1-2.1-554.3-47.9-841.9-170.9C6003,2989,5452.9,2103.3,5507,1205.1C5561.2,313.2,6167.6-478.7,7011.6-760c373-125,879.4-141.7,1250.4-39.6c104.2,29.2,189.6,50,193.8,45.9c2.1-2.1-62.5-56.3-145.9-118.8c-414.7-312.6-752.3-412.6-1404.6-412.6h-362.6l-295.9,443.9l-298,441.8h-948.2h-948.2l-298-441.8l-295.9-443.9h-362.6c-560.6,0-891.9,79.2-1233.7,291.7c-179.2,112.5-339.7,241.7-268.8,218.8c295.9-100,710.6-139.6,1012.8-95.9c464.7,68.8,869,270.9,1221.2,612.7c616.8,600.2,827.3,1475.5,546,2277.8c-396,1135.8-1631.7,1750.5-2759.2,1371.2c-327.2-108.4-575.2-262.6-844-521l-187.6-181.3v764.8v762.7h4418h4418V3464.1z M8047.4,3309.9c487.6-85.4,931.5-343.9,1215-704.4c137.5-175.1,323-554.3,389.7-796.1c62.5-235.5,64.6-737.7,0-971.1c-89.6-331.3-277.2-662.7-514.7-912.8c-293.8-308.4-591.9-477.2-996.1-568.9c-160.5-35.4-241.7-39.6-504.3-31.3c-339.7,10.4-477.2,39.6-741.9,150C6451.1-339.1,6103-3.6,5888.4,446.6c-125,258.4-179.2,473.1-193.8,773.1c-29.2,598.1,170.9,1127.4,581.4,1533.8c250.1,248,510.6,404.3,839.8,502.2C7399.3,3341.2,7759.8,3362,8047.4,3309.9z M2652,3289.1C3656.5,3114,4350.4,2251.3,4306.7,1226c-35.4-887.8-591.9-1602.6-1444.2-1856.8c-229.2-66.7-646-91.7-900.3-50c-198,31.3-471,125-650.2,223C1155.7-370.4,839-72.3,686.8,134C555.5,311.1,405.5,619.5,353.4,830c-168.8,656.4,31.3,1406.7,500.1,1886c314.7,320.9,729.4,529.3,1177.4,589.8C2181,3326.6,2487.4,3318.2,2652,3289.1z M1599.6-1051.8c160.5-120.9,539.8-304.3,744-358.4c139.6-37.5,258.4-47.9,739.8-62.5c739.8-22.9,3094.7-22.9,3834.5,0c671,20.8,771.1,39.6,1135.8,218.8c302.2,147.9,383.5,214.6,904.4,721l439.7,429.3V-1454v-1350.4l-4401.3,4.2L593-2796.1l-6.2,1358.8L582.6-76.5l448.1-441.8C1278.7-762.1,1532.9-1001.8,1599.6-1051.8z M6080.1-924.7l233.4-350.1l-656.5-6.3c-360.5-2.1-952.4-2.1-1312.9,0l-656.4,6.3l233.4,350.1l231.3,348h848.2h848.2L6080.1-924.7z M999.4-3483.8v-510.6H886.9c-60.4,0-154.2,6.3-208.4,12.5l-95.9,14.6v483.5c0,264.7,6.3,489.7,14.6,496c6.3,8.3,100,14.6,208.4,14.6h193.8V-3483.8z M1603.8-3479.6v-504.3h-202.1h-204.2l-6.3,479.3c-2.1,262.6,0,489.7,4.2,504.3c8.3,18.8,68.8,27.1,210.5,27.1h198V-3479.6z M2197.7-3483.8v-500.2l-198,2.1h-198l-6.3,504.3l-4.2,506.4l202.1-6.3l204.2-6.3V-3483.8z M2808.3-3475.4l4.2-491.8l-95.9-14.6c-54.2-6.3-148-12.5-208.4-12.5h-112.5v510.6v512.6l204.2-6.3l202.1-6.3L2808.3-3475.4z M3406.4-3483.8v-500.2l-202.1-2.1H3000v506.4v508.5l204.2-6.3l202.1-6.3V-3483.8z M4000.3-3473.4v-498.1l-66.7-12.5c-37.5-6.2-125-10.4-193.8-6.2l-125,6.2l-6.2,506.4l-4.2,504.3h198h198V-3473.4z M4583.8-3479.6v-508.5h-187.6l-187.6-2.1v508.5v508.5h187.6h187.6V-3479.6z M5188.2-3483.8v-510.6h-133.4c-72.9,0-162.5,6.3-198,12.5l-64.6,12.5v498v498.1h198h198V-3483.8z M5792.5-3479.6v-504.3l-198-4.2l-198-6.3v510.6v510.6h198h198V-3479.6z M6396.9-3485.9v-512.7l-198,8.3l-198,6.2v506.4v504.3h198h198V-3485.9z M7001.2-3477.5v-506.4H6797h-202.1l-6.3,479.3c-2.1,262.6,0,489.7,4.2,504.3c8.3,18.8,68.8,27.1,210.5,27.1h198V-3477.5z M7605.6-3483.8v-512.6l-202.1,8.3l-204.2,6.3l-6.2,477.2c-2.1,262.6,0,489.7,4.2,504.3c8.3,18.8,68.8,27.1,210.5,27.1h198V-3483.8z M8209.9-3471.3v-500.1l-108.4-12.5c-60.4-8.3-152.1-10.4-204.2-6.2l-93.8,6.2l-6.3,506.4l-4.2,504.3h208.4h208.4V-3471.3z M8803.8-3483.8v-500.2l-202.1-2.1l-204.2-2.1v508.5v508.5l204.2-6.3l202.1-6.3V-3483.8z M9393.6-3471.3c4.2-377.2-2.1-491.8-20.8-506.4c-31.3-18.7-289.7-22.9-337.6-4.2c-29.2,10.4-33.3,75-33.3,510.6v500.2l193.8-6.3l191.7-6.3L9393.6-3471.3z"/><path d="M7432.6,3091.1c-383.5-64.6-754.4-260.5-1029.5-541.8c-106.3-108.4-127.1-150-93.8-202.1c8.3-12.5,266.7-125,575.2-248c548.1-218.8,560.6-225.1,512.6-256.3c-170.9-112.5-285.5-283.4-306.3-460.6c-6.2-56.3-16.7-104.2-20.8-104.2c-6.2,0-220.9,164.6-479.3,364.7c-256.3,200.1-475.1,364.7-487.6,364.7c-112.5,0-223-441.8-200.1-802.3c16.7-254.2,62.5-418.9,181.3-666.9c114.6-237.6,270.9-437.6,473.1-604.3c241.7-198,664.8-377.2,858.6-360.5c68.8,6.3,75,12.5,81.3,79.2c2.1,39.6-31.3,312.6-77.1,604.3c-43.8,291.8-77.1,533.5-77.1,535.6c2.1,2.1,45.8-16.7,97.9-41.7c70.9-35.4,127.1-45.8,258.4-45.8c131.3,0,187.5,10.4,258.4,45.8c52.1,25,95.8,43.8,97.9,41.7c4.2-4.2-31.3-258.4-77.1-566.8c-45.9-310.5-79.2-585.6-77.1-614.8c8.3-68.8,89.6-77.1,268.8-31.3c285.5,75,539.7,220.9,777.3,446c341.7,329.3,525.1,719,548.1,1171.2c20.8,379.3-81.3,789.8-193.8,789.8c-14.6,0-237.6-164.6-493.9-364.7c-258.4-200.1-475.1-364.7-481.4-364.7c-6.2,0-12.5,41.7-12.5,89.6c0,166.7-133.4,379.3-310.5,493.9c-45.8,31.3-25,41.7,523.1,260.5c535.6,214.6,568.9,233.4,575.2,285.5c6.2,43.8-18.8,81.3-116.7,179.2C8576.7,2974.4,7968.2,3180.7,7432.6,3091.1z M8009.9,2895.2c277.2-54.2,539.7-183.4,746-366.8l106.3-93.8l-568.9-227.2c-314.7-125-581.4-227.1-593.9-227.1c-12.5,0-279.3,102.1-591.9,227.1l-568.9,227.2l100,89.6C7007.5,2851.4,7518,2989,8009.9,2895.2z M7122.1,996.7c2.1-2.1,43.8-275.1,93.8-606.4c75-500.1,85.5-604.3,60.4-608.5C7222.1-232.8,6936.6-114,6786.6-14c-441.8,289.7-702.3,777.3-702.3,1319.1c0,156.3,31.3,396,54.2,435.6c6.3,8.3,227.2-154.2,493.9-362.6C6899.1,1171.8,7117.9,998.8,7122.1,996.7z M7886.9,1696.9c97.9-45.8,185.5-133.4,216.7-216.7c37.5-100,27.1-283.4-20.8-385.5C7978.6,880,7657.7,805,7447.2,948.8c-112.5,77.1-162.6,173-170.9,329.3c-8.3,152.1,29.2,258.4,125,348C7520.1,1736.5,7732.7,1767.8,7886.9,1696.9z M9293.6,1592.7c10.4-62.5,20.8-202.1,20.8-314.7c0-571-308.4-1092-812.7-1371.2C8362-170.3,8130.7-253.7,8112-234.9c-8.3,6.3,25,277.2,72.9,600.2c68.8,460.5,95.9,598.1,125,627.3c97.9,95.9,933.6,737.7,946.1,725.2C9264.4,1709.4,9281.1,1653.2,9293.6,1592.7z"/><path d="M1812.2,3043.2C914,2768.1,351.3,1869.9,532.6,990.5c45.8-227.2,97.9-337.6,158.4-337.6c29.2,0,220.9,135.5,516.8,366.8l468.9,366.8l12.5-123c16.7-168.8,85.4-302.2,216.7-418.9l112.5-97.9l-531.4-212.6c-293.8-116.7-546-223-562.7-237.6c-50-41.7-33.3-100,58.4-200.1c198-214.6,571-437.6,860.7-516.8c198-54.2,593.9-64.6,804.4-20.8c360.5,72.9,702.3,256.3,941.9,506.4c116.7,125,143.8,187.6,93.8,229.2c-14.6,12.5-266.7,116.7-558.5,233.4c-291.8,116.7-535.6,216.7-541.8,223c-6.3,6.3,2.1,16.7,18.8,22.9c60.4,20.8,183.4,152.1,237.6,250.1c31.3,56.3,62.5,152.1,70.9,212.6l16.7,110.4L3396,980.1c258.4-202.1,483.5-368.9,502.2-368.9c56.3,0,100,70.9,148,241.7c35.4,133.4,45.8,220.9,43.8,456.4c0,256.3-6.3,314.7-56.3,479.3C3844,2415.9,3325.1,2916,2710.4,3064c-166.7,39.6-210.5,22.9-210.5-77.1c0-50,127.1-977.4,154.2-1127.4l10.4-52.1l-108.4,52.1c-156.3,79.2-379.3,77.1-518.9-2.1c-56.3-31.3-100-50-100-41.7c0,8.3,39.6,281.3,87.5,606.4c62.5,425.1,81.3,600.2,64.6,625.2C2058.1,3097.3,1987.2,3095.3,1812.2,3043.2z M1812.2,2236.7c-47.9-314.7-91.7-579.3-100-587.7c-39.6-39.6-954.5-746.1-964.9-746.1c-27.1,0-60.4,241.7-60.4,429.3c0,250.1,43.8,452.2,141.7,662.7c179.2,379.3,523.1,689.8,931.5,837.8c114.6,41.7,125,41.7,131.3,10.4C1895.5,2824.4,1858,2551.4,1812.2,2236.7z M3043.8,2747.2c135.5-68.8,325.1-216.7,452.2-352.2c250.1-268.8,396-614.8,414.7-992c10.4-206.3-18.8-508.5-54.2-529.3c-10.4-6.3-908.6,677.3-969,739.8c-16.7,16.7-195.9,1244.1-183.4,1256.6C2714.5,2882.7,2939.6,2799.3,3043.8,2747.2z M2489.4,1696.9c289.7-131.3,327.2-568.9,64.6-748.1c-210.5-143.8-531.4-68.8-635.6,145.9c-47.9,102.1-58.4,285.5-20.8,385.5C1976.8,1688.6,2270.6,1797,2489.4,1696.9z M2875,432c304.3-120.9,560.6-227.1,568.9-235.5c25-25-229.2-223-406.4-314.7c-393.9-206.3-889.8-229.2-1335.8-62.5c-118.8,43.8-362.6,195.9-493.9,308.4l-72.9,62.5l52.1,22.9c183.4,81.3,1079.5,435.5,1104.5,437.6C2310.2,652.9,2572.8,552.8,2875,432z"/><path d="M1253.7-1412.3c-150-58.4-300.1-212.6-358.4-366.8c-108.4-283.4,27.1-614.8,306.3-756.5c83.4-43.8,129.2-52.1,277.2-52.1c154.2,0,189.6,6.3,273,56.3c106.3,62.5,225.1,185.5,283.4,291.8c27.1,50,37.5,116.7,37.5,245.9c0,147.9-8.3,193.8-52.1,277.2C1878.9-1435.3,1535-1299.8,1253.7-1412.3z M1664.2-1595.7c223-114.6,304.3-387.6,185.5-616.8c-116.7-223-462.6-279.3-656.4-108.4c-183.4,160.5-202.1,462.6-41.7,637.7C1266.2-1560.3,1510-1518.6,1664.2-1595.7z"/><path d="M3089.6-1681.2c-47.9-18.8-47.9-22.9-47.9-443.9c0-339.7,6.2-431.4,29.2-450.1c45.8-37.5,3822-35.4,3859.5,2.1c37.5,35.4,43.8,844,8.3,879.4C6909.5-1664.5,3160.5-1652,3089.6-1681.2z M3781.5-2139.6V-2421l-275.1-6.3l-277.2-6.3v293.8v293.8l277.2-6.3l275.1-6.2V-2139.6z M4538-2133.4l-6.3-287.6l-275.1-6.3l-277.2-6.3v293.8v291.8h281.3h283.4L4538-2133.4z M5271.5-2139.6v-291.8h-270.9h-270.9v291.8v291.8h270.9h270.9V-2139.6z M6021.8-2139.6v-291.8h-270.9h-270.9v291.8v291.8h270.9h270.9V-2139.6z M6772-2139.6v-293.8l-275.1,6.3l-277.2,6.3l-6.3,258.4c-2.1,143.8,0,273,4.2,287.6c8.3,20.8,79.2,27.1,283.4,27.1H6772V-2139.6z"/><path d="M7497.2-1887.5c-245.9-156.3-239.7-510.6,12.5-658.5c256.3-150.1,575.2,35.4,575.2,333.4C8084.9-1910.4,7751.5-1724.9,7497.2-1887.5z M7853.6-2068.8c39.6-35.4,50-68.8,50-141.7c0-164.6-135.5-254.2-287.6-191.7c-83.4,35.4-114.6,87.5-114.6,193.8c0,100,45.8,166.7,131.3,191.7C7720.2-1991.7,7793.1-2008.3,7853.6-2068.8z"/><path d="M8589.2-1862.5c-204.2-100-285.5-354.3-170.9-543.9c166.7-273,556.4-245.9,689.8,47.9c47.9,106.3,47.9,187.5,0,291.7C9012.2-1858.3,8780.9-1766.6,8589.2-1862.5z M8826.8-2014.6c64.6,0,133.4-97.9,133.4-187.6c0-112.5-29.2-164.6-114.6-200c-210.5-87.5-393.9,150-250.1,323c52.1,60.4,116.7,87.5,173,72.9C8785.1-2010.4,8810.1-2014.6,8826.8-2014.6z"/></g></g>
</svg>