<?xml version="1.0" encoding="utf-8"?>
<!-- Svg Vector Icons : http://www.onlinewebfonts.com/icon -->
<!DOCTYPE svg PUBLIC "-//W3C//DTD SVG 1.1//EN" "http://www.w3.org/Graphics/SVG/1.1/DTD/svg11.dtd">
<svg version="1.1" xmlns="http://www.w3.org/2000/svg" xmlns:xlink="http://www.w3.org/1999/xlink" x="0px" y="0px" viewBox="0 0 1000 1000" enable-background="new 0 0 1000 1000" xml:space="preserve">
<metadata> Svg Vector Icons : http://www.onlinewebfonts.com/icon </metadata>
<g><g transform="translate(0.000000,511.000000) scale(0.100000,-0.100000)"><path d="M1850.3,4970.6c-41.5-19.7-96.2-65.6-120.3-98.4l-45.9-61.3l-6.6-3874.1c-2.2-2517.8,2.2-3900.3,17.5-3952.8c10.9-43.8,52.5-109.4,87.5-144.4l67.8-65.6l514.1-6.6l511.9-6.6v284.4v286.6H2570h-306.3V875.6v3543.7H4449h2187.5l6.6-492.2c8.7-647.5-52.5-588.4,608.1-597.2l503.1-6.6V326.6v-2994.7H6693.4H5632.5v-284.4v-284.4h1235.9c1367.2,0,1325.6-4.4,1410.9,137.8c43.8,67.8,43.8,135.6,43.8,3384.1c0,3115-2.2,3318.4-39.4,3370.9c-19.7,30.6-328.1,341.3-682.5,689.1c-516.2,507.5-660.6,638.7-719.7,649.7c-39.4,8.8-1172.5,15.3-2515.6,15.3C2084.3,5010,1920.3,5007.8,1850.3,4970.6z"/><path d="M3186.8,2315c-41.6-41.6-32.8-144.4,15.3-170.6c28.5-15.3,632.2-21.9,1802.5-21.9c1739.1,0,1758.8,0,1798.1,43.8c32.8,35,37.2,56.9,19.7,105l-19.7,59.1l-1795.9,6.6C3630.9,2341.3,3206.5,2334.7,3186.8,2315z"/><path d="M5258.4,1157.8c-43.8-43.8-41.6-111.6,6.6-161.9c13.1-13.1,295.3-21.9,763.4-21.9c713.1,0,746,2.2,776.6,41.6c41.6,59.1,39.4,91.9-13.1,144.4c-41.6,41.6-72.2,43.8-765.6,43.8C5328.4,1203.8,5302.1,1201.6,5258.4,1157.8z"/><path d="M3703.1,88.1c-126.9-67.8-236.2-245-236.2-382.8c0-41.6-15.3-50.3-96.3-59.1c-137.8-15.3-253.7-83.1-330.3-190.3c-59.1-83.1-65.6-111.6-65.6-253.7c0-144.4,6.6-170.6,70-258.1l67.8-98.4l-43.7-41.6c-70-61.2-126.9-203.4-126.9-315c0-207.8,175-406.9,378.4-428.8c98.4-10.9,98.4-10.9,113.8-113.8c39.4-277.8,277.8-448.4,540.3-393.8c59,13.1,133.4,48.1,168.4,76.6c35,28.5,70,52.5,78.8,52.5c6.6,0,52.5-30.6,100.6-70c70-56.9,111.6-72.2,214.4-78.7c70-4.4,164.1,2.2,205.6,15.3c105,35,229.7,166.2,258.1,273.4c43.8,164.1,59.1,188.1,118.1,188.1c78.7,0,207.8,56.9,282.2,126.9c168.4,157.5,188.1,422.2,43.8,592.8l-54.7,65.6l63.4,83.1c37.2,45.9,76.6,120.3,91.9,166.2c76.6,242.8-107.2,522.8-369.7,560l-100.6,13.1l-13.1,115.9c-41.6,328.1-393.8,490-678.1,312.8c-111.6-70-113.7-70-159.7-28.4C4092.4,138.4,3858.4,169.1,3703.1,88.1z M4464.3-780.3c46-24.1,115.9-85.3,151-135.6c59.1-83.1,65.6-111.6,65.6-253.7c0-142.2-6.6-170.6-65.6-253.7c-168.4-238.4-509.7-255.9-697.8-39.4c-194.7,229.7-126.9,557.8,144.4,695.6C4175.6-708.1,4337.4-712.5,4464.3-780.3z"/><path d="M5151.2-2659.4c-199.1-196.9-520.6-273.4-802.8-188.1c-140,43.8-157.5,43.8-255.9,15.3c-220.9-67.8-522.8-15.3-702.2,122.5l-87.5,65.6l-6.6-1023.7l-4.4-1023.8l54.7-48.1c32.8-28.4,76.6-50.3,100.6-50.3c45.9,0,317.2,238.4,621.3,544.7l196.9,199l360.9-360.9c402.5-402.5,455-433.1,555.6-332.5l56.9,56.9v1052.2c0,577.5-2.2,1050-4.4,1047.8C5229.9-2582.8,5192.8-2617.8,5151.2-2659.4z"/></g></g>
</svg>