<?xml version="1.0" encoding="utf-8"?>
<!-- Svg Vector Icons : http://www.onlinewebfonts.com/icon -->
<!DOCTYPE svg PUBLIC "-//W3C//DTD SVG 1.1//EN" "http://www.w3.org/Graphics/SVG/1.1/DTD/svg11.dtd">
<svg version="1.1" xmlns="http://www.w3.org/2000/svg" xmlns:xlink="http://www.w3.org/1999/xlink" x="0px" y="0px" viewBox="0 0 1000 1000" enable-background="new 0 0 1000 1000" xml:space="preserve">
<metadata> Svg Vector Icons : http://www.onlinewebfonts.com/icon </metadata>
<g><g><g><path d="M640.1,707.8c2.3,0.3,4.8,0.5,7.8,0.5c0,0,0,0,0.1,0c7.4-0.1,14.8-0.4,22.2-0.7c5.4-0.2,10.8-0.5,16.3-0.6c6.6-0.2,14.3-1.2,19.2-6.4c1.8-0.2,3.5-0.8,5.1-1.9c2.9,0.8,6.3,1.2,10.3,0.6c2.9-0.5,6.3,0.5,10,1.4c3,0.8,6.1,1.6,9.5,1.9c15.5,1.4,31.9,5.6,50.2,12.8l4,1.5c8.6,3.3,16.8,6.3,21.8,13.5l2.2,3.2c7.6,11,15.5,22.4,26.7,31.8c8.7,7.4,18.4,11.3,28.1,11.3l0,0c11.1,0,21.4-5.3,29-15c3.9-4.9,7.6-9.9,11.3-15l5-6.7c2.2-3,1.6-7.2-1.3-9.4l-1.5-1.1c-1.4-1.1-3.2-1.6-5-1.3c-1.8,0.2-3.4,1.2-4.5,2.6c-1.3,1.7-2.6,3.4-3.9,5.1c-3,3.8-5.9,7.7-8.6,11.7c-5.7,8.3-13,12.9-20.7,12.9c-7.6,0-14.8-4.5-18.9-11.7c-4.3-7.6-9.3-14.7-14.1-21.6c-2.3-3.2-4.5-6.4-6.7-9.7l-0.6-0.8c0,0,0-0.1-0.1-0.1c0-7.6-4.7-11.5-9.1-14.2c0.8-2.7-0.2-5.6-2.4-7.3c-0.6-0.5-1.2-1-1.7-1.5c-1.8-1.6-4.1-3.6-7.3-4.5c-0.9-0.2-1.9-0.4-2.8-0.5c0.1-1.5-0.4-3-1.3-4.2c-1.3-1.8-3.3-2.8-5.4-2.8c0-1.5-0.6-3.1-1.6-4.3c-1.5-1.8-3.9-2.6-6.2-2.2c-1.6,0.3-3.2,0.6-4.7,0.9c-2.8,0.6-5.3,1.1-7.7,1.2c-0.3-0.3-0.6-0.6-0.9-0.9c-1-1-2.2-2.1-3.5-3.2c-1.6-1.3-3.8-1.8-5.8-1.4l-9.3,2.1c-2.6-1.9-5.6-2.9-8.9-2.9c-4.2,0-8,1.5-11,2.7l-1.3,0.5c-4.8,1.9-9.3,2.3-15.7,1.4c-0.9-0.1-1.9-0.2-2.8-0.3l-0.2-0.8c-0.6-1.9-1.9-3.4-3.7-4.2c-1.8-0.8-3.8-0.8-5.6,0.1c-1.1,0.5-2.2,0.9-3.3,1.3c-0.6,0.2-1.3,0.4-1.9,0.7c-2.1-0.8-4.3-1.2-6.7-1.1c-3.4-2.1-7.8-3.2-13.2-3.2l-1,0c-13.5,0.3-27,0.6-40.5,1l-10,0.3c-2.7-14.8-8.3-33.2-22.6-47.7c3.8-2.9,7.1-6.5,9.8-10.5l0.5-0.3c7.9-4.9,15.8-9.7,23.7-14.4c6.6-3.9,13.1-7.7,19.9-10.6l3.6-1.5c10.5-4.5,21.3-9.1,30.3-18c4.8-4.8,10.1-9.5,15.2-14c4.8-4.3,9.9-8.8,14.6-13.4c1.5-1.5,3.2-2.8,5-4.2c6-4.7,14-11.1,14.2-22.8c2.1-3.5,4.2-6.9,6.3-10.4c4.5-7.5,9.2-15.2,14.1-22.5c21.1-31,40.1-40.9,66.5-35.4c3.9,0.8,8.9,0.7,13.9,0.5c1.8-0.1,3.6-0.2,5.3-0.2c3.4,0,6.3-2.6,6.7-6c0.4-3.4-1.9-6.5-5.2-7.3c-6.3-1.4-12.4-1.9-18.3-2.5c-2.5-0.2-4.9-0.4-7.4-0.7c-20.5-2.4-37,2.5-50.7,14.9c-10.1,9.2-21.5,20.6-29.4,35.6c-1.7,3.2-3.6,6.3-5.6,9.4c-2.1-0.5-4.3-0.1-6,1.3c-2.1,1.7-4.1,3.4-6,5c-4.3,3.6-8.3,7-12.4,10c-2,1.5-4.4,2.7-7,4c-1.2-0.6-2.6-0.7-4-0.4c-2.4,0.5-4.4,2.2-5.1,4.6l-2.9,9.1c-5.7,0.7-7.8,2.5-12.5,8.6c0,0,0,0-0.1,0.1c-7.3,2.7-16.2,6.1-20.7,16.1c-0.4,0.3-0.8,0.6-1.2,0.9l-0.9,0.6c-16.2,12.4-32.4,24.8-48.7,37.1c-1.3,1-2.5,2-3.7,3c-0.6,0-1.2,0.1-1.8,0.1c5-15.8,4.1-31.4,2.7-42.5c-0.6-4.6,0.7-7.5,4.8-11.6c3.7-3.7,6.8-7.9,9-12.4c1.9-4.1,3.7-8.2,5.4-12.4c2-4.9,3.9-9.6,6.2-14c4.1-7.9,7.6-16.6,2.4-27.7c-6.2-13.4-6.7-27.1-1.4-40.9c1.3-3.4-0.3-7.2-3.7-8.6c-3.3-1.4-7.2,0.1-8.7,3.4c-2.5,5.4-5,11.2-5.8,17.4c-1.7,13.5,0.1,26.6,5.3,39c0.1,0.5,0,1.8-0.3,2.3c-2.6,4.3-5.4,8.4-8.3,12.6c-2.3,3.4-4.7,6.8-6.9,10.3c-2.8,4.5-5.5,9-8.3,14c-11-11.6-24.3-15.2-36.3-17.7c-5.8-1.2-10.8-3.1-14.4-5.4c-2.4-1.5-4.7-3.4-6.9-5.3c1.9-0.3,3.9-0.6,5.8-0.9c11.5-1.7,23.4-3.5,35.1-5.8c13.6-2.7,22.5-12.2,26.5-28.4c2.4-9.8,4.6-19.6,6.8-29.4c1.1-4.8,2.1-9.6,3.2-14.4c3.7-16.3,0.6-28.5-9.6-37.4c-1.2-1.1-2.5-2.1-3.8-2.9c2.9-2.7,5.8-5.9,7.7-9.8c21.4-45.1,15.7-87.3-17-125.6c-1.8-2.1-3.8-4-5.9-5.7c61.1-65.1,47.1-165.4,17.3-214.2c-1.8-2.9-5.4-4-8.5-2.6c-3.1,1.4-4.7,4.9-3.6,8.1c5.4,17.4,4.6,42.5,2,58.9c-7-7.4-15.6-12.9-25.7-16.4c-2.7-0.9-5.6-0.1-7.4,2.1c-1.8,2.2-2,5.3-0.6,7.7c1.3,2.2,2.7,4.3,4.1,6.4c2.7,4.1,5.2,8,6.7,11.9c11,28.2,11.3,55.8,0.8,81.9c-7.9,19.6-23,31.7-45.1,36c-3.3,0.7-6.6,1.4-10.4,2.3l-5.7,1.3c-3,0.7-5.2,3.3-5.2,6.4c-0.1,3.1,2,5.8,5,6.6c3.2,0.9,6.1,1.6,9,2.3c5.6,1.4,10.5,2.6,15,4.3c17.4,6.6,26.4,16.6,28.4,31.4c3.2,22.9,0.3,45-8.5,65.7c-6.6,15.4-18.7,26.2-31.6,37.7l-3.2,2.9c-0.1,0-0.2-0.1-0.3-0.1c-4.9-4.1-10.5-6.8-16.5-8.1c-0.3-0.5-0.6-0.9-1-1.4c-1.9-2.2-4.6-3.3-7.6-3.3h-12.6c-3,0-5.8,1.2-7.7,3.5c-0.4,0.5-0.8,1-1.1,1.6c-5.5,1.4-10.5,3.9-14.9,7.6c-0.1,0.1-0.2,0.1-0.4,0.2l-3.2-2.9c-12.9-11.4-25-22.2-31.6-37.7c-8.8-20.7-11.7-42.8-8.5-65.7c2-14.8,11.1-24.8,28.4-31.4c4.5-1.7,9.4-2.9,15-4.3c2.8-0.7,5.8-1.4,9-2.3c3-0.8,5-3.5,5-6.6c-0.1-3.1-2.2-5.7-5.2-6.4l-5.7-1.3c-3.8-0.9-7.1-1.7-10.4-2.3c-22-4.3-37.2-16.4-45.1-36c-10.5-26.1-10.2-53.7,0.8-81.9c1.5-3.9,4.1-7.8,6.7-11.9c1.4-2.1,2.7-4.2,4.1-6.4c1.4-2.4,1.2-5.5-0.6-7.7c-1.8-2.2-4.8-3-7.4-2.1c-10.1,3.5-18.7,9-25.7,16.4c-2.6-16.4-3.4-41.4,2-58.9c1-3.2-0.6-6.7-3.6-8.1c-3.1-1.4-6.7-0.3-8.5,2.6c-29.7,48.8-43.7,149.1,17.3,214.2c-2,1.7-4,3.6-5.9,5.7c-32.7,38.2-38.5,80.5-17,125.6c1.9,4,4.8,7.1,7.7,9.8c-1.3,0.9-2.6,1.8-3.8,2.9c-10.2,8.9-13.3,21.2-9.6,37.4c1.1,4.8,2.1,9.6,3.2,14.4c2.2,9.8,4.3,19.6,6.8,29.4c4,16.2,13,25.8,26.6,28.4c11.7,2.3,23.6,4.1,35.1,5.8c1.9,0.3,3.9,0.6,5.8,0.9c-2.3,2-4.6,3.8-6.9,5.3c-3.6,2.3-8.6,4.2-14.4,5.4c-12,2.4-25.3,6.1-36.3,17.7c-2.8-4.9-5.5-9.5-8.3-14c-2.2-3.5-4.5-6.9-6.9-10.3c-2.8-4.1-5.7-8.3-8.2-12.6c-0.3-0.5-0.4-1.8-0.4-2.1c5.3-12.5,7.1-25.6,5.4-39.1c-0.8-6.2-3.3-12-5.8-17.4c-1.5-3.3-5.4-4.8-8.7-3.4c-3.3,1.4-5,5.2-3.7,8.6c5.3,13.8,4.8,27.5-1.4,40.9c-5.2,11.1-1.6,19.8,2.4,27.7c2.3,4.5,4.2,9.1,6.2,14c1.7,4.2,3.4,8.3,5.4,12.4c2.1,4.4,5.2,8.7,9,12.4c4.1,4,5.4,7,4.8,11.6c-1.3,11.1-2.3,26.7,2.7,42.5c-0.6,0-1.2-0.1-1.8-0.1c-1.2-1.1-2.4-2.1-3.7-3c-16.3-12.3-32.5-24.7-48.7-37.1l-0.9-0.6c-0.4-0.3-0.8-0.6-1.2-0.9c-4.5-10-13.4-13.4-20.7-16.1c0-0.1-0.1-0.1-0.1-0.1c-4.7-6-6.7-7.8-12.5-8.5l-2.9-9.1c-0.7-2.3-2.7-4.1-5.1-4.6c-1.4-0.3-2.8-0.1-4,0.4c-2.5-1.3-5-2.5-6.9-4c-4.1-3-8.2-6.4-12.4-10c-1.9-1.6-3.9-3.3-6-5c-1.7-1.4-3.9-1.9-6-1.3c-2-3.2-3.9-6.2-5.6-9.4c-7.9-15-19.3-26.4-29.4-35.6c-13.7-12.5-30.1-17.3-50.7-14.9c-2.5,0.3-4.9,0.5-7.4,0.7c-5.9,0.5-12,1.1-18.3,2.5c-3.3,0.7-5.6,3.9-5.2,7.3c0.4,3.4,3.2,6,6.7,6c1.8,0,3.6,0.1,5.3,0.2c5,0.3,9.9,0.4,13.9-0.5c26.4-5.5,45.4,4.4,66.5,35.4c4.9,7.3,9.6,15,14.1,22.5c2.1,3.5,4.2,7,6.3,10.5c0.2,11.7,8.2,18.1,14.2,22.8c1.7,1.4,3.4,2.7,5,4.2c4.8,4.7,9.8,9.1,14.6,13.4c5.1,4.5,10.3,9.2,15.2,14c9,9,19.9,13.6,30.3,18l3.6,1.5c6.8,2.9,13.3,6.7,19.9,10.6c7.9,4.7,15.7,9.5,23.7,14.4l0.5,0.3c2.7,4.1,6,7.6,9.8,10.5c-14.3,14.5-19.9,32.9-22.6,47.7l-10-0.2c-13.5-0.3-27-0.7-40.5-1l-1,0c-5.4,0-9.7,1-13.2,3.2c-2.3-0.2-4.7,0.3-6.7,1.1c-0.7-0.3-1.3-0.5-1.9-0.7c-1.1-0.4-2.2-0.7-3.3-1.3c-1.8-0.8-3.8-0.9-5.6-0.1c-1.8,0.8-3.1,2.3-3.7,4.2l-0.2,0.8c-0.9,0.1-1.9,0.2-2.8,0.3c-6.4,0.9-10.9,0.5-15.7-1.4l-1.3-0.5c-3-1.2-6.8-2.7-11-2.7c-3.3,0-6.4,1-8.9,2.9l-9.3-2.1c-2-0.5-4.2,0-5.8,1.4c-1.3,1.1-2.5,2.2-3.5,3.2c-0.3,0.3-0.7,0.7-1,0.9c-2.3-0.1-4.8-0.7-7.7-1.2c-1.5-0.3-3.1-0.6-4.7-0.9c-2.3-0.4-4.7,0.5-6.2,2.2c-1,1.2-1.6,2.7-1.6,4.3c-2.1,0-4.1,1-5.4,2.8c-0.9,1.3-1.3,2.7-1.3,4.2c-0.9,0.1-1.9,0.3-2.8,0.6c-3.2,0.8-5.4,2.8-7.3,4.4c-0.6,0.5-1.1,1-1.7,1.5c-2.2,1.7-3.2,4.6-2.4,7.2c-4.2,2.4-9.2,6.4-9.1,14.2c0,0,0,0.1-0.1,0.1l-0.6,0.8c-2.2,3.3-4.4,6.5-6.7,9.7c-4.8,6.9-9.8,14-14.1,21.6c-4.1,7.2-11.3,11.7-18.9,11.7c-7.7,0-15-4.6-20.7-12.9c-2.7-4-5.7-7.8-8.6-11.7c-1.3-1.7-2.6-3.4-3.9-5.1c-1.1-1.4-2.7-2.4-4.5-2.6c-1.8-0.3-3.6,0.2-5,1.3l-1.5,1.1c-3,2.2-3.5,6.4-1.3,9.4l5,6.7c3.7,5,7.4,10.1,11.3,15c7.6,9.6,17.9,15,29,15c9.6,0,19.3-3.9,28.1-11.3c11.2-9.5,19.1-20.8,26.7-31.8l2.2-3.2c5-7.2,13.1-10.2,21.8-13.5l4-1.5c18.3-7.2,34.7-11.4,50.2-12.8c3.3-0.3,6.5-1.1,9.5-1.9c3.8-1,7.1-1.9,10.1-1.4c4,0.6,7.4,0.2,10.3-0.6c1.6,1.1,3.3,1.7,5.1,1.9c4.9,5.2,12.6,6.2,19.2,6.4c5.4,0.1,10.9,0.4,16.3,0.6c7.4,0.3,14.8,0.6,22.8,0.7c2.5,0,5-0.2,7.2-0.5l0.8,4.6c2.3,13.4,4.6,26.9,6.9,40.5c-19.7,22.6-29.5,49.8-37.3,73.8c-0.5,1.4-1.4,4.1-0.2,7.1c2.8,6.7-0.1,10.5-6.4,17.8c-0.9,1-1.8,2.1-2.6,3.1c-0.9,1.1-2,2.3-3.1,3.5c-4.2,4.4-8.9,9.5-9,15.9c0,2-0.9,3.1-3.5,5.7c-2.9,3-6.9,7.1-6.7,14c0.1,1.5,0.7,2.9,1.7,4c-0.1,0.1-0.1,0.2-0.2,0.3c-1.8,2.7-3.9,5.3-6.3,8.3c-1.1,1.4-2.3,2.9-3.5,4.5c-1.6,2.1-1.9,5-0.6,7.4c0.6,1.1,1.5,2,2.5,2.6c-0.6,1.8-0.4,3.8,0.6,5.4c0.7,1.2,1.7,2.1,2.9,2.7l-3.2,11.2c-0.6,2.1-0.1,4.4,1.3,6.1c1.4,1.7,3.5,2.6,5.8,2.4l1.5-0.1c0.8,3,1.7,5.9,2.6,8.9c0.2,0.6,0.4,1.2,0.8,2.2c-0.8,9.3-9.8,16.2-18.2,13.1c-5.9-2.1-11.4-5.9-17.3-10c-1.7-1.1-3.4-2.3-5-3.4c-3.9-2.5-7.5-5.4-11.4-8.4c-1.7-1.4-3.5-2.7-5.3-4c-1.4-1.1-3.2-1.5-5-1.3c-1.8,0.3-3.4,1.2-4.4,2.6l-1.1,1.5c-2.2,2.9-1.6,7.1,1.3,9.3c3.2,2.5,6.4,5.1,9.6,7.7c7.2,5.9,14.7,12.1,23,17c6.9,4.1,13.8,6.2,20.3,6.2c15.9,0,27.9-12.3,31.2-32.1l0.4-2.6c6.1-36.7,12.4-74.6,30.3-108.1c8.2-15.4,16.5-30.8,24.9-46.4l6.8-12.6c21.8,31.9,47.1,64.3,84.1,86.2c7.3,4.3,15.8,8,26.6,11.5c0,0,0,0,0.1,0.1c1.4,1,3.1,1.5,4.8,1.3c1.4,0,2.8-0.4,4-1.1c11-3.5,19.7-7.3,27.1-11.7c37-21.9,62.3-54.3,84.1-86.2l6.8,12.6c8.4,15.6,16.7,31,24.9,46.4c17.9,33.5,24.2,71.4,30.3,108.1l0.4,2.6c3.3,19.8,15.2,32.1,31.2,32.1c6.6,0,13.4-2.1,20.3-6.2c8.3-4.9,15.8-11.1,23-17c3.2-2.6,6.3-5.2,9.6-7.7c2.9-2.2,3.2-6.8,1-9.7l-0.9-1.1c-1.1-1.4-2.7-2.4-4.4-2.6c-1.8-0.2-3.6,0.2-5,1.3c-1.8,1.3-3.5,2.7-5.3,4c-3.9,3-7.5,5.9-11.4,8.4c-1.7,1.1-3.4,2.3-5,3.4c-5.9,4-11.4,7.8-17.3,10c-8.4,3.1-17.4-3.8-18.2-13.1c0,0,0,0,0,0c0.3-0.7,0.6-1.4,0.8-2.2c0.9-3,1.7-5.9,2.6-8.9l1.5,0.1c2.2,0.2,4.4-0.7,5.8-2.4c1.4-1.7,1.9-4,1.3-6.1l-3.2-11.2c1.2-0.6,2.2-1.5,2.9-2.7c1-1.7,1.1-3.7,0.6-5.4c1-0.6,1.9-1.5,2.5-2.6c1.3-2.3,1.1-5.2-0.6-7.4c-1.2-1.6-2.4-3.1-3.5-4.5c-2.4-3-4.5-5.6-6.3-8.3c0-0.1-0.1-0.1-0.1-0.2c1-1.1,1.6-2.6,1.6-4.1c0.2-6.9-3.8-11-6.7-14c-2.6-2.6-3.5-3.7-3.5-5.7c-0.1-6.4-4.8-11.4-9-15.9c-1.1-1.2-2.2-2.3-3.1-3.5c-0.9-1-1.8-2.1-2.6-3.1c-6.3-7.3-9.2-11.1-6.4-17.8c1.2-2.9,0.3-5.6-0.3-7.3c-7.7-23.7-17.6-51-37.2-73.6c2.2-13.6,4.5-27.1,6.8-40.5L640.1,707.8z"/></g></g><g></g><g></g><g></g><g></g><g></g><g></g><g></g><g></g><g></g><g></g><g></g><g></g><g></g><g></g><g></g></g>
</svg>