<?xml version="1.0" encoding="utf-8"?>
<!-- Svg Vector Icons : http://www.onlinewebfonts.com/icon -->
<!DOCTYPE svg PUBLIC "-//W3C//DTD SVG 1.1//EN" "http://www.w3.org/Graphics/SVG/1.1/DTD/svg11.dtd">
<svg version="1.1" xmlns="http://www.w3.org/2000/svg" xmlns:xlink="http://www.w3.org/1999/xlink" x="0px" y="0px" viewBox="0 0 1000 1000" enable-background="new 0 0 1000 1000" xml:space="preserve">
<metadata> Svg Vector Icons : http://www.onlinewebfonts.com/icon </metadata>
<g><g transform="translate(0.000000,511.000000) scale(0.100000,-0.100000)"><path d="M2175.3,4957.9c-98-75.4-88-196.1,22.6-349.5l88-120.7l-75.4-17.6c-40.2-10.1-289.1-17.6-550.6-20.1c-402.3-2.5-490.3,5-573.2,42.7c-75.4,32.7-113.1,37.7-163.4,17.6c-163.4-62.9-186-266.5-37.7-354.5c140.8-88,377.1-108.1,952.9-90.5c294.2,7.6,598.4,25.1,673.8,37.7l135.8,20.1l289.1-178.5c158.4-95.6,329.4-216.2,382.2-266.5c83-80.5,95.5-105.6,110.6-264c20.1-191.1-2.5-1066-32.7-1239.5l-17.6-108.1l-138.3,88c-75.4,47.8-203.7,160.9-284.1,251.4c-100.6,115.7-191.1,186-304.2,241.4l-158.4,77.9l-613.5-7.6l-613.5-7.5l-130.7,70.4c-158.4,80.5-206.2,85.5-294.2,15.1c-88-67.9-90.5-216.2-7.5-294.1c140.8-133.3,465.1-213.7,804.5-201.1c120.7,5,218.7,0,218.7-7.6c0-15.1-354.5-364.6-605.9-603.4c-113.1-105.6-125.7-183.5-45.3-284.1c72.9-90.5,186-88,321.8,12.6c218.7,158.4,545.6,495.3,827.2,849.8c67.9,88,135.8,52.8,357-176c160.9-168.4,497.8-409.8,633.6-455.1c15.1-5,37.7-85.5,47.8-181c27.7-231.3,130.7-447.5,269-570.7c145.8-128.2,326.8-211.2,797-374.6c256.5-88,429.9-165.9,545.6-241.4c289.1-191.1,553.1-525.5,786.9-988.1l118.2-236.3l-186.1,12.6c-125.7,10.1-306.7,55.3-575.8,140.8c-442.5,145.8-678.8,183.6-947.8,153.4c-233.8-25.1-500.3-113.1-575.8-188.6c-95.5-95.5-75.4-238.8,47.8-301.7c67.9-35.2,85.5-32.7,233.8,15.1c387.2,128.2,605.9,115.7,1194.2-80.4c329.3-108.1,427.4-130.7,636.1-140.8l243.9-12.6l5-598.4c2.5-331.9,5-623.5,5-653.7c2.5-45.3-35.2-65.4-228.8-135.8c-279.1-100.6-505.3-223.8-698.9-379.6l-143.3-118.2l-171,30.2c-95.5,15.1-248.9,27.6-339.4,27.6c-155.9,0-176,7.5-271.5,90.5c-241.4,203.6-600.9,316.8-1023.3,316.8c-309.2,2.5-512.9-42.7-769.3-168.4c-427.4-208.7-618.5-598.4-455.1-917.7c88-173.5,299.2-251.4,673.8-251.4h173.5v-83c0-163.4,70.4-336.9,171-419.9c221.3-183.5,311.8-188.6,3386.6-155.9c2159.7,22.6,2217.5,22.6,2375.9,75.4c193.6,62.9,331.9,171,409.8,314.3c47.8,88,55.3,145.8,55.3,359.5c0,241.4-5,259-95.5,445c-115.7,233.8-286.6,417.4-555.7,590.8c-447.5,294.2-1136.4,457.6-1787.6,424.9l-276.6-12.6l-57.8,70.4c-55.3,70.4-55.3,72.9-15.1,243.9c32.7,138.3,37.7,259,27.7,636.1c-17.6,560.7-52.8,739.2-208.7,1055.9l-118.2,236.4l98,85.5c52.8,47.8,168.5,120.7,256.4,160.9c193.6,93,231.3,90.5,771.9-55.3c543.1-143.3,548.1-145.8,626-65.4c100.6,98,70.4,264-57.8,314.3c-165.9,65.4-1005.7,279.1-1103.7,279.1c-201.1,0-472.7-118.2-716.5-309.2l-95.6-75.4l-42.7,60.4c-67.9,103.1-414.8,452.5-490.3,495.3c-65.4,37.7-70.4,52.8-60.3,138.3c15.1,108.1,160.9,432.4,261.5,578.3c85.5,123.2,130.7,145.8,492.8,243.9l299.2,77.9l153.3-118.2c85.5-65.4,176-145.8,203.7-178.5c57.8-75.4,168.4-133.2,253.9-133.2c88,0,188.6,105.6,188.6,193.6c0,98.1-42.7,150.8-259,321.8l-188.6,145.8l57.8,77.9c83,110.6,271.5,470.2,367.1,701.5l80.5,193.6h140.8c77.9,0,221.2,17.6,316.8,40.2c528,115.7,525.5,115.7,616,88c47.8-15.1,155.9-83,238.8-153.4C8677,2587,8968.7,2396,9034,2396c103.1,0,191.1,93,191.1,198.6c0,103.1-30.2,138.3-226.3,269c-60.4,40.2-191.1,138.3-289.1,221.2c-95.5,80.5-221.2,171-276.6,198.6c-143.3,75.4-382.2,70.4-736.7-15.1c-155.9-40.2-301.7-67.9-319.3-62.9c-25.1,5,10.1,65.4,105.6,183.5c367.1,455.1,636.1,1013.2,636.1,1317.4c0,103.1-98.1,203.7-193.6,203.7c-125.7-2.5-188.6-83-218.7-271.5c-40.2-261.5-236.3-626-540.5-1005.7c-133.3-165.9-228.8-316.8-299.2-477.7c-57.8-125.7-105.6-243.9-105.6-256.5c0-93-191.1,77.9-341.9,304.2c-216.2,326.8-362.1,744.2-409.8,1179.2c-25.1,241.4-70.4,301.7-216.2,301.7c-113.1,0-188.6-95.5-188.6-238.8c0-291.7,145.8-834.7,316.8-1174.1c155.9-314.3,419.9-641.1,600.9-744.2c50.3-27.7,47.8-32.7-32.7-191.1c-115.7-226.3-236.3-326.8-462.6-392.2c-605.9-176-598.4-173.5-736.7-309.2c-145.8-145.8-281.6-377.1-367.1-621c-30.2-90.5-65.4-173.5-75.4-186c-22.6-25.1-369.6,85.5-613.5,198.6c-223.8,100.6-319.3,183.5-394.7,334.4c-52.8,108.1-57.8,150.9-55.3,472.7c0,221.2,12.6,382.1,32.7,429.9c40.2,95.5,176,198.6,668.8,497.8c221.2,135.8,427.4,269,460.1,296.7c83,75.4,77.9,223.8-10.1,291.6c-37.7,30.2-90.5,52.8-115.7,52.8c-27.6,0-253.9-123.2-502.8-276.6c-248.9-150.8-457.6-276.6-462.6-276.6c-5,0-10.1,105.6-10.1,233.8c0,125.7-12.6,314.3-25.1,417.4l-25.1,183.5l201.1,216.2c176,191.1,201.1,228.8,201.1,309.3c0,72.9-15.1,108.1-65.4,145.8c-120.7,95.5-181,72.9-379.6-140.8c-176-188.6-186-193.6-241.4-158.4c-32.7,20.1-171,105.6-306.7,188.6c-241.4,145.8-500.3,374.6-744.2,661.2C2356.4,5025.8,2280.9,5040.9,2175.3,4957.9z M6620.4,1754.8c-15.1-40.2-60.3-52.8-60.3-17.6c0,27.7,27.6,55.3,52.8,55.3C6625.4,1792.5,6628,1774.9,6620.4,1754.8z M7339.5-2997c804.5-120.7,1407.9-553.1,1407.9-1008.2c0-155.9-52.8-236.3-206.2-301.7c-100.6-45.3-203.6-47.8-1357.7-55.3l-1252.1-7.5v138.3c0,276.6-176,568.2-452.5,744.2l-125.7,80.5l57.8,47.8c100.6,77.9,397.2,216.2,593.3,274C6404.2-2961.8,6904.5-2929.1,7339.5-2997z M3349.5-3188c98.1-15.1,208.7-37.7,241.4-52.8c57.8-20.1,47.8-30.1-128.2-105.6c-191.1-83-392.2-213.7-482.7-314.3c-42.7-47.8-75.4-52.8-331.9-52.8c-336.9,0-412.3,20.1-412.3,115.7c0,98.1,186,266.5,364.6,334.4C2859.2-3165.4,3070.4-3145.3,3349.5-3188z M4767.5-3625.5c218.7-52.8,460.1-165.9,580.8-274.1c125.7-113.1,201.1-289.1,160.9-377.1c-47.8-108.1-163.4-118.1-1229.4-110.6c-955.4,7.5-985.5,10-1056,60.3c-90.5,67.9-98.1,148.3-25.1,274.1c108.1,191.1,382.2,349.5,734.1,427.4C4138.9-3580.3,4576.4-3580.3,4767.5-3625.5z"/></g></g>
</svg>