<?xml version="1.0" encoding="utf-8"?>
<!-- Svg Vector Icons : http://www.onlinewebfonts.com/icon -->
<!DOCTYPE svg PUBLIC "-//W3C//DTD SVG 1.1//EN" "http://www.w3.org/Graphics/SVG/1.1/DTD/svg11.dtd">
<svg version="1.1" xmlns="http://www.w3.org/2000/svg" xmlns:xlink="http://www.w3.org/1999/xlink" x="0px" y="0px" viewBox="0 0 1000 1000" enable-background="new 0 0 1000 1000" xml:space="preserve">
<metadata> Svg Vector Icons : http://www.onlinewebfonts.com/icon </metadata>
<g><g transform="translate(0.000000,511.000000) scale(0.100000,-0.100000)"><path d="M2220.8,4976c-686.1-137.8-1214.2-588.5-1389.4-1188.4c-106.2-358.8-37.3-884.1,149.3-1179.8l80.4-129.2l-94.7-200.9c-189.4-404.8-192.3-732-5.7-1102.3c186.6-373.2,645.9-752.1,1171.2-967.4c152.1-63.1,200.9-94.7,186.6-126.3c-17.2-43.1-74.6-258.3-109.1-401.9L2195-392l-439.2-2.9c-373.2,0-470.8-11.5-651.6-66c-407.6-123.4-605.7-422-766.4-1148.2c-68.9-321.5-74.6-364.6-37.3-430.6c77.5-137.8,304.3-155,373.2-28.7c17.2,34.5,60.3,203.8,97.6,381.8c106.2,531.1,241.1,752.1,493.7,818.1c120.6,31.6,436.3,45.9,729.1,37.3l192.3-5.7l31.6-186.6c17.2-100.5,60.3-269.8,91.9-376.1c31.6-103.3,54.5-192.3,48.8-198.1c-5.7-5.7-120.6-71.8-252.6-146.4c-614.3-335.8-852.6-582.7-958.8-996.1c-51.7-198.1-83.2-743.5-54.5-907.1c40.2-212.4,200.9-287.1,367.4-163.6c51.7,37.3,60.3,86.1,74.6,496.6c11.5,333,31.6,482.2,66,562.6c97.6,223.9,370.3,453.5,783.7,663.1c83.2,40.2,160.7,74.7,172.2,74.7c11.5,0,71.8-74.7,132-169.4c57.4-91.9,175.1-241.1,261.2-335.9l152.1-166.5l-169.4-200.9c-195.2-232.5-324.4-482.2-370.3-711.9c-25.8-132-25.8-200.9,14.4-370.3c57.4-249.7,284.2-729.1,378.9-789.4c132-89,327.2,20.1,327.2,180.8c0,37.3-60.3,186.6-132,333c-109.1,212.4-137.8,301.4-146.4,450.7c-11.5,163.6-5.7,203.8,68.9,338.7c83.2,157.9,321.5,462.2,361.7,465c11.5,0,109.1-51.7,212.4-114.8c410.5-246.9,864-373.2,1346.3-373.2c496.6,0,910,111.9,1346.3,364.6l226.8,132l146.4-160.7c344.5-378.9,378.9-622.9,149.3-1096.6c-74.6-152.1-134.9-307.1-134.9-341.6c0-146.4,155-244,301.4-189.4c97.6,37.3,370.3,594.2,413.4,849.7c63.1,353.1-71.8,706.2-427.7,1108.1l-112,129.2l74.6,68.9c71.8,66,381.8,467.9,436.3,565.5c25.8,43.1,40.2,43.1,166.5-17.2c444.9-215.3,766.5-493.8,841.1-726.3c23-68.9,45.9-315.8,54.6-548.3c20.1-462.1,31.6-493.7,192.3-528.2c68.9-11.5,106.2,0,172.2,54.6l83.3,71.8l-2.9,399c-5.7,574.1-89,849.7-333,1119.5c-132,140.6-488,384.6-763.6,525.3c-160.8,77.5-180.8,97.6-166.5,152.1c43.1,140.7,129.2,499.5,146.4,602.8l17.2,106.2l192.3,5.7c106.2,2.9,290,0,407.6-2.9c542.5-17.2,680.3-166.5,823.9-878.4c74.6-373.2,117.7-444.9,267-444.9c43.1,0,109.1,25.8,146.4,54.5c89,71.8,86.1,203.8-14.3,622.9C9491.9-857,9288.1-575.7,8897.7-458c-169.3,51.7-278.4,63.1-643,63.1l-439.2,2.9l-14.4,71.8c-8.6,40.2-40.2,155-68.9,258.4c-31.6,100.5-51.7,186.6-48.8,186.6c2.9,2.9,106.2,45.9,226.8,97.6C8415.5,440.5,8874.8,816.5,9047,1161c186.6,367.4,183.7,723.4-5.7,1122.4l-94.7,195.2l83.3,129.2c149.3,232.5,203.8,479.4,189.4,826.7c-17.2,344.5-68.9,519.6-238.2,772.2c-284.2,424.8-749.2,706.2-1314.7,786.5c-419.1,60.3-904.2-48.8-967.4-221c-43.1-111.9-17.2-166.5,206.7-393.2c367.4-376.1,671.7-789.4,617.2-844c-40.2-40.2-330.1,80.4-565.5,235.4c-289.9,192.3-318.6,200.9-424.8,146.4c-103.3-54.5-117.7-89-137.8-344.5c-34.5-424.8,129.2-884.1,416.2-1165.4c399-390.4,1050.6-533.9,1567.3-344.5c94.7,34.5,192.3,63.2,212.5,66c63.1,8.6,143.5-226.8,143.5-424.8c2.9-407.6-292.8-734.9-958.8-1053.5l-298.5-140.7l-189.5,200.9c-103.3,109.1-278.4,261.2-387.5,335.9l-198.1,134.9l51.7,74.6c215.3,307.2,117.7,760.7-209.6,964.5c-126.3,77.5-166.5,86.1-361.7,86.1c-195.2,0-235.4-8.6-361.7-86.1c-186.6-117.7-304.3-310-321.5-525.3l-11.5-163.6h-482.2H4523l-14.4,166.5c-20.1,221-132,407.6-318.6,522.5c-126.3,77.5-166.5,86.1-361.7,86.1c-195.2,0-235.4-8.6-361.7-86.1c-327.2-203.8-424.8-657.4-209.5-964.5l54.5-77.5L3125,1057.7c-100.5-66-275.6-215.3-387.5-333l-203.8-215.3l-298.5,143.5c-666,315.8-961.6,643-958.8,1050.6c0,198,80.4,433.4,143.5,424.8c20.1-2.9,117.7-31.6,212.4-66c235.4-86.1,577-106.2,829.6-45.9c720.5,169.4,1142.5,697.6,1148.2,1438.2c2.9,324.4-17.2,404.7-129.2,459.3c-109.1,57.4-134.9,48.8-427.7-143.5c-235.4-155-525.3-275.6-565.5-235.4c-51.7,54.6,252.6,476.5,605.7,832.5c215.3,221,258.3,301.4,218.2,407.6C3239.8,4964.5,2680.1,5067.9,2220.8,4976z M2490.6,4367.4c-335.8-396.1-499.5-729.1-456.4-944.4c23-129.2,183.7-289.9,318.6-315.8c169.4-31.6,390.4,5.7,599.9,100.5c106.2,48.8,200.9,83.3,209.5,77.5c5.7-8.6-8.6-83.2-34.4-166.5c-120.6-419.1-516.7-688.9-1007.6-691.8c-287.1,0-479.4,74.6-645.9,255.5c-393.3,424.8-321.5,1159.7,149.3,1541.5c244,198.1,591.3,333,864,333l166.5,2.9L2490.6,4367.4z M7850,4502.3c189.5-57.4,476.5-215.3,594.2-324.4c112-106.2,255.5-344.5,304.3-505.2c140.6-476.5-71.8-1004.7-476.5-1179.8c-117.7-51.7-203.8-66-381.8-66c-493.7,2.9-887,272.7-1007.6,691.8c-25.8,83.3-40.2,157.9-31.6,166.5c5.7,5.7,97.6-28.7,200.9-74.6c200.9-94.7,436.3-134.9,605.7-103.3c134.9,25.8,295.7,186.6,318.6,315.8c43.1,215.3-117.7,545.4-456.4,944.4l-163.6,192.3h155C7597.4,4559.8,7749.5,4533.9,7850,4502.3z M4003.4,1815.5c132.1-117.7,74.6-361.7-97.6-407.6c-312.9-83.3-465,344.5-163.6,462.1C3808.2,1895.9,3946,1867.2,4003.4,1815.5z M6357.3,1815.5c123.4-111.9,77.5-353.1-80.4-404.7c-275.6-94.7-470.8,246.9-244,424.8C6121.9,1904.5,6268.3,1895.9,6357.3,1815.5z M5450.2,1083.5c1291.8-157.9,2049.6-930,1914.7-1946.2c-129.2-973.1-835.4-1805.6-1785.5-2104.1c-310-94.7-838.2-94.7-1148.2,0c-783.7,246.8-1415.2,864-1682.2,1647.7C2352.8-153.7,2967.1,779.2,4302,1040.4C4706.7,1117.9,5051.2,1132.3,5450.2,1083.5z"/></g></g>
</svg>