<?xml version="1.0" encoding="utf-8"?>
<!-- Svg Vector Icons : http://www.onlinewebfonts.com/icon -->
<!DOCTYPE svg PUBLIC "-//W3C//DTD SVG 1.1//EN" "http://www.w3.org/Graphics/SVG/1.1/DTD/svg11.dtd">
<svg version="1.1" xmlns="http://www.w3.org/2000/svg" xmlns:xlink="http://www.w3.org/1999/xlink" x="0px" y="0px" viewBox="0 0 1000 1000" enable-background="new 0 0 1000 1000" xml:space="preserve">
<metadata> Svg Vector Icons : http://www.onlinewebfonts.com/icon </metadata>
<g><path d="M424.8,785.4c0.1-3-4.3-5.2-6.3-2.6c-2,2.6-3.8,5.3-5.7,8c1.5-4.7,2.9-9.4,3.8-14.3c0.6-3.5-3.1-5.9-5.9-3.4c-5.7,5-10.7,10.5-15.2,16.3c0.8-2.4,1.7-4.7,2.5-7.1c1.1-3.1-3.4-4.6-5.1-2.1c-5.4,8-11,15.6-15.3,24.2c-1.2,2.3,2.2,4.3,3.5,2c1.1-2,2.4-3.8,3.6-5.7c-1.4,3.7-2.8,7.3-4.3,10.9c-1.6,3.9,3.5,7.2,5.8,3.4c5.9-10.1,12.5-19.6,20.3-28.1c-3.4,10.5-7.9,20.7-10.9,31.4c-1.1,3.9,4.7,6.5,6.7,2.8c4-7.8,8.7-15.1,13.6-22.2c-1.9,11.9-5.5,23.6-8.5,35.3c-1.2,4.7,5.6,6.5,7.2,2c1.4-4,2.2-8,3.4-12.1c0.1-0.3,0.1-0.5,0.1-0.8C421.5,810.7,424.5,798.3,424.8,785.4z"/><path d="M961.9,468.8c-7.7-111.5-60.6-215.5-130.4-300.6c-58.3-71-164.6-136.8-258.7-135.8c-9.9,0.1-9.9,15.1,0,15.3c6.1,0.1,12,0.7,18,1.4c-26.7,27.9-51.7,57.5-76.2,87.6c-6.4,6.2-12.7,12.3-18.5,18.4C461,192,427.2,229.9,394.7,269c-29,35-59.5,69.5-89,104.7c-29.4,28.8-70.6,61.3-88,95.2c42-81.7,114.7-151,173.7-220.7c28.4-33.5,57.5-66.5,87.1-98.9c26.1-28.5,60-53.8,78.3-88.3c1.3-2.5-1.4-5.6-4-4c-25.9,15.6-42.7,39-59.9,63.3c-8.2,11.5-17.1,22.7-26.3,33.6c-8.5,9.3-16.9,18.7-25.3,28.1c-1.3,1.5-2.6,3-3.9,4.5c-17.7,18.9-36.1,37.3-53.8,55.6c-5.3,5.5-10.6,10.9-15.9,16.4c2.7-3.1,5.3-6.3,8-9.4C432.4,183.5,492.4,121.5,537,46.9c1.7-2.8-2.3-5.9-4.5-3.5c-14.5,15.6-28.8,31.2-43,46.9c10.5-14.2,20.4-28.6,29.6-43.4c1.7-2.7-2.2-5.7-4.4-3.4c-59,62.2-112.9,128.3-174,188.8c-36.6,36.3-73.3,72.5-108.4,110.2c3.1-3.8,6.1-7.6,9.2-11.3c28.8-35.6,57.4-71.4,85.9-107.2c52.7-66.2,113.2-127.3,163.2-195.5c17.8,0.8,35,4.1,50.6,11.4c7.6,3.5,13.8-6.7,6.6-11.3c-71.9-45.4-176.2,2.1-244.6,33.4c-95.4,43.6-168.5,127.2-213.4,220.5c-83,172.6-71.3,412.2,52.8,562.5C262.8,990.6,495,1023.1,663,958c86.2-33.4,163.1-84,217.1-160C946,704.8,969.6,581.1,961.9,468.8z M537,75.2c23.4-23.4-13.5,19.4-18.5,24.3c-4.1,4-8,8-12,12.1C516,98.4,525.5,86.7,537,75.2z M638.1,60.6c-98.2,90.9-188.5,193.6-268.6,302.7c-59.4,66.9-115,136.7-170.3,207c-8.1,10.2-16.3,20.4-24.3,30.7c5-7,9.9-14.1,14.7-21.2c16.3-21.5,32.6-42.8,49.3-64c66.1-83.9,134.4-165.8,201.3-249c31.8-39.6,63.2-79.7,97.3-117.3c27.5-30.4,57.2-56.3,77.4-92.6c0.8-1.4,0.4-2.7-0.5-3.6C622.3,55.4,630.2,57.8,638.1,60.6z M608.1,103.4c-56,65.9-116.8,128.5-176.2,191.8c9.5-11.9,19.1-23.7,28.6-35.5c30.6-37.7,62.6-74.3,95.7-109.8c18.3-19.7,37.2-38.7,56.4-57.4c7.7-7.4,15.6-14.8,23.4-22C640.7,66.1,612.3,98.4,608.1,103.4z M529.2,149.3c10.6-12.7,21.2-25.4,32-38c12.6-14.6,32.8-29.8,41.7-45.7c-14.9,26.8-39.6,48.6-60.9,70.2C537.7,140.2,533.5,144.8,529.2,149.3z M559.8,97.5c14-14.7,27.3-30,38.1-47.4c4.4,0.7,8.7,1.6,13,2.6c-0.4,0.1-0.7,0.3-1.1,0.6c-32.2,28.7-61.3,61.1-89.4,94.5C534.3,131.2,547.5,114.5,559.8,97.5z M421,247.1c15.7-18.6,31.9-36.9,48.4-54.9c-19.3,23.7-38.8,47.2-59.3,69.8c-10.4,11.5-20.9,22.8-31.4,34.1C393.1,279.7,407.3,263.4,421,247.1z M414.3,266.2c32.5-35.6,68-73.1,100.7-111.9c-27.5,33-54.1,66.8-81.5,99.1c-33.1,39-66.7,77.5-101,115.4c-28.5,31.5-67.4,64.3-90.3,97.2c-0.1,0.1-0.2,0.2-0.3,0.3c17.5-26.3,36.9-51.9,57.3-76.9C337.8,348.6,376.4,307.7,414.3,266.2z M261.1,429.4c-12.4,16.3-24.4,32.9-35.6,50c-0.4,0.7-0.5,1.3-0.5,1.9c-0.7,0.6-1.4,1.2-2.1,1.7c-9.9,7.5-8.5,1.9-6.8-6.2C231.1,461.1,246.1,445.3,261.1,429.4z M374.5,259.7c-19.6,23.3-39.1,46.7-59.1,69.7c-38.2,44.2-75.5,88.3-103.7,139.6c-1.7,0.6-3.5,1.2-5.4,1.8c0.3-1.1,0.6-2.2,0.8-3.7c5-8.6,9.5-17.3,13.8-26.3c0.5-1.1,0.3-2-0.2-2.9c37.3-40.5,70.7-84.4,104.8-127.8C341.7,293.2,358.1,276.4,374.5,259.7z M156.1,431.9c-2.2,3.1,2.8,5.8,5,2.9c81.2-105.6,182.7-192.5,272.8-290c3.9-4.3,7.8-8.6,11.6-12.9c-19.5,22.3-38.8,44.7-57.9,67.3c-13.9,14.2-28.1,28.2-42.6,41.9C286.2,296.4,226,353.3,192,428c-0.9,2,0.6,4.9,3.1,4c20-6.9,32.4-22.6,44.9-39.1c29.3-38.6,57.5-77.2,88.5-114.7c23.5-28.5,48.9-56.3,74.2-84.5c42.1-40.8,92.8-88.6,121.7-136.9c-52.7,88.1-127.9,163.5-195.7,242.2c-43.2,45.4-85,92.1-121.4,143.4c-3.9,2.7-7.5,5.6-11,8.8c1.1-3.3,1.9-6.7,3-11c0.7-2.8-2.9-5.2-5-2.9c-4.5,5-8.4,9.4-12.4,14.8c-5.9,7.8-6.2,15.7-4.6,4c0.4-2.9-2.5-4.9-4.9-2.8c-15.5,13.4-13.1,17.9-5.1-1.1c1-2.3-2.3-4.7-4.2-3.3c-10.2,7.5-18.8,15.2-24,24.6c5.8-10.5,11.3-19.6,14.2-31.3c0.5-2.2-2-4.7-4.1-3.1c-9.7,7.2-18.1,14.7-26.5,23.4c-3.5,3.6-3.3-7.1-3.1-13.3c0.7-1.6,1.4-3.1,2-5c0.8-2.5-2.3-4.3-4.2-3.2c2.4-4.8,4.9-9.5,7.4-13.3c3.6-5.1,7.3-10.1,11-15.1c0,0-0.1,0-0.1,0c1.8-2.5,3.7-4.9,5.4-7.4c2.1-3-2.8-5.8-4.9-2.9c-2.1,2.9-4.1,5.7-6.2,8.6c-2.8,0.4-4.9,3.2-6.1,8.5c-10,13.6-20.6,26.8-30.9,40.1c-0.3,0.5-0.5,0.9-0.6,1.4c-0.6-0.4-1.4-0.7-2.2-0.3c-3,1.2-5.9,2.2-8.9,3.2c5.4-7.1,10.4-14.4,14.3-22.6c0.6-1.2,0.3-2.3-0.3-3.2c46.8-64.9,98.5-125.8,151.7-185.5c22.2-24.9,44.6-49.6,66.8-74.4c-2.2,3.8-4.5,7.5-6.6,11.4c-1.3,2.4,1.6,6.1,4.1,4.1c0,0,0,0,0,0c-33.1,46.4-68,91.6-102.2,137.2c-6.6,8.7-13,17.5-19.5,26.3c-24.9,30-48.2,61.2-67.3,95c-1.9,3.3,3,6.1,5.1,3c20.1-29.9,41.2-59.2,62.5-88.2c4-4.6,8-9.2,12-13.8c51.4-59,101.1-119.1,151.7-178.8c22.3-26.2,45.5-51.4,69.5-76c0.7,0.1,1.5-0.1,2-0.8c2.6-3.1,5-6.1,7.5-9.2c0.5-0.5,1-1.1,1.6-1.6c4.1-4.2,8.3-8.4,12.4-12.5C346.4,189.6,245.2,307.2,156.1,431.9z M351.6,242.2c-8.9,10.7-18,21.4-26.9,32.2c-31.4,38.1-61,75.6-89.4,115.8c-0.5,0.7-33.5,29.5-33.3,29.1c5.3-11.6,12.2-22.5,18.9-33.3c16.4-26.4,37.4-49.8,58.4-72.6C302.2,288.6,326.9,265.3,351.6,242.2z M111.7,461.6c1.3-1.5,2.5-3.1,3.6-4.7c0.6,3.1,0.2,8-1,15c-1.5,0.5-3,1-4.5,1.4C114.2,468,114.8,464.1,111.7,461.6z M213.9,252.2c49-50.5,95.4-103.6,146.1-152.4c14.9-14.4,30.6-27.9,46.5-41.2c-4.3,3.6-20.5,26.4-27.9,34.8c-12.4,14-24.5,28-35.9,42.5c-62,70.4-125.9,139.2-185.7,211.6c20.5-29.7,40.4-59.7,57.5-91.7C215.4,254.4,214.9,253,213.9,252.2z M358.9,126.9c-4.9,5.8-10.7,12.8-13,16.3c-7.6,11.5-15.6,22.8-23.5,34.2c-6.5,5.9-2,0.3,4.5-10.2c4.1-6.7,8.7-13,13.5-19.3c5.3-6,10.6-11.9,15.8-17.9C357.2,128.8,358,127.9,358.9,126.9z M446.7,59.7c-1.1,1.7-21.1,27.7-26,34.1c-0.3,0.4-0.4,0.7-0.4,1.1c-42.9,45.8-85.5,91.7-125.7,140.6c-16.4,20-33.8,39.6-51.2,59.2c28.6-38,56.9-76.2,84.3-115.1c23.9-21,44.7-44.7,65.6-68.9c15.8-18.4,32.1-36.2,49.7-52.9C456.8,43.8,458,44.5,446.7,59.7z M482.3,28.4c-9.2,10-18.4,19.9-27.7,29.8c4-6.1,7.7-12.4,11-19.1c1.7-3.4-2.2-6-5-3.8c-44.6,34.5-77.4,80.3-116.3,120.5c11.5-16.8,22.7-33.8,33.6-51.1c0.5-0.7,0.5-1.5,0.3-2.2c18.2-20.8,36.5-41.5,53.2-63.6c1.7-2.2-1.7-5.6-3.9-3.9c-47.4,36-89.3,77.6-130.1,120.5c27-33.2,51.7-68.1,72.9-105.3C404.1,39.7,444.2,28.5,482.3,28.4z M209.6,140c42.1-39.7,92.7-66.8,147-85.2c-32.3,32.7-62.3,67.4-92,102.6c-7.1,8.4-15.6,16.9-24.4,25.7c-6.7,4.1-13.4,8.2-20.1,12.3c-9.8,5.9-5-5.1-3.4-12c0.4-1.7-1.2-3.8-3.1-3.1c-11,4.3-16,10.3-9.4-5.1c4.4-10.2,14.5-18.4,21.7-26.6c1.5-1.7,0.1-4.8-2.3-4c-9,2.9-13.3,7.9-18.9,15.3c-1.3,1.7,1.3,3.6,2.9,2.4c-6,7.6-10.7,15.8-11.6,26.4c-0.2,2,2.2,2.9,3.7,2.1c15.7-8.4,10.2-1.1,10.1,11.8c0,2,2.1,3.1,3.8,2.2c3.9-2.1,7.8-4.5,11.6-6.8c-17.6,17.7-34.3,36.6-42.3,57.2c-0.5,1.3,1.3,1.8,2,0.9l2.4-3.2c0.7-1-0.9-2.2-1.7-1.3c16.7-21.2,35.1-41,53.5-60.7c1.6-1.5,3.1-3,4.7-4.4c0.4-0.4,0.5-0.8,0.6-1.2c11.3-12.1,22.5-24.3,33.2-36.8c13.6-15.8,27.3-31.5,41.2-47.1c12.9-14.4,34-29.8,43.2-46.2c-45.8,81.8-113.6,151.3-177.4,219.2c-1.6,1.7-0.4,4,1.4,4.4c-12.9,14.8-25.1,30-36.7,45.7c10.3-19.1,19-38.8,25.9-59.5c0.9-2.7-2.5-4.2-4.4-2.6c-4.2,3.7-8.1,7.6-11.8,11.6c1.2-2.2,2.5-4.4,3.6-6.6c1.1-2.2-1.7-4.6-3.5-2.7c-21.1,22.4-41.6,46.8-55.6,74.3c-1,1.9,1.9,3.6,2.9,1.7c11.5-22,39.1-50.4,45.8-63.1c-3.2,6.1-6.8,12-10.5,17.8c-4,5.6-7.9,11.4-11.6,17.3c-14.3,20-30.1,39.3-43.3,59.8c-1.6,2.5,2,5.2,4,3.1c29.4-30.5,45.6-70.2,74.3-101.2c-11.2,12.1-22.3,51.1-32.4,68.3c-14.9,25.2-31.9,49.2-48,73.6c-1.9,2.9,2.6,5.4,4.6,2.7c18.3-25.9,36-52.2,54.3-78.1c17-24.1,45.5-48.9,58.8-73.8c-32.5,60.7-77.2,114.4-115.1,171.7c-4.1,1.9-8.2,3.8-12.3,5.7c2.9-4.5,5.9-8.8,10.1-12.8c2.5-2.4-0.7-6.2-3.6-4.7c-7.6-0.4-11.8,2.1-12.5,7.3c1.1-6.8,3.8-13,8.1-18.6c1.9-2.5-0.5-6.4-3.6-4.6c-4.4,2.6-8.6,5.6-12.5,8.9C79.4,313.4,130.6,214.6,209.6,140z M390.4,963.8c-104.9-21.1-204.5-76.1-263.7-166.8c-63.8-97.7-81.4-221.6-71-335.8c1.1-11.8,2.7-23.6,4.5-35.3c0.9,0.4,2.1,0.4,3-0.5c1-0.9,2.1-1.6,3.2-2.5c-1.6,4.1-2.8,8.5-4.1,13.6c-0.5,2,1.5,4.5,3.7,3.6c2.2-0.9,4.4-1.8,6.6-2.7c-2.7,3.9-5.2,8.1-7.9,12.3c-1.8,2.7,1.6,5.3,4.1,4.1c5.8-2.8,11.7-5.4,17.6-8.1C81.8,453.2,76.6,460,71,467c-1.7,2.2-0.2,5.9,2.9,5c3.6-1.1,7.3-2.3,10.9-3.5c-5.2,9.7-10.5,19.3-14.5,29.6c-0.9,2.4,2.3,4.8,4.4,3.4c0.4-0.3,0.7-0.6,1.1-0.8c-6.9,9.1-13.5,18.5-19.1,28.6c-1.7,3,2.1,5.6,4.6,3.5c2.2-1.8,4.4-3.6,6.6-5.5c0.5,0.4,1.1,0.7,1.8,0.6c8.7-2.1,20.9-22.2,25.7-29.6c1.9-3-2.8-5.7-4.7-2.8c-5.4,8.1-12,14.7-19.1,21c7.4-10.8,15.6-21,23.5-31.4l0,0c0.2-0.2,0.3-0.4,0.5-0.6c2.1-2.8-2.3-5.8-4.7-3.6c-3.4,3.2-6.9,6.1-10.6,9c4.1-8.6,8.8-16.8,13.3-25.2c0.2-0.3,0.2-0.7,0.2-1.1c0.9,0.6,2.1,0.6,3.2-0.5c2.1-2,4-3.7,5.7-5.2c-0.9,2.7-1.8,5.5-2.5,8.4c-0.7,2.7,2.7,4.9,4.8,2.8c0.4-0.4,0.7-0.7,1.1-1.1c-1.5,4.6-2.8,9.3-3.8,14.3c-0.5,2.3,1.9,4.5,4.1,3.2c11.2-6.8,10.2-8.9-1.8,12.1c-1.3,2.2,1.4,5.5,3.8,3.8c11.3-8.3,11.2-3.2,12.8,8c0.3,2,3.6,1.5,3.5-0.5c-0.4-6.6-0.8-13.3-1.2-19.9c-0.1-1.7-2.1-3.3-3.8-2.2c-13.8,9.5-2.5-2.2,2-13c0.3-0.8,0.3-1.4,0-1.9c1.7-1.9,3.4-3.8,5.1-5.8c3.6-6.6,9-10.1,16.2-10.4c-3.3,7.6-8.5,14.7-12.5,21.9c-1.6,2.8,2.1,5.7,4.4,3.4c7.4-7.3,33.7-43.4,19.3-9.4c-1.5,3.5,2.8,6,5,2.9c11.3-15.2,12.1-16.8,10.6-6.2c-0.5,3.4,3.3,5,5.4,2.3l17.5-22.6c-6.2,7.8-11,17.3-16.6,25.6c-1.9,2.8,2.5,6.2,4.7,3.6c7.1-8.4,14-16.5,22-23.8c0.8,0.6,2,0.9,3,0.4c-5.3,8.9-10.1,21.6-13.7,27.7c-1.7,2.9,2.3,6,4.6,3.6c5.2-5.3,8.8-8,11.1-8.7c-0.6,1.1-1.2,2.1-1.7,3.2c-1.3,2.6,1.7,5.5,4,3.8c-0.5,2-1.2,4.2-2.3,6.8c-0.9,2.1,1.6,4,3.5,3.5c11.3-2.9,19.1-8.6,27.6-16.5c3.4-3.2,9.7-9.6,10.6-12.4c-1.4,4.3-8.1,24.8-14.4,27.7c-3.2,1.5-0.4,6.1,2.7,4.7c10.4-4.5,16-27.4,19.3-37.4c0.3-1,0-1.7-0.4-2.3c50.9-51.1,99.2-104.5,146.5-159c-28.5,36.4-56.7,72.9-85.3,108.2c-34.8,43-68.8,86.4-102.6,130.2c-1-1.5-3.3-2.1-4.9-0.6c-15.2,15.4-29.7,31.5-43,48.4c-14,15.6-27.1,32.1-36.1,50.1c-3.2,3.1-6.4,6.2-9.7,9.2c10.9-24.2,26.3-45.9,42.9-66.6c9.6-11.5,19.1-23,28.5-34.6c2.7-3.2-1.9-7.9-4.6-4.6c-8.6,10.4-17.3,20.7-25.8,31.3c-15.5,18.7-31.6,36.8-49,53.8c12.5-25,28.9-47.6,44.2-71.1c2.1-3.2-2.8-7-5.3-4.1c-7.3,8.3-14.3,16.8-21.1,25.4c3.1-5.6,6-11.4,8.6-17.3c1.5-3.3-2.6-7.4-5.4-4.2c-11.9,13.8-23.1,28-35.5,41.3c6.2-14.4,12.9-28.6,19-43l0,0l0,0c0.1-0.3,0.2-0.5,0.4-0.8c1.6-3.9-4.2-5.6-6.4-2.7c-8.2,11.4-16.6,21.9-26.5,31.4c2.8-8.9,6.4-17.3,10.7-25.9c1.6-3.2-1.6-6.3-4.7-4.7c-10.1,4.8-11.4,9.2-13.4,20c-0.4,2,0.9,3.4,2.4,3.9c-1.8,5.1-3.4,10.4-4.5,15.9c-0.7,3.6,3.1,5.6,5.8,3.4c7.1-5.7,13.3-11.9,19.2-18.6c-5.2,11.6-10.4,23.2-15,35.1c-1.3,3.4,3.5,5.6,5.8,3.4c9.9-9.3,18.7-19.4,27.4-29.6c-7.9,13.3-16.4,26.3-24.8,39.4c-2.1,3.2,2.9,7.2,5.4,4.1c6.2-7.6,12.2-15.2,18.2-22.9c-6.7,11.4-12.8,23.1-17.9,35.5c-1.4,3.3,3.3,5.3,5.6,3.2c7.5-6.8,14.7-13.9,21.7-21.1c-6.7,11.4-12.6,23.2-17.2,35.8c-1.2,3.2,3.1,5,5.3,3.1c3.2-2.8,6.4-5.7,9.6-8.6c-1.1,3.1-2,6.2-2.9,9.3c-3.9,5.1-7.8,10.2-11.7,15.4c-2.4,3.1,2.4,5.9,5,3.8c1.8-1.5,3.5-3.2,5.3-4.7c0.9,0.2,1.9-0.1,2-1.1c0-0.3,0.1-0.5,0.2-0.8c44.5-38.8,77.5-92.4,113.9-138.3c30.5-38.5,61.4-76.6,93.1-114.1C301.6,459.8,275,501,250,542.8c-12.7,21.2-25.6,42.2-39.3,62.8c-25.7,31.1-50.5,62.9-76.2,94c-2.5,3.1,1.5,7.3,4.4,4.4c31-29.7,56.5-63.7,79.9-99.2c0.3-0.3,0.5-0.6,0.7-0.9c17.1-20.9,35.1-41.1,53.7-60.7c30.4-32.1-5.5,19.1-10.4,27.1c-25.4,41.1-52.8,84.3-81.7,124.1c-5.6,3.4-8.4,7.1-8.3,11.3c-3.5,4.6-6.9,9.3-10.4,13.8c-2.4,3,1.9,7.4,4.3,4.3c24.2-30.5,47.8-61.5,71.5-92.4c25.1-32.8,64.9-69.1,82.5-105.3c-35.9,73.5-97.5,131.7-139,202c-1.8,3.1,2.4,6.2,4.9,3.8c62.3-59.5,110.7-135.2,166-201.1c-11,13.1-17.8,30.6-27,45.1c-15,23.4-33.5,44.6-51.5,65.7c-27.4,32-55.3,63.2-78.6,98.5c-2.1,3.2,2.5,6.5,5.1,4c59.3-58.8,108-126.6,161-190.9C312.1,613.1,260,692.8,209.5,759.8c-2.1,2.8,1.8,5.9,4.5,4.5c12-6.3,22.4-14.5,31.7-23.7c-8.1,12.6-15.6,25.5-22.3,39.1c-1.4,3,1.5,6.1,4.5,4.5c47.7-24.9,71.7-77.3,100.8-119.9c6.1-9,12.8-17.5,20.1-25.5c0.3-0.3,0.6-0.5,0.9-0.8c-9.2,17.5-20.3,34-31.4,50.4c-26.7,39.6-57.3,76.4-85,115.2c-2.4,3.3,2.5,6.1,5.2,4c39.7-31.7,64-76.5,99.3-112.4c-15,15.3-25.9,43.6-38.6,61.9c-16.2,23.4-33.2,46-48,70.3c-1.7,2.8,1.8,6.5,4.6,4.6c16.8-10.8,30.9-24.4,44.2-38.9c-12.9,15.4-25.6,31.3-37,46.2c-2.1,2.7,2,6.8,4.8,4.8c26-19.5,46.3-45,72-64.7c-3.2,2.5-13.9,30.7-17.7,36.3c-10.2,15-22.4,28.9-33.3,43.5c-2.5,3.3,2.8,7.1,5.6,4.3c16.8-17,33.4-34.1,50.9-50.4c-16.4,15.2-32.7,46.5-44.6,65.9c-2.3,3.8,2.7,6.8,5.7,4.4c11.8-9.2,22.5-18.9,33.2-29.3c30-29-10.5,12.2-18.5,22.2c-2.5,3.2,0.6,7.7,4.4,5.8c10.4-5.3,20-11.5,29.8-17.9c2.5-1.6,2.4-6.1-0.9-6.7c-2.7-0.5-5.4-1.1-8.1-1.6c5.6-7.4,11.1-14.8,16.2-22.8c2.3-3.7-2.7-7-5.7-4.4c-11.5,9.9-22.3,20.3-33.2,30.8c-1.7,1.7-3.2,3.2-4.5,4.6c0.7-0.9,1.4-2,2.3-3.1c13.8-19.2,27.4-36.2,35.5-58.6c1.3-3.7-3.5-5.6-6-3.5c-8.2,7-16.1,14.3-23.8,21.7c11-15.5,20-31.6,25.8-50.1c0.9-3-2.6-5.5-5.2-4c-24.2,14.4-45.5,35.2-62.6,56c23.7-28.7,49.2-54.2,67.3-87c1.9-3.5-2.6-6.9-5.4-4.2c-16.7,15.8-31.3,33.2-46.2,50.7c-6,7.1-12.3,14-18.8,20.6c-4.2,4.4-28.9,33.3-10.2,4.6c26.5-40.5,56.7-77,76.5-121.6c1.5-3.4-2.3-6.6-5.2-4c-28.6,25.2-61.7,67.1-83.4,96.5c36.9-50.2,76-98.2,104.5-154.1c1.7-3.4-2.3-6.5-5.2-4c-43.1,37.6-64.1,93-102.3,134.9c-11.2,12.3-31.3,32.9-14.5,2.6c9.2-16.6,20.9-32,32.2-47.2c22.7-30.5,46.6-59.4,65.9-92.4c2-3.4-2.4-6.4-5.2-4c-20.9,18.2-36,40.1-51.1,63.3c-10.7,16.4-21.2,32.6-33.2,48.1c-3.2,4.1-37.4,39.8-26.3,25.2c51.7-68.5,105.3-135.2,147.6-210.1c1.8-3.1-2.7-6.9-5.1-4c-30.2,35.9-58.9,73.1-88.2,109.8c-13,16.3-26.4,32.1-40,47.8c-4.6,5.2-9.3,10.3-14,15.4c47.8-63.5,108.4-115.6,137.6-191.7c1.1-2.9-3.4-5.6-5.4-3.1c-23.8,30.5-50.9,58.2-74.3,89.1c-29.4,38.8-57,79-90.7,114.3c23.4-24.5,47-62.9,69.8-92.6c26.5-34.5,51.2-69.7,70.3-108.9c1.5-3-2.4-6.5-4.8-3.7c-29.4,32.9-57,67.1-84,101.9c-9,11.6-17.9,23.4-26.9,35.1c5.2-8.4,10.5-16.6,16.1-24.6c23.7-33.7,47-67,63.8-104.7c1.3-3-2.1-6.2-4.8-3.7c-17.9,17.1-34.7,35.2-50.9,53.6c12.4-20.2,24.5-40.6,36.7-60.8c31.2-51.6,66.5-101,103.4-149.2C430,305.8,481,252.9,529.7,197.8c18.1-20.5,37.3-40.1,56-60.3c-2.7,3.3-5.5,6.6-8.2,9.9C544.7,187.1,509,224.3,475.1,263c-58.8,67.2-126,137.2-166.6,217.4c-0.8,1.6,1.5,2.9,2.3,1.4c41.7-79.1,109.2-148.1,167.9-215.2c27.7-31.7,56.3-62.8,84.8-93.9c12.6-13.7,24-28.5,36-42.8c10.7-12.7,44.9-35.8,50.2-46.5c-3.8,7.8-8.2,15.3-12.9,22.7c-54.2,48.3-101.3,103.3-146.1,160.4c-2.1,2.3-4.1,4.6-6.1,6.8c-56.8,65.3-122.6,133.3-163.5,210.3c-1.5,2.8,2.3,6,4.5,3.5c62.1-72,117-149.8,175.7-224.5c2.9-3.3,5.7-6.5,8.6-9.8c40.2-46.5,89.1-87,125.1-136.9c3.2-2.9,6.3-6,9.6-8.9c-14.4,12.8-30,37.7-44.8,54.6c-21.1,23.9-41.2,48.8-61.3,73.6c-27.4,33.6-54.2,67.8-80.7,102.2C415.4,384,376,433,347,489.5c-1.8,3.5,2.9,6,5.1,3C394.2,436,435.1,379,477.6,322.9c38.1-40.5,78-79.7,113.7-121.3c14.7-17.1,27.8-35.5,42.7-52.5c41.1-46.7,12.8-6.6,9.1-1.5c-12.1,17.1-25.3,33.4-38.5,49.7c-33.4,41.5-69.4,80.9-102,123c-10.8,14-21,28.3-31.1,42.8c-14.1,15.7-28.2,31.4-42.5,47c-20.9,22.7-41.1,45.6-48.5,76.2c-0.7,2.8,2.8,5,4.9,2.8c36.9-39.1,65.8-85.1,96.5-129.5c0.8-0.9,1.6-1.8,2.4-2.7c38.7-42.4,80.2-82.3,117.1-126.3c14.8-17.6,29-35.6,44.2-52.9c9.1-10.3,19-19.6,29.1-28.8c32.7-29.6-18.5,30.4-13,24.1c-85.7,97.8-170.5,195-252.7,295.8c-2.5,3.1,1.3,7.1,4.4,4.4c106.7-93.5,181.9-215,279-317.2c10-10.6,35-36.1,0,9.1c-12.1,15.6-26.2,29.9-39.4,44.5c-25.9,28.5-50.3,58.4-75.4,87.7c-46.5,54.3-96.8,107.2-137.3,166.2c-2.2,3.2,2.5,6.3,5.1,3.9c21.9-19.8,43.6-39.8,65.1-60c-18.2,22.3-35.4,45.4-50.4,70c-2,3.3,2.7,7,5.4,4.1c21.9-24,44.7-47.1,67.6-70.1c-18.9,23.1-37,46.7-52.9,72c-1.9,2.9,1.7,5.9,4.5,4.5c12.6-6.3,24.6-14,36.2-22.5c-7.5,10.5-14.5,21.1-20.9,31.9c-2,3.4,2.4,6.4,5.2,4c24.4-20.9,49.2-41.5,73.8-62.3c-27.3,29.3-54.3,59-80.5,89.3c-2.4,2.8,0.9,7.9,4.2,5.4c17.2-13,33.8-26.7,50.4-40.5c-9.4,7.8-26.4,31.1-37.2,45.8c-2.2,3,1.9,6,4.7,4.7c9.1-4.1,17.9-8.7,26.4-14c0.8-0.4-10,28.9-11.2,31.2c-1.5,3.1,1.5,6.3,4.7,4.7c15.6-8,11.7-9.7,9.5,6.1c-0.3,2.2,0.9,4.3,3.3,4.3c0.5,0,0.9,0,1.4,0c4.4,0.1,4.4-6.7,0-6.8c5.4,0.1,4.7-12.1,5.3-15.6c0.4-2.8-2.2-5.6-5-3.9c-19.5,11.8,3.7-20.2,7-30c1-2.9-2.5-5.3-5-3.9c-7.4,4.4-39.5,31.6-17.7,3.4c9.2-11.9,18.1-23.8,26.3-36.5c2.3-3.5-2.6-6.5-5.4-4.2c-11,9-22,18.1-32.9,27.2c7.3-8.3,14.6-16.5,22-24.7c27-30,54.8-59.3,82.7-88.5c34.3-31.1,67.1-63.8,96-100.2c2.6-3.3-1.7-7.9-4.7-4.7c-32.6,34.2-65.5,68.2-98.1,102.3c-2.7,2.4-5.4,4.9-8.1,7.3c-26.9,24.1-54.9,47.1-82.6,70.3c-8,6.7-32.5,37.6-14.2,9.3c6-9.3,12.7-18.1,19.7-26.6c31.8-27,60.2-60.3,87.1-94c26.9-28.1,52.7-56.9,73.5-90.5c2-3.1-2.6-6.7-5.1-4c-32.4,36.1-63.5,73.5-94.9,110.5c-19,19.8-37.9,40.3-55.4,61.5c-7,6.9-14,13.7-21.4,20.2c-7.1,6.1-37.9,32.4-29.7,19.3c11.2-17.7,24.7-34.3,37.8-50.6c16.4-20.4,33.2-40.5,50.1-60.6c13.6-13.6,27.2-27.3,40.5-41.2c45.2-46.9,95.8-90.4,129.8-146.7c2.1-3.5-2.5-6.3-5.3-4.1c-13.1,10.5-25.5,21.6-37.4,33.3c10.8-13.6,20.2-27.9,26.8-43.2c1.1-2.7-1.6-6.9-4.6-4.6c-14.4,10.9-24.6,23.8-34.8,38.6c-14.5,20.9-30.3,40.7-46.8,59.9c-21.3,22.6-42.5,45.3-63.8,68c-9.6,10.2-19.2,20.5-28.7,30.8c-34.2,33.7-69.4,66.4-104.9,98.7c49.1-44.7,94.9-110,140.4-163c43.3-50.5,95.4-98.8,129.2-156.4c1.6-2.7-1.6-6.1-4.4-4.4c-12.7,7.9-24.5,17.5-35.6,28.2c5.3-7.4,10.1-15.2,14-23.9c1.1-2.5-1.4-6.1-4.2-4.2c-65.4,45.2-113.1,119.5-167.5,177c-5.2,5.5-10.3,11.1-15.5,16.7c2.7-3.5,5.3-7.2,8.1-10.6c49.6-62.5,104.1-120.8,149.2-186.9c1.7-2.5-1.6-5.3-4-4c-32.8,17.9-51.9,48.8-75.2,76.9c-25.7,31-53.8,60-81.6,89.1c1.5-2,3-4,4.5-5.9c47.5-60.7,107.8-116.9,146.5-183.8c1.8-3.1-2.2-5.9-4.8-3.7c-1.1,1-2.2,2-3.4,3c4.2-6.9,8.3-13.9,11.9-21.3c1.2-2.4-1.3-5.4-3.8-3.8c-17,10.7-31.5,23.6-45,37.7c12.2-14.4,23.8-29.3,34.1-45.2c33.3,12.9,64.7,31.9,95.2,49.5c58,33.6,97.6,81.7,131.7,138.7c66.8,111.7,87.7,230.1,66,352.9c-8.8,6.3-17.1,13.3-25.1,20.8c4.2-9.8,7.7-19.8,10.2-30.1c1-3.9-4-5.7-6.2-2.6c-17.4,24.4-34.8,48.8-52.6,72.8c18-28.5,36.7-56.6,54.3-85.4c1.9-3.1-2.7-6.8-5.1-3.9c-33.4,41.9-72.2,80.4-97,128.5c-0.9,1.8,1,4.1,2.9,2.9c4.1-3,8.5-5.4,13.2-7.2c0.8-0.4,0.2-1.6-0.6-1.4c-2.1,0.4-9.9,4.2-7.1-0.9c8.5-15.4,19.7-29.5,30.5-43.3c10.4-13.2,21.4-25.9,32.4-38.5c-4.1,6.2-8.1,12.5-12.1,18.7c-16.9,25.9-33.4,51.9-48.4,79c-1.8,3.2,2.8,7.2,5.3,4.1c27-34.1,52.4-69.3,77.6-104.6c-3.4,9.1-7.5,18-12.1,26.7c-28.2,30.7-51.3,67.1-72.8,101.6c-2,3.2,2.9,7.1,5.3,4.1c24.8-31.4,52.7-64.1,72.2-100.2c5-5.6,10.1-11.1,15.4-16.5c29.5-29.6,1.8,15.6-6.2,27.2c-15.5,22.4-32.5,43.2-45.1,67.5c-1.8,3.4,2.5,6.9,5.3,4.1c17.6-16.8,28.8-37.8,41.3-58.5c4.3-7,9.1-13.7,14.4-20c-2.1,8.2-4.3,16.3-6.8,24.5c-0.1,0.2-0.1,0.4-0.2,0.6c-0.1,0.1-0.1,0.2-0.2,0.4c-0.1,0.3-0.2,0.6-0.3,0.9c-0.7,2.3-1.5,4.6-2.3,6.9c-2.1,5.3-4.2,10.5-5.9,15.9c-0.1,0.4-0.2,0.9-0.1,1.3C834.7,907,602.9,1006.5,390.4,963.8z M294.6,673.8c5-7.8,10.1-15.6,15.4-23c6-8.4,31-44.8,10-12.1C312.2,650.9,303.5,662.4,294.6,673.8z M621.1,128.8c-24.9,32.9-56.3,63.1-86.5,92.7C561.7,188.9,590.4,157.9,621.1,128.8z M435.1,339.4c-6.9,9.2-13.8,18.3-20.7,27.5c-25.8,34.2-62.8,71.9-81.6,107c20.4-38.3,55.2-76.6,82.2-110.3C421.7,355.4,428.4,347.4,435.1,339.4z M408.7,402.7c-8.4,11.7-16.6,23.5-24.8,35.3c-0.9,1.3-1.8,2.5-2.7,3.8C389.8,428.4,399,415.3,408.7,402.7z M448.8,396.2c-15.7,23-31.5,45.9-48.8,67.8c-9.5,14.1-11.7,14.7-6.6,1.9c6.9-16,19.8-29.3,31.1-42.3C432.6,414.4,440.7,405.3,448.8,396.2z M637,208c-13.4,17-26.1,34.2-39,49.9c-50.3,61.2-98.7,123.7-154.8,179.7c-1.1,1.1-24.3,29.1-18.7,22.2c11.1-13.6,21.6-27.7,32.2-41.6c31.4-41,65.7-79.8,99.6-118.7C583,268.9,610,238.5,637,208z M612.1,316.8c-9,11.2-18.3,22.3-27.6,33.3c-21.4,21.6-43.2,42.9-64.7,64.4c-10.9,10.9-21.7,22-32.4,33.2c20.6-29.7,44.3-57.6,69.2-84.5c15-14.7,29.9-29.5,44.5-44.7c14.1-14.6,27.7-29.6,41.1-44.9c8.4-8.2,17.1-16.6,25.8-25.1C648.9,270.7,630.6,293.8,612.1,316.8z M700.5,221.9c9.6-10.3,19.8-19.9,30.2-29.4c17.1-15.8,8.1-8.9-0.1,2.9c-28.1,40.9-66.5,77-103.3,112.3c5.5-6.7,11-13.3,16.5-20C662,265.2,680.8,243.2,700.5,221.9z"/><path d="M747.1,355.6c-21.5,18-42.1,36.8-62.4,56.2c-4.8,4.6-9.5,9.3-14.3,13.9c27.6-31.4,55.2-62.4,77.4-98.2c1.9-3.1-2.2-5.7-4.7-3.6c-44.8,36.5-78.9,83.6-121,122.9c-4.7,4.4-26.6,30-6.4,2.8c14.5-19.5,29.7-38.6,45-57.5c24.7-30.6,50.5-60.4,76.4-89.9c2.3-2.6-1.2-6.2-3.8-3.8c-52.9,48.2-99.4,102.4-144.1,158.2c-0.9,1.2,0.7,2.8,1.6,1.6c41.9-50,94.3-105.8,132.8-149.1c-45.9,51.5-89.6,105-130.3,160.7c-1.7,2.4,1.7,5.8,4.1,4.1c47.2-33.9,81.8-80.8,122.5-121.6c0.6-0.6,18.9-21.8,15.5-16.3c-11.7,18.8-26.1,35.9-40.3,52.8c-23.4,27.8-48.5,54.2-71.6,82.3c-2.5,3,1.4,7.1,4.3,4.3c26.5-25.4,52.7-51.3,79.5-76.4c-8.6,9.3-16.9,18.7-24.6,29c-2.2,2.9,2.4,5.9,4.8,3.7c10.4-9.2,20.8-18.6,31.3-27.7c8-6.9-32.1,39.5-20.8,26.2c-15.8,18.5-34.8,34.4-52.7,50.8c-2.6,2.4,0.8,6.8,3.7,4.8c14.3-9.8,28.5-19.9,43-29.4c-2.6,1.7-17.9,27.7-24.8,36.5c-2,2.5,0.6,7,3.7,4.8c11.4-8.2,21.7-16.9,32.3-26.2c-1.1,1-11.1,19.2-14.7,25.9c-1.7,3.3,2.3,6.2,5,3.9c11.5-10.2,36.5-37.8,16.8-7.9c-1.8,2.7,1.7,6.2,4.5,4.5c4.3-2.7,7.3-4.5,9.2-5.8c-1.2,3.3,3.7,5.9,5.8,2.6c4.3-6.8,3.6-5.4,6.3-12.7c1.3-3.4-3.2-4.9-5.5-3.2c-21.4,16.6-7.3,3.8-0.9-6c1.8-2.8-1.7-6-4.4-4.4c-8.2,4.6-15,9.6-21.9,15.5c0.1-0.5,0.2-0.9,0.4-1.4c3.7-6.4,7-12.9,9.9-19.7c1.6-3.3-2.1-6-4.9-3.8c-5.7,4.5-42.1,44-22.7,19.7c7.5-9.4,12.9-18.8,17.7-29.8c1.1-2.7-1.3-5.9-4.2-4.2c-6.6,3.9-12.9,8-19.2,12.2c19.4-18.4,36.7-37.9,49.3-61.6c1.8-3.3-2.2-5.8-4.8-3.7c-3.5,2.6-6.9,5.3-10.3,8c12.2-13.1,25.1-25.5,36.5-39.4C754,356.9,750.2,353,747.1,355.6z"/><path d="M769.3,602.5c-1.5-3.6-3.2-7.2-4.7-11c-0.8-2-3.1-3.5-5.2-2.1c-4.4,3-9.3,4.4-14.2,6c0.2-4.9-0.1-9.7-0.5-14.9c-0.2-2.8-3.7-4.8-5.8-2.4c-4.1,4.5-8.7,8.2-13.3,12c2.4-8.2,5.2-16.3,6.9-24.6c0.7-3.3-3-5.3-5.5-3.2c-5.1,4.3-10.8,7.6-16.4,11.2c3.4-8,6.9-15.8,9.8-24c0.9-2.6-2.5-5.2-4.7-3.6c-1.6,1.2-3.2,2.4-4.7,3.6c0.2-5.6-0.2-11-0.6-16.7c-0.1-1.7-1.9-3.7-3.8-2.9c-4,1.7-8.1,3.1-12.2,4.7c0-3.9-0.1-7.8-0.1-11.7c0-2.1-2.3-3.5-4.1-2.4c-8.3,5-15,8.8-7.1-2.7c1.1-1.6-1.4-3.5-2.6-2c-4,4.6-5.6,8.5-6.9,14.5c-0.3,1.5,1,3.4,2.7,2.7c4.3-1.7,8.4-3.5,12.5-5.6c0,3.8-0.1,7.6-0.1,11.4c0,1.8,1.9,3.6,3.7,2.8c4.1-1.6,8.2-3,12.3-4.4c0.8-0.3,0.4,13,0,17.4c-7.4,6.2-14.4,12.8-21.3,19.7c-2.5,2.5,0.8,7,3.8,5c7.4-4.9,14.1-10.4,20.8-16.1c-2.6,6.1-5.3,12.2-7.6,18.4c-1.2,3.3,3.2,5,5.4,3.1c5.7-4.7,12.1-8.3,18.2-12.3c-2.6,9-5.8,17.8-7.8,27c-0.7,3.1,3.2,5.9,5.6,3.3c5.1-5.5,11.1-9.8,16.6-14.7c0.2,3.7,0.2,7.5-0.4,11.4c-0.4,2.3,1.5,5.3,4.3,4.3c5.8-2.2,11.8-3.6,17.3-6.4c2.5,5.8,5.2,11.6,6.2,17.9c0.6,3.4,6.3,3.4,6.8,0c0.6-4,1-6.9,1.4-10.9C774.3,601.6,771,601,769.3,602.5z"/><path d="M844.3,546.5c0-1.9,0-3.9,0-5.8c0-3.1-3.9-4.7-6.1-2.5c-1.4,1.5-2.8,3-4.1,4.5c-0.5-3.8-1.3-7.6-1.7-11.9c-0.3-2.9-3.7-4.9-6-2.5c-6.7,6.9-13,14.3-19.3,21.7c3.2-7.8,5.9-15.7,7.2-24.2c0.5-3.2-3.2-6.1-5.8-3.4c-9.8,10.4-16.8,23-26.6,33.3c2.5-14.2,6.6-27.9,10-42c0.8-3.1-3.9-5.4-5.4-2.3c-7.9,16.6-22,37.2-12.4,55.8c0.4,0.7,1.1,0.7,1.7,0.3c0.9,0.6,1.9,0.8,3-0.1c10.2-7.8,17.1-18.2,24.7-28.2c-3.2,9.4-7.5,18.3-11.5,27.5c-1.5,3.5,2.5,7.4,5.5,4.3c10.1-10.4,19.1-21.8,28.9-32.5c0.7,4.6,1.4,9.2,0.9,14.1c-0.4,3.7,4.9,4.5,6.6,1.8c1-1.6,2.2-3,3.3-4.5c0,2.9,0,5.8,0,8.6c0,4.7,6.7,4.5,7.1,0c0.3-3.3,0.9-6.6,1.2-10C845.7,547.6,845.1,546.9,844.3,546.5z"/><path d="M938.2,577.6c-17.3-2.3-6.4-24.1-1.5-31.5c1.7-2.6-2.4-5.9-4.4-3.4c-2.9,3.6-5.9,6.6-9.2,9.5c4.4-10,8.7-20.1,12-30.6c0.9-2.9-2.8-4.6-4.8-2.8c-4.1,3.6-8.7,6.4-13.2,9.5c3.9-7.2,9.5-13.2,15.5-19.2c2.4-2.4-0.8-6.9-3.8-4.9c-3.6,2.4-7.1,5-10.6,7.6c1.1-3.3,0.9-6.3-2-8.7c-2.1-1.7-5.4,0.4-3.9,3c2.8,4.8-13.1,18.7-16.1,22.3c-2.7,3.3,1.4,7.4,4.7,4.7c3.9-3.2,8-6.4,12-9.5c-2.2,3.8-4.1,7.8-5.2,12.3c-0.7,3,2.7,4.8,5,2.9c4.4-3.8,9.3-6.9,14.1-10.2c-3.7,10.4-8.2,20.4-12.6,30.6c-1,2.2,1.2,5.4,3.7,3.7c2.8-1.9,5.4-3.8,7.9-5.9c-2.9,10.6-1.4,21.3,12.6,22.3C939.4,579.5,939.4,577.7,938.2,577.6z"/><path d="M839.6,455.2c-0.1-0.8-0.4-1.3-0.8-1.8c-0.1-2-0.2-4.1-0.3-6.2c-0.1-3.4-5-5.2-6.7-1.8c-1.5,2.9-3.6,5.3-5.9,7.6c0.9-8.9,0.9-17.5-1.5-26.6c-0.8-3.1-4.7-3.2-6.4-0.8c-1,1.4-1.9,2.8-2.9,4.2c-0.1-5.4-0.5-10.8-0.7-16.3c-0.1-2.9-3.5-4.3-5.6-2.3c-4.1,3.7-8.7,6.4-13.2,9.4c0.9-6.7,0.9-13.4,1.9-20.3c0.3-2.5-2.7-4.1-4.2-1.8c-3.9,6.3-8.4,11.9-11.2,18.7c-0.6,1.4,1.7,2.3,2.4,1c2-3.9,4.6-7.4,7.4-10.8c-0.7,6.5-1.2,13-3.4,19.3c-1.1,3.1,2.8,4.5,4.9,2.9c4.7-3.6,9.9-6.4,14.7-9.6c0.4,7.5,0.9,15-0.3,22.5c-0.5,3.5,4.6,6.6,6.3,2.7c1.4-3.2,3.2-6,5-8.8c1,8.7,0,17-1.5,26c-0.5,3.1,3.5,6.6,6,3.5c2.5-3.1,5.5-5.8,8.3-8.6c0.2,4.3,0.3,8.7-0.4,13.1c-0.7,4.5,5.8,6.6,7,1.9C839.8,466.3,840,461.2,839.6,455.2z"/><path d="M814.5,250c-3.7,3.1-7.6,5.9-11.5,8.6c-0.3-0.3-0.6-0.4-1-0.6c4.6-10.6,9-21.3,12.2-32.6c0.9-3.1-3.5-6.1-5.7-3.3c-3.2,3.9-6.5,7.7-9.9,11.4c2.2-7.2,4.2-14.5,5.7-22c0.7-3.7-4.4-6.3-6.3-2.7c-1.5,2.9-3.4,5.5-5.4,7.9c0.2-7.1,0.6-14.1,1.7-21.2c0.6-3.7-4.1-6.1-6.3-2.6c-2.6,4.3-5.8,8-9,11.7c0.3-2.6,0.7-5.2,1.3-7.8c0.6-0.3,1-0.8,1.2-1.5c0.9-3.3,1.8-6.5,2.7-9.8c1-3.5-4.3-5.9-6-2.5c-0.1,0.3-0.2,0.5-0.3,0.8h0c0,0,0,0,0,0c-4.9,10.1-6.1,19.5-6.2,30.7c0,2.7,3.9,4.8,5.8,2.4c2.8-3.6,5.9-7,8.9-10.5c-0.5,6.6-0.8,13.3-0.8,20c0,2.7,3.9,4.9,5.9,2.4c0.7-0.9,1.4-1.7,2.1-2.5c-1.8,6.4-3.7,12.7-5.8,19.1c-1.1,3.3,3.4,5.7,5.7,3.3c3-3,5.8-6,8.7-9.1c-3.7,9.7-7.9,19.2-12.1,28.8c-0.7,1.6-0.3,3.1,0.7,4.1c-2.5,4.2-5,8.3-7.3,12.6c-1.1,2.1,1.9,3.8,3.1,1.8c3.2-5.3,6.7-10.4,10.2-15.5c0.1-0.1,0.2-0.2,0.3-0.3c-0.6,6-1.4,12.1-3.1,18c-0.9,2.9,3.1,5.3,5.2,3c10.6-11.4,17.8-23.8,20.9-39.1C820.9,249.8,817.1,247.8,814.5,250z M811.1,261c-2.2,6.5-5.2,12.3-9.1,17.8c0.4-4,0.8-8.1,1.1-12.1C805.8,264.8,808.4,262.9,811.1,261z"/></g>
</svg>