<?xml version="1.0" encoding="utf-8"?>
<!-- Svg Vector Icons : http://www.onlinewebfonts.com/icon -->
<!DOCTYPE svg PUBLIC "-//W3C//DTD SVG 1.1//EN" "http://www.w3.org/Graphics/SVG/1.1/DTD/svg11.dtd">
<svg version="1.1" xmlns="http://www.w3.org/2000/svg" xmlns:xlink="http://www.w3.org/1999/xlink" x="0px" y="0px" viewBox="0 0 1000 1000" enable-background="new 0 0 1000 1000" xml:space="preserve">
<metadata> Svg Vector Icons : http://www.onlinewebfonts.com/icon </metadata>
<g><g transform="translate(0.000000,511.000000) scale(0.100000,-0.100000)"><path d="M3598,4985.3c-37.5-11.9-118.5-71.1-177.8-132.4c-120.5-120.5-158.1-207.5-158.1-373.4v-100.8h-258.8c-144.2,0-294.4-9.9-337.8-23.7c-86.9-25.7-247-158.1-290.4-241l-27.7-51.4h-671.7c-468.3,0-695.5-7.9-752.8-23.7c-108.7-31.6-292.4-215.4-324-324c-33.6-118.5-33.6-8037.2,0-8155.7c31.6-108.7,215.3-292.4,324-324c118.5-33.6,6456.6-33.6,6575.2,0c108.7,31.6,292.4,215.3,324,324c33.6,118.5,33.6,8037.2,0,8155.7c-31.6,108.7-215.3,292.4-324,324c-57.3,15.8-284.5,23.7-752.8,23.7h-671.7l-27.6,51.4c-43.5,83-203.5,215.4-290.4,241c-43.5,13.8-193.6,23.7-337.9,23.7h-258.8v100.8c0,57.3-9.9,138.3-23.7,183.7c-31.6,108.7-215.4,292.4-324,324C4704.4,5018.9,3698.7,5016.9,3598,4985.3z M4803.2,4655.3c35.6-35.6,39.5-65.2,39.5-316.1v-276.6h434.7c557.1,0,513.7,33.6,513.7-395.1c0-290.4-3.9-320.1-39.5-355.6c-39.5-39.5-65.2-39.5-1541-39.5c-1475.8,0-1501.5,0-1541,39.5c-35.6,35.6-39.5,65.2-39.5,355.6c0,428.7-43.5,395.1,513.7,395.1h434.7v276.6c0,387.2-57.3,355.6,632.2,355.6C4738,4694.9,4765.6,4692.9,4803.2,4655.3z M2313.8,3560.8c0-102.7,7.9-209.4,19.8-237.1l19.8-51.4h-493.9h-493.9V-362.9v-3635.3h2845h2845v3635.3v3635.3h-493.9h-493.9l19.8,51.4c11.8,27.7,19.7,134.3,19.7,237.1v185.7h671.7c646.1,0,673.7-2,711.3-39.5c39.5-39.5,39.5-65.2,39.5-4070c0-4004.8,0-4030.4-39.5-4070c-39.5-39.5-65.2-39.5-3279.7-39.5c-3214.5,0-3240.2,0-3279.7,39.5c-39.5,39.5-39.5,65.2-39.5,4070c0,4004.8,0,4030.4,39.5,4070c37.5,37.5,65.2,39.5,711.3,39.5h671.7V3560.8z M6739.4-362.9v-3319.2H4210.5H1681.6v3319.2v3319.2h2528.9h2528.9V-362.9z"/><path d="M3578.2,2086.9v-553.2h237.1h237.1v-158.1v-158.1h-790.3h-790.3V901.5V585.4h-237.1h-237.1V32.2V-521h632.2h632.2V32.2v553.2H3025H2788v158v158.1h632.2h632.2V743.4v-158h-237.1h-237.1V32.2V-521h632.2h632.2V32.2v553.2h-237.1h-237.1v158v158.1h632.2H5633V743.4v-158h-237.1h-237.1V32.2V-521h237.1H5633v-158.1v-158.1h-790.3h-790.3v-316.1v-316.1h-237.1h-237.1v-553.2v-553.2h632.2h632.2v553.2v553.2h-237.1h-237.1v158.1v158.1h790.3h790.3v316.1V-521h237.1h237.1V32.2v553.2h-237.1h-237.1v316.1v316.1h-790.3h-790.3v158.1v158.1h237.1h237.1v553.2v553.2h-632.2h-632.2V2086.9z M4526.6,2086.9v-237.1h-316.1h-316.1v237.1V2324h316.1h316.1V2086.9z M2946,32.2v-237.1h-316.1h-316.1V32.2v237.1h316.1H2946V32.2z M4526.6,32.2v-237.1h-316.1h-316.1V32.2v237.1h316.1h316.1V32.2z M6107.1,32.2v-237.1H5791h-316.1V32.2v237.1H5791h316.1V32.2z M4526.6-2022.5v-237.1h-316.1h-316.1v237.1v237.1h316.1h316.1V-2022.5z"/><path d="M8813.8,3878.9c-98.8-31.6-282.5-221.3-312.2-322c-17.8-63.2-23.7-867.3-23.7-3427.9v-3346.8l231.2-695.4c128.4-383.3,237.1-697.4,243-697.4c5.9,0,114.6,314.2,243,697.4l231.2,695.4V129c0,2560.5-5.9,3364.6-23.7,3427.9c-15.8,53.3-61.2,118.5-134.3,189.7C9122,3894.7,8987.7,3934.2,8813.8,3878.9z M9070.7,3548.9c33.6-33.6,39.5-65.2,39.5-237.1v-197.6h-158.1h-158.1v197.6c0,233.1,23.7,276.6,158.1,276.6C9005.5,3588.5,9045,3574.6,9070.7,3548.9z M9110.2,2640.1v-158.1h-158.1h-158.1v158.1v158.1h158.1h158.1V2640.1z M9110.2-442v-2607.9h-158.1h-158.1V-442V2166h158.1h158.1V-442z M9050.9-3375.9c0-4-15.8-51.4-35.6-102.7c-21.7-51.4-43.5-112.6-53.3-134.3c-11.8-33.6-19.8-23.7-49.4,59.3c-71.1,205.5-75.1,187.7,37.5,187.7C9005.5-3366,9050.9-3370,9050.9-3375.9z"/></g></g>
</svg>