<?xml version="1.0" encoding="utf-8"?>
<!-- Svg Vector Icons : http://www.onlinewebfonts.com/icon -->
<!DOCTYPE svg PUBLIC "-//W3C//DTD SVG 1.1//EN" "http://www.w3.org/Graphics/SVG/1.1/DTD/svg11.dtd">
<svg version="1.1" xmlns="http://www.w3.org/2000/svg" xmlns:xlink="http://www.w3.org/1999/xlink" x="0px" y="0px" viewBox="0 0 1000 1000" enable-background="new 0 0 1000 1000" xml:space="preserve">
<metadata> Svg Vector Icons : http://www.onlinewebfonts.com/icon </metadata>
<g><path d="M881.7,801.7"/><path d="M867.5,635.6V43.4H10v819.5h653.5c27.5,55.4,86.6,93.7,155,93.7c94.7,0,171.5-73.4,171.5-163.9C990,718.4,938.3,655.7,867.5,635.6z M78.6,109h720.3v196.7h-70.5c-4.9-37.1-25.6-64.9-50.3-64.9c-24.8,0-45.4,27.8-50.3,64.9H385.4c-4.9-37.1-25.6-64.9-50.3-64.9c-24.7,0-45.4,27.8-50.3,64.9h-36.7c-5.1-36.7-25.6-64.2-50.2-64.2c-24.6,0-45.1,27.5-50.2,64.2H78.6V109z M78.6,338.4h68.8c4.4,38.1,25.3,66.9,50.5,66.9c25.2,0,46.1-28.9,50.5-66.9h36.2c4.6,37.7,25.4,66.2,50.5,66.2c25,0,45.9-28.5,50.5-66.2h242.1c4.6,37.7,25.4,66.2,50.5,66.2c25,0,45.8-28.5,50.5-66.2h70.3v229.5h-71.1c-4.7-37.4-25.5-65.6-50.4-65.6c-24.9,0-45.6,28.2-50.4,65.6h-38.4c-4.4-38.1-25.3-66.9-50.5-66.9s-46,28.9-50.5,66.9h-34.3c-4.9-37.1-25.6-64.9-50.3-64.9c-24.7,0-45.4,27.8-50.3,64.9H78.6V338.4z M647,792.7c0,1.6,0,3.1,0.1,4.7H78.6V600.7h274c4.6,37.8,25.4,66.3,50.5,66.3c25,0,45.9-28.5,50.5-66.3h34.4c5.1,36.7,25.6,64.2,50.2,64.2c24.6,0,45.1-27.5,50.2-64.2H627c4.8,37.4,25.5,65.6,50.4,65.6c24.9,0,45.7-28.2,50.4-65.6h71.1v29.2C713.4,639.1,647,708.5,647,792.7z M913.1,829c0,14.3-13,46.6-59.8,56.4c-6.1,1.3-12.7,2.2-20,2.6l-0.1,24.1l-18.7-0.1l0.1-24.1c-4.6-0.3-9-1-13.2-1.7c-39.1-6.5-61.6-29-65.7-69.2l45.2,0.2c-0.3,15.7,7.8,26.7,19.8,32.9c4.3,2.2,9,3.8,14.1,4.7l0.2-55.9v-3.4c-2.2-0.9-6.1-1.7-10.2-2.6c-30.6-7.2-60.9-18.4-63-52.8c-0.1-1.3-0.4-2.5-0.4-3.8c0.2-38.9,35.9-58.3,74.1-60.4l0.1-21.8l18.7,0.1l-0.1,21.8c37.8,3.8,69,21.2,71.4,60.7l-45.2-0.2c-0.3-15-12-27.3-26.3-27.3l-0.1,31l-0.1,19.2c5.1,1.2,10.2,2.3,16.2,3.8c34.7,8.6,50,22.3,57,35.9C912.7,809.7,913.2,820.6,913.1,829z"/><path d="M791.5,732.4c0,2.9,0.5,5.4,1.4,7.6c3.1,7.5,11.4,11.8,27.1,15.2l0.1-15.2l0.1-31C805.9,708.9,791.5,716.5,791.5,732.4L791.5,732.4z"/><path d="M839.5,800.6c-0.3-0.1-0.6-0.2-0.9-0.3l-0.2,54.5c4.1-0.4,8.4-1.2,12.5-2.5c11.6-3.8,21.9-11.7,21.9-25.1C872.9,812.6,863.9,806.6,839.5,800.6L839.5,800.6z"/></g>
</svg>