<?xml version="1.0" encoding="utf-8"?>
<!-- Svg Vector Icons : http://www.onlinewebfonts.com/icon -->
<!DOCTYPE svg PUBLIC "-//W3C//DTD SVG 1.1//EN" "http://www.w3.org/Graphics/SVG/1.1/DTD/svg11.dtd">
<svg version="1.1" xmlns="http://www.w3.org/2000/svg" xmlns:xlink="http://www.w3.org/1999/xlink" x="0px" y="0px" viewBox="0 0 1000 1000" enable-background="new 0 0 1000 1000" xml:space="preserve">
<metadata> Svg Vector Icons : http://www.onlinewebfonts.com/icon </metadata>
<g><path d="M959.3,485.3c-17.7-12.3-42.8-22.8-74.9-31.3c-51.6-13.7-121.5-21.8-187.1-21.8c-27.4,0-50.5,1.5-65.2,4.2V190.1c0-27.4-32.9-55.5-90.3-77c-59.3-22.3-135.3-34.5-213.8-34.5c-84.5,0-164.7,12.3-225.9,34.5c-58.5,21.3-92.1,49.4-92.1,77v537.1c0,33.7,31.8,62.1,92.1,82.2c56.7,18.9,136.9,29.3,225.8,29.3h40.7c24.3,29.9,73.6,52.5,146.6,67.1c57.2,11.4,118.5,15.5,156.8,15.5c38,0,111.7-2.2,179.2-17.2c73.6-16.4,120.2-43.3,138.6-79.9l0.1-0.3V534.4C990,516,979.7,499.5,959.3,485.3z M425.6,743.2c55,26.9,137.9,40.5,246.4,40.5c114.2,0,206.5-14.4,260.2-40.5v66.7c0,25.4-106.9,53.8-260.2,53.8c-141,0-246.4-28.4-246.4-53.8V743.2z M672.1,725.9c-141,0-246.4-28.4-246.4-53.8v-66.7c55,26.9,137.9,40.5,246.4,40.5c114.2,0,206.5-14.4,260.2-40.5v66.7C932.3,697.6,825.4,725.9,672.1,725.9z M672.1,588.2c-161.2,0-246.4-18.6-246.4-53.8c0-12.1,25.3-22.6,71.1-29.7c43.8-6.7,104.5-10.3,175.3-10.3c160.5,0,260.2,15.3,260.2,40C932.3,570.1,844.7,588.2,672.1,588.2z M327.9,505.5c-90.3,0-156.1-9.7-187.3-15.5c-53.5-9.9-72.9-20.1-72.9-24.5v-80.5c53.8,26.4,149.7,54.3,260.2,54.3c100.6,0,195-29,246.4-54.3v51.8c-95.4,13.8-177.8,41.3-205.7,68.7H327.9z M327.9,381.6c-88,0-155.1-14-187.2-22.3c-49.8-12.9-73-26.4-73-31.4v-80.5c53.8,26.4,149.7,54.3,260.2,54.3c100.6,0,195-29,246.4-54.3v80.5C574.4,353.2,469,381.6,327.9,381.6z M327.9,243.9c-153.3,0-260.2-28.3-260.2-53.8c0-25.4,106.9-53.8,260.2-53.8c141,0,246.4,28.4,246.4,53.8C574.4,215.5,469,243.9,327.9,243.9z M367.9,563.3v80h-40c-153.3,0-260.2-28.3-260.2-53.8v-66.7c53.7,26.1,146,40.5,260.2,40.5H367.9z M367.9,701v80h-40c-153.3,0-260.2-28.3-260.2-53.8v-66.7c53.7,26.1,146,40.5,260.2,40.5H367.9z"/></g>
</svg>