<?xml version="1.0" encoding="utf-8"?>
<!-- Svg Vector Icons : http://www.onlinewebfonts.com/icon -->
<!DOCTYPE svg PUBLIC "-//W3C//DTD SVG 1.1//EN" "http://www.w3.org/Graphics/SVG/1.1/DTD/svg11.dtd">
<svg version="1.1" xmlns="http://www.w3.org/2000/svg" xmlns:xlink="http://www.w3.org/1999/xlink" x="0px" y="0px" viewBox="0 0 1000 1000" enable-background="new 0 0 1000 1000" xml:space="preserve">
<metadata> Svg Vector Icons : http://www.onlinewebfonts.com/icon </metadata>
<g><g><g><path d="M847.1,415.7V358c0-46.8-9.2-92.3-27.3-135.1c-17.5-41.3-42.5-78.5-74.4-110.3c-31.9-31.9-69-56.9-110.3-74.4C592.3,20,546.8,10.9,500,10.9c-46.8,0-92.3,9.2-135.1,27.3c-41.3,17.5-78.5,42.5-110.3,74.4c-31.9,31.9-56.9,69-74.4,110.3c-18.1,42.8-27.3,88.3-27.3,135.1v57.8c-50,5-89.2,47.3-89.2,98.6V890c0,54.6,44.5,99.1,99.1,99.1h674.4c54.6,0,99.1-44.5,99.1-99.1V514.4C936.3,463,897.1,420.7,847.1,415.7z M136.7,890V514.4c0-10.9,6.7-20.2,16.2-24.1c3.1-1.3,6.4-2,9.9-2h26.6h36.5h548.2h36.5h26.6c3.5,0,6.9,0.7,9.9,2c9.5,3.9,16.2,13.2,16.2,24.1V890c0,14.4-11.7,26.1-26.1,26.1H162.8C148.4,916.1,136.7,904.4,136.7,890z M225.9,358c0-151.4,122.7-274.1,274.1-274.1l0,0c151.4,0,274.1,122.7,274.1,274.1v57.3H225.9V358L225.9,358z"/><path d="M837.2,990H162.8c-55.1,0-100-44.8-100-100V514.4c0-24.9,9.3-48.8,26.1-67.2c16.5-18.1,38.9-29.5,63.1-32.1v-57c0-46.9,9.2-92.5,27.4-135.5c17.5-41.4,42.6-78.7,74.5-110.6c31.9-31.9,69.1-57,110.6-74.5C407.5,19.2,453.1,10,500,10s92.5,9.2,135.5,27.4c41.4,17.5,78.7,42.6,110.6,74.5s57,69.1,74.5,110.6C838.8,265.4,848,311,848,358v57c24.2,2.6,46.6,14,63.1,32.1c16.8,18.5,26.1,42.3,26.1,67.2V890C937.2,945.2,892.3,990,837.2,990z M500,11.7c-46.7,0-92.1,9.2-134.8,27.2c-41.2,17.4-78.3,42.4-110,74.2c-31.8,31.8-56.7,68.8-74.2,110c-18.1,42.7-27.2,88.1-27.2,134.8v58.5l-0.8,0.1c-24.1,2.4-46.4,13.6-62.8,31.7c-16.5,18.1-25.6,41.6-25.6,66.1V890c0,54.2,44.1,98.3,98.3,98.3h674.4c54.2,0,98.3-44.1,98.3-98.3V514.4c0-24.5-9.1-48-25.6-66.1c-16.4-18-38.7-29.3-62.8-31.7l-0.8-0.1V358c0-46.7-9.2-92.1-27.2-134.8c-17.4-41.2-42.4-78.3-74.2-110c-31.8-31.8-68.8-56.7-110-74.2C592.1,20.9,546.7,11.7,500,11.7z M837.2,917H162.8c-14.8,0-26.9-12.1-26.9-26.9V514.4c0-11,6.6-20.7,16.7-24.9c3.3-1.3,6.7-2,10.2-2h674.4c3.5,0,7,0.7,10.2,2c10.1,4.2,16.7,14,16.7,24.9V890C864.1,904.9,852.1,917,837.2,917z M162.8,489.1c-3.3,0-6.5,0.6-9.6,1.9c-9.5,3.9-15.6,13.1-15.6,23.3V890c0,13.9,11.3,25.2,25.2,25.2h674.4c13.9,0,25.2-11.3,25.2-25.2V514.4c0-10.3-6.1-19.4-15.6-23.3c-3-1.3-6.3-1.9-9.6-1.9H162.8z M775,416.1H225.1V358C225.1,206.4,348.4,83,500,83C651.6,83,775,206.4,775,358V416.1z M226.8,414.4h546.5V358c0-150.7-122.6-273.2-273.2-273.2S226.8,207.3,226.8,358V414.4L226.8,414.4z"/></g><g><path d="M500,525.4c-58.5,0-106.1,47.6-106.1,106.2c0,45.4,28.7,84.2,68.8,99.4v69.2v14.5c0,8.8,3.1,16.9,8.3,23.2c6.7,8.1,16.8,13.3,28.2,13.3c11.3,0,21.3-5.1,28-13.1c5.3-6.3,8.5-14.5,8.5-23.4v-14.2v-68.8c41-14.7,70.4-54,70.4-100C606.2,573,558.5,525.4,500,525.4z M500,664.7c-18.3,0-33.1-14.8-33.1-33.1c0-18.3,14.8-33.1,33.1-33.1c18.3,0,33.1,14.8,33.1,33.1C533.1,649.9,518.3,664.7,500,664.7z"/><path d="M499.2,852c-11.2,0-21.7-4.9-28.8-13.6c-5.5-6.7-8.5-15.1-8.5-23.8v-83.1c-41.2-15.8-68.8-55.9-68.8-100c0-59,48-107,107-107c59,0,107,48,107,107c0,44.8-28.3,85.2-70.4,100.6v82.5c0,8.7-3.1,17.2-8.7,23.9C520.8,847.1,510.3,852,499.2,852z M500,526.3c-58.1,0-105.3,47.2-105.3,105.3c0,43.6,27.4,83.2,68.3,98.6l0.6,0.2v84.2c0,8.3,2.9,16.3,8.2,22.7c6.8,8.2,16.8,13,27.5,13c10.6,0,20.6-4.7,27.4-12.8c5.3-6.4,8.3-14.5,8.3-22.8v-83.7l0.6-0.2c41.8-15,69.9-54.8,69.9-99.2C605.3,573.5,558.1,526.3,500,526.3z M500,665.6c-18.7,0-34-15.2-34-34c0-18.7,15.2-34,34-34c18.7,0,34,15.2,34,34C534,650.3,518.7,665.6,500,665.6z M500,599.3c-17.8,0-32.3,14.5-32.3,32.3c0,17.8,14.5,32.3,32.3,32.3c17.8,0,32.3-14.5,32.3-32.3C532.3,613.8,517.8,599.3,500,599.3z"/></g></g><g></g><g></g><g></g><g></g><g></g><g></g><g></g><g></g><g></g><g></g><g></g><g></g><g></g><g></g><g></g></g>
</svg>