<?xml version="1.0" encoding="utf-8"?>
<!-- Svg Vector Icons : http://www.onlinewebfonts.com/icon -->
<!DOCTYPE svg PUBLIC "-//W3C//DTD SVG 1.1//EN" "http://www.w3.org/Graphics/SVG/1.1/DTD/svg11.dtd">
<svg version="1.1" xmlns="http://www.w3.org/2000/svg" xmlns:xlink="http://www.w3.org/1999/xlink" x="0px" y="0px" viewBox="0 0 1000 1000" enable-background="new 0 0 1000 1000" xml:space="preserve">
<metadata> Svg Vector Icons : http://www.onlinewebfonts.com/icon </metadata>
<g><path d="M870.1,912.9c-3,0-6.1-0.5-9-1.4L31.8,658c-11.6-3.5-20.1-13.6-21.5-25.6c-1.5-12,4.2-23.9,14.6-30.1L943.3,47c10-6.1,22.6-5.9,32.5,0.4c9.9,6.3,15.3,17.7,14,29.3l-89.1,808.8c-1,9.1-6,17.3-13.7,22.4C882,911.2,876.1,912.9,870.1,912.9 M115.7,619.2l727.9,222.6l78.2-709.9L115.7,619.2z"/><path d="M386.9,957.5c-3.3,0-6.6-0.5-9.8-1.6c-10.4-3.5-18.2-12.3-20.4-23.1l-41.3-204.9c-3.3-16.7,7.4-32.9,24.1-36.3c16.6-3.3,32.9,7.4,36.3,24.1l30.7,152.5L523.2,765c12.8-11.3,32.2-10,43.5,2.7c11.3,12.7,10.1,32.2-2.7,43.5L407.3,949.7C401.6,954.8,394.3,957.5,386.9,957.5"/><path d="M430.7,752.5c-3.5,0-7.1-1.2-10-3.7c-6.5-5.5-7.2-15.2-1.7-21.7L747.4,342c5.5-6.5,15.2-7.3,21.7-1.7c6.5,5.5,7.2,15.2,1.7,21.7L442.4,747.1C439.4,750.7,435.1,752.5,430.7,752.5"/><path d="M817.8,572.6c-0.6,0-1.3,0-1.9-0.1c-8.4-1-14.4-8.7-13.4-17.2l2.8-23.1c1.1-8.4,8.8-14.5,17.2-13.4c8.4,1,14.4,8.7,13.4,17.2l-2.9,23.1C832.1,566.9,825.5,572.6,817.8,572.6"/><path d="M797.6,737.1c-0.7,0-1.5,0-2.2-0.2c-8.4-1.2-14.3-9-13.1-17.4l14.8-103c1.2-8.4,9.1-14.3,17.4-13.1c8.4,1.2,14.3,9,13.1,17.4l-14.8,103C811.7,731.6,805.1,737.1,797.6,737.1"/></g>
</svg>