<?xml version="1.0" encoding="utf-8"?>
<!-- Svg Vector Icons : http://www.onlinewebfonts.com/icon -->
<!DOCTYPE svg PUBLIC "-//W3C//DTD SVG 1.1//EN" "http://www.w3.org/Graphics/SVG/1.1/DTD/svg11.dtd">
<svg version="1.1" xmlns="http://www.w3.org/2000/svg" xmlns:xlink="http://www.w3.org/1999/xlink" x="0px" y="0px" viewBox="0 0 1000 1000" enable-background="new 0 0 1000 1000" xml:space="preserve">
<metadata> Svg Vector Icons : http://www.onlinewebfonts.com/icon </metadata>
<g><g transform="translate(0.000000,511.000000) scale(0.100000,-0.100000)"><path d="M2280.6,2903.2c-273.8-40.2-553.3-130.2-830.9-271.8C572.9,2189.1,100,1304.6,100,110c0-897.9,268-1623.5,783-2121.2c344.6-335,851.9-580.1,1370.8-664.3c143.6-23,509.2-28.7,2178.6-28.7h2004.4v469v469h1508.6c1703.9,0,1621.5-7.7,1774.7,145.5c105.3,105.3,162.7,254.6,176.1,451.8c23,321.6-86.2,582-289.1,691.1l-78.5,42.1L7987.5-426l-1541.1,9.6l-5.7,589.6l-3.8,587.7h1516.2h1518.2l97.6,45.9c201,93.8,306.3,268,327.4,549.4c24.9,321.6-74.7,562.9-291,698.8c-53.6,34.5-130.2,36.4-1608.1,45.9l-1550.7,9.6l-5.7,407.8l-3.8,405.9l-2025.5-1.9C3299,2920.4,2339.9,2912.8,2280.6,2903.2z M4175.9,1182.1c-191.4-457.6-350.3-844.3-356.1-855.8c-7.7-19.1,74.7-24.9,348.4-28.7l358-5.7L3555.6-766.8c-534.1-582-974.5-1054.9-978.3-1051c-3.8,3.8,147.4,381,336.9,838.5c189.5,455.7,344.6,836.6,344.6,844.3c0,7.6-160.8,17.2-356.1,19.2l-354.2,5.7l978.3,1068.3c539.9,587.7,984,1066.4,987.9,1062.5C4518.5,2016.8,4365.4,1639.6,4175.9,1182.1z"/></g></g>
</svg>