<?xml version="1.0" standalone="no"?>
<!DOCTYPE svg PUBLIC "-//W3C//DTD SVG 20010904//EN"
 "http://www.w3.org/TR/2001/REC-SVG-20010904/DTD/svg10.dtd">
<svg version="1.0" xmlns="http://www.w3.org/2000/svg"
 width="301.000000pt" height="301.000000pt" viewBox="0 0 301.000000 301.000000"
 preserveAspectRatio="xMidYMid meet">

<g transform="translate(0.000000,301.000000) scale(0.100000,-0.100000)"
fill="#000000" stroke="none">
<path d="M1820 2394 c-89 -14 -144 -30 -212 -61 -43 -20 -78 -39 -78 -43 0 -4
21 -10 48 -13 67 -8 213 -52 305 -91 42 -19 77 -32 77 -29 0 3 -8 17 -18 31
-28 41 -34 61 -41 137 -7 76 -11 80 -81 69z"/>
<path d="M935 2264 c-225 -19 -413 -61 -469 -105 -31 -25 -33 -36 -5 -44 21
-7 172 -145 166 -151 -2 -2 -28 9 -58 26 -150 82 -98 -26 66 -140 78 -53 164
-96 251 -125 50 -16 51 -17 69 -78 15 -51 29 -73 81 -124 44 -45 70 -63 88
-63 29 0 32 8 44 115 6 61 10 70 27 69 11 -1 83 -9 160 -18 81 -10 244 -19
388 -22 357 -6 424 -25 516 -147 8 -9 17 -43 20 -75 l7 -57 13 40 c19 62 25
193 11 258 -16 81 -98 239 -164 318 -129 154 -314 251 -576 299 -91 17 -163
22 -350 25 -129 1 -257 1 -285 -1z m-20 -133 c22 -10 59 -39 82 -65 37 -41 46
-46 85 -46 112 -1 383 -52 558 -105 247 -76 453 -172 528 -245 38 -36 89 -117
79 -126 -2 -2 -29 10 -60 26 -91 50 -180 62 -637 85 -111 6 -274 26 -353 44
-28 7 -54 26 -95 69 -66 69 -114 98 -130 79 -6 -7 -15 -25 -21 -40 -6 -15 -16
-27 -23 -27 -18 0 -180 68 -192 80 -7 7 8 10 45 10 76 0 166 24 195 51 28 26
32 75 10 118 -14 27 -61 63 -121 95 -44 23 -1 21 50 -3z m-245 -42 c0 -26 -28
-36 -46 -17 -14 13 -14 17 1 31 19 20 45 12 45 -14z"/>
<path d="M2132 2010 c110 -131 186 -270 214 -389 42 -178 -27 -391 -175 -536
-34 -33 -61 -64 -61 -69 0 -4 42 -6 93 -4 111 5 169 30 194 83 20 42 30 44 45
10 23 -51 38 -23 38 73 0 37 -7 92 -15 122 -8 30 -15 83 -15 117 0 120 -42
263 -111 380 -38 63 -140 176 -203 226 l-41 32 37 -45z"/>
<path d="M1670 1571 c0 -6 5 -13 11 -17 6 -3 31 -37 56 -75 24 -38 54 -79 66
-90 26 -26 104 -62 116 -55 12 8 -7 113 -30 165 -34 76 -41 81 -136 81 -45 0
-83 -4 -83 -9z"/>
<path d="M2198 1283 c-50 -27 -58 -42 -34 -62 8 -7 17 -24 21 -39 l7 -27 20
25 c19 23 68 113 68 125 0 13 -39 2 -82 -22z"/>
<path d="M870 1205 c-89 -18 -176 -48 -284 -99 -86 -42 -223 -125 -181 -111
121 40 174 48 340 49 143 1 187 -3 275 -22 158 -35 326 -84 519 -152 96 -33
216 -68 265 -76 108 -19 279 -14 371 11 82 21 196 76 269 129 56 41 178 156
165 156 -4 0 -39 -15 -80 -34 -85 -39 -212 -72 -314 -81 -160 -15 -414 37
-743 151 -103 36 -218 72 -255 79 -83 18 -258 18 -347 0z"/>
<path d="M615 956 l-40 -12 85 -6 c115 -8 213 -39 549 -172 157 -62 318 -122
356 -132 99 -26 327 -27 405 -1 56 19 160 76 160 88 0 3 -26 0 -57 -8 -88 -21
-224 -18 -319 6 -45 11 -175 52 -290 91 -256 86 -392 125 -508 145 -105 18
-285 19 -341 1z"/>
</g>
</svg>
