<?xml version="1.0" encoding="utf-8"?>
<!-- Svg Vector Icons : http://www.onlinewebfonts.com/icon -->
<!DOCTYPE svg PUBLIC "-//W3C//DTD SVG 1.1//EN" "http://www.w3.org/Graphics/SVG/1.1/DTD/svg11.dtd">
<svg version="1.1" xmlns="http://www.w3.org/2000/svg" xmlns:xlink="http://www.w3.org/1999/xlink" x="0px" y="0px" viewBox="0 0 1000 1000" enable-background="new 0 0 1000 1000" xml:space="preserve">
<metadata> Svg Vector Icons : http://www.onlinewebfonts.com/icon </metadata>
<g><path d="M759.5,433.7L529,550.5v27.7h97.6l-27.4-14.7l160.4-81.2l160.3,81.2l-27.4,14.7H990v-27.7L759.5,433.7z M10,550.5L10,798l230.5,116.8L471,798V550.5L240.5,433.7L10,550.5z M216.8,854.2L57.3,773.4V600.5l159.5,85.6V854.2z M423.7,773.4l-159.4,80.8V686.1l159.4-85.6V773.4z M240.5,649.6L80.1,563.5l160.4-81.2l160.3,81.2L240.5,649.6z M730.5,126.8L500,10L269.5,126.8v247.5L500,491.1l230.5-116.8L730.5,126.8L730.5,126.8z M476.4,430.6l-159.5-80.8V176.8l159.5,85.6L476.4,430.6z M339.6,139.8L500,58.6l160.3,81.3L500,225.9L339.6,139.8z M683.1,349.7l-159.4,80.8V262.5l159.4-85.6V349.7z"/><path d="M945.8,990L804.2,866.8l44.2-40.7L990,949.3L945.8,990z"/><path d="M746.5,650.7c-77.4,0-140.1,56.2-140.1,125.5c0,69.3,62.7,125.4,140.1,125.4c77.4,0,140.2-56.2,140.2-125.4C886.6,706.9,823.9,650.7,746.5,650.7z M746.5,858.7c-50.9,0-92.2-36.9-92.2-82.5c0-45.6,41.3-82.5,92.2-82.5c50.9,0,92.1,36.9,92.1,82.5C838.7,821.7,797.4,858.7,746.5,858.7z"/></g>
</svg>