<svg id="Capa_1" enable-background="new 0 0 512.006 512.006" height="512" viewBox="0 0 512.006 512.006" width="512" xmlns="http://www.w3.org/2000/svg"><path d="m336.604 467.274h12.95c4.142 0 7.5-3.358 7.5-7.5s-3.358-7.5-7.5-7.5h-12.95c-4.142 0-7.5 3.358-7.5 7.5 0 4.143 3.358 7.5 7.5 7.5zm1.941-228.688c-4.142 0-7.5 3.358-7.5 7.5v13.702c0 4.142 3.358 7.5 7.5 7.5s7.5-3.358 7.5-7.5v-13.702c0-4.142-3.357-7.5-7.5-7.5zm72.388-38.394c-3.089-8.837-6.926-17.308-11.522-25.276-2.071-3.589-6.657-4.818-10.244-2.75-3.588 2.07-4.819 6.656-2.75 10.244 6.624 11.486 11.535 24.143 14.648 37.525-14.695-9.113-31.27-28.336-40.917-45.216-3.564-6.236-10.514-9.83-17.701-9.141-22.204 2.111-54.52 3.371-86.445 3.371s-64.241-1.26-86.445-3.371c-7.185-.685-14.136 2.905-17.701 9.141-9.659 16.901-26.262 36.148-40.97 45.248.783-3.383 1.668-6.718 2.679-9.988.121-.304.224-.616.305-.938 8.982-28.333 26.506-52.235 51.056-68.909 5.362 5.332 12.695 8.488 20.557 8.488h141.039c7.863 0 15.197-3.156 20.56-8.491 6.84 4.649 13.205 9.895 18.967 15.669 1.465 1.468 3.387 2.202 5.309 2.202 1.917 0 3.834-.731 5.298-2.191 2.932-2.926 2.937-7.675.011-10.606-6.605-6.618-13.914-12.609-21.771-17.892l15.567-36.118c.006-.013.012-.026.017-.04l1.971-4.572c3.005-6.973 2.308-14.923-1.866-21.267-4.173-6.343-11.198-10.13-18.79-10.13h-9.316c-15.606-33.685-49.002-55.184-86.476-55.184s-70.87 21.499-86.476 55.183h-9.315c-7.593 0-14.618 3.787-18.791 10.13s-4.871 14.293-1.866 21.266l1.971 4.572c.006.013.012.026.017.04l15.567 36.118c-26.494 17.789-45.72 43.015-56.146 72.895-28.982 3.761-50.983 26.868-50.983 54.637 0 14.582 6.049 28.329 17.032 38.709 9.599 9.072 22.058 14.681 35.507 16.095 9.757 24.452 25.836 45.985 46.351 62.787-7.866 5.131-14.797 12.283-14.812 22.385-.005 3.572.883 7.214 2.718 10.964-10.904 17.723-17.783 37.862-19.95 58.542-.593 5.657 1.254 11.329 5.068 15.563 3.827 4.249 9.301 6.686 15.018 6.686h2.903c4.142 0 7.5-3.358 7.5-7.5s-3.358-7.5-7.5-7.5h-2.903c-2.017 0-3.292-1.081-3.872-1.725-.572-.635-1.501-1.994-1.295-3.961 1.727-16.472 6.811-32.557 14.802-47.072 13.748 13.849 39.281 29.506 78.727 48.595-1.445.959-2.782 2.024-3.977 3.219-.304.304-.573.628-.858.943h-45.208c-4.142 0-7.5 3.358-7.5 7.5s3.358 7.5 7.5 7.5h38.104c-1.141 5.774-1.009 11.384-.646 15.3.485 5.236 4.638 9.389 9.874 9.874 1.608.149 3.501.26 5.574.26 7.901 0 18.413-1.612 25.669-8.868.784-.784 1.513-1.633 2.197-2.531.684.898 1.412 1.747 2.196 2.531 7.257 7.257 17.768 8.868 25.67 8.868 2.072 0 3.967-.111 5.574-.26 5.235-.485 9.388-4.638 9.873-9.874.363-3.916.495-9.527-.646-15.3h76.423c5.717 0 11.191-2.438 15.019-6.687 3.813-4.234 5.66-9.906 5.067-15.562-2.168-20.679-9.047-40.819-19.95-58.542 1.834-3.75 2.723-7.391 2.718-10.963-.015-10.101-6.946-17.253-14.812-22.385 20.515-16.802 36.594-38.336 46.351-62.787 13.449-1.413 25.908-7.022 35.507-16.095 10.983-10.38 17.032-24.127 17.032-38.709-.002-27.802-22.057-50.932-51.093-54.649zm-71.403-75.131c-.166.385-.353.757-.549 1.122-.004.006-.008.011-.011.017-.013.022-.023.044-.036.066-2.469 4.505-7.202 7.354-12.411 7.354h-141.04c-5.204 0-9.933-2.844-12.404-7.341-.015-.026-.027-.053-.042-.078-.004-.007-.009-.013-.014-.02-.196-.363-.382-.734-.547-1.118l-12.634-29.313h192.321zm-83.527-110.061c29.169 0 55.406 15.456 69.607 40.183h-139.214c14.201-24.727 40.438-40.183 69.607-40.183zm-102.626 65.75-.046-.108c-1.016-2.357-.79-4.939.621-7.084s3.693-3.375 6.26-3.375h177.332c.009 0 .017.002.026.002.014 0 .028-.002.042-.002h14.183c2.567 0 4.849 1.23 6.26 3.375s1.637 4.727.621 7.084l-.047.108zm-88.396 174.092c0-18.048 13.102-33.408 31.316-38.44-2.838 12.242-4.318 25.105-4.318 38.44 0 13.343 1.785 26.298 5.139 38.663-18.687-4.745-32.137-20.189-32.137-38.663zm102.17 161.959c-8.25-6.277-12.818-11.162-15.301-14.833-.055-.087-.113-.172-.172-.256-2.114-3.202-2.62-5.454-2.618-6.872.006-3.942 4.364-8.207 12.956-12.702 15.701 10.439 33.409 18.341 52.461 23.068l19.045 34.41c-1.842 2.548-2.941 5.667-2.941 9.044v4.641c-28.46-13.853-49.781-26.115-63.43-36.5zm76.049 75.73c-3.901 3.901-11.099 4.514-15.755 4.458-.06-4.656.557-11.853 4.459-15.755.447-.448.953-.862 1.512-1.245 2.806 3.974 7.425 6.582 12.65 6.582h.419c-.673 2.258-1.706 4.382-3.285 5.96zm-9.589-83.729c7.324.952 14.796 1.454 22.392 1.454 7.595 0 15.068-.503 22.392-1.454l-13.488 24.371h-17.807zm12.456 62.77c-.269 0-.487-.218-.487-.486v-.978c0-.015 0-.029 0-.044v-21.404c0-.269.218-.487.487-.487h19.872c.269 0 .487.218.487.487v21.404.044.978c0 .268-.218.486-.487.486zm38.494 25.417c-4.663.06-11.854-.558-15.755-4.458-1.579-1.579-2.612-3.702-3.286-5.959h.419c5.225 0 9.844-2.608 12.65-6.582.56.383 1.066.798 1.514 1.245 3.901 3.901 4.518 11.097 4.458 15.754zm-6.076-57.373 19.045-34.41c19.052-4.727 36.76-12.629 52.461-23.068 8.592 4.495 12.95 8.761 12.956 12.702.002 1.419-.505 3.672-2.621 6.876-.057.082-.113.164-.167.248-2.482 3.671-7.051 8.558-15.303 14.837-13.649 10.386-34.97 22.647-63.429 36.5v-4.641c-.001-3.378-1.1-6.496-2.942-9.044zm86.974-20.802c7.991 14.515 13.075 30.601 14.801 47.073.206 1.966-.723 3.325-1.295 3.961-.581.644-1.855 1.725-3.873 1.725h-83.527c-.285-.315-.553-.639-.858-.943-1.196-1.196-2.533-2.26-3.978-3.219 39.45-19.091 64.982-34.748 78.73-48.597zm-109.456-23.557c-82.172 0-149.023-62.99-149.023-140.415 0-5.699.309-11.296.888-16.789 22.844-8.188 46.651-37.761 57.012-55.89.646-1.13 1.931-1.773 3.258-1.651 22.647 2.153 55.494 3.438 87.865 3.438s65.217-1.285 87.864-3.438c1.334-.128 2.613.521 3.258 1.651 10.358 18.124 34.154 47.684 56.992 55.882.591 5.525.909 11.13.909 16.797 0 77.425-66.851 140.415-149.023 140.415zm158.884-101.752c3.354-12.365 5.139-25.32 5.139-38.663 0-7.776-.533-15.455-1.55-22.989-.023-.453-.086-.898-.188-1.332-.684-4.78-1.567-9.498-2.652-14.139 18.251 5.012 31.388 20.389 31.388 38.46 0 18.474-13.449 33.918-32.137 38.663zm-132.195-38.764c-3.123-2.721-7.86-2.396-10.582.727-4.065 4.665-9.936 7.341-16.107 7.341-6.17 0-12.042-2.676-16.107-7.342-2.722-3.123-7.459-3.447-10.582-.727-3.122 2.722-3.448 7.459-.727 10.582 6.915 7.935 16.908 12.486 27.416 12.486s20.501-4.551 27.416-12.487c2.721-3.121 2.396-7.859-.727-10.58zm-109.232-16.155c-4.142 0-7.5 3.358-7.5 7.5v13.702c0 4.142 3.358 7.5 7.5 7.5s7.5-3.358 7.5-7.5v-13.702c0-4.142-3.357-7.5-7.5-7.5z"/></svg>