<?xml version="1.0" encoding="utf-8"?>
<!-- Svg Vector Icons : http://www.onlinewebfonts.com/icon -->
<!DOCTYPE svg PUBLIC "-//W3C//DTD SVG 1.1//EN" "http://www.w3.org/Graphics/SVG/1.1/DTD/svg11.dtd">
<svg version="1.1" xmlns="http://www.w3.org/2000/svg" xmlns:xlink="http://www.w3.org/1999/xlink" x="0px" y="0px" viewBox="0 0 1000 1000" enable-background="new 0 0 1000 1000" xml:space="preserve">
<metadata> Svg Vector Icons : http://www.onlinewebfonts.com/icon </metadata>
<g><g><path d="M123.1,226.7l64.2-163.9l140.1,54.9l-64.2,163.9L123.1,226.7z M692.1,428.9l48.3-123.3L338.8,148.3l-48.3,123.3L692.1,428.9z M771.2,445.8l38.8-99l-62.2-24.4l-38.8,99L771.2,445.8z M817.1,364.5l-30,76.4l54.1,21.2l30-76.4L817.1,364.5z M908.1,388.1l-8.5,21.8l-23.4-9.2l-21.7,55.4l23.4,9.1l-8.5,21.7l39.2,15.5l38.8-99L908.1,388.1z M176.6,26.5L134.5,10L52.6,219l42.1,16.5L176.6,26.5z M462.6,548L777,983.2l-40,6.8L437.1,575.9v407.3h-37.2V572.6L102.6,983.2H64.8L372.4,548h-33.1V388.1h158.3V548H462.6z M448.4,468c0-15.2-12.3-27.5-27.5-27.5c-15.2,0-27.5,12.2-27.5,27.5c0,15.3,12.3,27.5,27.5,27.5C436.1,495.5,448.4,483.2,448.4,468z"/></g><g></g><g></g><g></g><g></g><g></g><g></g><g></g><g></g><g></g><g></g><g></g><g></g><g></g><g></g><g></g></g>
</svg>