<?xml version="1.0" encoding="iso-8859-1"?>
<!-- Generator: Adobe Illustrator 16.0.0, SVG Export Plug-In . SVG Version: 6.00 Build 0)  -->
<!DOCTYPE svg PUBLIC "-//W3C//DTD SVG 1.1//EN" "http://www.w3.org/Graphics/SVG/1.1/DTD/svg11.dtd">
<svg version="1.1" id="Capa_1" xmlns="http://www.w3.org/2000/svg" xmlns:xlink="http://www.w3.org/1999/xlink" x="0px" y="0px"
	 width="199.503px" height="199.504px" viewBox="0 0 199.503 199.504" style="enable-background:new 0 0 199.503 199.504;"
	 xml:space="preserve">
<g>
	<g>
		<polygon points="51.289,194.627 56.287,194.627 80.145,105.614 85.375,105.614 92.438,105.614 92.438,194.627 97.298,194.627 
			97.298,105.614 104.788,105.614 109.613,105.614 133.458,194.627 138.487,194.627 114.63,105.614 119.123,105.614 
			119.123,100.761 109.613,100.761 109.613,94.088 104.788,94.088 104.788,61.33 85.375,66.229 85.375,94.088 80.547,94.088 
			80.547,100.761 70.631,100.761 70.631,105.614 75.113,105.614 		"/>
		<path d="M199.019,18.677c-1.688-6.31-7.422-10.399-13.661-10.354l7.009,26.167C197.8,31.404,200.722,24.998,199.019,18.677z"/>
		<path d="M174.02,6.69l0.773,2.891L59.867,41.938L41.096,53.223L7.183,62.303l-0.391-1.453L0,62.67l4.681,17.431l6.789-1.813
			l-0.398-1.453l33.913-9.093l21.895,0.361L182.56,38.671l0.806,2.906l6.793-1.821l-9.338-34.879L174.02,6.69z M166.17,23.207
			l-100.4,22.69L169.344,15.89L166.17,23.207z"/>
	</g>
</g>
<g>
</g>
<g>
</g>
<g>
</g>
<g>
</g>
<g>
</g>
<g>
</g>
<g>
</g>
<g>
</g>
<g>
</g>
<g>
</g>
<g>
</g>
<g>
</g>
<g>
</g>
<g>
</g>
<g>
</g>
</svg>
