<?xml version="1.0" encoding="utf-8"?>
<!-- Svg Vector Icons : http://www.onlinewebfonts.com/icon -->
<!DOCTYPE svg PUBLIC "-//W3C//DTD SVG 1.1//EN" "http://www.w3.org/Graphics/SVG/1.1/DTD/svg11.dtd">
<svg version="1.1" xmlns="http://www.w3.org/2000/svg" xmlns:xlink="http://www.w3.org/1999/xlink" x="0px" y="0px" viewBox="0 0 1000 1000" enable-background="new 0 0 1000 1000" xml:space="preserve">
<metadata> Svg Vector Icons : http://www.onlinewebfonts.com/icon </metadata>
<g><path d="M940.7,530.4L910.3,500l30.4-30.4c13,4.8,28.1,2,38.5-8.4c14.3-14.3,14.3-37.5,0-51.8c-14.3-14.3-37.5-14.3-51.8,0c-10.4,10.4-13.2,25.5-8.5,38.5l-30.4,30.4l-56-56l30.4-30.4c13,4.8,28.1,2,38.5-8.4c14.3-14.3,14.3-37.5,0-51.8c-14.3-14.3-37.5-14.3-51.8,0c-10.4,10.4-13.2,25.5-8.5,38.5l-30.4,30.4l-56-56l30.4-30.4c13,4.8,28.1,2,38.5-8.4c14.3-14.3,14.3-37.5,0-51.8s-37.5-14.3-51.8,0c-10.4,10.4-13.2,25.5-8.4,38.5l-30.4,30.4l-56-56l30.4-30.4c13,4.8,28.1,2,38.5-8.4c14.3-14.3,14.3-37.5,0-51.8s-37.5-14.3-51.8,0c-10.4,10.4-13.2,25.5-8.4,38.5l-30.4,30.4l-56-56l30.4-30.4c13,4.8,28.1,2,38.5-8.4c14.3-14.3,14.3-37.5,0-51.8c-14.3-14.3-37.5-14.3-51.8,0c-10.4,10.4-13.2,25.5-8.4,38.5l-30.4,30.4l-56-56L552.1,81c13,4.8,28.1,2,38.5-8.4c14.3-14.3,14.3-37.5,0-51.8c-14.3-14.3-37.5-14.3-51.8,0c-10.4,10.4-13.2,25.5-8.4,38.5L500,89.7l-30.4-30.4c4.8-13,2-28.1-8.4-38.5c-14.3-14.3-37.5-14.3-51.8,0s-14.3,37.5,0,51.8c10.4,10.4,25.5,13.2,38.5,8.5l30.4,30.4l-56,56L391.8,137c4.8-13,2-28.1-8.4-38.5c-14.3-14.3-37.5-14.3-51.8,0c-14.3,14.3-14.3,37.5,0,51.8c10.4,10.4,25.5,13.2,38.5,8.5l30.4,30.4l-56,56l-30.4-30.4c4.8-13,2-28.1-8.4-38.5c-14.3-14.3-37.5-14.3-51.8,0c-14.3,14.3-14.3,37.5,0,51.8c10.4,10.4,25.5,13.2,38.5,8.4l30.4,30.4l-56,56l-30.4-30.4c4.8-13,2-28.1-8.4-38.5c-14.3-14.3-37.5-14.3-51.8,0c-14.3,14.3-14.3,37.5,0,51.8c10.4,10.4,25.5,13.2,38.5,8.4l30.4,30.4l-56,56l-30.4-30.4c4.8-13,2-28.1-8.4-38.5c-14.3-14.3-37.5-14.3-51.8,0s-14.3,37.5,0,51.8c10.4,10.4,25.5,13.2,38.5,8.4l30.4,30.4l-56,56L81,447.9c4.8-13,2-28.1-8.4-38.5C58.2,395,35,395,20.7,409.3c-14.3,14.3-14.3,37.5,0,51.8c10.4,10.4,25.5,13.2,38.5,8.4L89.7,500l-30.4,30.4c-13-4.8-28.1-2-38.5,8.4c-14.3,14.3-14.3,37.5,0,51.8c14.3,14.3,37.5,14.3,51.8,0c10.4-10.4,13.2-25.5,8.4-38.5l30.4-30.4l56,56L137,608.1c-13-4.8-28.1-2-38.5,8.4c-14.3,14.3-14.3,37.5,0,51.8s37.5,14.3,51.8,0c10.4-10.4,13.2-25.5,8.4-38.5l30.4-30.4l56,56l-30.4,30.4c-13-4.8-28.1-2-38.5,8.4c-14.3,14.3-14.3,37.5,0,51.8c14.3,14.3,37.5,14.3,51.8,0c10.4-10.4,13.2-25.5,8.4-38.5l30.4-30.4l56,56l-30.4,30.4c-13-4.8-28.1-2-38.5,8.4c-14.3,14.3-14.3,37.5,0,51.8s37.5,14.3,51.8,0c10.4-10.4,13.2-25.5,8.4-38.5l30.4-30.4l56,56l-30.4,30.4c-13-4.8-28.1-2-38.5,8.5c-14.3,14.3-14.3,37.5,0,51.8c14.3,14.3,37.5,14.3,51.8,0c10.4-10.4,13.2-25.6,8.4-38.5l30.4-30.4l56,56L447.9,919c-13-4.8-28.1-2-38.5,8.5c-14.3,14.3-14.3,37.5,0,51.8c14.3,14.3,37.5,14.3,51.8,0c10.4-10.4,13.2-25.6,8.4-38.5l30.4-30.4l30.4,30.4c-4.8,13-2,28.1,8.4,38.5c14.3,14.3,37.5,14.3,51.8,0c14.3-14.3,14.3-37.5,0-51.8c-10.4-10.4-25.5-13.2-38.5-8.4l-41.2-41.2c0,0,0,0,0,0c0,0,0,0,0,0L444,810.9l56-56l56,56l-22.8,22.8c-6,6-6,15.7,0,21.7c3,3,6.9,4.5,10.9,4.5c3.9,0,7.9-1.5,10.9-4.5l22.8-22.8l30.4,30.4c-4.8,13-2,28.1,8.4,38.5c14.3,14.3,37.5,14.3,51.8,0c14.3-14.3,14.3-37.5,0-51.8c-10.4-10.4-25.5-13.2-38.5-8.4l-30.4-30.4l56-56l30.4,30.4c-4.8,13-2,28.1,8.5,38.5c14.3,14.3,37.5,14.3,51.8,0s14.3-37.5,0-51.8c-10.4-10.4-25.5-13.2-38.5-8.4l-30.4-30.4l56-56l30.4,30.4c-4.8,13-2,28.1,8.4,38.5c14.3,14.3,37.5,14.3,51.8,0c14.3-14.3,14.3-37.5,0-51.8c-10.4-10.4-25.6-13.2-38.5-8.4l-30.4-30.4l56-56l30.4,30.4c-4.8,13-2,28.1,8.5,38.5c14.3,14.3,37.5,14.3,51.8,0s14.3-37.5,0-51.8c-10.4-10.4-25.6-13.2-38.5-8.4l-30.4-30.4l56-56l30.4,30.4c-4.8,13-2,28.1,8.5,38.5c14.3,14.3,37.5,14.3,51.8,0s14.3-37.5,0-51.8C968.8,528.4,953.7,525.7,940.7,530.4z M789.2,422.3l-56,56l-56-56l56-56L789.2,422.3z M521.7,422.3l56-56l56,56l-56,56L521.7,422.3z M556,500l-56,56l-56-56l56-56L556,500z M500,400.6l-56-56l56-56l56,56L500,400.6z M478.3,422.3l-56,56l-56-56l56-56L478.3,422.3z M400.6,500l-56,56l-56-56l56-56L400.6,500z M422.3,521.7l56,56l-56,56l-56-56L422.3,521.7z M500,599.4l56,56l-56,56l-56-56L500,599.4z M521.7,577.7l56-56l56,56l-56,56L521.7,577.7z M599.4,500l56-56l56,56l-56,56L599.4,500z M711.4,344.6l-56,56l-56-56l56-56L711.4,344.6z M633.7,266.8l-56,56l-56-56l56-56L633.7,266.8z M500,133.1l56,56l-56,56l-56-56L500,133.1z M422.3,210.8l56,56l-56,56l-56-56L422.3,210.8z M344.5,288.6l56,56l-56,56l-56-56L344.5,288.6z M266.8,366.3l56,56l-56,56l-56-56L266.8,366.3z M133.1,500l56-56l56,56l-56,56L133.1,500z M210.8,577.7l56-56l56,56l-56,56L210.8,577.7z M288.5,655.5l56-56l56,56l-56,56L288.5,655.5z M422.3,789.2l-56-56l56-56l56,56L422.3,789.2z M577.7,789.2l-56-56l56-56l56,56L577.7,789.2z M655.4,711.5l-56-56l56-56l56,56L655.4,711.5z M733.2,633.7l-56-56l56-56l56,56L733.2,633.7z M810.9,556l-56-56l56-56l56,56L810.9,556z"/><g></g><g></g><g></g><g></g><g></g><g></g><g></g><g></g><g></g><g></g><g></g><g></g><g></g><g></g><g></g></g>
</svg>