<?xml version="1.0" encoding="utf-8"?>
<!-- Svg Vector Icons : http://www.onlinewebfonts.com/icon -->
<!DOCTYPE svg PUBLIC "-//W3C//DTD SVG 1.1//EN" "http://www.w3.org/Graphics/SVG/1.1/DTD/svg11.dtd">
<svg version="1.1" xmlns="http://www.w3.org/2000/svg" xmlns:xlink="http://www.w3.org/1999/xlink" x="0px" y="0px" viewBox="0 0 1000 1000" enable-background="new 0 0 1000 1000" xml:space="preserve">
<metadata> Svg Vector Icons : http://www.onlinewebfonts.com/icon </metadata>
<g><g transform="translate(0.000000,511.000000) scale(0.100000,-0.100000)"><path d="M4720.1,4599c-100.3-103.8-554.9-605-1016.7-1113.3l-834.1-923.6L1562.7,1975c-719.6-318.6-1342.4-608.6-1385.4-640.8C16.2,1216,52,1123,825.3-223.1l730.3-1274.4l153.9-1431.9c82.3-787.6,164.7-1467.7,179-1514.3c68-182.6,103.8-179,1657.5,146.8l1453.4,304.3l1453.4-304.3c1553.6-325.8,1589.4-329.4,1657.5-146.8c14.3,46.5,96.6,726.7,179,1514.3l153.9,1431.9l730.3,1274.4C9946.7,1123,9982.5,1216,9825,1334.2c-46.5,32.2-669.4,322.2-1389,640.8l-1306.6,587.1l-834.1,923.6C5131.8,4770.8,5117.5,4785.2,4999.4,4785.2C4924.2,4785.2,4852.6,4735,4720.1,4599z M5912.2,3138.4l895-998.8l1235-554.9c680.2-304.3,1231.5-569.2,1227.9-583.5c-3.6-14.3-304.3-544.1-665.8-1174.2L7942-1322.1l-143.2-1335.3c-78.8-733.9-150.4-1338.8-157.5-1346s-579.9,107.4-1278,254.2c-694.5,146.8-1310.2,264.9-1363.9,264.9s-669.4-118.1-1363.9-264.9c-698.1-146.8-1270.8-261.3-1278-254.2c-7.2,7.2-78.8,612.1-157.5,1346l-143.2,1331.7l-673,1167.1c-368.7,640.8-662.3,1177.7-648,1188.5c10.8,14.3,569.2,268.5,1238.6,565.6l1217.2,544.1l895,998.8c494,547.7,902.1,998.8,912.9,998.8S5421.8,3686.1,5912.2,3138.4z"/><path d="M4788.2,2687.4c-43-53.7-75.2-136-75.2-182.6c0-114.5,150.4-261.3,268.5-261.3c128.9,0,268.5,150.4,268.5,286.4C5250,2769.7,4934.9,2877.1,4788.2,2687.4z"/><path d="M4816.8,1975c-179-96.7-214.8-336.5-71.6-497.6c218.4-250.6,622.9-46.6,562.1,286.4C5264.3,1985.7,5028,2089.5,4816.8,1975z M5053.1,1702.9c0-25-28.6-53.7-60.9-60.8c-64.4-10.8-89.5,64.4-39.4,114.5C4988.6,1792.4,5053.1,1760.2,5053.1,1702.9z"/><path d="M4691.5,1012c-103.8-103.8-121.7-146.8-121.7-282.8c0-483.3,648-605,801.9-150.4c100.2,282.8-93.1,554.9-393.8,554.9C4838.3,1133.7,4795.3,1115.8,4691.5,1012z M5099.6,840.2c25.1-25,43-75.2,43-118.1c0-43-17.9-93.1-43-118.1c-103.8-103.8-279.2-25.1-279.2,125.3C4820.4,858.1,5006.5,933.2,5099.6,840.2z"/><path d="M1992.3,668.3c-118.1-118.1-107.4-268.5,21.5-383c143.2-132.4,304.3-96.7,404.5,85.9C2547.2,618.2,2192.8,868.8,1992.3,668.3z"/><path d="M7612.7,668.3c-107.4-107.4-96.7-297.1,21.5-390.2c154-121.7,307.9-93.1,390.2,71.6c75.2,139.6,68,200.5-35.8,300.7C7881.1,761.4,7712.9,768.6,7612.7,668.3z"/><path d="M2740.5,457.1c-214.8-218.4-82.3-558.5,218.4-558.5c189.7,0,322.2,136,322.2,325.8c0,168.2-161.1,336.5-322.2,336.5C2880.1,560.9,2812.1,528.7,2740.5,457.1z M3023.3,228c7.2-43-10.7-60.9-60.8-60.9c-43,0-75.2,21.5-75.2,46.5C2887.3,324.7,3001.8,335.4,3023.3,228z"/><path d="M6875.2,525.1c-164.7-64.4-243.4-304.3-157.5-468.9c21.5-35.8,85.9-93.1,146.8-125.3c340.1-175.4,644.4,275.6,358,529.8C7107.9,564.5,7011.2,582.4,6875.2,525.1z M7075.7,217.3c0-28.6-32.2-50.1-71.6-50.1c-78.8,0-100.2,93.1-25.1,118.1C7036.3,306.8,7075.7,281.7,7075.7,217.3z"/><path d="M3728.5,310.3c-229.1-93.1-329.4-393.8-200.5-601.4c157.5-247,469-282.8,669.4-75.2c85.9,89.5,103.8,139.6,103.8,286.4c0,164.7-14.3,193.3-132.5,304.3C4029.2,349.7,3889.6,378.4,3728.5,310.3z M4011.3,27.5c118.1-128.9-35.8-336.5-189.7-257.7c-96.7,53.7-121.7,146.8-57.3,239.8C3832.3,113.5,3929,120.6,4011.3,27.5z"/><path d="M5908.7,310.3C5808.4,271,5690.3,117,5661.6-8.3c-32.2-146.8,64.4-347.2,204.1-433.2c350.8-222,791.1,200.5,587.1,565.6C6352.5,306.8,6105.5,389.1,5908.7,310.3z M6187.9,34.7c89.5-78.8,82.3-179-21.5-243.4c-121.7-82.3-236.3-17.9-236.3,125.3C5930.1,74.1,6069.8,142.1,6187.9,34.7z"/><path d="M4097.2-996.3c-125.3-71.6-207.6-229.1-207.6-393.8c0-93.1,32.2-161.1,121.7-261.3c107.4-114.6,143.2-132.5,279.2-132.5c196.9,0,340.1,89.5,411.7,261.3c64.4,157.5,21.5,343.7-111,469C4480.3-946.2,4233.3-921.1,4097.2-996.3z M4405.1-1239.7c43-32.2,60.9-82.3,50.1-150.4c-7.1-85.9-28.6-111-111-118.1c-179-21.5-268.5,136-146.8,257.8C4265.5-1182.5,4322.8-1178.9,4405.1-1239.7z"/><path d="M5439.7-1014.2c-60.8-35.8-132.4-100.2-150.3-139.6c-53.7-100.2-50.1-311.4,14.3-429.6c50.1-100.2,243.4-218.4,358-218.4c114.6,0,307.9,118.1,358,218.4c71.6,132.5,68,354.4-3.6,454.6C5887.2-946.2,5633-892.5,5439.7-1014.2z M5754.7-1229c93.1-50.1,85.9-196.9-10.8-264.9c-68-46.5-89.5-50.1-153.9-7.1c-96.7,64.4-114.6,200.5-32.2,261.3C5636.6-1182.5,5665.2-1182.5,5754.7-1229z"/><path d="M3506.6-1923.5c-78.8-68-100.2-114.5-100.2-236.3c0-189.7,136-322.2,325.8-322.2c168.2,0,336.5,161.1,336.5,322.2c0,78.8-32.2,146.8-103.8,218.4C3828.7-1808.9,3649.8-1801.8,3506.6-1923.5z M3800.1-2159.7c0-28.6-28.6-57.3-60.9-64.4c-46.5-7.2-64.4,10.7-64.4,64.4c0,53.7,17.9,71.6,64.4,64.4C3771.5-2102.5,3800.1-2131.1,3800.1-2159.7z"/><path d="M6012.5-1923.5c-78.7-68-100.2-114.5-100.2-236.3c0-189.7,136-322.2,325.8-322.2c168.2,0,336.5,161.1,336.5,322.2c0,78.8-32.2,146.8-103.8,218.4C6334.6-1808.9,6155.6-1801.8,6012.5-1923.5z M6306-2159.7c0-28.6-28.6-57.3-60.9-64.4c-46.5-7.2-64.4,10.7-64.4,64.4c0,53.7,17.9,71.6,64.4,64.4C6277.4-2102.5,6306-2131.1,6306-2159.7z"/><path d="M3094.9-2625.1c-118.1-89.5-139.6-175.4-78.7-315c82.3-196.9,375.9-196.9,472.5,3.6c53.7,114.6,32.2,214.8-75.2,311.5C3316.8-2535.6,3205.9-2535.6,3094.9-2625.1z"/><path d="M6560.2-2628.7c-179-143.2-82.4-461.8,143.2-461.8c214.8,0,340.1,179,261.3,368.7C6893.1-2553.5,6710.5-2510.6,6560.2-2628.7z"/></g></g>
</svg>