<svg height="512pt" viewBox="0 0 512 512" width="512pt" xmlns="http://www.w3.org/2000/svg"><path d="m45.550781 254.046875 65.988281 47.675781c10.890626 7.800782 15.457032 21.761719 11.28125 34.492188l-25.207031 77.148437c-6.65625 19.699219.382813 41.429688 17.320313 53.488281 16.824218 12.5625 39.890625 12.621094 56.773437.144532l65.996094-47.683594c10.914063-7.914062 25.679687-7.914062 36.59375 0l65.996094 47.683594c16.886719 12.472656 39.949219 12.414062 56.773437-.144532 16.941406-12.054687 23.976563-33.792968 17.3125-53.488281l-25.199218-77.148437c-4.167969-12.734375.414062-26.703125 11.316406-34.492188l65.996094-47.675781c16.878906-12.199219 23.945312-33.902344 17.488281-53.699219-6.460938-19.796875-24.96875-33.15625-45.792969-33.050781h-81.605469c-13.441406.054687-25.382812-8.5625-29.566406-21.335937l-25.21875-77.15625c-6.515625-19.769532-24.980469-33.128907-45.796875-33.128907s-39.28125 13.359375-45.796875 33.128907l-25.210937 77.117187c-4.191407 12.773437-16.140626 21.386719-29.582032 21.332031h-81.570312c-20.847656-.125-39.378906 13.246094-45.839844 33.066406-6.460938 19.820313.636719 41.542969 17.550781 53.726563zm-1.324219-48.238281c3.953126-12.976563 16.054688-21.738282 29.613282-21.445313h81.570312c20.832032.066407 39.332032-13.308593 45.804688-33.109375l25.199218-77.152344c4.230469-12.742187 16.148438-21.34375 29.578126-21.34375 13.425781 0 25.34375 8.601563 29.574218 21.34375l25.210938 77.152344c6.46875 19.796875 24.964844 33.171875 45.796875 33.109375h81.570312c13.421875-.109375 25.375 8.476563 29.554688 21.230469 4.183593 12.757812-.367188 26.753906-11.25 34.609375l-65.988281 47.6875c-16.925782 12.128906-24.015626 33.839844-17.519532 53.621094l25.207032 77.160156c4.382812 12.667969-.167969 26.710937-11.152344 34.398437-10.839844 8.21875-25.816406 8.253907-36.695313.082032l-65.996093-47.675782c-16.875-12.226562-39.699219-12.226562-56.574219 0l-66.015625 47.644532c-10.878906 8.160156-25.851563 8.125-36.691406-.085938-10.988282-7.683594-15.542969-21.726562-11.15625-34.398437l25.210937-77.160157c6.488281-19.78125-.601563-41.488281-17.519531-53.621093l-66.015625-47.652344c-11.046875-7.636719-15.671875-21.691406-11.316407-34.394531zm0 0"/><path d="m460.800781 51.199219c14.136719 0 25.597657-11.460938 25.597657-25.597657 0-14.140624-11.460938-25.601562-25.597657-25.601562-14.140625 0-25.601562 11.460938-25.601562 25.601562 0 14.136719 11.460937 25.597657 25.601562 25.597657zm0-34.132813c4.710938 0 8.53125 3.820313 8.53125 8.535156 0 4.710938-3.820312 8.53125-8.53125 8.53125-4.714843 0-8.535156-3.820312-8.535156-8.53125 0-4.714843 3.820313-8.535156 8.535156-8.535156zm0 0"/><path d="m93.867188 110.933594c14.136718 0 25.597656-11.460938 25.597656-25.601563 0-14.136719-11.460938-25.597656-25.597656-25.597656-14.140626 0-25.601563 11.460937-25.601563 25.597656 0 14.140625 11.460937 25.601563 25.601563 25.601563zm0-34.132813c4.710937 0 8.53125 3.820313 8.53125 8.53125 0 4.714844-3.820313 8.535157-8.53125 8.535157-4.714844 0-8.535157-3.820313-8.535157-8.535157 0-4.710937 3.820313-8.53125 8.535157-8.53125zm0 0"/><path d="m25.601562 384c14.136719 0 25.597657-11.460938 25.597657-25.601562 0-14.136719-11.460938-25.597657-25.597657-25.597657-14.140624 0-25.601562 11.460938-25.601562 25.597657 0 14.140624 11.460938 25.601562 25.601562 25.601562zm0-34.132812c4.710938 0 8.53125 3.820312 8.53125 8.53125 0 4.714843-3.820312 8.535156-8.53125 8.535156-4.714843 0-8.535156-3.820313-8.535156-8.535156 0-4.710938 3.820313-8.53125 8.535156-8.53125zm0 0"/><path d="m392.535156 136.535156c18.847656 0 34.132813-15.285156 34.132813-34.136718 0-18.851563-15.285157-34.132813-34.132813-34.132813-18.851562 0-34.136718 15.28125-34.136718 34.132813 0 18.851562 15.285156 34.136718 34.136718 34.136718zm0-51.203125c9.425782 0 17.066406 7.640625 17.066406 17.066407 0 9.425781-7.640624 17.066406-17.066406 17.066406-9.425781 0-17.070312-7.640625-17.070312-17.066406 0-9.425782 7.644531-17.066407 17.070312-17.066407zm0 0"/><path d="m443.734375 477.867188c0 18.851562 15.28125 34.132812 34.132813 34.132812 18.851562 0 34.132812-15.28125 34.132812-34.132812 0-18.851563-15.28125-34.132813-34.132812-34.132813-18.851563 0-34.132813 15.28125-34.132813 34.132813zm51.199219 0c0 9.425781-7.640625 17.066406-17.066406 17.066406-9.425782 0-17.066407-7.640625-17.066407-17.066406 0-9.425782 7.640625-17.066407 17.066407-17.066407 9.425781 0 17.066406 7.640625 17.066406 17.066407zm0 0"/><path d="m290.132812 298.667969c-14.136718 0-25.597656 11.460937-25.597656 25.597656 0 14.140625 11.460938 25.601563 25.597656 25.601563 14.140626 0 25.601563-11.460938 25.601563-25.601563 0-14.136719-11.460937-25.597656-25.601563-25.597656zm0 34.132812c-4.710937 0-8.53125-3.820312-8.53125-8.535156 0-4.710937 3.820313-8.53125 8.53125-8.53125 4.714844 0 8.535157 3.820313 8.535157 8.53125 0 4.714844-3.820313 8.535156-8.535157 8.535156zm0 0"/><path d="m332.800781 366.933594c0 4.710937-3.820312 8.53125-8.535156 8.53125-4.710937 0-8.53125-3.820313-8.53125-8.53125 0-4.714844 3.820313-8.535156 8.53125-8.535156 4.714844 0 8.535156 3.820312 8.535156 8.535156zm0 0"/><path d="m358.398438 401.066406c0 4.714844-3.820313 8.535156-8.53125 8.535156-4.714844 0-8.535157-3.820312-8.535157-8.535156 0-4.710937 3.820313-8.53125 8.535157-8.53125 4.710937 0 8.53125 3.820313 8.53125 8.53125zm0 0"/><path d="m384 435.199219c0 4.714843-3.820312 8.535156-8.535156 8.535156-4.710938 0-8.53125-3.820313-8.53125-8.535156 0-4.710938 3.820312-8.53125 8.53125-8.53125 4.714844 0 8.535156 3.820312 8.535156 8.53125zm0 0"/><path d="m221.867188 298.667969c-14.140626 0-25.601563 11.460937-25.601563 25.597656 0 14.140625 11.460937 25.601563 25.601563 25.601563 14.136718 0 25.597656-11.460938 25.597656-25.601563 0-14.136719-11.460938-25.597656-25.597656-25.597656zm0 34.132812c-4.714844 0-8.535157-3.820312-8.535157-8.535156 0-4.710937 3.820313-8.53125 8.535157-8.53125 4.710937 0 8.53125 3.820313 8.53125 8.53125 0 4.714844-3.820313 8.535156-8.53125 8.535156zm0 0"/><path d="m196.265625 366.933594c0 4.710937-3.820313 8.53125-8.53125 8.53125-4.714844 0-8.535156-3.820313-8.535156-8.53125 0-4.714844 3.820312-8.535156 8.535156-8.535156 4.710937 0 8.53125 3.820312 8.53125 8.535156zm0 0"/><path d="m170.667969 401.066406c0 4.714844-3.820313 8.535156-8.535157 8.535156-4.710937 0-8.53125-3.820312-8.53125-8.535156 0-4.710937 3.820313-8.53125 8.53125-8.53125 4.714844 0 8.535157 3.820313 8.535157 8.53125zm0 0"/><path d="m145.066406 435.199219c0 4.714843-3.820312 8.535156-8.53125 8.535156-4.714844 0-8.535156-3.820313-8.535156-8.535156 0-4.710938 3.820312-8.53125 8.535156-8.53125 4.710938 0 8.53125 3.820312 8.53125 8.53125zm0 0"/><path d="m200.414062 281.222656c1.46875.257813 2.957032.386719 4.445313.386719 13.738281-.011719 25.027344-10.84375 25.613281-24.566406.585938-13.726563-9.742187-25.476563-23.429687-26.660157-13.683594-1.179687-25.875 8.625-27.652344 22.246094-1.773437 13.625 7.492187 26.226563 21.023437 28.59375zm-.519531-32.203125c1.429688-1.011719 3.136719-1.554687 4.886719-1.554687.5.003906.996094.046875 1.488281.128906 4.007813.699219 6.964844 4.136719 7.0625 8.207031.09375 4.070313-2.695312 7.640625-6.667969 8.527344-3.976562.890625-8.023437-1.152344-9.667968-4.875-1.644532-3.726563-.433594-8.09375 2.898437-10.433594zm0 0"/><path d="m292.472656 276.941406c4.289063 3.03125 9.414063 4.65625 14.667969 4.660156 1.488281-.003906 2.976563-.128906 4.445313-.386718 12.03125-2.101563 20.902343-12.410156 21.1875-24.621094.285156-12.207031-8.09375-22.921875-20.015626-25.582031-11.917968-2.660157-24.058593 3.472656-28.992187 14.644531-4.9375 11.171875-1.289063 24.273438 8.707031 31.292969zm7.746094-25.847656c1.296875-1.855469 3.28125-3.117188 5.511719-3.5.492187-.085938.988281-.125 1.488281-.128906 3.929688.007812 7.347656 2.703125 8.273438 6.523437.929687 3.820313-.875 7.777344-4.363282 9.589844-3.492187 1.808594-7.765625.996094-10.351562-1.964844-2.589844-2.957031-2.816406-7.304687-.558594-10.519531zm0 0"/><path d="m241.269531 234.273438c4.292969 3.03125 9.417969 4.660156 14.671875 4.660156 1.488282 0 2.976563-.128906 4.445313-.382813 12.03125-2.101562 20.902343-12.410156 21.1875-24.621093.285156-12.210938-8.09375-22.921876-20.015625-25.582032-11.921875-2.664062-24.058594 3.46875-28.996094 14.640625-4.933594 11.171875-1.289062 24.277344 8.707031 31.292969zm7.75-25.847657c1.296875-1.855469 3.28125-3.113281 5.511719-3.496093.492188-.085938.988281-.128907 1.484375-.128907 3.933594.007813 7.351563 2.699219 8.277344 6.519531.929687 3.820313-.875 7.78125-4.363281 9.589844-3.492188 1.808594-7.765626 1-10.355469-1.960937-2.585938-2.960938-2.816407-7.304688-.554688-10.523438zm0 0"/><path d="m365.378906 252.375c1.988282-2.824219 2.074219-6.566406.226563-9.480469-1.847657-2.914062-5.273438-4.429687-8.671875-3.835937-3.402344.59375-6.109375 3.175781-6.863282 6.546875-.75 3.367187.597657 6.855469 3.421876 8.839843 3.855468 2.710938 9.179687 1.78125 11.886718-2.070312zm0 0"/><path d="m262.980469 167.039062c1.984375-2.824218 2.074219-6.5625.226562-9.480468-1.851562-2.914063-5.273437-4.425782-8.671875-3.832032-3.402344.59375-6.109375 3.175782-6.863281 6.542969-.753906 3.367188.597656 6.859375 3.421875 8.84375 3.855469 2.710938 9.175781 1.78125 11.886719-2.074219zm0 0"/><path d="m262.980469 124.375c1.984375-2.824219 2.074219-6.566406.226562-9.480469-1.851562-2.914062-5.273437-4.429687-8.671875-3.835937-3.402344.59375-6.109375 3.175781-6.863281 6.546875-.753906 3.367187.597656 6.855469 3.421875 8.839843 3.855469 2.710938 9.175781 1.78125 11.886719-2.070312zm0 0"/><path d="m262.980469 81.707031c1.984375-2.824219 2.074219-6.566406.226562-9.480469-1.851562-2.914062-5.273437-4.425781-8.671875-3.835937-3.402344.59375-6.109375 3.179687-6.863281 6.546875s.597656 6.859375 3.421875 8.84375c3.855469 2.707031 9.175781 1.78125 11.886719-2.074219zm0 0"/><path d="m390.980469 39.039062c1.984375-2.824218 2.074219-6.5625.226562-9.480468-1.851562-2.914063-5.273437-4.425782-8.671875-3.832032-3.402344.59375-6.109375 3.175782-6.863281 6.542969-.753906 3.367188.597656 6.859375 3.421875 8.84375 3.855469 2.710938 9.175781 1.78125 11.886719-2.074219zm0 0"/><path d="m75.246094 132.90625c1.984375-2.824219 2.074218-6.566406.226562-9.480469-1.851562-2.914062-5.273437-4.425781-8.671875-3.832031-3.402343.589844-6.109375 3.175781-6.863281 6.542969-.75 3.367187.597656 6.859375 3.421875 8.84375 3.855469 2.710937 9.175781 1.78125 11.886719-2.074219zm0 0"/><path d="m69.820312 319.359375c-1.984374 2.824219-2.074218 6.566406-.226562 9.480469 1.851562 2.914062 5.273438 4.429687 8.671875 3.835937 3.402344-.59375 6.109375-3.175781 6.863281-6.546875.753906-3.367187-.597656-6.859375-3.421875-8.84375-3.855469-2.707031-9.175781-1.78125-11.886719 2.074219zm0 0"/><path d="m416.582031 499.839844c1.984375-2.824219 2.074219-6.566406.222657-9.480469-1.847657-2.914063-5.269532-4.425781-8.671876-3.832031-3.398437.589844-6.109374 3.175781-6.859374 6.542968-.753907 3.367188.597656 6.859376 3.417968 8.84375 3.855469 2.707032 9.179688 1.78125 11.890625-2.074218zm0 0"/><path d="m408.046875 235.308594c1.984375-2.824219 2.074219-6.566406.226563-9.480469-1.851563-2.914063-5.273438-4.429687-8.671876-3.835937-3.402343.59375-6.109374 3.175781-6.863281 6.542968-.753906 3.371094.597657 6.859375 3.421875 8.84375 3.855469 2.710938 9.175782 1.78125 11.886719-2.070312zm0 0"/><path d="m450.714844 218.238281c1.984375-2.820312 2.074218-6.5625.222656-9.476562-1.847656-2.914063-5.269531-4.429688-8.671875-3.835938-3.398437.59375-6.105469 3.175781-6.859375 6.542969-.753906 3.371094.597656 6.859375 3.421875 8.84375 3.855469 2.710938 9.175781 1.78125 11.886719-2.074219zm0 0"/><path d="m158.507812 254.445312c2.824219-1.984374 4.171876-5.472656 3.421876-8.839843-.753907-3.371094-3.460938-5.953125-6.863282-6.546875-3.398437-.59375-6.824218.921875-8.671875 3.835937-1.847656 2.914063-1.761719 6.65625.226563 9.480469 2.707031 3.851562 8.03125 4.78125 11.886718 2.070312zm0 0"/><path d="m115.839844 237.378906c2.824218-1.984375 4.175781-5.472656 3.421875-8.84375-.753907-3.367187-3.460938-5.949218-6.863281-6.542968-3.398438-.59375-6.820313.921874-8.671876 3.835937-1.847656 2.914063-1.757812 6.65625.226563 9.480469 2.710937 3.851562 8.03125 4.78125 11.886719 2.070312zm0 0"/><path d="m73.171875 220.3125c2.824219-1.984375 4.175781-5.472656 3.421875-8.84375-.753906-3.367188-3.460938-5.949219-6.859375-6.542969-3.402344-.59375-6.824219.921875-8.671875 3.835938-1.851562 2.914062-1.761719 6.65625.222656 9.476562 2.710938 3.855469 8.03125 4.785157 11.886719 2.074219zm0 0"/></svg>