<?xml version="1.0" encoding="utf-8"?>
<!-- Svg Vector Icons : http://www.onlinewebfonts.com/icon -->
<!DOCTYPE svg PUBLIC "-//W3C//DTD SVG 1.1//EN" "http://www.w3.org/Graphics/SVG/1.1/DTD/svg11.dtd">
<svg version="1.1" xmlns="http://www.w3.org/2000/svg" xmlns:xlink="http://www.w3.org/1999/xlink" x="0px" y="0px" viewBox="0 0 1000 1000" enable-background="new 0 0 1000 1000" xml:space="preserve">
<metadata> Svg Vector Icons : http://www.onlinewebfonts.com/icon </metadata>
<g><g transform="translate(0.000000,512.000000) scale(0.100000,-0.100000)"><path d="M4683.3,4997.9c-294.7-42.1-679.4-193.3-930.1-363.6c-407.6-275.6-740.6-746.3-870.7-1232.4c-47.8-174.1-51.7-222-51.7-526.3c0-304.3,3.8-352.1,51.7-526.3c166.5-614.3,604.7-1134.8,1182.7-1406.6c185.6-86.1,436.3-162.7,599-181.8c199-23,181.8,13.4,181.8-375.1V43.4H3315H1784v-459.3v-457.4l-80.4-23c-134-34.4-304.3-134-407.6-237.3c-174.1-176.1-258.3-384.7-258.3-646.8c0-769.3,918.6-1175,1500.3-662.1c310,273.7,390.4,740.6,191.4,1109.9c-107.2,197.1-338.7,378.9-556.9,436.3l-82.3,23V-569v306.2h2889.7h2889.7l-3.8-308.1L7860-879l-105.3-40.2c-237.3-86.1-400-235.4-512.9-470.8c-61.2-126.3-68.9-160.7-76.5-334.9c-5.7-162.7-1.9-212.4,34.4-317.7c103.3-308.1,331.1-520.5,644.9-602.8c411.4-107.2,843.9,101.4,1035.3,501.4c68.9,147.3,70.8,153.1,70.8,380.8c0,227.7,0,231.6-72.7,378.9c-45.9,91.9-112.9,185.6-176.1,248.8c-111,111-321.5,229.6-447.8,250.7l-78.5,13.4V-414V43.4H6664H5152.1v342.5c0,388.5-17.2,352.1,181.8,375.1c162.7,19.1,413.3,95.7,599,181.8c621.9,290.9,1058.3,842,1211.4,1521.4c34.5,151.2,34.5,671.7,0,822.9c-151.2,673.6-581.7,1219-1190.3,1509.9C5559.8,4986.4,5104.3,5059.2,4683.3,4997.9z M5129.2,4173.1c5.7-185.6-13.4-164.6,185.6-197.1c101.4-17.2,258.3-84.2,258.3-112.9c0-40.2-74.6-212.4-90-206.7c-7.6,1.9-74.6,24.9-149.3,51.7c-264.1,91.9-514.8,49.8-618.1-105.3c-36.4-53.6-44-86.1-38.3-166.5c13.4-164.6,65.1-212.4,411.4-380.8c451.6-220.1,560.7-350.2,560.7-667.9c0-233.5-120.6-422.9-340.6-533.9c-49.8-24.9-118.7-51.7-151.2-59.3l-63.2-13.4v-179.9v-179.9h-114.8h-114.8v170.3c0,183.7-5.7,193.3-112.9,193.3c-120.6,0-432.5,122.5-415.3,160.8c5.7,11.5,23,65.1,42.1,120.6l32.5,99.5l93.8-47.8c49.8-24.9,149.3-59.3,220.1-76.6c352.1-82.3,618.1,57.4,618.1,323.4c0,189.5-103.3,298.5-401.9,426.8c-491.8,210.5-648.7,438.2-543.5,792.3c45.9,153.1,206.7,308.1,373.2,359.8l122.5,38.3l5.7,183.7l5.7,185.6l109.1-5.8l109.1-5.7L5129.2,4173.1z"/><path d="M781.3-2915.2c-256.4-63.2-491.8-227.7-583.7-405.7c-88-170.3-97.6-264.1-97.6-878.4v-579.8h897.5H1895l-434.4,943.4l-436.3,941.5l-65.1,3.8C922.9-2888.4,844.4-2899.9,781.3-2915.2z"/><path d="M1470.2-3242.4c88-197.1,227.7-507.1,310-688.9c80.4-181.8,151.2-331.1,156.9-331.1s76.5,149.3,156.9,331.1c82.3,181.8,222,491.8,310,688.9l162.7,357.9h-629.6h-629.6L1470.2-3242.4z"/><path d="M2800.2-3001.3c-30.6-67-227.7-495.7-438.2-949.2l-382.7-828.6h899.4h897.5l-5.7,627.7c-5.7,599-7.7,629.6-49.8,734.9c-59.3,143.5-151.2,260.3-275.6,346.4c-120.6,84.2-327.2,160.8-480.3,178l-109.1,13.4L2800.2-3001.3z"/><path d="M6905.1-2915.2c-256.4-63.2-491.8-227.7-583.7-405.7c-88-170.3-97.6-264.1-97.6-878.4v-579.8h897.5h897.5l-434.4,943.4l-436.3,941.5l-65,3.8C7046.7-2888.4,6968.2-2899.9,6905.1-2915.2z"/><path d="M7594-3242.4c88-197.1,227.7-507.1,310-688.9c80.4-181.8,151.2-331.1,156.9-331.1c5.7,0,76.6,149.3,156.9,331.1c82.3,181.8,222,491.8,310,688.9l162.7,357.9h-629.6h-629.6L7594-3242.4z"/><path d="M8924-3001.3c-30.6-67-227.7-495.7-438.2-949.2l-382.7-828.6h899.4H9900l-5.7,627.7c-5.7,599-7.6,629.6-49.8,734.9c-59.3,143.5-151.2,260.3-275.6,346.4c-120.6,84.2-327.2,160.8-480.3,178l-109.1,13.4L8924-3001.3z"/></g></g>
</svg>