<?xml version="1.0" encoding="iso-8859-1"?>
<!-- Generator: Adobe Illustrator 22.1.0, SVG Export Plug-In . SVG Version: 6.00 Build 0)  -->
<svg xmlns="http://www.w3.org/2000/svg" xmlns:xlink="http://www.w3.org/1999/xlink" version="1.1" id="Layer_1_1_" x="0px" y="0px" viewBox="0 0 64 64" style="enable-background:new 0 0 64 64;" xml:space="preserve" width="512" height="512">
<g>
	<rect x="7" y="57" width="2" height="2"/>
	<rect x="11" y="57" width="2" height="2"/>
	<rect x="15" y="57" width="2" height="2"/>
	<rect x="49" y="57" width="8" height="2"/>
	<path d="M61,53V20c0-2.757-2.243-5-5-5h-3V1H11v12h2v-2h38v32h-8.426c0.183-0.645,0.313-1.312,0.376-2H47V27h-6v6.695   c-0.569-0.81-1.239-1.544-2-2.174V21h-6v8.051C32.67,29.021,32.338,29,32,29s-0.67,0.021-1,0.051V23h-6v8.521   c-0.761,0.63-1.431,1.364-2,2.174V21h-6v20h4.051c0.062,0.688,0.192,1.355,0.376,2H13V15H8c-2.757,0-5,2.243-5,5v33H1v5   c0,2.757,2.243,5,5,5h52c2.757,0,5-2.243,5-5v-5H61z M43,29h2v10h-2V29z M21,39h-2V23h2V39z M53,17h3c1.654,0,3,1.346,3,3v33h-2V21   c0-1.103-0.897-2-2-2h-2V17z M13,9V3h38v6H13z M35,23h2v7.214c-0.634-0.325-1.302-0.59-2-0.788V23z M27,25h2v4.426   c-0.698,0.198-1.366,0.463-2,0.788V25z M32,31c4.962,0,9,4.037,9,9s-4.038,9-9,9s-9-4.037-9-9S27.038,31,32,31z M5,20   c0-1.654,1.346-3,3-3h3v2H9c-1.103,0-2,0.897-2,2v32H5V20z M61,58c0,1.654-1.346,3-3,3H6c-1.654,0-3-1.346-3-3v-3h20.602   c1.438,1.293,3.278,2,5.227,2h6.343c1.948,0,3.788-0.707,5.227-2H53v-2H39.586l-0.293,0.293C38.192,54.394,36.728,55,35.171,55   h-6.343c-1.557,0-3.021-0.606-4.122-1.707L24.414,53H9V21h2v24h11.214c1.825,3.556,5.521,6,9.786,6s7.961-2.444,9.786-6H53V21h2v34   h6V58z"/>
	<rect x="15" y="5" width="2" height="2"/>
	<rect x="19" y="5" width="2" height="2"/>
	<rect x="23" y="5" width="2" height="2"/>
	<path d="M32,43c-0.551,0-1-0.448-1-1h-2c0,1.302,0.839,2.402,2,2.816V47h2v-2.184c1.161-0.414,2-1.514,2-2.816c0-1.654-1.346-3-3-3   c-0.551,0-1-0.448-1-1s0.449-1,1-1s1,0.448,1,1h2c0-1.302-0.839-2.402-2-2.816V33h-2v2.184c-1.161,0.414-2,1.514-2,2.816   c0,1.654,1.346,3,3,3c0.551,0,1,0.448,1,1S32.551,43,32,43z"/>
	<path d="M36,13c-1.556,0-2.824,1.194-2.971,2.712l-2.531,0.633C29.961,15.536,29.042,15,28,15s-1.961,0.536-2.498,1.345   l-2.531-0.633C22.824,14.195,21.556,13,20,13c-1.654,0-3,1.346-3,3s1.346,3,3,3c1.043,0,1.961-0.536,2.499-1.345l2.531,0.633   C25.176,19.805,26.444,21,28,21s2.824-1.195,2.971-2.713l2.53-0.633C34.039,18.464,34.957,19,36,19   c0.614,0,1.185-0.187,1.661-0.505l3.489,2.617C41.061,21.395,41,21.689,41,22c0,1.654,1.346,3,3,3s3-1.346,3-3s-1.346-3-3-3   c-0.614,0-1.185,0.187-1.661,0.505l-3.489-2.617C38.939,16.606,39,16.311,39,16C39,14.346,37.654,13,36,13z M20,17   c-0.551,0-1-0.448-1-1s0.449-1,1-1s1,0.448,1,1S20.551,17,20,17z M28,19c-0.551,0-1-0.448-1-1s0.449-1,1-1s1,0.448,1,1   S28.551,19,28,19z M36,17c-0.551,0-1-0.448-1-1s0.449-1,1-1s1,0.448,1,1S36.551,17,36,17z M44,21c0.551,0,1,0.448,1,1s-0.449,1-1,1   s-1-0.448-1-1S43.449,21,44,21z"/>
</g>
</svg>
