<?xml version="1.0" encoding="utf-8"?>
<!-- Svg Vector Icons : http://www.onlinewebfonts.com/icon -->
<!DOCTYPE svg PUBLIC "-//W3C//DTD SVG 1.1//EN" "http://www.w3.org/Graphics/SVG/1.1/DTD/svg11.dtd">
<svg version="1.1" xmlns="http://www.w3.org/2000/svg" xmlns:xlink="http://www.w3.org/1999/xlink" x="0px" y="0px" viewBox="0 0 1000 1000" enable-background="new 0 0 1000 1000" xml:space="preserve">
<metadata> Svg Vector Icons : http://www.onlinewebfonts.com/icon </metadata>
<g><g transform="translate(0.000000,511.000000) scale(0.100000,-0.100000)"><path d="M4075.7,4774.6c-485.2-403.5-975.2-946.4-975.2-1071.3c0-62.4,52.8-192.2,120.1-288.2c235.4-345.9,115.3-787.8-240.2-903.1c-192.2-62.4-379.5-19.2-586.1,144.1c-240.2,187.4-350.7,144.1-970.4-432.3c-317.1-293.1-586.1-566.9-600.5-605.3c-86.5-225.8-28.8-365.1,283.4-686.9c172.9-177.8,312.3-341.1,312.3-355.5c0-19.2-216.2-33.6-475.6-33.6c-720.6,0-701.4,24-701.4-1028.1c0-970.4,14.4-1004,422.7-1080.9c365.1-67.2,557.3-317,494.8-648.5c-43.2-225.8-312.3-461.2-528.4-461.2c-105.7,0-192.2-38.4-273.8-124.9c-110.5-115.3-115.3-158.5-129.7-802.2c-19.2-783.1,4.8-960.8,144.1-1090.5C472.8-4790,544.8-4790,4191-4790h3718.2l115.3,120.1c120.1,115.3,120.1,129.7,120.1,936.8c0,807.1,0,821.5-120.1,936.8c-62.4,67.2-172.9,120.1-240.2,120.1c-163.4,0-384.3,115.3-475.6,249.8c-43.2,57.6-76.9,201.7-76.9,317c0,177.7,28.8,240.2,163.4,374.7c139.3,139.3,196.9,163.4,379.5,163.4c158.5,0,254.6-33.6,355.5-110.5c312.2-259.4,389.1-230.6,1095.2,451.5C9734.7-735.5,9778-677.9,9778-514.5c0,168.1-110.4,293-2310.7,2574.9C4604.2,5034,4628.2,5010,4479.3,5010C4402.4,5010,4248.7,4923.5,4075.7,4774.6z M6127,2382.2c912.8-941.6,1676.6-1739,1695.8-1777.5c33.6-52.8-408.3-62.4-2632.6-62.4H2524.1l-432.4,446.8l-427.5,442l230.6,235.4l235.4,230.6l249.8-81.7c312.3-100.9,715.8-76.9,989.6,62.4c288.2,148.9,576.5,485.2,662.9,783.1c96.1,312.3,96.1,446.8,4.8,744.6l-67.3,235.4l221,225.8c124.9,129.7,240.2,230.6,254.6,230.6C4460,4097.3,5219.1,3328.6,6127,2382.2z M8668.3-735.5c-230.6-235.4-254.6-245-384.3-196.9l-139.3,52.8v576.5v581.3l384.3-384.3l384.3-379.5L8668.3-735.5z M2620.2-2123.8v-1945.6h-816.7H986.8v350.7v355.5l192.2,86.5c254.6,115.3,538.1,427.5,648.5,711c105.7,273.8,81.7,744.6-48,1018.4c-120.1,240.2-417.9,533.2-629.3,610.1l-163.3,57.6v350.7v350.7h816.7h816.7V-2123.8z M5022.1-2123.8v-1945.6l-826.3,9.6l-831.1,14.4l-14.4,1936l-9.6,1931.2h840.7h840.7V-2123.8z M7424.1-509.7v-331.5l-216.2-105.7c-120.1-57.7-302.6-201.8-408.3-321.9c-552.5-629.3-379.5-1570.9,365.1-1993.6l264.2-144.1l-14.4-321.9l-14.5-317h-816.7h-816.7l-14.4,1936l-9.7,1931.2h840.7h840.7V-509.7z"/><path d="M3825.9-735.5c-221-278.6-33.6-595.7,345.9-595.7c288.2,0,466,139.3,466,365.1c0,249.8-134.5,355.5-451.6,355.5C3960.4-610.6,3912.4-629.8,3825.9-735.5z"/><path d="M3825.9-1888.5c-221-278.6-33.6-595.7,345.9-595.7c288.2,0,466,139.3,466,365.1c0,249.8-134.5,355.5-451.6,355.5C3960.4-1763.5,3912.4-1782.8,3825.9-1888.5z"/><path d="M3825.9-3041.4c-221-278.6-33.6-595.7,345.9-595.7c288.2,0,466,139.3,466,365.1c0,249.8-134.5,355.5-451.6,355.5C3960.4-2916.5,3912.4-2935.7,3825.9-3041.4z"/></g></g>
</svg>