<?xml version="1.0" encoding="utf-8"?>
<!-- Svg Vector Icons : http://www.onlinewebfonts.com/icon -->
<!DOCTYPE svg PUBLIC "-//W3C//DTD SVG 1.1//EN" "http://www.w3.org/Graphics/SVG/1.1/DTD/svg11.dtd">
<svg version="1.1" xmlns="http://www.w3.org/2000/svg" xmlns:xlink="http://www.w3.org/1999/xlink" x="0px" y="0px" viewBox="0 0 1000 1000" enable-background="new 0 0 1000 1000" xml:space="preserve">
<metadata> Svg Vector Icons : http://www.onlinewebfonts.com/icon </metadata>
<g><g transform="translate(0.000000,512.000000) scale(0.100000,-0.100000)"><path d="M433,4993.5c-147.4-55.5-271.8-185.7-312-329.2c-17.2-57.4-21.1-949.4-17.2-3512.3c5.7-3275,7.7-3439.6,40.2-3504.6c45.9-91.9,151.2-197.1,241.2-239.3c38.3-19.1,126.3-38.3,199.1-42.1l128.2-7.7v155.1v155H597.7c-90,0-122.5,7.7-153.1,38.3c-38.3,38.3-38.3,63.2-38.3,3483.6c0,3420.4,0,3445.3,38.3,3483.6s63.2,38.3,4555.5,38.3c4492.3,0,4517.2,0,4555.5-38.3s38.3-63.2,38.3-3483.6c0-3420.4,0-3445.3-38.3-3483.6c-30.6-30.6-63.2-38.3-153.1-38.3h-114.8v-155v-155.1l130.2,7.7c70.8,3.8,158.9,23,197.1,42.1c90,42.1,195.2,147.4,241.2,239.3c32.5,65.1,34.5,223.9,34.5,3542.9c0,3319-1.9,3477.9-34.5,3542.9c-44,90-151.2,197.1-241.2,241.2c-65.1,32.5-264.1,34.5-4595.7,38.3C1587.2,5014.5,477.1,5010.7,433,4993.5z"/><path d="M1018.7,1190.2v-2909.4h3521.9h3521.9v153.1v153.1H4693.7H1325v2603.1v2603.1h3368.7h3368.7v153.1v153.1H4540.6H1018.7V1190.2z"/><path d="M8368.7,3180.8v-918.7h153.1H8675V1190.2V118.3h-153.1h-153.1v-918.8v-918.7h459.4h459.4v918.7v918.8h-153.1h-153.1v1071.9v1071.9h153.1h153.1v918.7v918.8h-459.4h-459.4V3180.8z M8981.2,3180.8v-612.5h-153.1H8675v612.5v612.5h153.1h153.1V3180.8z M8981.2-800.4v-612.5h-153.1H8675v612.5v612.5h153.1h153.1V-800.4z"/><path d="M4722.5,3159.8c-273.7-38.3-625.9-183.8-869-356c-576.1-411.5-905.4-1131.2-830.7-1810.7c137.8-1230.7,1380-2067.2,2532.3-1707.3C6611.6-381.2,7222.2,730.8,6904.5,1745.3C6605.9,2692.8,5677.6,3295.7,4722.5,3159.8z M4846.9,2711.9c0-158.9-1.9-162.7-45.9-162.7c-122.5,0-465.1-143.6-602.9-250.7l-47.9-38.3l-111,111c-61.2,59.3-111,116.8-111,124.4c0,32.5,292.8,206.7,440.2,262.2c120.6,47.9,331.1,99.5,465.1,114.8C4841.1,2874.6,4846.9,2801.9,4846.9,2711.9z M5382.8,2832.5c162.7-30.6,386.6-122.5,545.5-225.9c78.5-51.7,143.6-101.4,143.6-111c0-7.7-49.8-65.1-111-124.4l-111-111l-47.9,38.3c-137.8,107.2-480.4,250.7-602.9,250.7c-44,0-45.9,3.8-45.9,162.7v162.7l63.2-11.5C5248.8,2857.4,5325.4,2844,5382.8,2832.5z M3819,2151.1l111-111l-38.3-47.9c-107.2-137.8-250.7-480.4-250.7-602.9c0-44-3.8-45.9-162.7-45.9h-160.8l9.6,63.2c53.6,319.6,120.6,501.5,256.5,712c51.7,78.5,101.4,143.6,111,143.6C3702.3,2262.1,3759.7,2212.3,3819,2151.1z M5266.1,2233.4c283.3-67,545.5-269.9,679.5-524.4c283.3-541.7,74.6-1221.2-453.6-1475.8c-325.4-155-658.4-155-980,0c-335,160.8-551.2,486.2-578.1,870.9c-32.5,453.6,191.4,857.5,578.1,1043.2c84.2,42.1,197.1,82.3,248.8,91.9C4908.1,2267.8,5130.2,2264,5266.1,2233.4z M6416.4,2118.5c135.9-210.5,202.9-392.4,256.5-712l11.5-63.2h-162.7c-158.9,0-162.7,1.9-162.7,45.9c0,122.5-143.6,465.1-250.7,602.9l-38.3,47.9l111,111c59.3,61.3,116.8,111,124.4,111C6315,2262.1,6364.7,2197,6416.4,2118.5z M3641,991.2c0-122.5,143.6-465.1,250.7-602.9l38.3-47.9l-111-111c-59.3-61.2-116.7-111-124.4-111c-9.6,0-59.3,65.1-111,143.6c-135.9,210.5-202.9,392.4-256.5,713.9l-9.6,61.3h160.8C3637.2,1037.1,3641,1035.2,3641,991.2z M6672.9,975.8c-53.6-321.6-120.6-503.4-256.5-713.9c-51.7-78.5-101.4-143.6-111-143.6c-7.7,0-63.2,49.8-122.5,111l-109.1,109.1l84.2,132.1c95.7,149.3,157,296.7,187.6,457.5l23,109.1h157h158.9L6672.9,975.8z M4345.4-8c128.2-74.7,375.2-160.8,453.6-160.8c47.9,0,47.9-1.9,47.9-162.7v-160.8l-61.3,9.6c-321.6,53.6-503.4,120.6-713.9,256.5c-78.5,51.7-143.6,101.4-143.6,109.1c0,7.7,49.8,63.2,109.1,124.4c101.4,103.4,111,109.1,149.3,82.3C4207.6,74.3,4280.3,30.3,4345.4-8z M6071.9-115.2c0-9.6-65.1-59.3-143.6-111c-210.5-135.9-392.4-202.9-712-256.5l-63.2-9.6v156.9v157l111,23c158.9,30.6,306.3,91.9,455.5,187.6l132.1,84.2l111-109.1C6022.1-52,6071.9-107.5,6071.9-115.2z"/><path d="M1018.7-2791v-459.4h918.7h918.8v306.2v306.3h995.3h995.3v-468.9v-468.9l-90-42.1c-116.7-55.5-252.7-191.4-308.2-306.2l-42.1-91.9H2253.3H100v-153.1v-153.1h2153.3h2153.3l42.1-90c55.5-118.7,189.5-252.7,312-312c135.9-65.1,342.6-65.1,478.5,0c122.5,59.3,256.5,193.3,312,312l42.1,90h2153.3H9900v153.1v153.1H7746.7H5593.4l-42.1,91.9c-55.5,114.8-191.4,250.8-306.3,306.2l-91.9,42.1v468.9v468.9h995.3h995.3v-306.3v-306.2h918.7h918.8v459.4v459.4H5000H1018.7V-2791z M2550-2791v-153.1h-612.5H1325v153.1v153.1h612.5H2550V-2791z M8675-2791v-153.1h-612.5H7450v153.1v153.1h612.5H8675V-2791z M5187.6-3912.7c84.2-63.2,122.5-155,112.9-281.4c-11.5-191.4-126.3-289-325.4-275.6c-191.4,11.5-289,126.3-275.6,325.4c7.7,126.3,49.8,197.1,149.3,248.8C4934.9-3849.5,5112.9-3859.1,5187.6-3912.7z"/></g></g>
</svg>