<?xml version="1.0" encoding="utf-8"?>
<!-- Svg Vector Icons : http://www.onlinewebfonts.com/icon -->
<!DOCTYPE svg PUBLIC "-//W3C//DTD SVG 1.1//EN" "http://www.w3.org/Graphics/SVG/1.1/DTD/svg11.dtd">
<svg version="1.1" xmlns="http://www.w3.org/2000/svg" xmlns:xlink="http://www.w3.org/1999/xlink" x="0px" y="0px" viewBox="0 0 1000 1000" enable-background="new 0 0 1000 1000" xml:space="preserve">
<metadata> Svg Vector Icons : http://www.onlinewebfonts.com/icon </metadata>
<g><g transform="translate(0.000000,512.000000) scale(0.100000,-0.100000)"><path d="M808.1,4965.1c-32.5-34.5-55.5-76.5-55.5-107.2s23-72.7,55.5-107.2l55.5-55.5h386.6c382.7,0,384.7,0,430.6,47.8c65.1,63.1,65.1,166.5,0,229.6c-45.9,47.8-47.8,47.8-430.6,47.8H863.6L808.1,4965.1z"/><path d="M2118.9,4974.6c-40.2-34.4-53.6-61.2-53.6-116.7c0-55.5,13.4-82.3,53.6-116.7l51.7-45.9h543.5h543.5l51.7,45.9c74.6,63.2,74.6,170.3,0,233.5l-51.7,45.9h-543.5h-543.5L2118.9,4974.6z"/><path d="M8321.2,4972.7c-45.9-44-47.8-53.6-47.8-331.1v-287.1l-51.7-13.4c-30.6-5.7-95.7-34.4-147.4-59.3l-93.7-47.8l-204.8,202.9c-170.3,168.4-214.3,200.9-264.1,200.9c-88.1,0-164.6-74.6-164.6-160.8c0-63.2,19.1-89.9,199-269.8l197.1-199l-49.8-112.9c-28.7-63.2-51.7-128.2-51.7-145.4c0-26.8-32.5-30.6-266-30.6c-147.3,0-289-7.7-315.8-19.1c-61.2-23-111-118.7-95.7-179.9c5.8-24.9,30.6-63.2,53.6-86.1c38.3-34.5,68.9-40.2,325.3-44l283.2-5.7l32.5-95.7c19.1-53.6,45.9-114.8,61.2-139.7c24.9-40.2,17.2-51.7-158.8-227.7c-101.4-103.3-195.2-212.4-204.8-241.1c-47.8-124.4,80.4-248.8,204.8-202.9c28.7,9.6,135.9,103.3,239.2,204.8c176,176.1,187.5,183.7,227.7,158.8c24.9-15.3,86.1-42.1,139.7-61.2l95.7-32.5l5.8-283.2c3.8-235.4,9.6-289,38.3-319.6c49.7-55.5,109.1-72.7,176-49.8c97.6,34.4,114.8,95.7,114.8,400c0,235.4,3.8,267.9,30.6,267.9c17.2,0,82.3,23,145.5,51.7l112.9,49.8l199-197.1c179.9-179.9,206.7-199,269.8-199c86.1,0,160.8,76.5,160.8,164.6c0,49.8-32.5,93.8-202.9,264.1l-200.9,204.8l40.2,74.6c21,42.1,47.8,107.2,59.3,147.3l19.1,70.8h287.1c279.4,0,289,1.9,333,47.8c61.3,59.3,61.3,143.5,1.9,214.3l-45.9,53.6l-289,5.7l-287.1,5.7l-30.6,89.9c-17.2,49.8-42.1,111-57.4,137.8c-24.9,45.9-21,53.6,162.7,239.2c105.3,107.2,195.2,216.2,200.9,244.9c17.2,68.9-19.1,156.9-78.5,183.7c-103.3,45.9-135.9,28.7-348.3-178c-199-193.3-206.7-199-252.6-174.2c-26.8,15.3-88,40.2-137.8,57.4l-90,30.6l-5.7,287.1l-5.8,289l-53.6,45.9C8464.7,5034,8380.5,5034,8321.2,4972.7z M8577.6,4014c214.3-63.1,369.4-302.4,336.8-520.5c-36.4-246.9-233.5-424.8-470.8-424.8c-139.7,0-237.3,34.4-331.1,118.7c-237.3,206.7-218.1,585.6,34.5,757.8C8300.2,4046.5,8409.2,4065.6,8577.6,4014z"/><path d="M1793.6,4325.9c-74.6-65.1-74.6-172.2,0-235.4c47.8-42.1,68.9-45.9,267.9-45.9c189.5,0,223.9,5.7,267.9,40.2c61.2,49.8,68.9,160.7,13.4,229.6c-34.4,42.1-51.7,45.9-266,51.7C1858.7,4371.8,1847.2,4371.8,1793.6,4325.9z"/><path d="M3131.3,4350.8c-95.7-38.3-114.8-200.9-32.5-266c45.9-36.4,76.5-40.2,275.6-40.2h225.8l51.7,61.2c61.2,72.7,55.5,155-21.1,222c-44,38.3-67,42.1-252.6,40.2C3265.2,4368,3154.3,4360.3,3131.3,4350.8z"/><path d="M2809.8,3698.2c-86.1-49.8-86.1-45.9-86.1-799.9c1.9-560.7,7.7-727.2,26.8-752.1c40.2-53.6,116.7-74.6,185.6-49.7c105.3,36.4,112.9,80.4,112.9,723.4v574.1l321.5-3.8l319.6-5.7l5.7-600.9c5.7-654.5,3.8-650.7,114.8-692.8c63.2-24.9,172.2,24.9,195.2,89.9c13.4,32.5,19.1,304.3,15.3,746.3c-5.7,694.7-5.7,694.7-49.7,738.7c-42.1,44-49.8,44-583.7,47.8C3018.4,3717.3,2836.6,3711.6,2809.8,3698.2z"/><path d="M637.7,1734.7c-70.8-26.8-141.6-93.8-174.1-166.5c-32.5-72.7-36.4-139.7-36.4-868.8V-92.8l55.5-55.5C553.5-219.1,632-221,702.8-156l49.8,45.9v765.5v765.5l2436.1,5.7c1337.7,3.8,2441.9,0,2449.5-5.7c9.6-7.7,93.8-355.9,185.6-775c155-694.7,174.1-767.4,220.1-805.7c26.8-24.9,74.6-44,107.2-44c74.6,0,151.2,74.6,151.2,149.3c0,28.7-76.6,401.9-172.2,826.7c-185.6,834.4-202.8,884.1-331,943.4c-61.3,30.6-279.4,32.5-2600.7,30.6C1807,1746.2,653.1,1740.5,637.7,1734.7z"/><path d="M1407.1,1072.6c-84.2-26.8-225.8-155-273.7-245c-86.1-172.2-57.4-392.3,72.7-535.8c302.4-334.9,847.8-132,847.8,315.8c0,277.5-210.5,491.8-478.4,488C1518,1093.7,1441.5,1084.1,1407.1,1072.6z M1680.7,724.3c47.8-45.9,61.2-124.4,36.4-191.4c-15.3-36.4-105.3-86.1-158.8-86.1c-57.4,0-134,78.5-147.4,147.4c-9.6,51.7-1.9,70.8,45.9,120.6C1531.4,787.5,1615.6,791.3,1680.7,724.3z"/><path d="M3001.2,1051.6c-178-82.3-277.5-239.2-277.5-440.2c0-453.5,555-658.3,849.7-313.8c67,76.5,126.3,223.9,126.3,311.9c0,114.8-63.1,250.7-158.8,344.5C3385.8,1105.1,3188.7,1139.6,3001.2,1051.6z M3309.3,726.2c120.6-101.4,30.6-296.6-124.4-271.7c-86.1,13.4-135.9,72.7-135.9,158.8C3049,751.1,3202.1,820,3309.3,726.2z"/><path d="M4669.9,1070.7c-105.3-38.3-197.1-116.7-256.4-218.2c-45.9-76.5-53.6-111-53.6-233.5c0-212.4,88-361.7,269.8-451.6c105.3-51.7,315.8-49.8,421,5.7c222,116.7,325.3,361.7,248.8,593.2C5213.4,1024.8,4928.2,1162.6,4669.9,1070.7z M4926.3,747.3c40.2-30.6,74.6-97.6,74.6-147.4c0-57.4-101.4-153.1-162.7-153.1c-72.7,0-162.7,95.7-162.7,172.2C4675.6,735.8,4834.5,818.1,4926.3,747.3z"/><path d="M8116.5,94.7c-38.3-13.4-107.2-47.8-153.1-74.6c-107.2-63.1-666-627.7-667.9-675.5c-7.7-118.7,57.4-199,158.9-199c51.7,0,101.4,42.1,357.8,294.7C7976.7-399,8137.5-251.7,8172-234.4c53.6,26.8,149.2,30.6,732.9,30.6h669.8v-488v-488H8503c-1178.8,0-1161.6,1.9-1201.8-114.8c-24.9-67-15.3-107.2,40.2-166.5l38.3-44h1085c597.1,0,1088.9-3.8,1092.7-9.6c17.2-15.3-21-296.6-59.3-449.7c-160.8-627.7-595.1-1119.5-1274.5-1437.2c-114.8-53.6-223.9-111-241.1-128.2c-47.8-40.2-45.9-164.6,3.8-214.3c84.2-84.2,172.2-63.2,512.9,114.8c698.5,367.4,1134.8,891.8,1314.7,1578.8c70.8,277.5,86.1,495.7,86.1,1301.3V10.5L9844.5,66l-55.5,55.5h-801.8C8378.6,119.6,8170,113.9,8116.5,94.7z"/><path d="M157.4-586.6L100-644l5.7-999c7.7-1117.6,5.7-1092.7,147.3-1383.6c126.3-256.4,388.5-484.2,809.5-698.5c122.5-63.1,172.2-80.4,212.4-68.9c105.3,24.9,160.8,145.4,109.1,241.1c-9.6,19.1-93.8,76.5-185.6,126.3c-367.4,199-566.4,365.5-662.1,556.9c-88,172.2-109.1,338.7-109.1,876.5v488h2889.7h2891.6l45.9,47.8c70.8,68.9,65.1,164.6-11.5,227.7l-59.3,49.7H3305.4H427.2v162.7v162.7h3100.2h3100.2v-803.7v-805.7l-55.5,28.7c-72.7,38.3-166.5,134-204.8,208.6c-28.7,51.7-28.7,59.3-1.9,74.6c132.1,72.7,137.8,227.7,11.5,292.8c-47.8,24.9-103.3,30.6-256.4,24.9c-178-5.7-202.9-9.6-246.9-51.7c-93.8-88-40.2-269.8,78.5-269.8c32.5,0,47.8-21,74.6-107.2c38.3-124.4,160.8-300.4,262.2-377c105.3-78.5,262.2-147.4,396.1-168.4c373.2-59.3,782.7,197.1,889.9,560.7c19.1,67,34.5,84.2,82.3,95.7c118.6,30.6,155,162.7,72.7,258.3c-45.9,53.6-47.9,53.6-279.4,53.6c-231.6,0-233.5,0-279.4-53.6c-59.3-70.8-59.3-155,1.9-214.3c24.9-26.8,55.5-47.8,65.1-47.8c26.8,0,5.8-53.6-51.7-130.1c-45.9-63.1-185.6-176.1-218.2-176.1c-7.7,0-15.3,407.6-15.3,907.1c0,499.5-5.7,922.4-11.5,939.6c-34.5,90,101.4,86.1-3423.6,86.1H212.9L157.4-586.6z"/><path d="M1638.6-1851.5c-143.5-42.1-254.5-223.9-225.8-367.4c55.5-262.2,380.8-357.9,556.9-162.7c65.1,68.9,84.2,120.6,84.2,216.2c0,149.3-95.7,275.6-239.2,313.9C1726.6-1828.5,1720.9-1828.5,1638.6-1851.5z"/><path d="M2637.6-1847.7c-246.9-59.3-329.2-363.6-149.3-545.4c109.1-109.1,296.6-122.5,426.7-30.6c118.7,84.2,156.9,300.5,78.5,428.7C2920.8-1878.3,2769.6-1817.1,2637.6-1847.7z"/><path d="M3604-1853.4c-134-36.4-229.6-168.4-229.6-311.9c0-340.6,472.7-447.8,614.3-137.8c44,101.4,45.9,174.2,0,271.7c-42.1,93.8-91.9,139.7-187.5,174.1C3716.9-1828.5,3693.9-1826.6,3604-1853.4z"/><path d="M4572.3-1857.3c-310-114.8-287.1-551.1,32.5-623.8c210.5-45.9,405.7,122.5,390.4,338.7C4979.9-1930,4769.4-1786.4,4572.3-1857.3z"/><path d="M913.3-4239.8c-151.2-162.7-246.9-200.9-512.9-202.8c-202.9-1.9-208.6-3.8-252.6-55.5c-53.6-61.2-57.4-107.2-17.2-183.7c86.1-166.5,614.3-112.9,886,90l63.2,47.8l61.2-47.8c97.6-74.6,212.4-126.3,352.1-158.8c254.5-61.3,621.9,0,794.2,130.1c34.4,24.9,72.7,51.7,84.2,59.3c11.5,5.7,61.2-17.2,111-53.6c158.8-111,311.9-153.1,566.5-151.2c250.7,0,373.2,34.5,551.1,153.1c101.4,67,103.3,67,145.4,32.5c287.1-254.5,863.1-260.3,1194.1-11.5l61.2,45.9l63.2-45.9c329.1-246.9,905.2-243,1192.2,9.6c40.2,36.3,42.1,36.3,162.7-42.1c172.2-111,290.9-143.5,543.5-143.5c245,0,401.9,44,556.9,153.1c49.8,36.4,99.5,59.3,111,53.6c11.5-7.6,49.7-34.4,84.2-59.3c172.2-130.1,539.6-191.4,794.2-130.1c139.7,32.5,254.5,84.2,352.1,158.8l61.2,47.8l63.2-47.8c204.7-153.1,558.8-227.7,784.6-164.6c122.4,32.5,166.5,164.6,86.1,258.3c-42.1,49.8-51.7,51.7-254.5,53.6c-266,5.7-363.6,44-512.9,204.7c-143.5,155-181.8,155-344.5-9.6c-107.2-109.1-137.8-128.2-260.3-166.5c-269.8-80.4-581.8-1.9-708.1,181.8c-59.3,89.9-89.9,107.2-168.4,107.2c-61.3-1.9-99.5-26.8-147.4-101.4c-80.4-124.4-308.1-223.9-509-223.9c-49.8,0-147.3,17.2-218.2,40.2c-111,34.5-147.3,57.4-250.7,162.7c-162.7,164.6-200.9,164.6-344.5,9.6c-147.3-158.8-250.7-200.9-486.1-200.9c-229.6-1.9-325.3,38.3-480.3,199c-149.3,156.9-191.4,156.9-340.6,0c-155-160.8-250.7-200.9-480.3-199c-235.4,0-338.7,42.1-486.1,200.9c-143.5,156.9-183.7,155-346.4-9.6c-103.3-105.3-137.8-128.2-248.8-162.7c-70.8-22.9-168.4-40.2-218.2-40.2c-200.9,0-428.7,99.5-509,223.9c-47.8,74.6-86.1,99.5-147.4,101.4c-78.5,0-109.1-17.2-168.4-107.2c-42.1-59.3-91.9-99.5-185.6-145.4c-118.6-57.4-143.5-63.1-311.9-63.1c-229.6,1.9-327.2,42.1-480.3,200.9C1099-4084.8,1054.9-4084.8,913.3-4239.8z"/></g></g>
</svg>