<?xml version="1.0" encoding="utf-8"?>
<!-- Svg Vector Icons : http://www.onlinewebfonts.com/icon -->
<!DOCTYPE svg PUBLIC "-//W3C//DTD SVG 1.1//EN" "http://www.w3.org/Graphics/SVG/1.1/DTD/svg11.dtd">
<svg version="1.1" xmlns="http://www.w3.org/2000/svg" xmlns:xlink="http://www.w3.org/1999/xlink" x="0px" y="0px" viewBox="0 0 1000 1000" enable-background="new 0 0 1000 1000" xml:space="preserve">
<metadata> Svg Vector Icons : http://www.onlinewebfonts.com/icon </metadata>
<g><g transform="translate(0.000000,511.000000) scale(0.100000,-0.100000)"><path d="M983.2,4390c-343.3-155.3-445.5-762.3-179.8-1070.9c55.2-67.4,67.4-94,51.1-114.4c-12.3-14.3-132.8-75.6-267.7-134.9c-179.8-79.7-265.7-128.8-314.7-183.9c-75.6-83.8-143.1-245.2-165.5-392.4c-12.3-83.8-10.2-98.1,32.7-126.7c67.4-42.9,339.2-87.9,696.9-114.4c329-24.5,748-4.1,1062.7,51.1c233,40.9,282,63.4,282,132.8c0,98.1-63.3,294.3-126.7,394.4c-57.2,89.9-83.8,108.3-355.6,239.1l-294.3,141l79.7,106.3c102.2,134.9,145.1,271.8,145.1,455.7c0,261.6-92,461.9-267.7,578.4C1261.2,4416.6,1083.4,4434.9,983.2,4390z"/><path d="M8689.8,4381.8c-188-87.9-300.4-290.2-312.7-566.1c-10.2-220.7,34.7-371.9,149.2-513l75.6-89.9l-296.3-143.1c-335.2-157.4-372-194.2-443.5-427.1c-57.2-181.9-55.2-255.5,12.3-284.1c83.8-38.8,384.2-85.8,696.9-108.3c445.5-30.7,1160.8,34.7,1289.5,116.5c42.9,28.6,45,40.9,32.7,126.7c-20.4,149.2-87.9,308.6-163.5,392.4c-49.1,55.2-134.9,104.2-314.7,183.9c-134.9,59.3-255.5,120.6-267.7,134.9c-16.4,20.4-6.2,42.9,40.9,94c128.8,136.9,194.2,427.1,147.1,651.9c-32.7,151.2-134.9,318.8-241.1,394.4C8982,4422.7,8812.4,4439,8689.8,4381.8z"/><path d="M4786.4,2348.4c-130.8-45-204.4-87.9-273.8-167.6c-94-108.3-126.7-204.4-139-408.7c-6.1-104.2-24.5-202.3-38.8-224.8c-63.4-89.9-16.3-322.9,89.9-459.8c32.7-38.8,69.5-104.2,85.8-143.1c106.3-271.8,359.7-431.2,588.6-371.9c175.8,47,316.8,181.9,392.4,371.9c16.3,38.8,53.1,104.2,85.8,143.1c108.3,136.9,153.3,374,87.9,461.9c-16.3,22.5-30.7,85.8-30.7,151.2c0,132.8-30.7,255.5-81.7,329c-20.4,28.6-45,75.6-51.1,104.2c-32.7,126.7-226.8,224.8-470,235C4933.6,2372.9,4835.5,2364.7,4786.4,2348.4z"/><path d="M2330,2293.2c-106.3-45-153.3-222.8-79.7-304.5c20.4-22.5,267.7-175.8,551.8-343.3c282-165.5,637.6-378.1,788.8-470c212.5-130.8,292.2-169.6,349.5-169.6c96,0,175.7,63.4,194.1,151.2c24.5,134.9-12.3,167.6-578.4,506.8C2479.2,2309.6,2430.1,2336.1,2330,2293.2z"/><path d="M7535.1,2299.3c-53.1-20.4-443.5-247.3-1038.2-602.9c-621.3-371.9-654-400.5-629.4-539.5c8.2-36.8,36.8-85.8,67.4-110.4c104.2-81.7,157.4-61.3,645.8,233c249.3,149.2,600.8,357.6,780.7,461.9c367.9,212.5,410.8,245.2,425.1,322.9c12.3,61.3-24.5,163.5-71.5,202.3C7678.2,2299.3,7578,2315.7,7535.1,2299.3z"/><path d="M4296,619.5c-451.6-190.1-582.4-288.2-694.8-521.1c-79.7-167.6-151.2-488.4-120.6-539.5c47-71.5,465.9-169.6,891-210.5c351.5-32.7,1260.9-14.3,1545,32.7c230.9,36.8,547.7,120.6,592.7,159.4c59.3,49.1-40.9,468-155.3,647.8c-108.3,171.7-245.2,261.6-647.8,431.2l-181.9,75.6l-67.5-245.2c-36.8-136.9-100.1-331.1-141-431.2c-71.5-177.8-255.5-535.4-296.3-576.3c-28.6-28.6-79.7,42.9-210.5,306.6c-128.8,259.5-198.2,447.6-273.9,739.8l-55.2,208.4L4296,619.5z"/><path d="M4866.1,296.6c26.6-149.2,26.6-149.2,134.9-149.2c108.3,0,108.3,0,134.9,149.2l12.3,75.6H5001h-147.1L4866.1,296.6z"/><path d="M4876.4-30.4c-22.5-116.5-22.5-120.6,45-245.2c36.8-71.5,71.5-128.7,77.7-128.7c8.2,0,42.9,57.2,81.7,128.7c67.4,124.7,67.4,128.8,45,245.2l-24.5,116.5H5001h-100.1L4876.4-30.4z"/><path d="M3519.4-1046.1c-190.1-116.5-654-388.3-1030-602.9c-376-216.6-696.9-408.7-711.2-427.1c-32.7-45-32.7-188,0-230.9c36.8-47,106.3-79.7,171.7-79.7c98.1,0,2109,1169,2154,1250.7c44.9,83.8,28.6,183.9-40.9,245.2C3956.7-796.8,3907.7-811.1,3519.4-1046.1z"/><path d="M5945.2-884.7c-73.6-61.3-92-141-55.2-228.9c22.5-53.1,106.3-112.4,504.8-347.4c936-559.9,1598.1-925.8,1665.6-925.8c38.8,0,87.9,20.4,126.7,53.1c53.1,42.9,63.3,67.4,63.3,136.9c0,47-12.3,102.2-26.6,120.6c-16.3,18.4-331.1,208.5-701,421c-369.9,212.5-835.8,484.3-1034.1,602.9C6094.4-813.1,6045.3-798.8,5945.2-884.7z"/><path d="M1046.6-2037.3c-98.1-24.5-143.1-55.2-233-157.4c-218.7-249.3-218.7-680.5,0-954.4c77.7-96.1,83.8-92-249.3-239.1c-130.8-57.2-257.5-124.6-280-149.2c-98.1-104.2-208.5-427.1-175.7-510.9c32.7-87.9,433.2-145.1,1019.8-145.1c484.3-2,823.6,34.7,989.1,102.2l69.5,28.6l-14.3,116.5c-14.3,130.8-92,316.8-161.5,392.4c-24.5,26.6-169.6,106.3-320.9,179.8c-151.2,71.5-277.9,134.9-282,139c-6.1,4.1,20.4,42.9,57.2,85.8c106.3,120.6,149.2,239.1,159.4,437.4c10.2,202.3-20.4,324.9-122.6,476.2C1400.1-2080.2,1206-1996.4,1046.6-2037.3z"/><path d="M8734.7-2047.5c-122.6-45-206.4-122.6-280-261.6c-63.3-114.4-71.5-149.2-77.7-322.9c-10.2-230.9,36.8-384.2,155.3-515c38.8-42.9,67.4-81.7,61.3-87.9c-4.1-4.1-130.8-67.4-282-139c-151.2-73.6-296.3-153.3-320.9-179.8c-69.5-75.6-147.1-261.6-161.4-392.4l-14.3-116.5l69.5-28.6c325-134.9,1528.7-141,1933.3-10.2c34.7,10.2,69.5,34.7,75.6,53.1c36.8,94-100.1,453.7-200.3,531.3c-26.6,22.5-149.2,83.8-271.8,136.9c-120.6,53.1-237.1,110.4-259.5,124.7c-34.7,26.6-34.7,30.7,26.6,106.3c220.7,277.9,218.7,711.2-10.2,964.6c-71.5,79.7-118.5,110.4-198.2,134.9C8855.3-2012.7,8834.9-2012.7,8734.7-2047.5z"/></g></g>
</svg>