<?xml version="1.0" encoding="utf-8"?>
<!-- Svg Vector Icons : http://www.onlinewebfonts.com/icon -->
<!DOCTYPE svg PUBLIC "-//W3C//DTD SVG 1.1//EN" "http://www.w3.org/Graphics/SVG/1.1/DTD/svg11.dtd">
<svg version="1.1" xmlns="http://www.w3.org/2000/svg" xmlns:xlink="http://www.w3.org/1999/xlink" x="0px" y="0px" viewBox="0 0 1000 1000" enable-background="new 0 0 1000 1000" xml:space="preserve">
<metadata> Svg Vector Icons : http://www.onlinewebfonts.com/icon </metadata>
<g><g transform="translate(0.000000,512.000000) scale(0.100000,-0.100000)"><path d="M5124.4,5003c-1418.3-97.6-2589.7-455.5-3119.9-955.1c-105.3-101.4-130.2-114.8-306.2-164.6c-465.1-132.1-932.2-350.3-1192.5-555.1c-174.2-137.8-285.2-275.6-357.9-436.4l-47.9-111l3.8-3085.4l5.7-3085.5l65.1-132.1c482.3-981.9,3305.6-1529.3,5725-1110.2c930.2,160.8,1697.8,465.1,2061.4,817.3c91.9,88.1,116.8,101.4,317.7,158.9c830.7,237.4,1374.3,580,1558,978.1l63.2,137.8l-3.8,3087.4l-5.7,3087.4l-51.7,105.3c-300.5,606.8-1439.4,1073.8-3010.8,1234.6C6466.2,5010.6,5488.1,5027.9,5124.4,5003z M6435.5,4677.6c1091-65.1,1937-248.8,2536.1-551.3c210.5-109.1,269.9-149.3,394.3-271.8c114.8-112.9,153.1-164.6,178-243.1c103.3-312-158.9-614.4-735-859.4c-157-65.1-486.2-179.9-518.7-179.9c-9.6,0-17.2,42.1-17.2,95.7c0,199-157,465.1-379,643.1c-629.7,501.5-1835.6,825-3294.1,886.2c-499.6,21.1-1123.6,0-1607.8-55.5c-183.8-21.1-336.9-34.5-340.7-30.6c-13.4,13.4,413.4,183.8,625.9,248.8C4110,4620.2,5335,4742.7,6435.5,4677.6z M4866,3854.6c1984.9-122.5,3343.9-748.4,3016.6-1393.4c-252.6-497.7-1397.3-890-2917-1001.1c-467-32.5-1582.9-11.5-2004,38.3c-974.3,118.7-1703.5,331.1-2145.7,624c-268,179.9-379,336.9-377.1,537.8c1.9,178,84.2,313.9,289,468.9c511.1,386.6,1512.1,641.2,2874.9,733.1C3822.9,3875.6,4580.8,3871.8,4866,3854.6z M9570.8,1997.9c-5.7-578.1-5.7-583.8-53.6-677.6c-122.5-241.2-551.3-503.4-1091-669.9L8273,604.5l3.8,803.9l5.7,805.8l239.3,80.4c384.7,128.2,681.4,273.7,918.8,447.9l124.4,90l5.7-124.4C9574.6,2639.1,9574.6,2319.5,9570.8,1997.9z M741.2,1814.2C2105.9,1006.4,5067,861,6952.3,1509.8c258.4,90,704.4,310.1,851.8,421.1l114.8,86.1l5.7-710.1c5.7-823,9.6-798.1-187.6-991.5C7329.4-82.7,6393.4-367.9,5076.6-494.2c-367.5-34.4-1510.2-28.7-1894.9,11.5C1730.8-335.3,733.6,30.3,479,508.8c-44,80.4-44,91.9-49.8,807.7l-5.7,723.5l82.3-67C551.7,1936.7,657,1865.8,741.2,1814.2z M9574.6,202.5c0-733.1-5.7-780.9-112.9-926.4c-32.5-44-105.3-118.7-160.8-164.6c-158.9-134-708.2-386.6-974.3-451.7l-53.6-11.5v800.1v802l250.7,82.3c137.8,45.9,352.2,132.1,476.6,193.3c210.5,101.4,499.6,279.5,526.4,323.5C9566.9,914.6,9574.6,818.8,9574.6,202.5z M609.1-61.6C1135.5-425.3,1996.8-681.8,3124.2-810c424.9-47.9,1699.7-47.9,2120.8,0C6309.2-687.5,7172.5-438.7,7702.7-98c76.6,49.8,158.9,107.2,183.8,130.1l42.1,38.3v-715.8c0-815.4,1.9-796.3-164.6-974.3c-390.5-419.2-1481.5-744.6-2811.8-842.2c-344.5-24.9-1186.7-24.9-1531.2,0c-1426,105.3-2524.6,451.7-2878.7,913c-109.1,139.7-114.8,183.7-116.8,936c-1.9,668,0,683.3,34.4,656.5C480.9,28.4,547.9-17.6,609.1-61.6z M9545.9-2530.7c-80.4-273.7-539.8-572.3-1173.3-761.8l-99.5-28.7v807.7v807.7l258.4,84.2c312,101.4,696.7,287.1,890,428.7l143.6,105.3l5.7-671.8C9574.6-2314.5,9570.8-2448.4,9545.9-2530.7z M969-2224.5c1286.2-627.8,3619.5-780.9,5399.6-352.2c635.5,153.1,1144.6,363.7,1464.3,606.8l86.1,67l5.7-704.4l3.8-704.4l-51.7-107.2C7647.1-3889.7,6627-4263,5172.3-4408.4c-461.3-45.9-1540.8-45.9-1990.6,0C1730.8-4259.1,733.6-3893.6,479-3415c-44,80.4-44,91.9-49.8,803.9l-5.7,723.5l149.3-109.1C655.1-2054.2,833.1-2157.5,969-2224.5z"/></g></g>
</svg>