<?xml version="1.0" encoding="utf-8"?>
<!-- Svg Vector Icons : http://www.onlinewebfonts.com/icon -->
<!DOCTYPE svg PUBLIC "-//W3C//DTD SVG 1.1//EN" "http://www.w3.org/Graphics/SVG/1.1/DTD/svg11.dtd">
<svg version="1.1" xmlns="http://www.w3.org/2000/svg" xmlns:xlink="http://www.w3.org/1999/xlink" x="0px" y="0px" viewBox="0 0 1000 1000" enable-background="new 0 0 1000 1000" xml:space="preserve">
<metadata> Svg Vector Icons : http://www.onlinewebfonts.com/icon </metadata>
<g><g transform="translate(0.000000,239.000000) scale(0.100000,-0.100000)"><path d="M5450.2,2034.7c-19.7-7.9-728.5-137.8-1575.1-291.4C1851,1377.1,661.8,1160.5,358.5,1101.4l-244.2-47.3l-11.8-3674.1C98.6-4636.1,98.6-6290,106.5-6290c23.6,0,2004.4-358.3,2193.4-397.7c338.7-67,3240.8-586.8,3284.2-586.8c31.5,0,43.3,1327.1,43.3,4666.4c0,4418.3-3.9,4666.4-67,4662.5C5521.1,2054.4,5473.8,2046.5,5450.2,2034.7z M4091.6-867.5c0-27.6-189-413.5-417.4-854.5l-421.3-807.3l232.3-452.9c129.9-248.1,330.8-634,448.9-854.5c118.1-220.5,200.8-413.5,185.1-429.2c-11.8-11.8-204.8-11.8-429.2,3.9l-405.6,27.6l-252,582.8l-256,582.8l-240.2-535.5L2296-4143.8l-382-11.8c-259.9-7.9-382,3.9-382,31.5c0,23.6,177.2,378.1,393.8,787.6c216.6,405.6,393.8,756.1,393.8,779.7c0,19.7-157.5,362.3-354.4,760c-192.9,397.7-354.4,744.3-354.4,767.9c0,55.1,700.9,118.1,748.2,66.9c43.3-43.3,433.2-1012,433.2-1079c3.9-31.5,35.4,35.4,70.9,141.8c39.4,110.3,157.5,385.9,263.8,618.3l192.9,421.3l196.9,15.7C3981.4-812.4,4091.6-816.3,4091.6-867.5z"/><path d="M5989.7,691.9l11.8-267.8h720.6h716.7V-56.3v-484.4h-728.5h-728.5v-137.8v-137.8h728.5h728.5v-492.2v-492.2h-732.4h-728.5l11.8-126l11.8-129.9l720.6-11.8l716.7-7.9V-2549v-472.6h-728.5h-728.5v-137.8v-137.8h728.5h728.5v-492.2v-492.2h-728.5h-728.5v-137.8v-137.8h728.5h728.5v-472.5v-472.5h-728.5h-728.5v-334.7v-334.7h1949.2h1949.3l7.9,3563.8L9900,955.7H7938.9H5977.9L5989.7,691.9z M9250.2-68.1v-472.5h-767.9h-767.9v472.5v472.5h767.9h767.9V-68.1z M9250.2-1332.2v-468.6h-787.6h-787.6v472.5v472.5l760,7.9c413.5,7.9,767.9,7.9,787.6,0C9238.4-855.7,9250.2-1072.3,9250.2-1332.2z M9242.4-2537.2l-11.8-464.7l-756.1-11.8l-760-7.9v472.6v472.5h767.9h771.8L9242.4-2537.2z M9250.2-3789.4v-492.2h-760c-421.4,0-771.8,7.9-779.7,15.8c-7.9,7.9-11.8,232.3-4,492.2l11.8,476.5h767.9h763.9V-3789.4z M9250.2-5029.9v-472.5h-767.9h-767.9v472.5v472.5h767.9h767.9V-5029.9z"/></g></g>
</svg>