<?xml version="1.0" encoding="utf-8"?>
<!-- Svg Vector Icons : http://www.onlinewebfonts.com/icon -->
<!DOCTYPE svg PUBLIC "-//W3C//DTD SVG 1.1//EN" "http://www.w3.org/Graphics/SVG/1.1/DTD/svg11.dtd">
<svg version="1.1" xmlns="http://www.w3.org/2000/svg" xmlns:xlink="http://www.w3.org/1999/xlink" x="0px" y="0px" viewBox="0 0 1000 1000" enable-background="new 0 0 1000 1000" xml:space="preserve">
<metadata> Svg Vector Icons : http://www.onlinewebfonts.com/icon </metadata>
<g><g><g><path d="M792,569.7c33.9,0,61.5-27.6,61.5-61.5c0-33.9-27.6-61.4-61.5-61.4s-61.5,27.6-61.5,61.4C730.6,542.1,758.2,569.7,792,569.7z M792,493.3c8.2,0,15,6.7,15,14.9c0,8.2-6.7,15-15,15s-14.9-6.7-14.9-15C777.1,500,783.8,493.3,792,493.3z"/><path d="M811.4,344.7c-34.5-21.6-71.1-38.2-108.9-49.4c-18.6-5.5-37.4-9.7-56.5-12.6c-39.8-38.6-90.8-65-147.9-76.4c-44.9-9-78.1-5.6-79.5-5.5l-25.8,2.7l23.5,108.7c-8.1,3.5-16.2,7.2-24.2,11.2c-52.2,26.1-99.7,62.3-141.5,107.7L10,266.6l72.6,239.8c5.3,17.6,5.3,36.1,0,53.7L10,800l240.8-164.4c41.8,45.5,89.3,81.6,141.5,107.7c60.4,30.2,124.5,45.5,190.6,45.5c31.2,0,62.5-3.5,93-10.5l34.7-7.9l-21.2-28.6c-31.9-42.9-53.8-86.5-65.4-129.5c-9.1-34-11.7-67.7-7.8-100.3c6.6-55,29.9-88.7,30.8-90.1l27.5-36.8l-46.2-0.1c-0.3,0-0.5,0-0.8,0c-67.1,0-134.7,15.7-195.4,45.3c-30.7,15-56.9,31.4-80,50c-18.8,15.1-34.8,32.4-50.2,49c-5.7,6.2-11.7,12.6-17.6,18.7c-12.3,12.7-26.4,25.1-41.9,37L92.7,687.2l34.4-113.6c8-26.4,8-54.3,0-80.7L92.7,379.4l127.9,87.4l-29.4,36.4l36.2,29.2l45-55.7c83.9-98.3,194.1-152.4,310.4-152.4c71.8,0,140.5,20.1,204,59.8c57.4,35.9,108.5,87.3,148.5,149.2c-25.1,38.9-54.4,73.5-87.2,102.9c-31.6,28.4-65.9,51.4-102.3,68.8c-3.4-4.8-6.9-10.2-10.7-16.1c-45.6-72.7-60.4-135.3-46.5-196.7l-45.4-10.2c-9,39.8-7.9,81.1,3.1,122.8c9.3,35,25.4,70.7,49.4,108.9c8.9,14.1,16.7,25.3,24.7,35l11,13.4l16-6.8c47.2-19.9,91.5-48.3,131.6-84.4c39.5-35.5,74.3-77.7,103.4-125.4l7.4-12.1l-7.4-12.1C937.9,447.7,878.7,386.7,811.4,344.7z M317.7,580.4c6.3-6.4,12.4-13,18.3-19.4c15-16.2,29.2-31.4,45.3-44.4c20.4-16.4,43.7-30.9,71.3-44.4c42.8-20.9,89.3-34,136.4-38.7c-7.4,17.9-14.8,41.6-18.5,70.1c-5.1,38.8-2.3,78.8,8.2,118.9c10.2,39.1,27.8,78.2,52.5,116.8c-16,2.1-32.1,3.1-48.2,3.1c-109.1,0-212.8-47.6-294.5-134.6C298.8,598.8,308.6,589.7,317.7,580.4z M460.6,296l-10.6-49.2c26.5,1.4,69.5,7.8,112.7,31.5C528,280,493.8,285.9,460.6,296z"/></g></g><g></g><g></g><g></g><g></g><g></g><g></g><g></g><g></g><g></g><g></g><g></g><g></g><g></g><g></g><g></g></g>
</svg>