<?xml version="1.0" encoding="utf-8"?>
<!-- Svg Vector Icons : http://www.onlinewebfonts.com/icon -->
<!DOCTYPE svg PUBLIC "-//W3C//DTD SVG 1.1//EN" "http://www.w3.org/Graphics/SVG/1.1/DTD/svg11.dtd">
<svg version="1.1" xmlns="http://www.w3.org/2000/svg" xmlns:xlink="http://www.w3.org/1999/xlink" x="0px" y="0px" viewBox="0 0 1000 1000" enable-background="new 0 0 1000 1000" xml:space="preserve">
<metadata> Svg Vector Icons : http://www.onlinewebfonts.com/icon </metadata>
<g><g transform="translate(0.000000,511.000000) scale(0.100000,-0.100000)"><path d="M7626.9,4753.6c-35-21.9-603.9-582-1260.3-1240.6C5045,2184.8,5099.7,2252.6,5099.7,1963.8c0-181.6,67.8-319.5,253.8-514.2l148.8-157.5l-310.7-310.7l-310.7-310.7L3224.5,2324.8C1682,3863,1557.2,3981.2,1430.3,4038.1c-420.1,181.6-866.5,76.6-1142.2-271.3c-137.9-172.9-186-323.8-188.2-568.9c0-251.6,39.4-382.9,172.9-562.3c133.5-179.4,2091.8-2102.7,2229.6-2188c214.4-133.5,496.7-170.7,743.9-100.6l129.1,35l293.2-293.2c161.9-159.7,293.2-302,293.2-315.1c0-10.9-748.3-770.2-1665.1-1684.8C1281.5-2926.5,616.4-3609.1,587.9-3661.6c-63.4-120.4-76.6-345.7-30.6-485.8c43.8-135.7,159.7-271.3,291-350.1c78.8-45.9,137.8-59.1,266.9-67.8c317.3-17.5,190.4-124.7,2087.4,1765.7l1678.2,1676l1680.4-1678.2c1855.4-1857.6,1761.4-1774.5,2045.8-1772.3c354.5,2.2,614.9,267,617,628c0,284.5,67.8,205.7-1783.3,2056.8L5778-226.4l310.7,310.7L6399.4,395l151-144.4c199.1-186,328.2-247.2,529.5-247.2c273.5,0,238.5-28.4,1579.8,1315c1043.7,1048.1,1210,1223.1,1229.7,1299.7c50.3,192.5-83.2,382.9-271.3,382.9c-52.5,0-122.5-10.9-157.5-24.1c-32.8-10.9-481.4-442-997.7-956.2l-934.3-934.3l-223.2,225.4L7079.9,1535l945.2,945.2c595.1,597.3,949.6,967.1,956.2,1002.1c37.2,170.7,21.9,236.3-72.2,330.4c-76.6,76.6-96.3,85.3-196.9,85.3c-63.4,0-135.6-10.9-161.9-24.1c-26.3-13.1-468.3-444.2-982.4-956.2l-936.5-934.3l-223.2,225.4l-225.4,223.2l934.3,936.5c512,514.2,943,956.2,956.2,982.4c13.1,26.3,24.1,98.5,24.1,161.9c0,100.6-8.8,120.3-85.3,196.9c-76.6,78.8-94.1,85.3-201.3,85.3C7731.9,4795.1,7670.6,4779.8,7626.9,4753.6z"/></g></g>
</svg>