<?xml version="1.0" encoding="utf-8"?>
<!-- Svg Vector Icons : http://www.onlinewebfonts.com/icon -->
<!DOCTYPE svg PUBLIC "-//W3C//DTD SVG 1.1//EN" "http://www.w3.org/Graphics/SVG/1.1/DTD/svg11.dtd">
<svg version="1.1" xmlns="http://www.w3.org/2000/svg" xmlns:xlink="http://www.w3.org/1999/xlink" x="0px" y="0px" viewBox="0 0 1000 1000" enable-background="new 0 0 1000 1000" xml:space="preserve">
<metadata> Svg Vector Icons : http://www.onlinewebfonts.com/icon </metadata>
<g><g><g><g><path d="M500,80.2c-50.4,0-96,20.5-129,53.4l-0.8,0.7c-32.5,33-52.6,78.3-52.6,128.3c0,50.4,20.4,96,53.4,129c33,33,78.6,53.4,129,53.4c50.4,0,96-20.5,129-53.4c33-33,53.4-78.6,53.4-129c0-50.4-20.4-96.1-53.4-129.1l0,0C596,100.6,550.4,80.2,500,80.2L500,80.2z M349.3,112c38.5-38.6,91.8-62.4,150.7-62.4S612.1,73.4,650.7,112l0,0l0,0c38.6,38.6,62.4,91.8,62.4,150.6c0,58.9-23.9,112.1-62.4,150.7c-38.5,38.5-91.8,62.4-150.7,62.4c-58.9,0-112.1-23.9-150.7-62.4s-62.4-91.8-62.4-150.7c0-58.3,23.5-111.2,61.5-149.7L349.3,112z"/><path d="M500,159.3c-12.2,0-23.2,4.9-31.1,12.9c-7.9,8-12.9,19-12.9,31.1c0,12.2,4.9,23.2,12.9,31.1c7.9,7.9,19,12.9,31.1,12.9c12.2,0,23.2-4.9,31.1-12.9c7.9-7.9,12.9-19,12.9-31.1s-4.9-23.2-12.9-31.1C523.1,164.2,512.1,159.3,500,159.3L500,159.3z M447.2,150.5c13.5-13.5,32.2-21.9,52.8-21.9c20.6,0,39.3,8.4,52.8,21.9c13.5,13.5,21.9,32.2,21.9,52.8s-8.4,39.3-21.9,52.8C539.3,269.6,520.6,278,500,278c-20.6,0-39.3-8.4-52.8-21.9c-13.5-13.5-21.9-32.2-21.9-52.8S433.7,164,447.2,150.5z"/><path d="M422.7,312.7c-3.2,3.6-6.2,7.4-8.8,11.4c-3.5,5.3-6.5,10.9-9,16.7c10.7,13,24,23.8,39,31.5c16.7,8.6,35.9,13.5,56.1,13.5c20.3,0,39.4-4.9,56.1-13.5c15.1-7.7,28.4-18.5,39-31.5c-2.5-5.8-5.5-11.4-9-16.7l-0.6-1c-2.5-3.7-5.3-7.2-8.2-10.6c-9.2,6.5-19.3,11.9-30,16c-14.8,5.6-30.8,8.7-47.3,8.7c-16.6,0-32.5-3.1-47.3-8.7C442,324.6,431.9,319.2,422.7,312.7L422.7,312.7z M388.4,307.2c6.5-9.8,14.3-18.7,23-26.4l0,0c5.7-5,14.4-5.1,20.2,0c9.3,8.2,20,14.7,31.8,19.2c11.3,4.2,23.6,6.6,36.6,6.6c13,0,25.3-2.3,36.6-6.6c11.6-4.4,22.4-10.9,31.6-18.9c5.7-5.3,14.6-5.5,20.5-0.3c8.4,7.4,16,16,22.3,25.3l0.7,1c6.3,9.5,11.5,20.1,15.3,31.4h0c1.5,4.5,0.9,9.6-2.1,13.7c-14.2,19.7-33,36-54.8,47.2c-21.1,10.8-44.9,16.9-70.1,16.9c-25.1,0-49-6.1-70.1-16.9c-21.8-11.2-40.6-27.5-54.8-47.2c-2.8-3.9-3.7-8.9-2.1-13.7C376.8,327.3,382,316.8,388.4,307.2z"/><path d="M223.1,554.9c-50.4,0-96,20.5-129,53.4c-33,33-53.4,78.6-53.4,129c0,50.4,20.4,96,53.4,129c33,33,78.6,53.4,129,53.4s96-20.5,129-53.4c33-33,53.4-78.6,53.4-129c0-50.4-20.5-96-53.4-129C319.1,575.4,273.5,554.9,223.1,554.9L223.1,554.9z M72.4,586.7c38.5-38.5,91.8-62.4,150.7-62.4s112.2,23.9,150.7,62.4s62.4,91.8,62.4,150.7c0,58.8-23.9,112.1-62.4,150.7c-38.5,38.5-91.8,62.4-150.7,62.4s-112.2-23.9-150.7-62.4C33.9,849.5,10,796.2,10,737.4C10,678.5,33.9,625.2,72.4,586.7z"/><path d="M223.1,634c-12.2,0-23.2,4.9-31.1,12.9c-7.9,7.9-12.9,18.9-12.9,31.1c0,12.2,4.9,23.2,12.9,31.1c8,7.9,19,12.9,31.1,12.9c12.2,0,23.2-4.9,31.1-12.8l0,0l0,0c8-8,12.9-19,12.9-31.1c0-12.2-4.9-23.2-12.9-31.1l-0.8-0.8C245.6,638.6,234.9,634,223.1,634L223.1,634z M170.3,625.2c13.5-13.5,32.2-21.9,52.8-21.9c20.1,0,38.3,7.9,51.7,20.9l1.1,1c13.5,13.5,21.9,32.2,21.9,52.8c0,20.6-8.4,39.3-21.9,52.8l0,0c-13.5,13.5-32.2,21.9-52.7,21.9c-20.6,0-39.3-8.4-52.8-21.9c-13.5-13.5-21.9-32.2-21.9-52.8C148.4,657.4,156.8,638.7,170.3,625.2z"/><path d="M145.8,787.4c-3.2,3.6-6.2,7.4-8.8,11.5l0,0.1l0,0c-3.5,5.3-6.6,10.9-9,16.7c10.7,13,24,23.7,39,31.5c16.7,8.6,35.9,13.5,56.2,13.5s39.4-4.9,56.1-13.5c15.1-7.7,28.4-18.5,39-31.5c-2.5-5.9-5.6-11.5-9.1-16.8c-2.6-4-5.6-7.8-8.8-11.4c-9.2,6.5-19.3,11.9-30,16c-14.8,5.6-30.8,8.7-47.3,8.7s-32.5-3.1-47.3-8.7C165.1,799.3,155,793.9,145.8,787.4L145.8,787.4z M111.5,781.9c6.4-9.6,14.1-18.4,22.7-26.1c5.6-5.3,14.5-5.5,20.5-0.2c9.3,8.2,20.1,14.7,31.8,19.2c11.3,4.2,23.6,6.6,36.6,6.6s25.3-2.4,36.5-6.6c11.6-4.4,22.4-10.8,31.6-18.9c5.7-5.3,14.6-5.5,20.5-0.3c8.7,7.7,16.5,16.6,23,26.4c6.3,9.6,11.6,20.1,15.3,31.3h0c1.5,4.5,0.9,9.6-2.1,13.7c-14.2,19.7-33,36-54.8,47.2c-21.1,10.8-44.9,16.9-70.1,16.9s-49-6.1-70.1-16.9c-21.8-11.2-40.6-27.5-54.8-47.2c-2.8-3.9-3.7-8.9-2.1-13.7C99.9,802,105.1,791.4,111.5,781.9L111.5,781.9L111.5,781.9z"/><path d="M776.9,554.9c-50.4,0-96,20.5-129,53.4c-33,33-53.4,78.6-53.4,129c0,50.4,20.5,96,53.4,129c33,33,78.6,53.4,129,53.4c50.4,0,96-20.5,129-53.4c33-33,53.4-78.6,53.4-129c0-50.4-20.5-96-53.4-129C872.9,575.4,827.3,554.9,776.9,554.9L776.9,554.9z M626.2,586.7c38.5-38.5,91.8-62.4,150.7-62.4c58.8,0,112.1,23.9,150.7,62.4c38.5,38.5,62.4,91.8,62.4,150.7c0,58.8-23.9,112.1-62.4,150.7c-38.5,38.5-91.8,62.4-150.7,62.4c-58.9,0-112.2-23.9-150.7-62.4c-38.5-38.5-62.4-91.8-62.4-150.7C563.8,678.5,587.7,625.2,626.2,586.7z"/><path d="M776.9,634c-12.2,0-23.2,4.9-31.1,12.9c-8,8-12.9,19-12.9,31.1c0,12.2,4.9,23.2,12.9,31.1c7.9,7.9,19,12.9,31.1,12.9c12.2,0,23.2-4.9,31.1-12.8l0,0l0,0c7.9-8,12.9-19,12.9-31.1c0-12.2-4.9-23.2-12.9-31.1l-0.8-0.8C799.4,638.6,788.7,634,776.9,634L776.9,634z M724.1,625.2c13.5-13.5,32.2-21.9,52.8-21.9c20,0,38.3,7.9,51.7,20.9l1.1,1c13.5,13.5,21.9,32.2,21.9,52.8c0,20.6-8.4,39.3-21.9,52.8l0,0c-13.5,13.5-32.2,21.9-52.7,21.9c-20.6,0-39.3-8.4-52.8-21.9c-13.5-13.5-21.9-32.2-21.9-52.8C702.2,657.4,710.6,638.7,724.1,625.2z"/><path d="M699.6,787.4c-3.2,3.6-6.2,7.4-8.8,11.5l0,0.1l0,0c-3.5,5.3-6.6,10.9-9,16.7c10.7,13,24,23.7,39,31.5c16.7,8.6,35.9,13.5,56.2,13.5c20.3,0,39.4-4.9,56.1-13.5c15.1-7.7,28.3-18.5,39-31.5c-2.5-5.8-5.5-11.4-9-16.7l-0.6-1c-2.5-3.7-5.3-7.2-8.2-10.6c-9.2,6.5-19.3,11.9-30,16c-14.8,5.6-30.8,8.7-47.3,8.7c-16.6,0-32.5-3.1-47.3-8.7C718.9,799.3,708.8,793.9,699.6,787.4L699.6,787.4z M665.3,781.9c6.4-9.6,14.1-18.4,22.7-26.1c5.6-5.3,14.5-5.5,20.5-0.2c9.3,8.2,20.1,14.7,31.8,19.2c11.3,4.2,23.6,6.6,36.6,6.6c13,0,25.3-2.4,36.5-6.6c11.6-4.4,22.4-10.8,31.6-18.9c5.7-5.3,14.6-5.5,20.5-0.3c8.4,7.4,15.9,15.9,22.2,25.2l0.8,1.1c6.3,9.5,11.5,20.1,15.3,31.3h0c1.5,4.5,0.9,9.7-2.1,13.8c-14.2,19.7-33,36-54.8,47.2c-21.1,10.8-44.9,16.9-70,16.9c-25.1,0-49-6.1-70.1-16.9c-21.8-11.2-40.6-27.5-54.8-47.2c-2.8-3.9-3.7-8.9-2.1-13.8C653.8,802,659,791.5,665.3,781.9L665.3,781.9L665.3,781.9L665.3,781.9z"/><path d="M661.6,508.8c4.2,7.3,1.7,16.7-5.6,20.9c-7.3,4.2-16.7,1.7-20.9-5.6l-9.7-16.6l-9.7-16.6c-4.2-7.3-1.7-16.7,5.6-20.9c7.3-4.2,16.7-1.7,20.9,5.6l9.7,16.6L661.6,508.8z"/><path d="M480.2,752.7c-8.5,0-15.3-6.9-15.3-15.3c0-8.5,6.9-15.3,15.3-15.3h39.6c8.5,0,15.3,6.9,15.3,15.3c0,8.5-6.9,15.3-15.3,15.3H480.2z"/><path d="M364.8,524.1c-4.2,7.3-13.6,9.8-20.9,5.6c-7.3-4.2-9.8-13.6-5.6-20.9l9.7-16.6l9.7-16.6c4.2-7.3,13.6-9.8,20.9-5.6c7.3,4.2,9.8,13.6,5.6,20.9l-9.7,16.6L364.8,524.1z"/></g></g></g><g></g><g></g><g></g><g></g><g></g><g></g><g></g><g></g><g></g><g></g><g></g><g></g><g></g><g></g><g></g></g>
</svg>