<?xml version="1.0" encoding="utf-8"?>
<!-- Svg Vector Icons : http://www.onlinewebfonts.com/icon -->
<!DOCTYPE svg PUBLIC "-//W3C//DTD SVG 1.1//EN" "http://www.w3.org/Graphics/SVG/1.1/DTD/svg11.dtd">
<svg version="1.1" xmlns="http://www.w3.org/2000/svg" xmlns:xlink="http://www.w3.org/1999/xlink" x="0px" y="0px" viewBox="0 0 1000 1000" enable-background="new 0 0 1000 1000" xml:space="preserve">
<metadata> Svg Vector Icons : http://www.onlinewebfonts.com/icon </metadata>
<g><g transform="translate(0.000000,511.000000) scale(0.100000,-0.100000)"><path d="M3533.4,4468.3c-245-300.1-526.8-655.4-627.8-790.2c-952.5-1264.9-1271-2199-964.7-2851.3c131.7-278.7,327.7-471.6,820.8-799.3c649.3-431.8,774.8-578.9,774.8-903.5c0-214.4-39.8-355.2-186.8-649.3c-376.7-759.5-1381.3-1905-2560.4-2924.8c-107.2-91.9-192.9-186.8-192.9-214.4c0-64.3,58.2-125.5,122.5-125.5c122.5,0,1378.2,1203.6,1917.2,1837.6c499.2,588,851.4,1114.8,1026,1525.2c140.9,333.8,159.3,664.6,52.1,900.4c-116.4,254.2-232.7,361.4-777.9,728.9C2660.6,392,2385,600.2,2323.7,670.7c-318.5,367.5-333.8,836.1-45.9,1528.3c205.2,490,704.4,1218.9,1451.7,2122.4c410.4,496.2,444.1,548.2,401.2,621.7C4048,5074.7,3986.7,5025.8,3533.4,4468.3z"/><path d="M5946.8,4851.2c-851.4-1335.3-1013.7-1807-787.1-2275.5c205.2-422.6,686-673.8,1758-921.9C8158,1369,8957.4,689,9128.9-226.7c180.7-952.5-294-2309.2-1384.3-3975.3c-159.3-242-287.9-456.3-287.9-477.8c0-52,64.3-110.2,125.6-110.2c64.3,0,229.7,223.6,557.4,750.3c634,1022.9,1038.2,1929.5,1203.6,2710.4C9429-928,9422.9-309.4,9327.9-12.3C9095.2,731.9,8599,1255.6,7769.1,1629.3c-281.8,128.6-539,205.2-1258.8,376.7c-808.5,196-1194.4,499.2-1197.5,940.2c0,315.4,134.8,627.8,615.6,1408.8c165.4,269.5,303.2,511.5,303.2,536c0,24.5-15.3,61.3-36.8,82.7C6121.4,5047.2,6050.9,5010.4,5946.8,4851.2z"/><path d="M3334.4,3077.9c-297.1-456.3-441-878.9-382.8-1130.1c49-223.6,306.3-428.8,416.5-336.9c73.5,61.3,52.1,131.7-67.4,235.8c-110.2,88.8-116.4,107.2-116.4,260.3c3.1,183.8,131.7,490,355.3,842.2c128.6,205.2,140.9,251.1,82.7,309.3C3542.6,3338.2,3475.3,3295.4,3334.4,3077.9z"/><path d="M7370.9,686c-76.6-76.6-36.8-147,159.3-269.5c358.3-226.6,532.9-490,560.5-839.2c21.4-254.2-52.1-517.6-245-885.1c-165.4-318.5-168.4-392-30.6-413.5c79.6-12.3,159.3,94.9,315.4,431.8c162.3,346.1,235.8,728.9,192.9,989.2c-64.3,370.6-272.6,670.7-634,906.6C7499.6,728.9,7432.2,747.2,7370.9,686z"/><path d="M4923.9-784.1c-12.2-21.4-24.5-205.2-24.5-404.3c3.1-309.3,9.2-370.6,55.1-398.1c79.6-49,153.1,12.3,183.8,153.1c36.8,162.3,9.2,578.9-39.8,637C5052.5-738.1,4963.7-732,4923.9-784.1z"/><path d="M4715.6-2027.5c-18.4-12.3-98-134.8-177.6-275.6c-269.5-471.7-548.2-830-1065.8-1390.4c-165.4-177.6-303.2-346.1-303.2-367.5c0-58.2,61.3-116.4,122.5-116.4c55.1,0,413.5,358.3,722.8,722.8c398.1,468.6,869.8,1179.1,869.8,1313.9C4884.1-2033.6,4792.2-1972.4,4715.6-2027.5z"/></g></g>
</svg>