<?xml version="1.0" encoding="utf-8"?>
<!-- Svg Vector Icons : http://www.onlinewebfonts.com/icon -->
<!DOCTYPE svg PUBLIC "-//W3C//DTD SVG 1.1//EN" "http://www.w3.org/Graphics/SVG/1.1/DTD/svg11.dtd">
<svg version="1.1" xmlns="http://www.w3.org/2000/svg" xmlns:xlink="http://www.w3.org/1999/xlink" x="0px" y="0px" viewBox="0 0 1000 1000" enable-background="new 0 0 1000 1000" xml:space="preserve">
<metadata> Svg Vector Icons : http://www.onlinewebfonts.com/icon </metadata>
<g><path d="M952,10.1H47.9C27.1,10.1,10,27,10,47.8v904.4c0,20.8,17.1,37.7,37.9,37.7H952c20.9,0,38-16.9,38-37.7V47.8C990,27,972.9,10.1,952,10.1L952,10.1z M260.3,914.5L260.3,914.5H85.4v-73.8h56.1c20.9,0,37.8-17.1,37.8-38c0-20.9-16.9-37.7-37.8-37.7H85.4V638.7h56.1c20.9,0,37.8-16.9,37.8-38c0-20.6-16.9-37.7-37.8-37.7H85.4V436.7h56.1c20.9,0,37.8-16.8,37.8-37.7c0-20.6-16.9-37.7-37.8-37.7H85.4V235.1h56.1c20.9,0,37.8-16.6,37.8-38c0-20.6-16.9-37.5-37.8-37.5H85.4V85.5h174.9V914.5L260.3,914.5z M914.6,914.5L914.6,914.5H305.3V85.5h609.2V914.5L914.6,914.5z M455.9,719.2L455.9,719.2h307.8c12.6,0,23-10.5,23-23V663c0-16.1-3.4-31.9-9.6-46c-6.1-14.4-15-28.3-26.2-39c-10.7-11.2-24.6-20.3-39.3-26.2l-5.3-2.4l3.9-3.5c25.2-25.2,41-61,41-100.1c0-38.8-15.8-74.4-41-99.5c-25.6-25.7-61.4-41.7-100.6-41.7c-39,0-74.3,16-99.5,41.7c-25.6,25.1-41.7,60.7-41.7,99.5c0,39.1,16.1,74.9,41.7,100.1l3.2,3.5c-17.1,6.2-32.1,15.8-44.7,28.6c-10.9,10.7-20.1,24.6-26.1,39c-6,14.2-9.4,30-9.4,46v33.1C433.1,708.8,443.3,719.2,455.9,719.2L455.9,719.2z M541.8,377.9L541.8,377.9c17.4-17.4,41.7-28.1,67.9-28.1c26.7,0,50.9,10.7,68.5,28.1c17.2,17.4,27.9,41.5,27.9,67.9c0,26.8-10.7,50.8-27.9,68.5c-17.3,16.6-40.6,27.6-66.9,27.8h-2.6c-26.2-0.3-49.8-11.2-66.9-27.8c-17.1-17.7-28.1-41.7-28.1-68.5C513.6,419.4,524.7,395.3,541.8,377.9L541.8,377.9z M478.6,663L478.6,663c0-10.2,1.9-20.1,6-28.4c3.2-9.6,9-17.7,16.3-25.2c13.4-13.3,32.7-22.2,53.7-22.2h111.3c10.2,0,19.8,2.4,28.9,5.9c9.1,4,17.1,9.4,24.4,16.3c7,7.5,12.5,15.5,16.3,25.2c3.8,8.3,6,18.2,6,28.4v10.7H478.6V663L478.6,663z"/></g>
</svg>