<?xml version="1.0" encoding="utf-8"?>
<!-- Svg Vector Icons : http://www.onlinewebfonts.com/icon -->
<!DOCTYPE svg PUBLIC "-//W3C//DTD SVG 1.1//EN" "http://www.w3.org/Graphics/SVG/1.1/DTD/svg11.dtd">
<svg version="1.1" xmlns="http://www.w3.org/2000/svg" xmlns:xlink="http://www.w3.org/1999/xlink" x="0px" y="0px" viewBox="0 0 1000 1000" enable-background="new 0 0 1000 1000" xml:space="preserve">
<metadata> Svg Vector Icons : http://www.onlinewebfonts.com/icon </metadata>
<g><path d="M500,990C229.8,990,10,770.2,10,500S229.8,10,500,10s490,219.8,490,490S770.2,990,500,990L500,990z M502.5,43.4C243.2,43.4,36,253.8,40.5,508c4.4,249.3,211.6,448.6,462,448.6c250.4,0,457.6-199.3,462-448.6C969,253.8,761.7,43.4,502.5,43.4L502.5,43.4z M514.5,529c-5.3,0.6-10.8-0.8-16.3-0.8c-4.8,0-9.5,0.9-14.2,0.4c-104.2,8.9-186.3,92.9-186.3,205.3h-20.4c0-102.1,68-189.9,161-217.3c-51.4-23-87.4-76.8-87.4-136.7c0-81.3,66.1-147.1,147.4-147.1c81.3,0,147.4,66.7,147.4,148c0,59-34.9,111-85,134.5c95,26,165.1,106.3,165.1,218.6h-20.4C705.3,621.5,620.8,535.7,514.5,529L514.5,529z M625.2,379.6c0-70-57-127-127-127c-70,0-127,57-127,127c0,65.2,49.4,119,112.7,126.1c5.8-0.4,11.6-0.7,17.5-0.7c4.4,0,8.8,0.2,13.2,0.4C576.9,497.3,625.2,444,625.2,379.6L625.2,379.6z"/></g>
</svg>