<?xml version="1.0" encoding="utf-8"?>
<!-- Svg Vector Icons : http://www.onlinewebfonts.com/icon -->
<!DOCTYPE svg PUBLIC "-//W3C//DTD SVG 1.1//EN" "http://www.w3.org/Graphics/SVG/1.1/DTD/svg11.dtd">
<svg version="1.1" xmlns="http://www.w3.org/2000/svg" xmlns:xlink="http://www.w3.org/1999/xlink" x="0px" y="0px" viewBox="0 0 1000 1000" enable-background="new 0 0 1000 1000" xml:space="preserve">
<metadata> Svg Vector Icons : http://www.onlinewebfonts.com/icon </metadata>
<g><g transform="translate(0.000000,511.000000) scale(0.100000,-0.100000)"><path d="M4670.2,5005.3c-613.4-40.2-1236.9-203.6-1795.1-475.2C1879.6,4050,1110.3,3285.7,604.9,2275C-53.8,965.2-68.9-651.4,564.7-1981.4c661.2-1382.8,1868-2363.3,3336.2-2702.7c505.3-118.2,1244.5-148.3,1757.4-77.9C7315-4528.2,8705.4-3507.4,9424.4-1999c1045.9,2199.8,319.3,4832.1-1712.1,6197.3c-666.2,447.5-1521,746.7-2272.8,797c-123.2,7.5-276.6,17.6-339.4,22.6C5037.3,5022.9,4843.7,5015.4,4670.2,5005.3z M5427,4625.7c447.5-163.4,862.3-588.3,1201.7-1226.9c155.9-291.6,291.7-628.5,264-656.2c-25.1-22.6-550.6-110.6-925.2-153.4c-158.4-17.6-575.7-32.7-967.9-32.7c-392.2,0-809.5,15.1-967.9,32.7c-379.6,42.7-900,130.7-925.2,155.9c-47.8,45.2,246.4,668.8,482.7,1020.7c329.3,495.3,754.2,827.1,1171.6,915.1C4931.7,4718.7,5245.9,4691,5427,4625.7z M3667.1,4361.7c-309.2-336.9-621-852.3-817.1-1357.6c-47.8-125.7-83-183.5-113.1-183.5c-95.5,0-1091.1,306.7-1138.9,349.5c-20.1,20.1,319.3,357,535.5,528c397.2,316.8,937.8,610.9,1410.4,766.8c143.3,47.8,271.5,88,281.6,90.5C3838.1,4555.3,3765.1,4467.3,3667.1,4361.7z M6447.7,4467.3c477.7-155.9,1015.7-447.5,1418-769.3c216.2-171,555.6-507.8,535.5-528c-47.8-42.7-1048.4-349.5-1141.4-349.5c-25.1,0-62.9,60.3-110.6,183.5C6953,3509.4,6641.3,4024.8,6332,4361.7c-98,105.6-173.5,193.6-165.9,193.6C6171.2,4555.3,6299.4,4515.1,6447.7,4467.3z M1841.9,2760.2c221.2-75.4,500.3-160.9,618.5-191.1l218.7-52.8l-47.8-168.4c-130.7-465.1-271.5-1365.2-271.5-1739.8c0-90.5-7.5-206.2-15.1-256.4l-17.6-95.5h-965.4H396.3l15.1,158.4c77.9,786.9,284.1,1453.2,633.6,2033.9c211.2,349.5,311.7,477.7,357,462.6C1424.5,2903.5,1623.1,2835.6,1841.9,2760.2z M8753.1,2765.2c472.6-663.7,746.7-1433,834.7-2350.7l15.1-158.4h-967.9H7667l-12.6,133.2c-5,70.4-22.6,294.2-37.7,495.3c-32.7,437.5-103.1,879.9-213.7,1312.4l-80.4,316.8l201.1,52.8c231.3,57.8,869.9,261.5,983,314.3c42.8,20.1,88,37.7,105.6,37.7C8627.4,2921.1,8690.3,2850.7,8753.1,2765.2z M3242.2,2395.7c626-115.6,935.2-140.8,1757.4-140.8c819.6,0,1133.9,25.1,1747.3,138.3c138.3,25.1,258.9,37.7,269,30.2c35.2-35.2,145.8-502.8,208.7-872.4c75.4-452.5,113.1-827.1,113.1-1096.2V256.2H4999.6H2661.5v208.7c0,243.9,57.8,822.1,113.1,1123.8c35.2,191.1,191.1,854.8,201.1,854.8C2975.7,2443.4,3096.4,2420.8,3242.2,2395.7z M2344.7-201.4c7.5-88,25.1-314.3,40.2-505.3c32.7-427.4,105.6-859.8,211.2-1277.2l80.5-319.3l-264-67.9c-145.8-37.7-442.5-130.7-656.2-203.6c-306.7-105.6-394.7-128.2-417.3-103.1c-72.9,75.4-319.3,470.1-432.4,691.4C630.1-1443.3,474.2-890.2,413.9-214L396.3-45.5h967.9h965.4L2344.7-201.4z M7337.7-244.1c0-417.4-105.6-1174.1-228.8-1661.8c-42.8-158.4-83-296.7-93-306.7c-10.1-7.5-95.5,0-193.6,17.6c-590.8,115.7-990.5,148.3-1810.1,150.8c-834.7,0-1123.8-22.6-1772.4-138.3c-143.3-27.6-264-45.2-266.5-42.7c-15.1,20.1-143.3,555.6-183.5,774.4c-65.4,336.9-128.2,937.8-128.2,1204.2v201.1h2338.1h2338.1V-244.1z M9587.8-201.4c-70.4-731.6-243.9-1327.4-545.6-1880.5c-105.6-193.6-364.6-595.8-397.2-616c-10.1-5-191.1,50.3-404.8,123.2c-213.7,72.9-507.9,165.9-653.7,203.6l-264,67.9l80.4,319.3c110.6,429.9,181,872.4,213.7,1309.8c15.1,201.1,32.7,424.9,37.7,497.8L7667-45.5h967.9h967.9L9587.8-201.4z M5992.6-2381.1c392.2-45.3,917.6-135.8,917.6-155.9c0-50.3-165.9-434.9-281.6-651.2C6291.8-3824.2,5882-4241.6,5414.4-4420c-123.2-47.8-198.6-60.4-414.8-60.4c-226.3,0-289.1,10.1-434.9,67.9c-467.6,181-912.6,648.6-1234.4,1299.8c-110.6,216.2-241.4,530.5-241.4,570.7c0,27.6,560.6,120.7,942.8,158.4c153.4,12.6,321.8,30.2,377.1,35.2C4592.3-2330.8,5763.9-2356,5992.6-2381.1z M2850-2790.9c196.1-507.8,507.9-1023.2,817.1-1357.6c98-108.1,173.5-196.1,165.9-196.1c-7.5,0-135.8,40.2-284.1,90.5c-485.2,160.9-1015.7,447.5-1415.4,766.8c-213.7,168.4-558.1,507.9-535.5,525.4c57.8,47.8,1020.7,349.5,1128.8,352C2769.6-2609.9,2792.2-2645.1,2850-2790.9z M7662-2710.5c193.6-57.8,429.9-130.7,522.9-165.9c95.5-32.7,186-67.9,206.2-75.4c77.9-25.1-487.7-530.5-890-797c-291.6-191.1-706.5-392.2-1050.9-505.4c-148.3-50.3-276.6-90.5-286.6-90.5c-10,0,40.2,60.4,110.6,133.2c316.8,321.8,648.6,857.3,864.8,1395.3c57.8,145.8,95.6,206.2,125.7,206.2C7287.4-2609.9,7465.9-2655.1,7662-2710.5z"/></g></g>
</svg>